<svg width="340" height="627" viewBox="0 0 340 627" fill="none" xmlns="http://www.w3.org/2000/svg">
<mask id="path-1-inside-1_2005_2720" fill="white">
<path fill-rule="evenodd" clip-rule="evenodd" d="M324 -6.99395e-07C332.836 -3.13138e-07 340 7.16342 340 16L340 185.038C340 191.505 336.107 197.336 330.134 199.815L324.866 202.002C318.893 204.482 315 210.313 315 216.78L315 611C315 619.837 307.837 627 299 627L41 627C32.1634 627 25 619.837 25 611L25 606.255C25 599.905 21.2441 594.155 15.4287 591.604L9.57126 589.033C3.75583 586.482 -2.53846e-05 580.732 -2.5107e-05 574.382L1.23357e-05 415.952C1.26133e-05 409.602 3.75587 403.852 9.5713 401.3L15.4287 398.73C21.2441 396.179 25 390.429 25 384.079L25 16C25 7.16343 32.1635 -1.3456e-05 41 -1.30697e-05L288.737 -2.2408e-06L324 -6.99395e-07Z"/>
</mask>
<path fill-rule="evenodd" clip-rule="evenodd" d="M324 -6.99395e-07C332.836 -3.13138e-07 340 7.16342 340 16L340 185.038C340 191.505 336.107 197.336 330.134 199.815L324.866 202.002C318.893 204.482 315 210.313 315 216.78L315 611C315 619.837 307.837 627 299 627L41 627C32.1634 627 25 619.837 25 611L25 606.255C25 599.905 21.2441 594.155 15.4287 591.604L9.57126 589.033C3.75583 586.482 -2.53846e-05 580.732 -2.5107e-05 574.382L1.23357e-05 415.952C1.26133e-05 409.602 3.75587 403.852 9.5713 401.3L15.4287 398.73C21.2441 396.179 25 390.429 25 384.079L25 16C25 7.16343 32.1635 -1.3456e-05 41 -1.30697e-05L288.737 -2.2408e-06L324 -6.99395e-07Z" fill="url(#paint0_linear_2005_2720)"/>
<path d="M15.4287 398.73L14.6251 396.899L15.4287 398.73ZM1.23357e-05 415.952L-1.99999 415.952L1.23357e-05 415.952ZM9.5713 401.3L10.3749 403.132L9.5713 401.3ZM9.57126 589.033L8.76767 590.865L9.57126 589.033ZM-2.5107e-05 574.382L1.99997 574.382L-2.5107e-05 574.382ZM15.4287 591.604L16.2323 589.772L15.4287 591.604ZM315 611L313 611L315 611ZM324.866 202.002L324.099 200.155L324.866 202.002ZM340 16L338 16L340 16ZM340 185.038L342 185.038L340 185.038ZM342 185.038L342 16L338 16L338 185.038L342 185.038ZM325.632 203.849L330.901 201.662L329.368 197.968L324.099 200.155L325.632 203.849ZM317 611L317 216.78L313 216.78L313 611L317 611ZM41 629L299 629L299 625L41 625L41 629ZM23 606.255L23 611L27 611L27 606.255L23 606.255ZM16.2323 589.772L10.3749 587.202L8.76767 590.865L14.6251 593.435L16.2323 589.772ZM1.99997 574.382L2.00001 415.952L-1.99999 415.952L-2.00003 574.382L1.99997 574.382ZM10.3749 403.132L16.2323 400.562L14.6251 396.899L8.76771 399.469L10.3749 403.132ZM23 16L23 384.079L27 384.079L27 16L23 16ZM288.737 -2L41 -2.00001L41 1.99999L288.737 2L288.737 -2ZM324 -2L288.737 -2L288.737 2L324 2L324 -2ZM27 16C27 8.268 33.268 1.99999 41 1.99999L41 -2.00001C31.0589 -2.00001 23 6.05886 23 16L27 16ZM16.2323 400.562C22.7746 397.691 27 391.223 27 384.079L23 384.079C23 389.635 19.7136 394.666 14.6251 396.899L16.2323 400.562ZM2.00001 415.952C2.00001 410.395 5.28639 405.365 10.3749 403.132L8.76771 399.469C2.22535 402.34 -1.99999 408.808 -1.99999 415.952L2.00001 415.952ZM10.3749 587.202C5.28635 584.969 1.99997 579.939 1.99997 574.382L-2.00003 574.382C-2.00003 581.526 2.22532 587.994 8.76767 590.865L10.3749 587.202ZM27 606.255C27 599.111 22.7746 592.643 16.2323 589.772L14.6251 593.435C19.7136 595.668 23 600.698 23 606.255L27 606.255ZM41 625C33.268 625 27 618.732 27 611L23 611C23 620.941 31.0589 629 41 629L41 625ZM313 611C313 618.732 306.732 625 299 625L299 629C308.941 629 317 620.941 317 611L313 611ZM324.099 200.155C317.38 202.944 313 209.504 313 216.78L317 216.78C317 211.121 320.406 206.019 325.632 203.849L324.099 200.155ZM342 16C342 6.05885 333.941 -2 324 -2L324 2C331.732 2 338 8.26799 338 16L342 16ZM338 185.038C338 190.696 334.594 195.799 329.368 197.968L330.901 201.662C337.62 198.873 342 192.313 342 185.038L338 185.038Z" fill="#83B3E2" mask="url(#path-1-inside-1_2005_2720)"/>
<path d="M22.6211 423.894C22.5072 423.943 22.3867 423.957 22.2598 423.938C22.1361 423.918 22.0303 423.866 21.9424 423.781L17.2695 419.592L17.2695 423.884L16 423.884L16 418.161C16 418.038 16.0342 417.922 16.1025 417.815C16.1742 417.71 16.2669 417.632 16.3809 417.58C16.4948 417.525 16.6136 417.507 16.7373 417.527C16.861 417.549 16.9684 417.601 17.0596 417.683L21.7324 421.882L21.7324 417.58L23.002 417.58L23.002 423.313C23.002 423.436 22.9661 423.55 22.8945 423.654C22.8262 423.762 22.735 423.842 22.6211 423.894ZM18.8613 430.598L18.8613 426.589L20.1406 426.589L20.1406 430.598L18.8613 430.598ZM16 431.169L16 426.589C16 426.413 16.0309 426.221 16.0928 426.013C16.1546 425.805 16.2555 425.611 16.3955 425.432C16.5387 425.256 16.7227 425.108 16.9473 424.988C17.1751 424.871 17.4535 424.812 17.7822 424.812L22.3623 424.812C22.4502 424.812 22.5332 424.828 22.6113 424.861C22.6895 424.893 22.7578 424.937 22.8164 424.993C22.875 425.051 22.9206 425.12 22.9531 425.198C22.9857 425.276 23.002 425.36 23.002 425.452L23.002 431.169L21.7324 431.169L21.7324 426.081L17.7822 426.081C17.6162 426.081 17.4893 426.125 17.4014 426.213C17.3135 426.301 17.2695 426.43 17.2695 426.599L17.2695 431.169L16 431.169ZM20.6484 439.197C20.3587 439.197 20.0999 439.161 19.8721 439.089C19.6442 439.018 19.4424 438.92 19.2666 438.796C19.0941 438.676 18.946 438.536 18.8223 438.377C18.6986 438.217 18.596 438.049 18.5146 437.874C18.4365 437.701 18.3796 437.525 18.3437 437.346C18.3079 437.171 18.29 437.004 18.29 436.848L16 439.5L16 437.537L18.29 434.89L18.29 433.977L19.5596 433.977L19.5596 436.848C19.5726 437.008 19.6051 437.153 19.6572 437.283C19.7126 437.416 19.7858 437.53 19.877 437.625C19.9681 437.722 20.0771 437.797 20.2041 437.849C20.3343 437.901 20.4824 437.927 20.6484 437.927L21.4492 437.927C21.5208 437.927 21.5745 437.918 21.6104 437.898C21.6494 437.882 21.6771 437.859 21.6934 437.83C21.7129 437.804 21.7243 437.774 21.7275 437.742C21.7308 437.713 21.7324 437.685 21.7324 437.659L21.7324 433.469L16 433.469L16 432.2L22.3623 432.2C22.4502 432.2 22.5332 432.216 22.6113 432.249C22.6895 432.281 22.7578 432.325 22.8164 432.38C22.875 432.439 22.9206 432.507 22.9531 432.586C22.9857 432.664 23.002 432.748 23.002 432.839L23.002 437.659C23.002 437.942 22.9499 438.181 22.8457 438.377C22.7448 438.572 22.6162 438.73 22.46 438.85C22.307 438.974 22.1409 439.062 21.9619 439.114C21.7829 439.169 21.6152 439.197 21.459 439.197L20.6484 439.197ZM18.832 447.62C18.4056 447.62 18.0133 447.547 17.6553 447.4C17.2972 447.254 16.988 447.05 16.7275 446.79C16.4671 446.529 16.2637 446.22 16.1172 445.862C15.974 445.507 15.9023 445.12 15.9023 444.7L15.9023 442.981C15.9023 442.561 15.974 442.172 16.1172 441.814C16.2637 441.456 16.4671 441.147 16.7275 440.887C16.988 440.626 17.2972 440.421 17.6553 440.271C18.0133 440.125 18.4056 440.052 18.832 440.052L20.1699 440.052C20.5931 440.052 20.9837 440.125 21.3418 440.271C21.7031 440.421 22.0124 440.626 22.2695 440.887C22.5299 441.147 22.7334 441.456 22.8799 441.814C23.0264 442.172 23.0996 442.561 23.0996 442.981L23.0996 444.7C23.0996 445.12 23.0264 445.507 22.8799 445.862C22.7334 446.22 22.5299 446.529 22.2695 446.79C22.0124 447.05 21.7031 447.254 21.3418 447.4C20.9837 447.547 20.5931 447.62 20.1699 447.62L18.832 447.62ZM20.1699 446.35C20.4206 446.35 20.6468 446.31 20.8486 446.228C21.0537 446.15 21.2279 446.038 21.3711 445.891C21.5176 445.748 21.6299 445.574 21.708 445.369C21.7894 445.167 21.8301 444.944 21.8301 444.7L21.8301 442.981C21.8301 442.734 21.7894 442.508 21.708 442.303C21.6299 442.101 21.5176 441.927 21.3711 441.78C21.2279 441.634 21.0537 441.52 20.8486 441.438C20.6468 441.36 20.4206 441.321 20.1699 441.321L18.832 441.321C18.5814 441.321 18.3535 441.36 18.1484 441.438C17.9466 441.52 17.7725 441.634 17.626 441.78C17.4827 441.927 17.3704 442.101 17.2891 442.303C17.2109 442.508 17.1719 442.734 17.1719 442.981L17.1719 444.69C17.1719 444.938 17.2109 445.162 17.2891 445.364C17.3704 445.569 17.4827 445.745 17.626 445.891C17.7725 446.038 17.9466 446.15 18.1484 446.228C18.3535 446.31 18.5814 446.35 18.832 446.35L20.1699 446.35ZM17.5381 455.662C17.3818 455.662 17.2142 455.634 17.0352 455.579C16.8561 455.527 16.6901 455.439 16.5371 455.315C16.3841 455.195 16.2555 455.037 16.1514 454.842C16.0505 454.646 16 454.407 16 454.124L16 449.305C16 449.214 16.0163 449.129 16.0488 449.051C16.0814 448.973 16.1253 448.904 16.1807 448.846C16.2393 448.79 16.3076 448.746 16.3857 448.714C16.4639 448.681 16.5485 448.665 16.6396 448.665L22.3623 448.665C22.4502 448.665 22.5332 448.681 22.6113 448.714C22.6895 448.746 22.7578 448.79 22.8164 448.846C22.875 448.904 22.9206 448.973 22.9531 449.051C22.9857 449.129 23.002 449.214 23.002 449.305L23.002 453.553C23.002 453.709 22.9743 453.877 22.9189 454.056C22.8636 454.235 22.7741 454.401 22.6504 454.554C22.5299 454.71 22.3721 454.839 22.1768 454.939C21.9814 455.044 21.7422 455.096 21.459 455.096L21.2197 455.096C20.9951 455.096 20.7526 455.058 20.4922 454.983C20.235 454.909 19.9909 454.788 19.7598 454.622C19.6719 454.765 19.5661 454.899 19.4424 455.022C19.3187 455.149 19.1755 455.26 19.0127 455.354C18.8499 455.449 18.666 455.524 18.4609 455.579C18.2559 455.634 18.0296 455.662 17.7822 455.662L17.5381 455.662ZM17.7822 454.393C17.9482 454.393 18.0964 454.367 18.2266 454.314C18.36 454.262 18.474 454.189 18.5684 454.095C18.6628 454 18.7344 453.886 18.7832 453.753C18.8353 453.619 18.8613 453.47 18.8613 453.304L18.8613 450.442L20.1406 450.442L20.1406 452.732C20.1406 452.898 20.165 453.048 20.2139 453.182C20.2659 453.315 20.3392 453.429 20.4336 453.523C20.528 453.618 20.6403 453.689 20.7705 453.738C20.904 453.79 21.0537 453.816 21.2197 453.816L21.459 453.816C21.6413 453.816 21.7324 453.729 21.7324 453.553L21.7324 449.935L17.2695 449.935L17.2695 454.124C17.2695 454.147 17.2712 454.174 17.2744 454.207C17.2777 454.24 17.2874 454.269 17.3037 454.295C17.32 454.321 17.3477 454.344 17.3867 454.363C17.4258 454.383 17.4795 454.393 17.5478 454.393L17.7822 454.393ZM16 463.441L16 462.171L17.7187 462.171L17.7187 457.708L16 457.708L16 456.439L19.501 456.439C20.012 456.439 20.4824 456.527 20.9121 456.702C21.3418 456.878 21.7113 457.122 22.0205 457.435C22.3298 457.747 22.5706 458.117 22.7432 458.543C22.9157 458.97 23.002 459.435 23.002 459.94L23.002 462.801C23.002 462.889 22.9857 462.972 22.9531 463.05C22.9206 463.128 22.875 463.196 22.8164 463.255C22.7578 463.314 22.6895 463.359 22.6113 463.392C22.5332 463.424 22.4502 463.441 22.3623 463.441L16 463.441ZM18.9883 457.708L18.9883 462.171L21.7324 462.171L21.7324 459.94C21.7324 459.901 21.7259 459.818 21.7129 459.691C21.7031 459.567 21.6755 459.422 21.6299 459.256C21.5843 459.093 21.5143 458.921 21.4199 458.738C21.3255 458.556 21.1953 458.389 21.0293 458.236C20.8633 458.083 20.6549 457.956 20.4043 457.855C20.1569 457.757 19.8558 457.708 19.501 457.708L18.9883 457.708ZM18.0605 471.449C17.8099 471.449 17.5837 471.416 17.3818 471.351C17.1833 471.289 17.0075 471.206 16.8545 471.102C16.7015 470.998 16.5713 470.876 16.4639 470.736C16.3564 470.596 16.2686 470.451 16.2002 470.301C16.1318 470.151 16.0814 469.998 16.0488 469.842C16.0163 469.689 16 469.544 16 469.408L16 464.51L17.2695 464.51L17.2695 469.408C17.2695 469.652 17.3411 469.841 17.4844 469.974C17.6276 470.111 17.8197 470.179 18.0605 470.179C18.1777 470.179 18.2852 470.161 18.3828 470.125C18.4805 470.09 18.5651 470.038 18.6367 469.969C18.7083 469.904 18.7637 469.823 18.8027 469.725C18.8418 469.631 18.8613 469.525 18.8613 469.408L18.8613 466.488C18.8613 466.283 18.8971 466.061 18.9687 465.824C19.0436 465.586 19.1624 465.365 19.3252 465.16C19.488 464.958 19.7012 464.788 19.9648 464.652C20.2285 464.518 20.5508 464.452 20.9316 464.452C21.3125 464.452 21.6331 464.518 21.8936 464.652C22.1572 464.788 22.3704 464.958 22.5332 465.16C22.6992 465.365 22.818 465.586 22.8896 465.824C22.9645 466.061 23.002 466.283 23.002 466.488L23.002 470.809L21.7324 470.809L21.7324 466.488C21.7324 466.247 21.6592 466.058 21.5127 465.921C21.3662 465.788 21.1725 465.721 20.9316 465.721C20.6875 465.721 20.4938 465.788 20.3506 465.921C20.2106 466.058 20.1406 466.247 20.1406 466.488L20.1406 469.408L20.1406 469.417C20.1374 469.554 20.1178 469.699 20.082 469.852C20.0495 470.005 19.9974 470.156 19.9258 470.306C19.8542 470.459 19.763 470.604 19.6523 470.741C19.5449 470.877 19.4147 470.998 19.2617 471.102C19.1087 471.209 18.9329 471.294 18.7344 471.356C18.5358 471.418 18.3112 471.449 18.0605 471.449ZM18.8613 478.06L18.8613 474.051L20.1406 474.051L20.1406 478.06L18.8613 478.06ZM16 478.631L16 474.051C16 473.876 16.0309 473.684 16.0928 473.475C16.1546 473.267 16.2555 473.073 16.3955 472.894C16.5387 472.718 16.7227 472.57 16.9473 472.45C17.1751 472.333 17.4534 472.274 17.7822 472.274L22.3623 472.274C22.4502 472.274 22.5332 472.29 22.6113 472.323C22.6895 472.355 22.7578 472.399 22.8164 472.455C22.875 472.513 22.9206 472.582 22.9531 472.66C22.9857 472.738 23.002 472.823 23.002 472.914L23.002 478.631L21.7324 478.631L21.7324 473.544L17.7822 473.544C17.6162 473.544 17.4893 473.588 17.4014 473.675C17.3135 473.763 17.2695 473.892 17.2695 474.061L17.2695 478.631L16 478.631ZM18.832 486.932C18.4056 486.932 18.0133 486.859 17.6553 486.713C17.2972 486.566 16.988 486.363 16.7275 486.102C16.4671 485.842 16.2637 485.533 16.1172 485.175C15.974 484.82 15.9023 484.432 15.9023 484.013L15.9023 482.294C15.9023 481.874 15.974 481.485 16.1172 481.127C16.2637 480.769 16.4671 480.459 16.7275 480.199C16.988 479.939 17.2972 479.734 17.6553 479.584C18.0133 479.437 18.4056 479.364 18.832 479.364L20.1699 479.364C20.5931 479.364 20.9837 479.437 21.3418 479.584C21.7031 479.734 22.0124 479.939 22.2695 480.199C22.5299 480.459 22.7334 480.769 22.8799 481.127C23.0264 481.485 23.0996 481.874 23.0996 482.294L23.0996 484.013C23.0996 484.432 23.0264 484.82 22.8799 485.175C22.7334 485.533 22.5299 485.842 22.2695 486.102C22.0124 486.363 21.7031 486.566 21.3418 486.713C20.9837 486.859 20.5931 486.932 20.1699 486.932L18.832 486.932ZM20.1699 485.663C20.4206 485.663 20.6468 485.622 20.8486 485.541C21.0537 485.463 21.2279 485.35 21.3711 485.204C21.5176 485.061 21.6299 484.887 21.708 484.681C21.7894 484.48 21.8301 484.257 21.8301 484.013L21.8301 482.294C21.8301 482.046 21.7894 481.82 21.708 481.615C21.6299 481.413 21.5176 481.239 21.3711 481.093C21.2279 480.946 21.0537 480.832 20.8486 480.751C20.6468 480.673 20.4206 480.634 20.1699 480.634L18.832 480.634C18.5814 480.634 18.3535 480.673 18.1484 480.751C17.9466 480.832 17.7725 480.946 17.626 481.093C17.4827 481.239 17.3704 481.413 17.2891 481.615C17.2109 481.82 17.1719 482.046 17.1719 482.294L17.1719 484.003C17.1719 484.25 17.2109 484.475 17.2891 484.677C17.3704 484.882 17.4827 485.057 17.626 485.204C17.7725 485.35 17.9466 485.463 18.1484 485.541C18.3535 485.622 18.5814 485.663 18.832 485.663L20.1699 485.663ZM16.542 494.984C16.4508 494.984 16.3662 494.966 16.2881 494.931C16.21 494.898 16.1416 494.853 16.083 494.794C16.0277 494.739 15.9837 494.672 15.9512 494.594C15.9186 494.516 15.9023 494.433 15.9023 494.345C15.9023 494.267 15.917 494.187 15.9463 494.105C15.9756 494.027 16.0228 493.957 16.0879 493.896L20.9316 489.257L16 489.257L16 487.987L22.46 487.987C22.5902 487.987 22.7074 488.023 22.8115 488.095C22.9189 488.17 22.9987 488.264 23.0508 488.378C23.0996 488.498 23.111 488.622 23.085 488.749C23.0622 488.876 23.0036 488.985 22.9092 489.076L18.0703 493.715L23.0019 493.715L23.0019 494.984L16.542 494.984ZM18.8613 502.021L18.8613 498.012L20.1406 498.012L20.1406 502.021L18.8613 502.021ZM16 502.592L16 498.012C16 497.836 16.0309 497.644 16.0928 497.436C16.1546 497.227 16.2555 497.034 16.3955 496.855C16.5387 496.679 16.7227 496.531 16.9473 496.41C17.1751 496.293 17.4534 496.235 17.7822 496.235L22.3623 496.235C22.4502 496.235 22.5332 496.251 22.6113 496.283C22.6894 496.316 22.7578 496.36 22.8164 496.415C22.875 496.474 22.9206 496.542 22.9531 496.62C22.9857 496.698 23.0019 496.783 23.0019 496.874L23.0019 502.592L21.7324 502.592L21.7324 497.504L17.7822 497.504C17.6162 497.504 17.4893 497.548 17.4014 497.636C17.3135 497.724 17.2695 497.852 17.2695 498.022L17.2695 502.592L16 502.592ZM16 512.885L16 506.455L18.3486 506.455C18.4691 506.455 18.596 506.468 18.7295 506.494C18.8662 506.523 19.0013 506.567 19.1348 506.626C19.2682 506.684 19.3952 506.759 19.5156 506.85C19.6361 506.945 19.7419 507.057 19.833 507.187C19.9274 507.321 20.0023 507.474 20.0576 507.646C20.113 507.819 20.1406 508.014 20.1406 508.232L20.1406 511.093C20.1406 511.266 20.1829 511.393 20.2676 511.474C20.3555 511.559 20.4824 511.601 20.6484 511.601L21.21 511.601C21.3825 511.601 21.5127 511.559 21.6006 511.474C21.6885 511.39 21.7324 511.266 21.7324 511.103L21.7324 507.026L23.0019 507.026L23.0019 511.103C23.0019 511.318 22.9743 511.512 22.9189 511.684C22.8636 511.857 22.7887 512.008 22.6943 512.138C22.6032 512.272 22.4974 512.386 22.3769 512.48C22.2565 512.574 22.1296 512.651 21.9961 512.71C21.8659 512.771 21.7324 512.815 21.5957 512.841C21.4622 512.871 21.3369 512.885 21.2197 512.885L20.6484 512.885C20.3197 512.885 20.0413 512.825 19.8135 512.705C19.5889 512.588 19.4049 512.439 19.2617 512.26C19.1217 512.081 19.0192 511.888 18.9541 511.679C18.8922 511.474 18.8613 511.282 18.8613 511.103L18.8613 508.232C18.8613 508.128 18.8467 508.045 18.8174 507.983C18.7881 507.921 18.749 507.872 18.7002 507.837C18.6514 507.804 18.596 507.78 18.5342 507.763C18.4723 507.747 18.4105 507.734 18.3486 507.724L17.2695 507.724L17.2695 512.885L16 512.885ZM18.9297 521.972C18.6432 521.972 18.3714 521.935 18.1143 521.86C17.8603 521.789 17.6243 521.686 17.4062 521.553C17.1881 521.419 16.9928 521.261 16.8203 521.079C16.6478 520.897 16.4997 520.696 16.376 520.478C16.2555 520.263 16.1628 520.034 16.0977 519.79C16.0325 519.546 16 519.297 16 519.043L16 516.753C16 516.496 16.0325 516.245 16.0977 516.001C16.1628 515.757 16.2555 515.526 16.376 515.307C16.4997 515.093 16.6478 514.894 16.8203 514.712C16.9928 514.529 17.1881 514.372 17.4062 514.238C17.6243 514.108 17.8603 514.005 18.1143 513.93C18.3714 513.859 18.6432 513.823 18.9297 513.823L20.0723 513.823C20.5019 513.823 20.8958 513.903 21.2539 514.062C21.612 514.225 21.9196 514.442 22.1768 514.712C22.4372 514.982 22.639 515.293 22.7822 515.644C22.9287 515.999 23.0019 516.369 23.0019 516.753L23.0019 519.043C23.0019 519.297 22.9694 519.546 22.9043 519.79C22.8392 520.034 22.7448 520.263 22.6211 520.478C22.5006 520.696 22.3542 520.897 22.1816 521.079C22.0091 521.261 21.8138 521.419 21.5957 521.553C21.3776 521.686 21.14 521.789 20.8828 521.86C20.6289 521.935 20.3587 521.972 20.0723 521.972L18.9297 521.972ZM20.0723 520.693C20.3229 520.693 20.5508 520.648 20.7559 520.556C20.9609 520.465 21.1367 520.343 21.2832 520.19C21.4297 520.04 21.542 519.866 21.6201 519.668C21.6982 519.469 21.7357 519.261 21.7324 519.043L21.7324 516.753C21.7357 516.541 21.6982 516.334 21.6201 516.133C21.5452 515.934 21.4346 515.757 21.2881 515.6C21.1449 515.447 20.9691 515.324 20.7607 515.229C20.5557 515.138 20.3262 515.093 20.0723 515.093L18.9297 515.093C18.6758 515.093 18.4463 515.138 18.2412 515.229C18.0361 515.32 17.8603 515.443 17.7139 515.596C17.5706 515.749 17.46 515.924 17.3818 516.123C17.3037 516.325 17.2663 516.535 17.2695 516.753L17.2695 519.043C17.2695 519.293 17.3102 519.52 17.3916 519.721C17.4762 519.927 17.5918 520.101 17.7383 520.244C17.8848 520.387 18.0589 520.498 18.2607 520.576C18.4658 520.654 18.6888 520.693 18.9297 520.693L20.0723 520.693ZM21 520.141C20.9284 520.19 20.8503 520.223 20.7656 520.239C20.6842 520.255 20.6029 520.255 20.5215 520.239C20.4434 520.223 20.3685 520.19 20.2969 520.141C20.2285 520.096 20.1699 520.036 20.1211 519.961L17.8311 516.533C17.7887 516.478 17.7594 516.421 17.7432 516.362C17.7269 516.304 17.7187 516.243 17.7187 516.181C17.7187 516.077 17.7432 515.978 17.792 515.884C17.8408 515.789 17.9108 515.713 18.0019 515.654C18.0736 515.605 18.1501 515.573 18.2314 515.556C18.3161 515.54 18.3975 515.539 18.4756 515.552C18.557 515.568 18.6318 515.599 18.7002 515.644C18.7718 515.69 18.832 515.75 18.8809 515.825L21.1709 519.263C21.2197 519.334 21.2523 519.411 21.2686 519.492C21.2848 519.577 21.2848 519.658 21.2686 519.736C21.2523 519.818 21.2213 519.892 21.1758 519.961C21.1302 520.032 21.0716 520.093 21 520.141ZM16 529.272L16 522.842L18.3486 522.842C18.4691 522.842 18.596 522.855 18.7295 522.881C18.8662 522.91 19.0013 522.954 19.1348 523.013C19.2682 523.071 19.3952 523.146 19.5156 523.237C19.6361 523.332 19.7419 523.444 19.833 523.574C19.9274 523.708 20.0023 523.861 20.0576 524.033C20.113 524.206 20.1406 524.401 20.1406 524.619L20.1406 527.48C20.1406 527.653 20.1829 527.78 20.2676 527.861C20.3555 527.946 20.4824 527.988 20.6484 527.988L21.21 527.988C21.3825 527.988 21.5127 527.946 21.6006 527.861C21.6885 527.777 21.7324 527.653 21.7324 527.49L21.7324 523.413L23.0019 523.413L23.0019 527.49C23.0019 527.705 22.9743 527.899 22.9189 528.071C22.8636 528.244 22.7887 528.395 22.6943 528.525C22.6032 528.659 22.4974 528.773 22.3769 528.867C22.2565 528.962 22.1296 529.038 21.9961 529.097C21.8659 529.159 21.7324 529.202 21.5957 529.229C21.4622 529.258 21.3369 529.272 21.2197 529.272L20.6484 529.272C20.3197 529.272 20.0413 529.212 19.8135 529.092C19.5889 528.975 19.4049 528.826 19.2617 528.647C19.1217 528.468 19.0192 528.275 18.9541 528.066C18.8922 527.861 18.8613 527.669 18.8613 527.49L18.8613 524.619C18.8613 524.515 18.8467 524.432 18.8174 524.37C18.7881 524.308 18.749 524.259 18.7002 524.224C18.6514 524.191 18.596 524.167 18.5342 524.15C18.4723 524.134 18.4105 524.121 18.3486 524.111L17.2695 524.111L17.2695 529.272L16 529.272ZM17.7822 536.162C17.4534 536.162 17.1751 536.102 16.9473 535.982C16.7227 535.864 16.5387 535.716 16.3955 535.537C16.2555 535.362 16.1546 535.169 16.0928 534.961C16.0309 534.753 16 534.559 16 534.38L16 530.308L17.2695 530.308L17.2695 534.38C17.2695 534.553 17.3135 534.68 17.4014 534.761C17.4893 534.846 17.6162 534.888 17.7822 534.888L18.8613 534.888L18.8613 530.308L20.1406 530.308L20.1406 534.888L21.21 534.888C21.5583 534.888 21.7324 534.719 21.7324 534.38L21.7324 530.308L23.0019 530.308L23.0019 534.38C23.0019 534.598 22.9743 534.793 22.9189 534.966C22.8636 535.139 22.7887 535.29 22.6943 535.42C22.6032 535.554 22.4974 535.668 22.3769 535.762C22.2565 535.856 22.1296 535.933 21.9961 535.991C21.8659 536.05 21.7324 536.092 21.5957 536.118C21.4622 536.148 21.3369 536.162 21.2197 536.162L17.7822 536.162ZM16.6396 538.306C16.5518 538.306 16.4687 538.288 16.3906 538.252C16.3157 538.22 16.249 538.174 16.1904 538.116C16.1351 538.06 16.0911 537.994 16.0586 537.915C16.026 537.841 16.0098 537.761 16.0098 537.676C16.0098 537.588 16.026 537.505 16.0586 537.427C16.0911 537.352 16.1351 537.286 16.1904 537.227C16.249 537.172 16.3157 537.128 16.3906 537.095C16.4687 537.063 16.5518 537.046 16.6396 537.046C16.7243 537.046 16.804 537.063 16.8789 537.095C16.957 537.128 17.0238 537.172 17.0791 537.227C17.1377 537.286 17.1833 537.352 17.2158 537.427C17.2516 537.505 17.2695 537.588 17.2695 537.676C17.2695 537.761 17.2516 537.841 17.2158 537.915C17.1833 537.994 17.1377 538.06 17.0791 538.116C17.0238 538.174 16.957 538.22 16.8789 538.252C16.804 538.288 16.7243 538.306 16.6396 538.306ZM18.9297 550.26C18.6432 550.26 18.3714 550.222 18.1143 550.147C17.8603 550.076 17.6243 549.973 17.4062 549.84C17.1881 549.706 16.9928 549.548 16.8203 549.366C16.6478 549.184 16.4997 548.984 16.376 548.765C16.2555 548.551 16.1628 548.321 16.0977 548.077C16.0325 547.833 16 547.584 16 547.33L16 545.04C16 544.783 16.0325 544.532 16.0977 544.288C16.1628 544.044 16.2555 543.813 16.376 543.595C16.4997 543.38 16.6478 543.181 16.8203 542.999C16.9928 542.817 17.1881 542.659 17.4062 542.525C17.6243 542.395 17.8603 542.292 18.1143 542.218C18.3714 542.146 18.6432 542.11 18.9297 542.11L20.0723 542.11C20.5019 542.11 20.8958 542.19 21.2539 542.349C21.612 542.512 21.9196 542.729 22.1768 542.999C22.4372 543.269 22.639 543.58 22.7822 543.931C22.9287 544.286 23.0019 544.656 23.0019 545.04L23.0019 547.33C23.0019 547.584 22.9694 547.833 22.9043 548.077C22.8392 548.321 22.7448 548.551 22.6211 548.765C22.5006 548.984 22.3542 549.184 22.1816 549.366C22.0091 549.548 21.8138 549.706 21.5957 549.84C21.3776 549.973 21.14 550.076 20.8828 550.147C20.6289 550.222 20.3587 550.26 20.0723 550.26L18.9297 550.26ZM20.0723 548.98C20.3229 548.98 20.5508 548.935 20.7559 548.844C20.9609 548.752 21.1367 548.63 21.2832 548.477C21.4297 548.328 21.542 548.153 21.6201 547.955C21.6982 547.756 21.7357 547.548 21.7324 547.33L21.7324 545.04C21.7357 544.828 21.6982 544.622 21.6201 544.42C21.5452 544.221 21.4346 544.044 21.2881 543.888C21.1449 543.735 20.9691 543.611 20.7607 543.516C20.5557 543.425 20.3262 543.38 20.0723 543.38L18.9297 543.38C18.6758 543.38 18.4463 543.425 18.2412 543.516C18.0361 543.608 17.8603 543.73 17.7139 543.883C17.5706 544.036 17.46 544.211 17.3818 544.41C17.3037 544.612 17.2663 544.822 17.2695 545.04L17.2695 547.33C17.2695 547.581 17.3102 547.807 17.3916 548.009C17.4762 548.214 17.5918 548.388 17.7383 548.531C17.8848 548.674 18.0589 548.785 18.2607 548.863C18.4658 548.941 18.6888 548.98 18.9297 548.98L20.0723 548.98ZM21 548.429C20.9284 548.477 20.8503 548.51 20.7656 548.526C20.6842 548.542 20.6029 548.542 20.5215 548.526C20.4434 548.51 20.3685 548.477 20.2969 548.429C20.2285 548.383 20.1699 548.323 20.1211 548.248L17.831 544.82C17.7887 544.765 17.7594 544.708 17.7432 544.649C17.7269 544.591 17.7187 544.53 17.7187 544.469C17.7187 544.364 17.7432 544.265 17.792 544.171C17.8408 544.076 17.9108 544 18.0019 543.941C18.0736 543.892 18.1501 543.86 18.2314 543.844C18.3161 543.827 18.3975 543.826 18.4756 543.839C18.557 543.855 18.6318 543.886 18.7002 543.931C18.7718 543.977 18.832 544.037 18.8809 544.112L21.1709 547.55C21.2197 547.621 21.2523 547.698 21.2685 547.779C21.2848 547.864 21.2848 547.945 21.2685 548.023C21.2523 548.105 21.2213 548.179 21.1758 548.248C21.1302 548.319 21.0716 548.38 21 548.429ZM22.6797 556.622C22.5788 556.677 22.4713 556.705 22.3574 556.705C22.2467 556.705 22.1409 556.677 22.04 556.622L16 553.102L16 551.632L21.7324 554.962L21.7324 550.851L23.0019 550.851L23.0019 556.07C23.0019 556.184 22.9727 556.29 22.9141 556.388C22.8587 556.489 22.7806 556.567 22.6797 556.622ZM16.6396 557.985C16.5518 557.985 16.4687 557.967 16.3906 557.931C16.3157 557.898 16.249 557.853 16.1904 557.794C16.1351 557.739 16.0911 557.672 16.0586 557.594C16.026 557.519 16.0098 557.439 16.0098 557.355C16.0098 557.267 16.026 557.184 16.0586 557.106C16.0911 557.031 16.1351 556.964 16.1904 556.905C16.249 556.85 16.3157 556.806 16.3906 556.774C16.4687 556.741 16.5518 556.725 16.6396 556.725C16.7243 556.725 16.804 556.741 16.8789 556.774C16.957 556.806 17.0238 556.85 17.0791 556.905C17.1377 556.964 17.1833 557.031 17.2158 557.106C17.2516 557.184 17.2695 557.267 17.2695 557.355C17.2695 557.439 17.2516 557.519 17.2158 557.594C17.1833 557.672 17.1377 557.739 17.0791 557.794C17.0238 557.853 16.957 557.898 16.8789 557.931C16.804 557.967 16.7243 557.985 16.6396 557.985ZM16 564.001L16 562.726L21.7324 562.726L21.7324 561.579L23.0019 561.579L23.0019 564.001L16 564.001ZM18.9297 573.283C18.6432 573.283 18.3714 573.246 18.1143 573.171C17.8603 573.099 17.6243 572.997 17.4062 572.863C17.1881 572.73 16.9928 572.572 16.8203 572.389C16.6478 572.207 16.4997 572.007 16.376 571.789C16.2555 571.574 16.1628 571.345 16.0976 571.1C16.0325 570.856 16 570.607 16 570.353L16 568.063C16 567.806 16.0325 567.555 16.0976 567.311C16.1628 567.067 16.2555 566.836 16.376 566.618C16.4997 566.403 16.6478 566.205 16.8203 566.022C16.9928 565.84 17.1881 565.682 17.4062 565.549C17.6243 565.418 17.8603 565.316 18.1143 565.241C18.3714 565.169 18.6432 565.134 18.9297 565.134L20.0723 565.134C20.5019 565.134 20.8958 565.213 21.2539 565.373C21.612 565.536 21.9196 565.752 22.1768 566.022C22.4372 566.292 22.639 566.603 22.7822 566.955C22.9287 567.31 23.0019 567.679 23.0019 568.063L23.0019 570.353C23.0019 570.607 22.9694 570.856 22.9043 571.1C22.8392 571.345 22.7448 571.574 22.6211 571.789C22.5006 572.007 22.3542 572.207 22.1816 572.389C22.0091 572.572 21.8138 572.73 21.5957 572.863C21.3776 572.997 21.14 573.099 20.8828 573.171C20.6289 573.246 20.3587 573.283 20.0723 573.283L18.9297 573.283ZM20.0723 572.004C20.3229 572.004 20.5508 571.958 20.7559 571.867C20.9609 571.776 21.1367 571.654 21.2832 571.501C21.4297 571.351 21.542 571.177 21.6201 570.978C21.6982 570.78 21.7357 570.571 21.7324 570.353L21.7324 568.063C21.7357 567.852 21.6982 567.645 21.6201 567.443C21.5452 567.245 21.4346 567.067 21.2881 566.911C21.1449 566.758 20.9691 566.634 20.7607 566.54C20.5557 566.449 20.3262 566.403 20.0723 566.403L18.9297 566.403C18.6758 566.403 18.4463 566.449 18.2412 566.54C18.0361 566.631 17.8603 566.753 17.7139 566.906C17.5706 567.059 17.46 567.235 17.3818 567.433C17.3037 567.635 17.2663 567.845 17.2695 568.063L17.2695 570.353C17.2695 570.604 17.3102 570.83 17.3916 571.032C17.4762 571.237 17.5918 571.411 17.7383 571.554C17.8848 571.698 18.0589 571.808 18.2607 571.887C18.4658 571.965 18.6888 572.004 18.9297 572.004L20.0723 572.004ZM21 571.452C20.9284 571.501 20.8503 571.533 20.7656 571.55C20.6842 571.566 20.6029 571.566 20.5215 571.55C20.4434 571.533 20.3685 571.501 20.2969 571.452C20.2285 571.406 20.1699 571.346 20.1211 571.271L17.831 567.844C17.7887 567.788 17.7594 567.731 17.7432 567.673C17.7269 567.614 17.7187 567.554 17.7187 567.492C17.7187 567.388 17.7432 567.289 17.792 567.194C17.8408 567.1 17.9108 567.023 18.0019 566.965C18.0736 566.916 18.1501 566.883 18.2314 566.867C18.3161 566.851 18.3975 566.849 18.4756 566.862C18.557 566.878 18.6318 566.909 18.7002 566.955C18.7718 567 18.832 567.061 18.8809 567.136L21.1709 570.573C21.2197 570.645 21.2523 570.721 21.2685 570.803C21.2848 570.887 21.2848 570.969 21.2685 571.047C21.2523 571.128 21.2213 571.203 21.1758 571.271C21.1302 571.343 21.0716 571.403 21 571.452Z" fill="#468ED3"/>
<path d="M321.061 66.5326C320.81 66.5326 320.584 66.5001 320.382 66.435C320.183 66.3731 320.007 66.2901 319.854 66.1859C319.701 66.0818 319.571 65.9597 319.464 65.8197C319.356 65.6798 319.269 65.5349 319.2 65.3852C319.132 65.2354 319.081 65.0824 319.049 64.9262C319.016 64.7732 319 64.6283 319 64.4916L319 59.5941L320.27 59.5941L320.27 64.4916C320.27 64.7357 320.341 64.9245 320.484 65.058C320.628 65.1947 320.82 65.2631 321.061 65.2631C321.178 65.2631 321.285 65.2452 321.383 65.2094C321.48 65.1736 321.565 65.1215 321.637 65.0531C321.708 64.988 321.764 64.9066 321.803 64.809C321.842 64.7146 321.861 64.6088 321.861 64.4916L321.861 61.5717C321.861 61.3666 321.897 61.1452 321.969 60.9076C322.044 60.67 322.162 60.4486 322.325 60.2436C322.488 60.0417 322.701 59.8725 322.965 59.7357C323.229 59.6023 323.551 59.5355 323.932 59.5355C324.312 59.5355 324.633 59.6023 324.894 59.7357C325.157 59.8725 325.37 60.0417 325.533 60.2436C325.699 60.4486 325.818 60.67 325.89 60.9076C325.965 61.1452 326.002 61.3666 326.002 61.5717L326.002 65.893L324.732 65.893L324.732 61.5717C324.732 61.3308 324.659 61.142 324.513 61.0053C324.366 60.8718 324.173 60.8051 323.932 60.8051C323.687 60.8051 323.494 60.8718 323.351 61.0053C323.211 61.142 323.141 61.3308 323.141 61.5717L323.141 64.4916L323.141 64.5014C323.137 64.6381 323.118 64.7829 323.082 64.9359C323.049 65.0889 322.997 65.2403 322.926 65.39C322.854 65.543 322.763 65.6879 322.652 65.8246C322.545 65.9613 322.415 66.0818 322.262 66.1859C322.109 66.2934 321.933 66.378 321.734 66.4398C321.536 66.5017 321.311 66.5326 321.061 66.5326ZM319.64 74.2477C319.549 74.2477 319.464 74.2314 319.386 74.1988C319.308 74.1663 319.239 74.1207 319.181 74.0621C319.125 74.0035 319.081 73.9352 319.049 73.857C319.016 73.7789 319 73.6959 319 73.608L319 70.7467C319 70.4765 319.029 70.2031 319.088 69.9264C319.146 69.6497 319.236 69.3811 319.356 69.1207C319.48 68.8635 319.636 68.621 319.825 68.3932C320.014 68.1653 320.237 67.9651 320.494 67.7926C320.755 67.6233 321.051 67.4898 321.383 67.3922C321.718 67.2945 322.091 67.2457 322.501 67.2457L326.002 67.2457L326.002 68.5152L322.501 68.5152C322.143 68.5152 321.84 68.5641 321.593 68.6617C321.345 68.7626 321.139 68.8896 320.973 69.0426C320.807 69.1956 320.676 69.3632 320.582 69.5455C320.488 69.7278 320.418 69.9003 320.372 70.0631C320.326 70.2291 320.297 70.374 320.284 70.4977C320.274 70.6246 320.27 70.7076 320.27 70.7467L320.27 72.9781L326.002 72.9781L326.002 74.2477L319.64 74.2477ZM323.072 82.5047C322.783 82.5047 322.524 82.4689 322.296 82.3973C322.068 82.3256 321.866 82.228 321.69 82.1043C321.518 81.9839 321.37 81.8439 321.246 81.6844C321.122 81.5249 321.021 81.3572 320.943 81.1814C320.865 81.0089 320.808 80.8331 320.772 80.6541C320.737 80.4783 320.719 80.3123 320.719 80.1561L320.719 77.285L321.988 77.285L321.988 80.1561C322.001 80.3188 322.034 80.4653 322.086 80.5955C322.141 80.729 322.215 80.8429 322.306 80.9373C322.397 81.0317 322.506 81.1049 322.633 81.157C322.763 81.2091 322.91 81.2352 323.072 81.2352L323.648 81.2352C323.808 81.2189 323.954 81.1847 324.088 81.1326C324.221 81.0805 324.335 81.0089 324.43 80.9178C324.524 80.8299 324.597 80.7225 324.649 80.5955C324.705 80.4686 324.732 80.3221 324.732 80.1561L324.732 77.2947C324.732 77.1255 324.688 76.9969 324.601 76.909C324.513 76.8211 324.386 76.7771 324.22 76.7771L319 76.7771L319 75.5076L324.22 75.5076C324.545 75.5076 324.822 75.5662 325.05 75.6834C325.278 75.8038 325.462 75.952 325.602 76.1277C325.742 76.3068 325.842 76.5005 325.904 76.7088C325.969 76.9171 326.002 77.1092 326.002 77.285L326.002 80.1561C326.002 80.4425 325.965 80.6997 325.89 80.9275C325.818 81.1554 325.72 81.3556 325.597 81.5281C325.476 81.7039 325.336 81.852 325.177 81.9725C325.017 82.0962 324.85 82.1971 324.674 82.2752C324.501 82.3566 324.326 82.4152 324.146 82.451C323.971 82.4868 323.805 82.5047 323.648 82.5047L323.072 82.5047ZM321.861 89.1504L321.861 85.1416L323.141 85.1416L323.141 89.1504L321.861 89.1504ZM319 89.7217L319 85.1416C319 84.9658 319.031 84.7738 319.093 84.5654C319.155 84.3571 319.256 84.1634 319.396 83.9844C319.539 83.8086 319.723 83.6605 319.947 83.54C320.175 83.4228 320.453 83.3643 320.782 83.3643L325.362 83.3643C325.45 83.3643 325.533 83.3805 325.611 83.4131C325.689 83.4456 325.758 83.4896 325.816 83.5449C325.875 83.6035 325.921 83.6719 325.953 83.75C325.986 83.8281 326.002 83.9128 326.002 84.0039L326.002 89.7217L324.732 89.7217L324.732 84.6338L320.782 84.6338C320.616 84.6338 320.489 84.6777 320.401 84.7656C320.313 84.8535 320.27 84.9821 320.27 85.1514L320.27 89.7217L319 89.7217ZM323.648 97.7492C323.359 97.7492 323.1 97.7134 322.872 97.6418C322.644 97.5702 322.442 97.4725 322.267 97.3488C322.094 97.2284 321.946 97.0884 321.822 96.9289C321.699 96.7694 321.596 96.6018 321.515 96.426C321.437 96.2534 321.38 96.0777 321.344 95.8986C321.308 95.7229 321.29 95.5568 321.29 95.4006L319 98.052L319 96.0891L321.29 93.4426L321.29 92.5295L322.56 92.5295L322.56 95.4006C322.573 95.5601 322.605 95.7049 322.657 95.8352C322.713 95.9686 322.786 96.0826 322.877 96.177C322.968 96.2746 323.077 96.3495 323.204 96.4016C323.334 96.4536 323.482 96.4797 323.648 96.4797L324.449 96.4797C324.521 96.4797 324.575 96.4699 324.61 96.4504C324.649 96.4341 324.677 96.4113 324.693 96.382C324.713 96.356 324.724 96.3267 324.728 96.2941C324.731 96.2648 324.732 96.2372 324.732 96.2111L324.732 92.0217L319 92.0217L319 90.7521L325.362 90.7521C325.45 90.7521 325.533 90.7684 325.611 90.801C325.689 90.8335 325.758 90.8775 325.816 90.9328C325.875 90.9914 325.921 91.0598 325.953 91.1379C325.986 91.216 326.002 91.3007 326.002 91.3918L326.002 96.2111C326.002 96.4943 325.95 96.7336 325.846 96.9289C325.745 97.1242 325.616 97.2821 325.46 97.4025C325.307 97.5262 325.141 97.6141 324.962 97.6662C324.783 97.7215 324.615 97.7492 324.459 97.7492L323.648 97.7492ZM321.061 105.552C320.81 105.552 320.584 105.52 320.382 105.454C320.183 105.393 320.007 105.31 319.854 105.205C319.701 105.101 319.571 104.979 319.464 104.839C319.356 104.699 319.269 104.554 319.2 104.405C319.132 104.255 319.081 104.102 319.049 103.946C319.016 103.793 319 103.648 319 103.511L319 98.6137L320.27 98.6137L320.27 103.511C320.27 103.755 320.341 103.944 320.484 104.078C320.628 104.214 320.82 104.283 321.061 104.283C321.178 104.283 321.285 104.265 321.383 104.229C321.48 104.193 321.565 104.141 321.637 104.073C321.708 104.008 321.764 103.926 321.803 103.829C321.842 103.734 321.861 103.628 321.861 103.511L321.861 100.591C321.861 100.386 321.897 100.165 321.969 99.9271C322.044 99.6895 322.162 99.4682 322.325 99.2631C322.488 99.0613 322.701 98.892 322.965 98.7553C323.229 98.6218 323.551 98.5551 323.932 98.5551C324.312 98.5551 324.633 98.6218 324.894 98.7553C325.157 98.892 325.37 99.0613 325.533 99.2631C325.699 99.4682 325.818 99.6895 325.89 99.9271C325.965 100.165 326.002 100.386 326.002 100.591L326.002 104.912L324.732 104.912L324.732 100.591C324.732 100.35 324.659 100.162 324.513 100.025C324.366 99.8913 324.173 99.8246 323.932 99.8246C323.687 99.8246 323.494 99.8913 323.351 100.025C323.211 100.162 323.141 100.35 323.141 100.591L323.141 103.511L323.141 103.521C323.137 103.658 323.118 103.802 323.082 103.955C323.049 104.108 322.997 104.26 322.926 104.41C322.854 104.563 322.763 104.707 322.652 104.844C322.545 104.981 322.415 105.101 322.262 105.205C322.109 105.313 321.933 105.398 321.734 105.459C321.536 105.521 321.311 105.552 321.061 105.552ZM324.732 112.657L324.732 109.859L319 109.859L319 108.589L324.732 108.589L324.732 105.787L326.002 105.787L326.002 112.657L324.732 112.657ZM319 120.02L319 118.751L320.719 118.751L320.719 114.288L319 114.288L319 113.018L322.501 113.018C323.012 113.018 323.482 113.106 323.912 113.282C324.342 113.458 324.711 113.702 325.021 114.014C325.33 114.327 325.571 114.696 325.743 115.123C325.916 115.549 326.002 116.015 326.002 116.519L326.002 119.381C326.002 119.469 325.986 119.552 325.953 119.63C325.921 119.708 325.875 119.776 325.816 119.835C325.758 119.893 325.689 119.939 325.611 119.971C325.533 120.004 325.45 120.02 325.362 120.02L319 120.02ZM321.988 114.288L321.988 118.751L324.732 118.751L324.732 116.519C324.732 116.48 324.726 116.397 324.713 116.27C324.703 116.147 324.675 116.002 324.63 115.836C324.584 115.673 324.514 115.5 324.42 115.318C324.326 115.136 324.195 114.968 324.029 114.815C323.863 114.662 323.655 114.535 323.404 114.434C323.157 114.337 322.856 114.288 322.501 114.288L321.988 114.288ZM323.648 128.297C323.359 128.297 323.1 128.261 322.872 128.189C322.644 128.118 322.442 128.02 322.267 127.896C322.094 127.776 321.946 127.636 321.822 127.477C321.699 127.317 321.596 127.149 321.515 126.974C321.437 126.801 321.38 126.625 321.344 126.446C321.308 126.271 321.29 126.104 321.29 125.948L319 128.6L319 126.637L321.29 123.99L321.29 123.077L322.56 123.077L322.56 125.948C322.573 126.108 322.605 126.253 322.657 126.383C322.713 126.516 322.786 126.63 322.877 126.725C322.968 126.822 323.077 126.897 323.204 126.949C323.334 127.001 323.482 127.027 323.648 127.027L324.449 127.027C324.521 127.027 324.575 127.018 324.61 126.998C324.649 126.982 324.677 126.959 324.693 126.93C324.713 126.904 324.724 126.874 324.728 126.842C324.731 126.812 324.732 126.785 324.732 126.759L324.732 122.569L319 122.569L319 121.3L325.362 121.3C325.45 121.3 325.533 121.316 325.611 121.349C325.689 121.381 325.758 121.425 325.816 121.48C325.875 121.539 325.921 121.607 325.953 121.686C325.986 121.764 326.002 121.848 326.002 121.939L326.002 126.759C326.002 127.042 325.95 127.281 325.846 127.477C325.745 127.672 325.616 127.83 325.46 127.95C325.307 128.074 325.141 128.162 324.962 128.214C324.783 128.269 324.615 128.297 324.459 128.297L323.648 128.297ZM326.002 141.305L319.439 140.133C319.309 140.107 319.197 140.049 319.103 139.957C319.008 139.866 318.948 139.756 318.922 139.625C318.899 139.492 318.914 139.365 318.966 139.245C319.018 139.127 319.099 139.035 319.21 138.966L323.028 136.642L319.21 134.313C319.116 134.258 319.042 134.181 318.99 134.083C318.938 133.989 318.912 133.886 318.912 133.776C318.912 133.623 318.961 133.488 319.059 133.371C319.156 133.253 319.283 133.182 319.439 133.156L326.002 131.974L326.002 133.263L321.378 134.103L324.571 136.105C324.666 136.16 324.739 136.235 324.791 136.329C324.843 136.427 324.869 136.531 324.869 136.642C324.869 136.753 324.843 136.855 324.791 136.95C324.739 137.044 324.666 137.122 324.571 137.184L321.378 139.176L326.002 140.016L326.002 141.305ZM319 148.986L319 147.716L320.719 147.716L320.719 143.254L319 143.254L319 141.984L322.501 141.984C323.012 141.984 323.482 142.072 323.912 142.248C324.342 142.423 324.711 142.668 325.021 142.98C325.33 143.293 325.571 143.662 325.743 144.088C325.916 144.515 326.002 144.98 326.002 145.485L326.002 148.346C326.002 148.434 325.986 148.517 325.953 148.595C325.921 148.673 325.875 148.742 325.816 148.8C325.758 148.859 325.689 148.905 325.611 148.937C325.533 148.97 325.45 148.986 325.362 148.986L319 148.986ZM321.988 143.254L321.988 147.716L324.732 147.716L324.732 145.485C324.732 145.446 324.726 145.363 324.713 145.236C324.703 145.112 324.675 144.967 324.63 144.801C324.584 144.639 324.514 144.466 324.42 144.284C324.326 144.101 324.195 143.934 324.029 143.781C323.863 143.628 323.655 143.501 323.404 143.4C323.157 143.302 322.856 143.254 322.501 143.254L321.988 143.254ZM319 157.604L319 155.803L321.861 152.946L321.861 152.053L323.141 152.053L323.141 152.946L326.002 155.803L326.002 157.604L322.501 154.006L319 157.604ZM319 151.545L319 150.275L326.002 150.275L326.002 151.545L319 151.545ZM321.861 163.908L321.861 159.899L323.141 159.899L323.141 163.908L321.861 163.908ZM319 164.479L319 159.899C319 159.724 319.031 159.532 319.093 159.323C319.155 159.115 319.256 158.921 319.396 158.742C319.539 158.566 319.723 158.418 319.947 158.298C320.175 158.181 320.453 158.122 320.782 158.122L325.362 158.122C325.45 158.122 325.533 158.138 325.611 158.171C325.689 158.203 325.758 158.247 325.816 158.303C325.875 158.361 325.921 158.43 325.953 158.508C325.986 158.586 326.002 158.671 326.002 158.762L326.002 164.479L324.732 164.479L324.732 159.392L320.782 159.392C320.616 159.392 320.489 159.436 320.401 159.523C320.313 159.611 320.27 159.74 320.27 159.909L320.27 164.479L319 164.479ZM321.832 172.78C321.406 172.78 321.013 172.707 320.655 172.561C320.297 172.414 319.988 172.211 319.728 171.95C319.467 171.69 319.264 171.381 319.117 171.023C318.974 170.668 318.902 170.28 318.902 169.861L318.902 168.142C318.902 167.722 318.974 167.333 319.117 166.975C319.264 166.617 319.467 166.307 319.728 166.047C319.988 165.787 320.297 165.582 320.655 165.432C321.013 165.285 321.406 165.212 321.832 165.212L323.17 165.212C323.593 165.212 323.984 165.285 324.342 165.432C324.703 165.582 325.012 165.787 325.27 166.047C325.53 166.307 325.733 166.617 325.88 166.975C326.026 167.333 326.1 167.722 326.1 168.142L326.1 169.861C326.1 170.28 326.026 170.668 325.88 171.023C325.733 171.381 325.53 171.69 325.27 171.95C325.012 172.211 324.703 172.414 324.342 172.561C323.984 172.707 323.593 172.78 323.17 172.78L321.832 172.78ZM323.17 171.511C323.421 171.511 323.647 171.47 323.849 171.389C324.054 171.311 324.228 171.198 324.371 171.052C324.518 170.909 324.63 170.735 324.708 170.529C324.789 170.328 324.83 170.105 324.83 169.861L324.83 168.142C324.83 167.894 324.789 167.668 324.708 167.463C324.63 167.261 324.518 167.087 324.371 166.941C324.228 166.794 324.054 166.68 323.849 166.599C323.647 166.521 323.421 166.482 323.17 166.482L321.832 166.482C321.581 166.482 321.354 166.521 321.148 166.599C320.947 166.68 320.772 166.794 320.626 166.941C320.483 167.087 320.37 167.261 320.289 167.463C320.211 167.668 320.172 167.894 320.172 168.142L320.172 169.851C320.172 170.098 320.211 170.323 320.289 170.525C320.37 170.73 320.483 170.905 320.626 171.052C320.772 171.198 320.947 171.311 321.148 171.389C321.354 171.47 321.581 171.511 321.832 171.511L323.17 171.511ZM319.542 180.832C319.451 180.832 319.366 180.815 319.288 180.779C319.21 180.746 319.142 180.701 319.083 180.642C319.028 180.587 318.984 180.52 318.951 180.442C318.919 180.364 318.902 180.281 318.902 180.193C318.902 180.115 318.917 180.035 318.946 179.954C318.976 179.875 319.023 179.805 319.088 179.744L323.932 175.105L319 175.105L319 173.835L325.46 173.835C325.59 173.835 325.707 173.871 325.812 173.943C325.919 174.018 325.999 174.112 326.051 174.226C326.1 174.346 326.111 174.47 326.085 174.597C326.062 174.724 326.004 174.833 325.909 174.924L321.07 179.563L326.002 179.563L326.002 180.832L319.542 180.832ZM321.861 187.869L321.861 183.86L323.141 183.86L323.141 187.869L321.861 187.869ZM319 188.44L319 183.86C319 183.684 319.031 183.492 319.093 183.284C319.155 183.075 319.256 182.882 319.396 182.703C319.539 182.527 319.723 182.379 319.947 182.258C320.175 182.141 320.453 182.083 320.782 182.083L325.362 182.083C325.45 182.083 325.533 182.099 325.611 182.131C325.689 182.164 325.758 182.208 325.816 182.263C325.875 182.322 325.921 182.39 325.953 182.468C325.986 182.546 326.002 182.631 326.002 182.722L326.002 188.44L324.732 188.44L324.732 183.352L320.782 183.352C320.616 183.352 320.489 183.396 320.401 183.484C320.313 183.572 320.27 183.7 320.27 183.87L320.27 188.44L319 188.44Z" fill="#6BA5DC"/>
<mask id="mask0_2005_2720" style="mask-type:alpha" maskUnits="userSpaceOnUse" x="311" y="7" width="24" height="24">
<rect x="311" y="7" width="24" height="24" fill="#D9D9D9"/>
</mask>
<g mask="url(#mask0_2005_2720)">
<path d="M323 20.0538L317.927 25.127C317.789 25.2653 317.614 25.3362 317.405 25.3395C317.195 25.3427 317.018 25.2718 316.873 25.127C316.728 24.982 316.656 24.8063 316.656 24.6C316.656 24.3937 316.728 24.218 316.873 24.073L321.946 19L316.873 13.927C316.735 13.7885 316.664 13.6144 316.661 13.4048C316.657 13.1953 316.728 13.018 316.873 12.873C317.018 12.7282 317.194 12.6558 317.4 12.6558C317.606 12.6558 317.782 12.7282 317.927 12.873L323 17.9463L328.073 12.873C328.212 12.7347 328.386 12.6638 328.595 12.6605C328.805 12.6573 328.982 12.7282 329.127 12.873C329.272 13.018 329.344 13.1937 329.344 13.4C329.344 13.6063 329.272 13.782 329.127 13.927L324.054 19L329.127 24.073C329.265 24.2115 329.336 24.3856 329.34 24.5953C329.343 24.8048 329.272 24.982 329.127 25.127C328.982 25.2718 328.806 25.3443 328.6 25.3443C328.394 25.3443 328.218 25.2718 328.073 25.127L323 20.0538Z" fill="white"/>
</g>
<defs>
<linearGradient id="paint0_linear_2005_2720" x1="169.795" y1="10.3065" x2="169.795" y2="620.299" gradientUnits="userSpaceOnUse">
<stop stop-color="#468ED3"/>
<stop offset="1" stop-color="#11263A"/>
</linearGradient>
</defs>
</svg>
