<svg width="140" height="43" viewBox="0 0 140 43" fill="none" xmlns="http://www.w3.org/2000/svg">
<path d="M22.8337 21.1459C22.7954 17.6315 25.7091 15.919 25.8497 15.8424C24.2011 13.4398 21.6452 13.1075 20.7507 13.082C18.6037 12.8519 16.5206 14.3599 15.4344 14.3599C14.3481 14.3599 12.6357 13.0948 10.821 13.1331C8.48233 13.1714 6.29704 14.5261 5.10854 16.6219C2.6421 20.903 4.48235 27.1906 6.84656 30.6538C8.03505 32.3535 9.41524 34.2449 11.2299 34.1682C13.0063 34.0915 13.6708 33.0436 15.805 33.0436C17.9392 33.0436 18.5398 34.1682 20.3928 34.1298C22.297 34.1043 23.4983 32.4302 24.6356 30.7177C26.003 28.7752 26.5526 26.8583 26.5781 26.7688C26.5398 26.7561 22.8848 25.3631 22.8465 21.1459H22.8337Z" fill="white"/>
<path d="M19.3454 10.8072C20.3038 9.61872 20.9556 7.99573 20.7639 6.34717C19.3837 6.41107 17.6585 7.30563 16.6617 8.46857C15.7799 9.49093 15.0003 11.1778 15.2048 12.7625C16.7511 12.8775 18.3486 11.9829 19.3454 10.8072Z" fill="white"/>
<path d="M53.6186 34.0612H47.5371L46.0714 38.3812H43.5L49.26 22.4126H51.9343L57.6943 38.3812H55.0714L53.6057 34.0612H53.6186ZM48.1671 32.0683H52.9886L50.61 25.0612H50.5457L48.1671 32.0683Z" fill="white"/>
<path d="M70.1527 32.5572C70.1527 36.17 68.2113 38.4972 65.2927 38.4972C63.6341 38.4972 62.3227 37.7515 61.6284 36.4658H61.577V42.2258H59.1855V26.7329H61.4998V28.6743H61.5384C62.207 27.4272 63.6213 26.6172 65.2413 26.6172C68.1984 26.6172 70.1398 28.9572 70.1398 32.5572H70.1527ZM67.697 32.5572C67.697 30.2043 66.4755 28.6486 64.6241 28.6486C62.7727 28.6486 61.5641 30.23 61.5641 32.5572C61.5641 34.8843 62.7984 36.4786 64.6241 36.4786C66.4498 36.4786 67.697 34.9358 67.697 32.5572Z" fill="white"/>
<path d="M82.9593 32.5572C82.9593 36.17 81.0179 38.4972 78.0993 38.4972C76.4408 38.4972 75.1293 37.7515 74.435 36.4658H74.3836V42.2258H71.9922V26.7329H74.3065V28.6743H74.345C75.0136 27.4272 76.4279 26.6172 78.0479 26.6172C81.005 26.6172 82.9465 28.9572 82.9465 32.5572H82.9593ZM80.5036 32.5572C80.5036 30.2043 79.2822 28.6486 77.4308 28.6486C75.5793 28.6486 74.3708 30.23 74.3708 32.5572C74.3708 34.8843 75.605 36.4786 77.4308 36.4786C79.2565 36.4786 80.5036 34.9358 80.5036 32.5572Z" fill="white"/>
<path d="M91.4311 33.9331C91.6111 35.5145 93.1411 36.5559 95.2497 36.5559C97.3583 36.5559 98.7083 35.5145 98.7083 34.0873C98.7083 32.8531 97.834 32.1073 95.764 31.5931L93.694 31.0916C90.7626 30.3845 89.3997 29.0088 89.3997 26.7845C89.3997 24.0331 91.804 22.1431 95.2111 22.1431C98.6183 22.1431 100.894 24.0331 100.971 26.7845H98.554C98.4126 25.1902 97.0883 24.2259 95.1726 24.2259C93.2569 24.2259 91.9326 25.2031 91.9326 26.6174C91.9326 27.7488 92.7683 28.4045 94.8254 28.9188L96.5869 29.3559C99.8654 30.1273 101.228 31.4516 101.228 33.7788C101.228 36.7616 98.8497 38.6388 95.0697 38.6388C91.534 38.6388 89.1426 36.8131 88.9883 33.9202H91.4311V33.9331Z" fill="white"/>
<path d="M106.396 23.9814V26.7329H108.608V28.6229H106.396V35.0386C106.396 36.0414 106.833 36.5043 107.811 36.5043C108.055 36.5043 108.441 36.4657 108.595 36.4529V38.33C108.325 38.3943 107.798 38.4457 107.271 38.4457C104.918 38.4457 103.992 37.5586 103.992 35.3086V28.6357H102.295V26.7457H103.992V23.9943H106.396V23.9814Z" fill="white"/>
<path d="M109.881 32.557C109.881 28.8927 112.041 26.5913 115.397 26.5913C118.752 26.5913 120.912 28.8927 120.912 32.557C120.912 36.2213 118.778 38.5227 115.397 38.5227C112.015 38.5227 109.881 36.2342 109.881 32.557ZM118.495 32.557C118.495 30.0499 117.338 28.5585 115.409 28.5585C113.481 28.5585 112.324 30.0499 112.324 32.557C112.324 35.0642 113.468 36.5556 115.409 36.5556C117.351 36.5556 118.495 35.0899 118.495 32.557Z" fill="white"/>
<path d="M122.906 26.7331H125.182V28.7131H125.233C125.593 27.4016 126.661 26.6045 128.036 26.6045C128.383 26.6045 128.666 26.6559 128.859 26.6945V28.9316C128.666 28.8545 128.255 28.7902 127.792 28.7902C126.249 28.7902 125.298 29.8316 125.298 31.4645V38.3688H122.906V26.7331Z" fill="white"/>
<path d="M139.864 34.9613C139.542 37.0699 137.485 38.5227 134.849 38.5227C131.468 38.5227 129.359 36.2599 129.359 32.6085C129.359 28.957 131.468 26.5913 134.747 26.5913C138.025 26.5913 139.992 28.8027 139.992 32.3385V33.1613H131.777V33.3027C131.777 35.2956 133.024 36.5942 134.914 36.5942C136.238 36.5942 137.279 35.9642 137.601 34.9613H139.864ZM131.789 31.477H137.614C137.562 29.6899 136.418 28.5199 134.759 28.5199C133.101 28.5199 131.918 29.7156 131.789 31.477Z" fill="white"/>
</svg>
