<svg width="15" height="28" viewBox="0 0 15 28" fill="none" xmlns="http://www.w3.org/2000/svg">
<path d="M3.13538 14.0004L14.4345 25.2995C14.7325 25.5975 14.8778 25.9484 14.8703 26.3521C14.8625 26.7561 14.7096 27.1071 14.4116 27.4051C14.1134 27.7031 13.7624 27.8521 13.3586 27.8521C12.9549 27.8521 12.6039 27.7031 12.3056 27.4051L0.799125 15.9215C0.527875 15.6503 0.326875 15.3464 0.196125 15.0099C0.0653754 14.6734 0 14.3369 0 14.0004C0 13.6639 0.0653754 13.3274 0.196125 12.9909C0.326875 12.6544 0.527875 12.3505 0.799125 12.0793L12.3056 0.572388C12.6039 0.274388 12.9588 0.129263 13.3703 0.137013C13.7818 0.144763 14.1365 0.297638 14.4345 0.595638C14.7325 0.893638 14.8815 1.24464 14.8815 1.64864C14.8815 2.05239 14.7325 2.40326 14.4345 2.70126L3.13538 14.0004Z" fill="white"/>
</svg>
