<svg width="14" height="14" viewBox="0 0 14 14" fill="none" xmlns="http://www.w3.org/2000/svg">
<path d="M6.16941 3.43174L2.07611 7.41676C1.90904 7.57941 1.71412 7.65735 1.49136 7.65058C1.26859 7.6438 1.07367 7.55908 0.906601 7.39643C0.753451 7.23377 0.673395 7.04401 0.666433 6.82714C0.659472 6.61027 0.739528 6.42051 0.906601 6.25785L6.42002 0.890275C6.50356 0.808948 6.59406 0.751342 6.69152 0.717455C6.78898 0.683569 6.8934 0.666626 7.00478 0.666626C7.11616 0.666626 7.22058 0.683569 7.31804 0.717455C7.4155 0.751342 7.506 0.808948 7.58954 0.890275L13.103 6.25785C13.2561 6.40695 13.3327 6.59332 13.3327 6.81697C13.3327 7.04062 13.2561 7.23377 13.103 7.39643C12.9359 7.55908 12.7375 7.64041 12.5078 7.64041C12.278 7.64041 12.0796 7.55908 11.9126 7.39643L7.84015 3.43174V12.52C7.84015 12.7504 7.76009 12.9436 7.59998 13.0995C7.43987 13.2554 7.24147 13.3333 7.00478 13.3333C6.76809 13.3333 6.56969 13.2554 6.40958 13.0995C6.24947 12.9436 6.16941 12.7504 6.16941 12.52V3.43174Z" fill="#A1A1AA"/>
</svg>
