<svg width="153" height="46" viewBox="0 0 153 46" fill="none" xmlns="http://www.w3.org/2000/svg">
<path d="M15.647 22.5377L5.16602 33.6605C5.16602 33.6605 5.16602 33.6646 5.16602 33.6666C5.48692 34.8741 6.58953 35.7628 7.8999 35.7628C8.42241 35.7628 8.91406 35.6209 9.33576 35.374L9.36868 35.3534L21.1662 28.5465L15.6449 22.5356L15.647 22.5377Z" fill="#E63C27"/>
<path d="M26.2491 20.6432L26.2388 20.637L21.1455 17.6851L15.4082 22.7908L21.166 28.5466L26.2327 25.6234C27.1213 25.1441 27.7241 24.2081 27.7241 23.1282C27.7241 22.0482 27.1296 21.1245 26.2491 20.6432Z" fill="#F9C200"/>
<path d="M5.16504 12.5483C5.10127 12.7808 5.06836 13.0256 5.06836 13.2766V32.9322C5.06836 33.1852 5.10127 33.4279 5.16504 33.6604L16.006 22.8215L5.16504 12.5483Z" fill="#557ABD"/>
<path d="M15.7231 23.1052L21.1476 17.6827L9.36456 10.8511C8.93668 10.5939 8.43681 10.4458 7.90196 10.4458C6.59159 10.4458 5.48692 11.3365 5.16602 12.5461C5.16602 12.5461 5.16602 12.5461 5.16602 12.5482L15.7231 23.1052Z" fill="#0AA346"/>
<path d="M78.8429 29.1664C75.8214 29.1664 73.3529 31.4678 73.3529 34.6307C73.3529 37.7935 75.8214 40.095 78.8429 40.095C81.8643 40.095 84.3329 37.7807 84.3329 34.6307C84.3329 31.4807 81.8643 29.1664 78.8429 29.1664ZM78.8429 37.9478C77.1843 37.9478 75.7571 36.585 75.7571 34.6307C75.7571 32.6764 77.1843 31.3135 78.8429 31.3135C80.5014 31.3135 81.9286 32.6635 81.9286 34.6307C81.9286 36.5978 80.5014 37.9478 78.8429 37.9478ZM66.86 29.1664C63.8386 29.1664 61.37 31.4678 61.37 34.6307C61.37 37.7935 63.8386 40.095 66.86 40.095C69.8814 40.095 72.35 37.7807 72.35 34.6307C72.35 31.4807 69.8814 29.1664 66.86 29.1664ZM66.86 37.9478C65.2014 37.9478 63.7743 36.585 63.7743 34.6307C63.7743 32.6764 65.2014 31.3135 66.86 31.3135C68.5186 31.3135 69.9457 32.6635 69.9457 34.6307C69.9457 36.5978 68.5186 37.9478 66.86 37.9478ZM52.6143 30.8507V33.165H58.1686C58.0014 34.4635 57.5643 35.4278 56.9086 36.0835C56.0986 36.8935 54.8386 37.7807 52.6271 37.7807C49.2071 37.7807 46.5329 35.0292 46.5329 31.6092C46.5329 28.1892 49.2071 25.4378 52.6271 25.4378C54.4657 25.4378 55.8157 26.1578 56.8057 27.0964L58.4386 25.4635C57.05 24.1393 55.2114 23.1235 52.6143 23.1235C47.9343 23.1235 44 26.9292 44 31.6221C44 36.315 47.9343 40.1207 52.6143 40.1207C55.1471 40.1207 57.05 39.2978 58.5414 37.7421C60.0714 36.2121 60.5471 34.0521 60.5471 32.3164C60.5471 31.7764 60.5086 31.275 60.4186 30.8635H52.6143V30.8507ZM110.87 32.6507C110.42 31.4292 109.031 29.1664 106.19 29.1664C103.349 29.1664 101.034 31.3778 101.034 34.6307C101.034 37.6907 103.349 40.095 106.46 40.095C108.967 40.095 110.42 38.565 111.011 37.6778L109.147 36.4307C108.53 37.3435 107.681 37.9478 106.46 37.9478C105.239 37.9478 104.364 37.395 103.811 36.2893L111.127 33.2678L110.883 32.6507H110.87ZM103.413 34.4764C103.349 32.3678 105.046 31.2878 106.267 31.2878C107.219 31.2878 108.029 31.7635 108.299 32.445L103.413 34.4764ZM97.4728 39.7735H99.8771V23.7021H97.4728V39.7735ZM93.5386 30.3878H93.4614C92.9214 29.745 91.8928 29.1664 90.5814 29.1664C87.8428 29.1664 85.3357 31.5707 85.3357 34.6564C85.3357 37.7421 87.8428 40.1078 90.5814 40.1078C91.88 40.1078 92.9214 39.5292 93.4614 38.8607H93.5386V39.645C93.5386 41.7407 92.42 42.8593 90.62 42.8593C89.1543 42.8593 88.2414 41.805 87.8686 40.9178L85.7728 41.7921C86.3771 43.245 87.9714 45.0193 90.62 45.0193C93.4357 45.0193 95.8143 43.3607 95.8143 39.3235V29.5007H93.5386V30.3878ZM90.7743 37.9478C89.1157 37.9478 87.7271 36.5592 87.7271 34.6564C87.7271 32.7535 89.1157 31.3264 90.7743 31.3264C92.4328 31.3264 93.6929 32.7407 93.6929 34.6564C93.6929 36.5721 92.4071 37.9478 90.7743 37.9478ZM122.133 23.7021H116.386V39.7735H118.79V33.6792H122.146C124.807 33.6792 127.417 31.7507 127.417 28.6907C127.417 25.6307 124.807 23.7021 122.146 23.7021H122.133ZM122.184 31.4421H118.777V25.9264H122.184C123.984 25.9264 125 27.4178 125 28.6778C125 29.9378 123.984 31.4292 122.184 31.4292V31.4421ZM137.021 29.1407C135.286 29.1407 133.486 29.9121 132.74 31.5964L134.874 32.4835C135.324 31.5964 136.173 31.3007 137.06 31.3007C138.294 31.3007 139.567 32.0464 139.58 33.3707V33.5378C139.143 33.2935 138.217 32.9207 137.073 32.9207C134.771 32.9207 132.444 34.1807 132.444 36.5335C132.444 38.6807 134.321 40.0692 136.43 40.0692C138.037 40.0692 138.937 39.3492 139.49 38.5007H139.567V39.735H141.881V33.5764C141.881 30.7221 139.747 29.1278 136.996 29.1278L137.021 29.1407ZM136.726 37.9478C135.941 37.9478 134.849 37.5492 134.849 36.585C134.849 35.3507 136.211 34.875 137.394 34.875C138.449 34.875 138.95 35.1064 139.58 35.415C139.4 36.9064 138.114 37.9607 136.726 37.9607V37.9478ZM150.329 29.4878L147.577 36.4564H147.5L144.646 29.4878H142.061L146.343 39.2335L143.9 44.6464H146.407L153.003 29.4878H150.341H150.329ZM128.729 39.7735H131.133V23.7021H128.729V39.7735Z" fill="white"/>
</svg>
