<svg width="144" height="36" viewBox="0 0 144 36" fill="none" xmlns="http://www.w3.org/2000/svg">
<path d="M17.3105 17.4715L5.33228 30.1832C5.33228 30.1832 5.33228 30.1879 5.33228 30.1902C5.69903 31.5703 6.95915 32.5859 8.45672 32.5859C9.05387 32.5859 9.61575 32.4237 10.0977 32.1415L10.1353 32.118L23.6182 24.3387L17.3081 17.4691L17.3105 17.4715Z" fill="#E63C27"/>
<path d="M29.4275 15.3064L29.4157 15.2993L23.5947 11.9257L17.0378 17.7608L23.6182 24.3388L29.4087 20.9981C30.4243 20.4503 31.1131 19.3806 31.1131 18.1463C31.1131 16.9121 30.4337 15.8565 29.4275 15.3064Z" fill="#F9C200"/>
<path d="M5.33217 6.05518C5.25929 6.32084 5.22168 6.6006 5.22168 6.88742V29.351C5.22168 29.6401 5.25929 29.9176 5.33217 30.1832L17.7218 17.7959L5.33217 6.05518Z" fill="#557ABD"/>
<path d="M17.3975 18.1202L23.597 11.9231L10.1306 4.11549C9.64161 3.82161 9.07033 3.65234 8.45907 3.65234C6.9615 3.65234 5.69903 4.67032 5.33228 6.05269C5.33228 6.05269 5.33228 6.05269 5.33228 6.05504L17.3975 18.1202Z" fill="#0AA346"/>
<path d="M75.8262 13.5197C73.0663 13.5197 70.8115 15.6218 70.8115 18.5109C70.8115 21.3999 73.0663 23.5021 75.8262 23.5021C78.586 23.5021 80.8409 21.3881 80.8409 18.5109C80.8409 15.6336 78.586 13.5197 75.8262 13.5197ZM75.8262 21.5408C74.3112 21.5408 73.0076 20.2959 73.0076 18.5109C73.0076 16.7258 74.3112 15.4809 75.8262 15.4809C77.3412 15.4809 78.6447 16.714 78.6447 18.5109C78.6447 20.3077 77.3412 21.5408 75.8262 21.5408ZM64.8808 13.5197C62.121 13.5197 59.8661 15.6218 59.8661 18.5109C59.8661 21.3999 62.121 23.5021 64.8808 23.5021C67.6406 23.5021 69.8955 21.3881 69.8955 18.5109C69.8955 15.6336 67.6406 13.5197 64.8808 13.5197ZM64.8808 21.5408C63.3658 21.5408 62.0622 20.2959 62.0622 18.5109C62.0622 16.7258 63.3658 15.4809 64.8808 15.4809C66.3958 15.4809 67.6994 16.714 67.6994 18.5109C67.6994 20.3077 66.3958 21.5408 64.8808 21.5408ZM51.8685 15.0581V17.172H56.9419C56.7892 18.3582 56.3899 19.239 55.791 19.8379C55.0511 20.5778 53.9002 21.3881 51.8802 21.3881C48.7563 21.3881 46.3136 18.8749 46.3136 15.751C46.3136 12.6271 48.7563 10.1139 51.8802 10.1139C53.5596 10.1139 54.7927 10.7716 55.697 11.6289L57.1885 10.1374C55.9201 8.92778 54.2408 8 51.8685 8C47.5937 8 44 11.4762 44 15.7628C44 20.0493 47.5937 23.5255 51.8685 23.5255C54.182 23.5255 55.9201 22.7739 57.2824 21.3529C58.68 19.9554 59.1145 17.9824 59.1145 16.3969C59.1145 15.9037 59.0793 15.4457 58.9971 15.0699H51.8685V15.0581ZM105.08 16.7023C104.669 15.5866 103.401 13.5197 100.806 13.5197C98.2102 13.5197 96.0963 15.5396 96.0963 18.5109C96.0963 21.3059 98.2102 23.5021 101.052 23.5021C103.342 23.5021 104.669 22.1045 105.21 21.2942L103.507 20.155C102.943 20.9888 102.168 21.5408 101.052 21.5408C99.9366 21.5408 99.138 21.0358 98.633 20.0258L105.315 17.266L105.092 16.7023H105.08ZM98.2689 18.3699C98.2102 16.4439 99.7604 15.4574 100.876 15.4574C101.745 15.4574 102.485 15.892 102.732 16.5144L98.2689 18.3699ZM92.8432 23.2085H95.0393V8.52848H92.8432V23.2085ZM89.2496 14.6354H89.1791C88.6858 14.0482 87.7463 13.5197 86.5484 13.5197C84.047 13.5197 81.7569 15.7158 81.7569 18.5344C81.7569 21.3529 84.047 23.5138 86.5484 23.5138C87.7346 23.5138 88.6858 22.9853 89.1791 22.3746H89.2496V23.091C89.2496 25.0053 88.2278 26.027 86.5837 26.027C85.2449 26.027 84.411 25.064 84.0705 24.2537L82.1562 25.0523C82.7082 26.3793 84.1644 28 86.5837 28C89.1556 28 91.3282 26.485 91.3282 22.7974V13.825H89.2496V14.6354ZM86.7246 21.5408C85.2096 21.5408 83.9413 20.2725 83.9413 18.5344C83.9413 16.7962 85.2096 15.4927 86.7246 15.4927C88.2396 15.4927 89.3905 16.7845 89.3905 18.5344C89.3905 20.2842 88.2161 21.5408 86.7246 21.5408ZM115.368 8.52848H110.119V23.2085H112.315V17.6418H115.38C117.811 17.6418 120.195 15.8802 120.195 13.0851C120.195 10.2901 117.811 8.52848 115.38 8.52848H115.368ZM115.415 15.5984H112.303V10.5602H115.415C117.059 10.5602 117.987 11.9225 117.987 13.0734C117.987 14.2243 117.059 15.5866 115.415 15.5866V15.5984ZM128.968 13.4962C127.382 13.4962 125.738 14.2008 125.057 15.7393L127.006 16.5496C127.417 15.7393 128.193 15.4692 129.003 15.4692C130.13 15.4692 131.293 16.1503 131.305 17.36V17.5126C130.905 17.2895 130.06 16.9489 129.015 16.9489C126.912 16.9489 124.787 18.0998 124.787 20.249C124.787 22.2102 126.501 23.4786 128.427 23.4786C129.895 23.4786 130.718 22.8209 131.223 22.0458H131.293V23.1732H133.407V17.5479C133.407 14.9407 131.457 13.4844 128.944 13.4844L128.968 13.4962ZM128.698 21.5408C127.981 21.5408 126.983 21.1767 126.983 20.2959C126.983 19.1685 128.228 18.734 129.308 18.734C130.271 18.734 130.729 18.9454 131.305 19.2272C131.14 20.5895 129.966 21.5526 128.698 21.5526V21.5408ZM141.123 13.8133L138.609 20.1785H138.539L135.932 13.8133H133.571L137.482 22.7152L135.251 27.6594H137.541L143.565 13.8133H141.134H141.123ZM121.393 23.2085H123.589V8.52848H121.393V23.2085Z" fill="white"/>
</svg>
