<svg width="147" height="148" viewBox="0 0 147 148" fill="none" xmlns="http://www.w3.org/2000/svg">
<circle cx="73.4847" cy="74.4264" r="58" transform="rotate(-15 73.4847 74.4264)" stroke="#32D583" stroke-width="4"/>
<path d="M34.3219 88.3183L35.6456 91.937C34.8051 92.5687 33.6936 93.0698 32.3111 93.4403C31.0019 93.791 29.8814 93.9405 28.9495 93.8886C28.0144 93.8244 27.2173 93.5659 26.5583 93.113C25.8993 92.6602 25.3446 92.0089 24.894 91.1592C24.4556 90.3063 24.0709 89.2619 23.7397 88.0262C23.4185 86.8272 23.2299 85.7565 23.1741 84.8141C23.1273 83.8563 23.2682 83.012 23.597 82.2814C23.9225 81.5385 24.4602 80.9027 25.2103 80.3739C25.9725 79.8418 26.996 79.4036 28.2807 79.0594C28.5621 78.984 28.879 78.9187 29.2314 78.8636C29.5928 78.793 29.9452 78.738 30.2887 78.6984C30.6444 78.6555 30.9789 78.6315 31.2922 78.6262C31.6144 78.6054 31.8788 78.6132 32.0853 78.6497L32.3294 82.2036C31.2949 82.2579 30.3922 82.3883 29.6214 82.5948C28.8261 82.8079 28.2952 83.0289 28.0287 83.2577C27.7622 83.4864 27.6879 83.8211 27.8059 84.2615L29.35 90.0242C29.6478 90.01 29.9424 89.9835 30.2336 89.9448C30.5338 89.8906 30.8368 89.8226 31.1427 89.7406C32.3662 89.4128 33.4259 88.9387 34.3219 88.3183ZM34.7441 85.0776C34.4065 83.8174 34.2203 82.7067 34.1857 81.7456C34.1601 80.7689 34.3194 79.9198 34.6637 79.1981C35.0202 78.4731 35.5767 77.8584 36.3333 77.3541C37.0899 76.8498 38.0799 76.4337 39.3034 76.1059C40.5392 75.7747 41.6046 75.6401 42.4998 75.7018C43.4071 75.7603 44.1903 76.016 44.8493 76.4688C45.5206 76.9184 46.0831 77.5742 46.537 78.4361C46.9998 79.2824 47.4001 80.3357 47.7378 81.596C48.059 82.795 48.2431 83.8734 48.2899 84.8313C48.3335 85.7769 48.1848 86.6167 47.8438 87.3506C47.515 88.0813 46.9695 88.7126 46.2073 89.2447C45.4539 89.7613 44.4411 90.19 43.1686 90.531C41.8962 90.8719 40.7985 91.0087 39.8756 90.9413C38.9617 90.8583 38.1736 90.5843 37.5113 90.1192C36.8612 89.6508 36.3187 88.9963 35.8836 88.1556C35.4452 87.3026 35.0654 86.2766 34.7441 85.0776ZM38.8644 81.5148L40.3987 87.2408L42.2339 86.749C42.8457 86.5851 43.262 86.4014 43.4829 86.198C43.7127 85.9791 43.7604 85.6188 43.626 85.1171L42.0917 79.3911L40.2381 79.8878C39.6508 80.0452 39.2423 80.2333 39.0124 80.4523C38.7793 80.659 38.73 81.0131 38.8644 81.5148ZM53.6388 80.2115L55.1719 86.9607L50.5654 88.195L47.7214 74.2043L53.4658 72.6651L57.0511 79.2185L57.2163 79.1742L57.0446 71.7062L62.8073 70.1621L67.3213 83.7052L62.7148 84.9395L60.6679 78.328L60.5211 78.3674L60.6226 85.5001L57.2641 86.4001L53.7673 80.177L53.6388 80.2115ZM75.3443 77.9952L72.4813 78.7623L73.3713 82.0841L68.9667 83.2643L65.2786 69.4999L72.2158 67.6411C75.3725 66.7952 77.4049 68.0669 78.313 71.456C78.5129 72.2023 78.6264 72.9194 78.6533 73.6072C78.6803 74.295 78.5819 74.9311 78.3582 75.5156C78.1435 76.0846 77.7924 76.5852 77.305 77.0174C76.8298 77.4463 76.1763 77.7722 75.3443 77.9952ZM71.6367 71.5729L70.6273 71.8434L71.5371 75.2386L72.5465 74.9681C73.0848 74.8239 73.4555 74.6656 73.6584 74.4932C73.8736 74.3175 73.9271 74.0278 73.819 73.624L73.4059 72.0824C73.301 71.6909 73.1114 71.4728 72.8372 71.4283C72.5752 71.3805 72.1751 71.4287 71.6367 71.5729ZM89.8256 73.8985L90.7697 77.4222L81.9605 79.7827L78.2723 66.0182L82.677 64.838L85.421 75.0788L89.8256 73.8985ZM98.5411 66.3506L99.3967 69.544L94.9921 70.7242L95.4396 72.3943L100.835 70.9485L101.779 74.4722L91.9792 77.0982L88.291 63.3337L97.9811 60.7373L98.3747 64.4085L93.6398 65.6772L94.1364 67.5308L98.5411 66.3506ZM109.759 57.5815L110.703 61.1052L107.51 61.9608L110.254 72.2016L105.849 73.3818L103.105 63.141L99.9116 63.9967L98.9675 60.473L109.759 57.5815ZM121.213 60.2757L122.069 63.469L117.664 64.6493L118.112 66.3194L123.507 64.8736L124.451 68.3973L114.651 71.0233L110.963 57.2588L120.653 54.6623L121.047 58.3336L116.312 59.6023L116.808 61.4559L121.213 60.2757Z" fill="#32D583"/>
<mask id="mask0_10_6907" style="mask-type:alpha" maskUnits="userSpaceOnUse" x="13" y="13" width="121" height="122">
<path fill-rule="evenodd" clip-rule="evenodd" d="M107.661 13.6357L13 39L22.0587 72.8074L116.719 47.4431L107.661 13.6357ZM124.225 75.455L29.5644 100.819L38.6231 134.627L133.284 109.262L124.225 75.455Z" fill="#D9D9D9"/>
</mask>
<g mask="url(#mask0_10_6907)">
<circle cx="73.2713" cy="74.6141" r="48" transform="rotate(-15 73.2713 74.6141)" stroke="#32D583" stroke-width="2"/>
</g>
</svg>
