<svg width="131" height="32" viewBox="0 0 131 32" fill="none" xmlns="http://www.w3.org/2000/svg">
<path d="M21.5957 17.0136C21.5519 12.9972 24.8818 11.0401 25.0425 10.9525C23.1584 8.20674 20.2374 7.827 19.215 7.79779C16.7614 7.5349 14.3807 9.25831 13.1393 9.25831C11.8979 9.25831 9.94077 7.8124 7.86684 7.85621C5.1941 7.90003 2.69661 9.44818 1.33833 11.8434C-1.48046 16.7362 0.622682 23.9219 3.32464 27.8799C4.68292 29.8224 6.26027 31.9839 8.3342 31.8963C10.3643 31.8087 11.1238 30.6111 13.5629 30.6111C16.0019 30.6111 16.6884 31.8963 18.8061 31.8525C20.9823 31.8233 22.3552 29.91 23.655 27.9529C25.2178 25.7329 25.8458 23.5422 25.875 23.4399C25.8312 23.4253 21.6541 21.8333 21.6103 17.0136H21.5957Z" fill="white"/>
<path d="M17.6085 5.19827C18.7039 3.83999 19.4488 1.98514 19.2297 0.101074C17.6523 0.1741 15.6806 1.19646 14.5414 2.52553C13.5337 3.69394 12.6428 5.62182 12.8764 7.43286C14.6437 7.56431 16.4693 6.54195 17.6085 5.19827Z" fill="white"/>
<path d="M49.073 20.7514H43.3195L41.9328 24.8385H39.5L44.9494 9.73096H47.4795L52.9289 24.8385H50.4475L49.0608 20.7514H49.073ZM43.9155 18.866H48.477L46.2266 12.2367H46.1658L43.9155 18.866Z" fill="white"/>
<path d="M64.7158 19.3287C64.7158 22.7468 62.8791 24.9484 60.1179 24.9484C58.5487 24.9484 57.308 24.2429 56.6512 23.0265H56.6025V28.476H54.34V13.8185H56.5295V15.6552H56.566C57.1985 14.4753 58.5366 13.709 60.0692 13.709C62.8669 13.709 64.7037 15.9228 64.7037 19.3287H64.7158ZM62.3925 19.3287C62.3925 17.1027 61.237 15.6309 59.4854 15.6309C57.7338 15.6309 56.5903 17.127 56.5903 19.3287C56.5903 21.5304 57.7581 23.0387 59.4854 23.0387C61.2126 23.0387 62.3925 21.579 62.3925 19.3287Z" fill="white"/>
<path d="M76.8306 19.3287C76.8306 22.7468 74.9939 24.9484 72.2327 24.9484C70.6635 24.9484 69.4228 24.2429 68.766 23.0265H68.7173V28.476H66.4548V13.8185H68.6443V15.6552H68.6808C69.3133 14.4753 70.6514 13.709 72.184 13.709C74.9817 13.709 76.8185 15.9228 76.8185 19.3287H76.8306ZM74.5073 19.3287C74.5073 17.1027 73.3518 15.6309 71.6002 15.6309C69.8486 15.6309 68.7052 17.127 68.7052 19.3287C68.7052 21.5304 69.8729 23.0387 71.6002 23.0387C73.3274 23.0387 74.5073 21.579 74.5073 19.3287Z" fill="white"/>
<path d="M84.8469 20.6304C85.0172 22.1265 86.4647 23.1118 88.4596 23.1118C90.4545 23.1118 91.7317 22.1265 91.7317 20.7763C91.7317 19.6086 90.9045 18.9031 88.9461 18.4165L86.9878 17.9421C84.2144 17.2731 82.925 15.9716 82.925 13.8672C82.925 11.2642 85.1997 9.47607 88.4231 9.47607C91.6465 9.47607 93.7995 11.2642 93.8725 13.8672H91.5857C91.4519 12.3589 90.199 11.4466 88.3866 11.4466C86.5742 11.4466 85.3213 12.3711 85.3213 13.7091C85.3213 14.7795 86.112 15.3999 88.0582 15.8864L89.7246 16.3C92.8264 17.0298 94.1158 18.2827 94.1158 20.4844C94.1158 23.3064 91.8655 25.0823 88.2893 25.0823C84.9442 25.0823 82.6817 23.3551 82.5358 20.6182H84.8469V20.6304Z" fill="white"/>
<path d="M99.0054 11.2153V13.8184H101.098V15.6065H99.0054V21.6763C99.0054 22.6251 99.419 23.063 100.343 23.063C100.575 23.063 100.939 23.0265 101.085 23.0143V24.7902C100.83 24.8511 100.331 24.8997 99.8325 24.8997C97.6065 24.8997 96.7308 24.0604 96.7308 21.9317V15.6187H95.1251V13.8306H96.7308V11.2275H99.0054V11.2153Z" fill="white"/>
<path d="M102.302 19.3286C102.302 15.8619 104.346 13.6846 107.52 13.6846C110.695 13.6846 112.739 15.8619 112.739 19.3286C112.739 22.7953 110.719 24.9727 107.52 24.9727C104.321 24.9727 102.302 22.8075 102.302 19.3286ZM110.452 19.3286C110.452 16.9567 109.357 15.5456 107.533 15.5456C105.708 15.5456 104.613 16.9567 104.613 19.3286C104.613 21.7006 105.696 23.1116 107.533 23.1116C109.369 23.1116 110.452 21.7249 110.452 19.3286Z" fill="white"/>
<path d="M114.624 13.8189H116.777V15.6921H116.826C117.166 14.4514 118.176 13.6973 119.478 13.6973C119.806 13.6973 120.074 13.7459 120.256 13.7824V15.8989C120.074 15.8259 119.684 15.7651 119.246 15.7651C117.787 15.7651 116.887 16.7504 116.887 18.2952V24.8272H114.624V13.8189Z" fill="white"/>
<path d="M130.668 21.6033C130.364 23.5981 128.418 24.9727 125.925 24.9727C122.725 24.9727 120.731 22.8318 120.731 19.3773C120.731 15.9227 122.725 13.6846 125.827 13.6846C128.929 13.6846 130.79 15.7768 130.79 19.1218V19.9003H123.017V20.0341C123.017 21.9195 124.197 23.1481 125.985 23.1481C127.238 23.1481 128.224 22.552 128.528 21.6033H130.668ZM123.03 18.3068H128.54C128.491 16.6161 127.409 15.5092 125.839 15.5092C124.27 15.5092 123.151 16.6404 123.03 18.3068Z" fill="white"/>
</svg>
