<svg width="48" height="48" viewBox="0 0 48 48" fill="none" xmlns="http://www.w3.org/2000/svg">
<mask id="mask0_4_4663" style="mask-type:alpha" maskUnits="userSpaceOnUse" x="0" y="0" width="48" height="48">
<rect width="48" height="48" fill="#D9D9D9"/>
</mask>
<g mask="url(#mask0_4_4663)">
<path d="M22.5001 33.254L22.5001 10.5C22.5001 10.0743 22.6438 9.718 22.9311 9.431C23.2181 9.14367 23.5744 9 24.0001 9C24.4258 9 24.7821 9.14367 25.0691 9.431C25.3564 9.718 25.5001 10.0743 25.5001 10.5L25.5001 33.254L35.8386 22.9155C36.1359 22.6182 36.4839 22.4713 36.8826 22.475C37.2813 22.479 37.6358 22.636 37.9461 22.946C38.2358 23.2563 38.3858 23.6077 38.3961 24C38.4064 24.3923 38.2564 24.7437 37.9461 25.054L25.2656 37.7345C25.0783 37.9218 24.8808 38.0538 24.6731 38.1305C24.4654 38.2075 24.2411 38.246 24.0001 38.246C23.7591 38.246 23.5348 38.2075 23.3271 38.1305C23.1194 38.0538 22.9219 37.9218 22.7346 37.7345L10.0541 25.054C9.77711 24.777 9.63544 24.434 9.62911 24.025C9.62278 23.616 9.76444 23.2563 10.0541 22.946C10.3644 22.636 10.7208 22.481 11.1231 22.481C11.5258 22.481 11.8823 22.636 12.1926 22.946L22.5001 33.254Z" fill="white"/>
</g>
</svg>
