<svg width="102" height="26" viewBox="0 0 102 26" fill="none" xmlns="http://www.w3.org/2000/svg">
<path d="M101.208 4.47485H60.917C60.8062 4.47485 60.7148 4.40637 60.7148 4.32483C60.7148 4.2433 60.8062 4.1748 60.917 4.1748H101.208C101.319 4.1748 101.411 4.2433 101.411 4.32483C101.411 4.40637 101.319 4.47485 101.208 4.47485Z" fill="white"/>
<path d="M39.6098 1.9926L39.6228 2.00238L40.4773 2.69054C40.4479 2.22742 40.3534 1.85888 40.0207 1.43164C39.5217 0.802184 38.6705 0.577148 38.0378 0.577148C37.3561 0.577148 36.6843 0.811972 36.1918 1.21639H36.1853C36.1657 1.23596 36.1429 1.25879 36.1168 1.27835L36.1005 1.29466C36.0711 1.32075 36.045 1.34684 36.0255 1.36641L35.9929 1.39902C35.6211 1.78387 35.4188 2.26982 35.4123 2.80143C35.396 4.02446 36.3059 4.5789 37.1996 4.96374L37.3887 5.04528C37.5453 5.11377 37.7149 5.18552 37.8845 5.26379L37.9171 5.27684C38.315 5.45622 38.7651 5.65516 38.7553 6.22591C38.7553 6.42486 38.6835 6.61401 38.5596 6.7673L38.5498 6.77708C38.3835 6.97603 38.1421 7.09018 37.891 7.09018C37.3203 7.09018 37.0626 6.60423 37.0039 6.14438L36.332 6.79992V6.80644L36.3223 6.8097L36.3125 6.81948H36.3092L36.2799 6.82601L36.332 6.81948L36.3418 6.87819L36.2896 6.89776L36.3418 6.88798L36.3516 6.93364L36.3581 6.95646V6.97277L36.3679 6.9956L36.3973 7.07714L36.4038 7.09344L36.4234 7.13584L36.4364 7.15867L36.4429 7.17172C36.4429 7.17172 36.456 7.19129 36.4592 7.19781L36.5179 7.27934L36.5343 7.29891L36.5538 7.32174L36.5701 7.34131L36.5897 7.36414L36.6093 7.38371L36.6321 7.40328L36.6549 7.42285L36.756 7.49786L36.7854 7.51417C36.7854 7.51417 36.8049 7.52721 36.8147 7.53047L36.8441 7.54678L36.9484 7.59896C36.9484 7.59896 36.9745 7.60875 36.9876 7.61527H36.9974L37.0235 7.62831C37.0365 7.63483 37.0495 7.6381 37.0659 7.64136C37.0822 7.64788 37.092 7.65114 37.105 7.6544C37.118 7.65767 37.1278 7.66093 37.1409 7.66419L37.1931 7.6805C37.1931 7.6805 37.2191 7.68702 37.2322 7.69028H37.2518C37.2518 7.69028 37.2713 7.70007 37.2844 7.70333C37.3007 7.70659 37.317 7.70985 37.3333 7.71311H37.3529C37.3529 7.71311 37.3724 7.71963 37.3822 7.7229L37.4866 7.7392C37.5029 7.7392 37.5192 7.74246 37.5388 7.74572L37.6007 7.75225C37.6203 7.75225 37.6399 7.75551 37.6594 7.75551L37.7181 7.76203C37.7442 7.76203 37.7736 7.76203 37.7997 7.7653H37.8453C37.8877 7.76856 37.9334 7.76856 37.9791 7.76856C38.5041 7.76856 38.8955 7.61201 39.1499 7.29891C39.1923 7.24673 39.2314 7.18802 39.264 7.12932C39.3978 6.8945 39.4663 6.59771 39.4728 6.25526C39.4728 6.20308 39.4728 4.97027 37.8812 4.50715C37.8062 4.48432 37.7345 4.46149 37.6464 4.43214C36.9648 4.19731 36.1527 3.73093 36.1625 2.84383V2.7199L36.169 2.70685L36.1755 2.64162V2.61553L36.182 2.59596C36.182 2.58292 36.1853 2.56987 36.1885 2.55683L36.2179 2.42637C36.2179 2.42637 36.2244 2.4068 36.2277 2.39376C36.2309 2.37745 36.2342 2.3644 36.2375 2.35462L36.2472 2.322C36.2472 2.322 36.257 2.29265 36.2603 2.2796C36.2636 2.26982 36.2668 2.25677 36.2733 2.24373C36.2766 2.23068 36.2831 2.21764 36.2896 2.20133L36.306 2.16545C36.306 2.16545 36.319 2.1361 36.3255 2.12306C36.332 2.11001 36.3386 2.09696 36.3418 2.08392C36.3484 2.07087 36.3549 2.05457 36.3614 2.04152L36.381 2.00238C36.381 2.00238 36.3973 1.97303 36.4071 1.95999C36.4136 1.94694 36.4234 1.93389 36.4299 1.92085C36.4397 1.9078 36.4462 1.8915 36.456 1.87845C36.4625 1.86867 36.469 1.85888 36.4755 1.8491C36.5571 1.73495 36.6647 1.62406 36.6875 1.6045C36.7104 1.58493 36.7299 1.56535 36.7495 1.54905L36.7658 1.536C36.7658 1.536 36.7984 1.50665 36.8147 1.4936C36.8376 1.47403 36.8637 1.45773 36.8865 1.44142L36.9126 1.42512C36.9321 1.41207 36.9517 1.39902 36.9713 1.38598C37.0006 1.36967 37.03 1.35336 37.0593 1.33706L37.0854 1.32401C37.1017 1.31423 37.1213 1.30444 37.1409 1.29466C37.1702 1.28161 37.1996 1.26857 37.2322 1.25552L37.2681 1.23921C37.2876 1.23269 37.3039 1.22291 37.3235 1.21639C37.3529 1.2066 37.3822 1.19682 37.4148 1.19029L37.4637 1.17725C37.4833 1.17072 37.4996 1.16747 37.5192 1.16094C37.5551 1.15116 37.5942 1.14463 37.6333 1.13811H37.6529L37.679 1.12833C37.6953 1.12833 37.7084 1.1218 37.7247 1.11854C37.7997 1.10876 37.8714 1.09897 37.9432 1.09571C37.9888 1.09571 38.0312 1.09245 38.0736 1.08919H38.0932H38.1095H38.1519C38.1519 1.08919 38.1813 1.08919 38.1976 1.08919C38.2074 1.08919 38.2204 1.08919 38.2302 1.08919H38.315C38.3313 1.09571 38.3509 1.09571 38.3672 1.09898C38.39 1.09898 38.4096 1.10223 38.4259 1.1055C38.4454 1.1055 38.4617 1.10876 38.4813 1.11202C38.4976 1.11202 38.5172 1.11854 38.5335 1.11854C38.5498 1.11854 38.5661 1.12507 38.5857 1.12833C38.602 1.12833 38.6183 1.13485 38.6346 1.13811C38.6509 1.14137 38.6672 1.14463 38.6835 1.14789C38.6998 1.15116 38.7129 1.15442 38.7292 1.16094C38.7455 1.16747 38.7618 1.17073 38.7748 1.17399C38.7879 1.17725 38.8009 1.18377 38.8172 1.18703H38.8303C38.8303 1.18703 38.8498 1.19682 38.8596 1.20008C38.8694 1.20334 38.8825 1.20986 38.8955 1.21312L38.9151 1.21965L38.9412 1.22943C38.9412 1.22943 38.9705 1.24247 38.9868 1.249L38.9999 1.25552L39.0162 1.26531C39.039 1.27509 39.0618 1.28814 39.0847 1.30118H39.0912C39.1108 1.31749 39.1303 1.32727 39.1466 1.34032L39.1597 1.3501C39.176 1.36315 39.1923 1.37293 39.2053 1.38272L39.2249 1.39902C39.2249 1.39902 39.2477 1.41533 39.2575 1.42512L39.2771 1.44142C39.2771 1.44142 39.2967 1.45773 39.3064 1.46751L39.3684 1.52948C39.3684 1.52948 39.3847 1.54905 39.3945 1.55883L39.4108 1.57514L39.4271 1.59797L39.4467 1.62406L39.4663 1.65015L39.476 1.66646L39.4956 1.69581L39.5054 1.70886C39.5054 1.70886 39.5184 1.72843 39.525 1.74147L39.5315 1.75452C39.5315 1.75452 39.5445 1.78061 39.5543 1.79365L39.6163 1.94042V1.9502L39.5706 1.9763L39.6163 1.96325V1.98934L39.6098 1.9926Z" fill="white"/>
<path d="M38.6344 1.37314H38.6181C38.5985 1.36335 38.5757 1.36009 38.5561 1.35683H38.5365C38.5137 1.35031 38.4941 1.34379 38.4713 1.34379H38.4419C38.4224 1.33726 38.4028 1.334 38.38 1.33074H38.3441C38.3245 1.32422 38.305 1.32422 38.2821 1.32422C38.2691 1.32422 38.2561 1.32422 38.2397 1.32422H38.23C38.2137 1.32422 38.1941 1.32422 38.1778 1.32422H38.1582H38.1125H38.0669C38.0278 1.32422 37.9886 1.32422 37.9495 1.33074C37.3918 1.36335 36.9678 1.56556 36.6873 1.92758C36.446 2.23741 36.3873 2.57334 36.3742 2.74619C36.3742 2.78533 36.371 2.81794 36.371 2.84077V2.86034C36.3612 3.62025 37.095 4.03119 37.7114 4.24318C37.7897 4.26927 37.8647 4.29536 37.9332 4.31493C39.678 4.82045 39.678 6.2098 39.6748 6.26851C39.6682 6.6501 39.59 6.9795 39.4367 7.24693C39.4236 7.26976 39.4106 7.29259 39.3975 7.31542V7.32195C39.378 7.34478 39.3617 7.36761 39.3486 7.38718V7.3937C39.3193 7.42631 39.2964 7.45892 39.2671 7.49154L39.2312 7.53394H39.2279H39.2214L39.2116 7.54372C39.2116 7.54372 39.1823 7.57307 39.166 7.58938C39.1464 7.60895 39.1236 7.62526 39.1008 7.64483L39.0844 7.65787C39.0844 7.65787 39.0518 7.68396 39.0355 7.69375C39.0127 7.71006 38.9866 7.72636 38.9638 7.73941L38.9475 7.74919C38.9279 7.76224 38.9083 7.77202 38.8888 7.78507C38.8627 7.79811 38.8366 7.81116 38.8137 7.82094L38.7877 7.83399C38.7681 7.84377 38.7518 7.85029 38.7322 7.86008C38.7029 7.86986 38.6735 7.87965 38.6442 7.88943L38.6115 7.89921C38.5952 7.90574 38.5789 7.91226 38.5594 7.91552C38.53 7.92205 38.5007 7.92857 38.4713 7.93509L38.4224 7.94487C38.4224 7.94487 38.393 7.9514 38.3767 7.95466C38.3343 7.96118 38.2919 7.9677 38.2495 7.97097H38.2234C38.2234 7.97097 38.1941 7.97749 38.181 7.98075C38.0538 7.99053 37.9332 7.99054 37.8288 7.98727H37.7831C37.7538 7.98401 37.7212 7.98075 37.6918 7.98075C37.6788 7.98075 37.6657 7.98075 37.6527 7.98075H37.6233C37.6038 7.97749 37.5809 7.97423 37.5614 7.97423C37.5516 7.97423 37.5385 7.97423 37.5255 7.97097H37.4961C37.4766 7.96444 37.4603 7.96444 37.4407 7.96118L37.3265 7.94161C37.3265 7.94161 37.3005 7.93509 37.2907 7.93509L37.2646 7.92857C37.2646 7.92857 37.2352 7.92204 37.2189 7.91878C37.2026 7.91552 37.1863 7.91226 37.17 7.90574C37.1504 7.90248 37.1341 7.89596 37.1178 7.8927C37.1015 7.88943 37.0885 7.88291 37.0722 7.87965C37.0559 7.87639 37.0395 7.86986 37.0232 7.86334C37.0102 7.86008 36.9971 7.85356 36.9841 7.8503L36.9678 7.84377C36.9678 7.84377 36.945 7.83399 36.9319 7.83073C36.9189 7.8242 36.9026 7.82094 36.8895 7.81442C36.8765 7.8079 36.8602 7.80137 36.8471 7.79485H36.8373C36.8373 7.79485 36.8178 7.78181 36.808 7.77528C36.7982 7.76876 36.7852 7.7655 36.7754 7.75898C36.7591 7.74919 36.746 7.74267 36.733 7.73614C36.7199 7.72962 36.7101 7.7231 36.6971 7.71658C36.6841 7.71005 36.6743 7.70353 36.6612 7.69701C36.6514 7.69049 36.6384 7.68396 36.6286 7.67418C36.6188 7.66765 36.609 7.66113 36.596 7.65135L36.5699 7.63178C36.5699 7.63178 36.5471 7.61547 36.5373 7.60569L36.4851 7.56003L36.459 7.5372L36.4362 7.51437L36.4166 7.49154L36.4492 7.44914L36.4101 7.48502L36.3905 7.46545L36.3677 7.43936L36.3514 7.41653L36.3351 7.39696L36.3155 7.36761L36.2992 7.34478L36.3383 7.30564L36.2927 7.33499L36.2796 7.31216L36.2666 7.28933L36.2144 7.18497L36.2046 7.1654L36.1981 7.14583C36.1851 7.11322 36.172 7.07734 36.1622 7.04147L36.1557 7.02189L36.1492 6.99907V6.9795L36.1394 6.95993L36.1916 6.94036L36.1394 6.95015L36.1329 6.91753L36.1851 6.89796L36.1329 6.90775L36.1264 6.84252L35.2523 6.14132V6.17719C35.2425 6.87187 35.4447 7.43283 35.8491 7.84377C36.3155 8.31668 37.0395 8.57433 37.8875 8.57433C38.3898 8.57433 39.0942 8.49279 39.6193 8.11447L39.6519 8.09164C39.7139 8.0525 39.8541 7.94814 39.9846 7.76876C40.3205 7.37413 40.4934 6.86861 40.5032 6.25547C40.5195 5.13354 39.8607 4.59541 38.7942 4.08989C38.7485 4.06706 38.6866 4.04097 38.6181 4.01162C38.517 3.96596 38.3963 3.91378 38.2724 3.85507C37.669 3.57459 37.3494 3.3626 37.2418 3.17344C37.1667 3.05603 37.157 2.91252 37.1602 2.78859C37.1602 2.62552 37.2189 2.47223 37.3265 2.34504C37.4766 2.16892 37.7114 2.0613 37.9527 2.0613C38.4843 2.0613 38.6507 2.41026 38.7192 2.71684L39.4139 2.03846L39.391 1.97324L39.3845 1.95693L39.3617 1.90801C39.3258 1.83952 39.2867 1.77755 39.2377 1.72211C39.2377 1.72211 39.2182 1.69928 39.2084 1.68949C39.1953 1.67645 39.1856 1.66666 39.1758 1.65688H39.1692C39.0486 1.53947 38.892 1.45467 38.7061 1.39923L38.7126 1.34379L38.6963 1.39597C38.6768 1.38944 38.6539 1.38618 38.6344 1.37966V1.37314Z" fill="white"/>
<path d="M40.291 2.81789L39.5344 2.20801L38.9082 2.81789H40.291Z" fill="white"/>
<path d="M35.4512 6.02084L36.2078 6.62746L36.834 6.01758L35.4512 6.02084Z" fill="white"/>
<path d="M45.0527 8.32624H46.6247L45.9496 7.60547L45.0527 8.32624Z" fill="white"/>
<path d="M52.1826 8.32005L51.2596 7.60254L50.6367 8.32005H52.1826Z" fill="white"/>
<path d="M48.5297 3.08256C48.5297 3.08256 48.595 2.90644 48.6537 2.73685L48.7091 2.58356L49.6908 5.76017H47.7894H47.6426L48.5265 3.08582L48.5297 3.08256ZM50.6692 6.0537L50.4409 5.36228L49.1527 1.43555H48.2819L48.1449 1.81713L46.7816 5.52862L46.5859 6.0537H50.6725H50.6692Z" fill="white"/>
<path d="M49.3057 1.22027L49.3449 1.34094L51.3343 7.39085L52.2703 8.11489L49.7199 0.711491L49.6743 0.59082H47.8544L47.7826 0.796286L44.9941 8.10184L45.8715 7.39738L48.1316 1.22353L49.3057 1.22027Z" fill="white"/>
<path d="M46.5014 6.27182L46.084 7.43614L46.8308 8.22866L47.0461 7.57638L47.1929 7.15566H50.0433C50.089 7.15566 50.1314 7.18175 50.1444 7.22741L50.451 8.21562L51.1261 7.43288L50.7413 6.26855H46.5014V6.27182Z" fill="white"/>
<path d="M55.6983 1.19359L56.0799 1.24577L56.3995 1.32405C56.3995 1.32405 56.5919 1.38275 56.7582 1.45776C56.7778 1.46755 56.7908 1.47407 56.8039 1.4806C56.8267 1.49038 56.8463 1.50016 56.8691 1.51321C56.8919 1.52625 56.9115 1.53604 56.9311 1.54908C56.9539 1.56213 56.9735 1.57191 56.9931 1.58496C57.0126 1.598 57.0355 1.61105 57.055 1.6241L57.0648 1.63062C57.0648 1.63062 57.0942 1.65019 57.1105 1.65997C57.13 1.67302 57.1496 1.68932 57.1659 1.70237C57.1855 1.71868 57.2018 1.73173 57.2181 1.74151C57.2311 1.75456 57.2442 1.76434 57.2572 1.77739L57.2833 1.80347C57.2833 1.80347 57.3029 1.82304 57.3127 1.83283C57.3257 1.84587 57.3388 1.86218 57.3518 1.87522L57.3714 1.89806C57.3714 1.89806 57.3909 1.91763 57.4007 1.93067C57.4138 1.94372 57.4236 1.95676 57.4333 1.97307L57.4496 1.99263C57.4496 1.99263 57.4692 2.01873 57.479 2.03178C57.4921 2.04808 57.5018 2.06439 57.5116 2.08069L57.5279 2.10353C57.5279 2.10353 57.5442 2.12636 57.5508 2.1394C57.5605 2.15571 57.5703 2.17527 57.5801 2.19158L57.5932 2.21767C57.5932 2.21767 57.6062 2.2405 57.6127 2.25355C57.6225 2.26986 57.629 2.28942 57.6388 2.30899L57.6486 2.33508C57.6486 2.33508 57.6616 2.36117 57.6649 2.37422C57.6714 2.39379 57.6812 2.41336 57.6877 2.43619L57.6975 2.46228C57.6975 2.46228 57.7073 2.48511 57.7106 2.49815C57.7171 2.52098 57.7236 2.54708 57.7301 2.56991L57.7367 2.58947C57.7367 2.58947 57.7432 2.61556 57.7464 2.62535C57.753 2.64818 57.7562 2.67101 57.7595 2.69384L57.766 2.72319C57.766 2.72319 57.7693 2.74602 57.7725 2.75581C57.7758 2.7819 57.7791 2.81125 57.7823 2.83734V2.8667L57.7888 2.89605C57.7921 2.94497 57.7954 2.99063 57.7921 3.03955C57.7921 3.99188 57.3909 4.61481 56.6049 4.88551C56.194 5.02575 55.7537 5.04532 55.4145 5.04858H55.3819H55.3884H55.1275C55.1764 5.10076 55.2482 5.17251 55.3297 5.24752L57.4725 7.36418L58.702 8.02298L56.6669 5.83457L56.6539 5.82805L56.4582 5.6715L56.5756 5.65194C56.5756 5.65194 56.693 5.63237 56.8039 5.59976L56.8169 5.59649C56.8593 5.58345 56.9083 5.5704 56.9572 5.55409C57.2605 5.44973 57.5312 5.29318 57.7823 5.07793C58.2748 4.65069 58.5911 3.87121 58.5944 3.09499C58.5944 2.28942 58.2781 1.57844 57.6975 1.09901C57.5116 0.945726 57.2898 0.831573 57.0191 0.743515L56.9767 0.733731C56.9441 0.723947 56.9083 0.714164 56.8724 0.70438L56.7908 0.681552C56.6963 0.658722 56.618 0.642412 56.5528 0.632628H56.5462C56.1484 0.5674 55.7276 0.557617 55.3721 0.557617L53.05 0.564141L53.0435 0.557617H52.7891V0.736996L52.7695 8.16322L53.5425 7.40983L53.5588 1.56213V1.20337H53.6664L55.4341 1.19686L55.6559 1.20664C55.6559 1.20664 55.6787 1.20664 55.6918 1.20664L55.6983 1.19359Z" fill="white"/>
<path d="M52.9326 8.29659L54.3774 8.29007L53.6567 7.58887L52.9326 8.29659Z" fill="white"/>
<path d="M58.8028 8.30704L57.4558 7.58301L57.0645 8.30378L58.8028 8.30704Z" fill="white"/>
<path d="M54.5304 4.04377L54.537 2.09019H55.4241C55.6197 2.09019 55.91 2.09671 56.1644 2.16847C56.634 2.30218 56.8623 2.61201 56.8623 3.11427C56.8623 3.60674 56.6504 3.91984 56.2198 4.06987C56.0242 4.13836 55.7828 4.17097 55.473 4.17097H54.6609H54.5304V4.04051V4.04377ZM54.625 4.82651L55.4175 4.81999C55.7404 4.81999 56.1579 4.80042 56.5395 4.66996C57.2276 4.43188 57.5799 3.8807 57.5799 3.02621C57.5799 2.32501 57.2178 1.83906 56.4938 1.57815C56.0111 1.4053 55.5349 1.39551 55.4436 1.39551H55.4306L53.8847 1.40203L53.8945 1.39551H53.7803L53.7738 2.7914L53.7673 4.66018V5.21788V5.21462L53.7607 7.3965L54.5174 8.13032L54.5239 6.26479V5.71361L56.8591 8.22816L57.2765 7.45847L54.8827 5.09395L54.625 4.82651Z" fill="white"/>
<path d="M45.7742 0.828125L44.9882 1.5652H43.713H43.4912V7.47488L44.2642 8.23152L44.2674 2.24683H45.7742V0.828125Z" fill="white"/>
<path d="M44.8961 1.35054L45.6071 0.688477L41.1553 0.695001L41.8663 1.35381L44.8961 1.35054Z" fill="white"/>
<path d="M40.9893 0.832031V2.25401H42.4014C42.4308 2.25401 42.4569 2.26379 42.4765 2.28662C42.496 2.30619 42.5091 2.33554 42.5091 2.36163V8.23543L43.282 7.47552V1.56911H41.8274C41.8013 1.56911 41.7753 1.55932 41.7557 1.53976L40.9925 0.832031H40.9893Z" fill="white"/>
<path d="M44.1072 8.37895L43.3832 7.66797L42.6592 8.37895H44.1072Z" fill="white"/>
<path d="M27.6404 4.26634H28.4525C28.7526 4.26308 28.9939 4.23047 29.1831 4.16524C29.5908 4.025 29.7897 3.72821 29.7897 3.25857C29.7897 2.78567 29.5745 2.49214 29.1309 2.36494C28.8798 2.29319 28.583 2.28341 28.384 2.28667H27.6372H27.5719V2.37147L27.5654 4.18807V4.26308H27.6404V4.26634Z" fill="white"/>
<path d="M16.1863 4.32805H17.0147C17.3213 4.32479 17.5627 4.29218 17.7551 4.22369C18.1693 4.08018 18.3715 3.78013 18.3715 3.30397C18.3715 2.82128 18.153 2.52449 17.7029 2.39404C17.4452 2.31902 17.1452 2.3125 16.943 2.3125H16.1831H16.1178V2.40055L16.1113 4.24977V4.32805H16.1896H16.1863Z" fill="white"/>
<path d="M30.0441 8.46009L30.4387 7.72954L31.802 8.46009H30.0408H30.0441ZM27.51 5.86728V6.42171L27.5035 8.2905L26.7403 7.5469L26.7468 5.35197H26.7501L26.7468 4.80732L26.7566 1.53287H26.9099H26.9001H28.4134H28.4297C28.521 1.53287 29.0004 1.54265 29.4831 1.7155C30.2072 1.97642 30.5757 2.46563 30.5724 3.17009C30.5724 4.02458 30.2169 4.58228 29.5255 4.82036C29.1439 4.95082 28.7232 4.97039 28.4003 4.97039L27.6143 4.97691L27.8687 5.23783L30.2691 7.60887L29.8484 8.38508L27.5132 5.86728H27.51ZM25.9021 8.45358L26.6359 7.73933L27.3665 8.45031H25.9021V8.45358ZM25.7684 0.861012V0.675114H26.0293L26.0358 0.681638L28.3612 0.675114C28.72 0.675114 29.1374 0.684897 29.5451 0.750125C29.6103 0.759909 29.6919 0.776219 29.7832 0.799049L29.8647 0.821876C29.9006 0.831661 29.9365 0.841444 29.9691 0.851228L30.0082 0.861012C30.2789 0.94907 30.504 1.06322 30.6899 1.21977C31.2736 1.70246 31.5933 2.41344 31.59 3.22227C31.59 4.00175 31.2671 4.78123 30.7747 5.21173C30.5235 5.42699 30.2528 5.58353 29.9495 5.6879C29.9006 5.7042 29.8517 5.72051 29.806 5.7303H29.793V5.73356C29.6821 5.76617 29.5647 5.78574 29.5647 5.78574L29.4538 5.80531L29.6429 5.95859L31.7074 8.17309L30.455 7.5045L28.309 5.38459C28.2503 5.33241 28.159 5.24435 28.1003 5.17912H28.3482H28.3416H28.3938C28.733 5.17912 29.1733 5.15955 29.5875 5.01605C30.3735 4.74535 30.7714 4.12568 30.7747 3.17009C30.7747 3.12117 30.7747 3.07551 30.7714 3.02659V2.99724L30.7649 2.96788C30.7649 2.94179 30.7583 2.91244 30.7551 2.88961C30.7551 2.87656 30.7518 2.86678 30.7486 2.857L30.742 2.82438C30.7388 2.80155 30.7355 2.77872 30.729 2.75589C30.729 2.74285 30.7225 2.73306 30.7192 2.72002L30.7127 2.70045C30.7062 2.67762 30.6996 2.65153 30.6931 2.6287C30.6899 2.61565 30.6866 2.60587 30.6801 2.59608L30.6703 2.56673C30.6638 2.54716 30.6572 2.52759 30.6475 2.50802C30.6409 2.49498 30.6377 2.48193 30.6311 2.46889L30.6214 2.4428C30.6148 2.42323 30.6051 2.40692 30.5953 2.38735C30.5887 2.37431 30.5822 2.36452 30.5757 2.35148L30.5627 2.32539C30.5529 2.30908 30.5431 2.28951 30.5333 2.2732C30.5268 2.26016 30.517 2.25037 30.5105 2.23733L30.4942 2.2145C30.4844 2.19819 30.4713 2.18188 30.4616 2.16558C30.4518 2.15253 30.442 2.13949 30.4322 2.12644L30.4159 2.10687C30.4159 2.10687 30.3931 2.07752 30.38 2.06447C30.3702 2.05469 30.3605 2.04491 30.3507 2.03186L30.3278 2.00903C30.3278 2.00903 30.3017 1.98294 30.2887 1.96989C30.2789 1.96011 30.2691 1.95033 30.2593 1.94054L30.2333 1.91445C30.2333 1.91445 30.2072 1.89162 30.1909 1.87857C30.1746 1.86553 30.1582 1.85248 30.1387 1.83943L30.1289 1.83291C30.1289 1.83291 30.0995 1.81008 30.0832 1.79704C30.0702 1.78726 30.0539 1.77747 30.0408 1.76769L30.0278 1.7579C30.0082 1.74485 29.9887 1.73181 29.9691 1.71876C29.9528 1.70898 29.9332 1.6992 29.9169 1.68615L29.9071 1.67636H29.9006C29.8843 1.66658 29.8647 1.6568 29.8484 1.64701C29.8256 1.63723 29.806 1.62419 29.7832 1.6144L29.7375 1.59157C29.5679 1.51982 29.3853 1.46111 29.3788 1.45785L28.9744 1.36653L28.4851 1.31761V1.3698L28.4754 1.31761H28.4199L26.6457 1.32414H26.5413V1.69267L26.525 7.54364L25.7456 8.30355L25.7651 0.857752L25.7684 0.861012ZM25.0411 2.15579L24.3073 1.49699L25.0444 0.838184V2.15579H25.0411ZM25.028 8.41443L24.2942 7.74585L25.0313 7.07726V8.41443H25.028ZM22.5037 2.4428V3.64626C22.5037 3.67561 22.5135 3.7017 22.5331 3.72127C22.5526 3.74084 22.5787 3.75062 22.6081 3.75062H24.8063L24.0333 4.4453H21.5873L21.5905 2.06447V1.60135H21.7764H24.1083L24.8715 2.28951H22.5037V2.4428ZM24.2323 4.54967L24.9628 3.89739V5.20195L24.2323 4.54967ZM22.9244 5.35197H22.5005V5.67811V6.83917C22.5005 6.89788 22.5494 6.94354 22.6048 6.94354H24.8617L24.1018 7.63496H21.584L21.5905 4.76166V4.64751H24.0366L24.8128 5.34871H23.0745H22.931L22.9244 5.35197ZM20.7099 8.54815V0.697941H20.8795L20.8665 0.681638H24.8976L24.1116 1.3861H21.7666H21.6884H21.3687V7.84369H24.0985L24.865 8.54489H20.7132L20.7099 8.54815ZM15.2764 5.05192L15.2862 1.55243L16.9724 1.54591H16.9887C17.08 1.54591 17.5692 1.5557 18.0617 1.73181C18.7988 1.99599 19.1706 2.49498 19.1706 3.21249C19.1706 4.08329 18.8118 4.64751 18.1073 4.89211C17.7192 5.02583 17.292 5.0454 16.9626 5.0454L15.4591 5.06171H15.283V5.05518L15.2764 5.05192ZM19.3793 5.29C19.1249 5.50852 18.8477 5.66833 18.5378 5.77596C18.0617 5.93903 17.5496 5.96186 17.0637 5.96512H16.0527V6.13797L16.0461 8.42422L15.2699 7.66757L15.2764 5.42698V5.27044L16.9593 5.25739C17.305 5.25739 17.7518 5.23782 18.1726 5.09106C18.9716 4.8171 19.376 4.18439 19.3793 3.21575C19.3793 3.16683 19.3793 3.11791 19.376 3.07225V3.04289L19.3695 3.01354C19.3695 2.98745 19.363 2.9581 19.3597 2.93201C19.3597 2.91896 19.3565 2.90918 19.3532 2.89613L19.3467 2.86352C19.3434 2.84069 19.3402 2.81786 19.3336 2.79503C19.3336 2.78198 19.3271 2.76894 19.3238 2.75589V2.73959C19.3141 2.71349 19.3075 2.6874 19.2978 2.66458C19.2945 2.65153 19.2912 2.64175 19.2847 2.6287L19.2749 2.60261C19.2684 2.57978 19.2619 2.56021 19.2521 2.53738C19.2456 2.52433 19.2423 2.51129 19.2358 2.49824L19.226 2.47215C19.2195 2.45258 19.2097 2.43627 19.1999 2.4167C19.1934 2.40366 19.1869 2.39387 19.1803 2.38083L19.1673 2.35474C19.1575 2.33843 19.1477 2.31887 19.1379 2.30256C19.1314 2.28951 19.1216 2.27973 19.1151 2.26668L19.1021 2.24711C19.089 2.2308 19.0792 2.21124 19.0662 2.19493C19.0564 2.18189 19.0466 2.16884 19.0368 2.15579L19.0205 2.13296C19.0205 2.13296 18.9977 2.10361 18.9847 2.09056C18.9749 2.08078 18.9651 2.06774 18.9553 2.05795L18.9357 2.03512C18.9357 2.03512 18.9096 2.00577 18.8933 1.99272C18.8836 1.98294 18.8738 1.97315 18.8607 1.96337L18.8314 1.93728C18.8314 1.93728 18.8053 1.91445 18.7922 1.90467C18.7759 1.89162 18.7596 1.87857 18.7401 1.86553C18.7205 1.85248 18.7009 1.83618 18.6813 1.82313C18.6683 1.81335 18.652 1.80356 18.639 1.79377L18.6259 1.78399C18.6063 1.77095 18.5868 1.7579 18.5639 1.74486C18.5444 1.73181 18.5248 1.72203 18.502 1.70898C18.4791 1.69593 18.4596 1.68289 18.4367 1.6731C18.4139 1.66332 18.3911 1.65027 18.3715 1.64049L18.3226 1.61766C18.1497 1.54265 17.9671 1.48394 17.9573 1.48394L17.7682 1.43502L17.2431 1.35349C17.2431 1.35349 17.217 1.35348 17.2007 1.35022L17.0474 1.3437V1.39588L17.0376 1.3437H16.9822L15.1786 1.34696H15.0579V7.66757L14.2621 8.44379L14.2817 0.776217V0.681638H15.2503H16.9169C17.2789 0.681638 17.7062 0.691419 18.1236 0.759909C18.1889 0.769693 18.2737 0.786003 18.3683 0.808833L18.3911 0.815352L18.4498 0.83166C18.4857 0.841444 18.5215 0.851231 18.5542 0.864276L18.5933 0.8708C18.6357 0.883846 18.6781 0.900153 18.7205 0.91646C18.7498 0.926244 18.7661 0.932763 18.7694 0.932763C18.9716 1.01104 19.1412 1.11214 19.2912 1.23281C19.8848 1.72528 20.2109 2.44606 20.2077 3.27119C20.2077 4.06371 19.8815 4.85624 19.3793 5.29327V5.29ZM14.4154 8.58403L15.1623 7.85347L15.9059 8.57751H14.4122L14.4154 8.58403ZM13.424 5.41068C13.424 5.88358 13.3979 6.4315 13.2087 6.92397C13.0848 7.24685 12.8989 7.52733 12.6445 7.77846L12.6053 7.81434C12.589 7.83064 12.5695 7.85021 12.5434 7.86978C12.5173 7.89261 12.4879 7.91544 12.4618 7.93827L12.4488 7.95132L12.439 7.9611C12.4031 7.99045 12.3705 8.01328 12.351 8.02959L12.3281 8.0459C11.8259 8.41444 11.1997 8.6036 10.4691 8.6036C9.67334 8.6036 8.95909 8.38508 8.45683 7.98719L8.44052 7.97741L8.40139 7.94479C8.3753 7.92522 8.34921 7.89913 8.31985 7.87304L8.27093 7.82738L8.23506 7.86326L8.26115 7.8176L8.22853 7.78499C7.95784 7.50124 7.7752 7.22402 7.65453 6.91745C7.48819 6.49021 7.45558 6.03687 7.45558 5.4009L7.46536 0.834925L8.28398 1.61114L8.27419 5.8738C8.27419 5.89011 8.27093 6.3043 8.46988 6.75764C8.49271 6.81308 8.52206 6.86853 8.55468 6.92723C8.5612 6.94028 8.56772 6.95007 8.57424 6.95985L8.58403 6.97615C8.60686 7.01203 8.62643 7.0479 8.64926 7.08378C8.65904 7.09683 8.66882 7.10987 8.67861 7.12292L8.69492 7.14249C8.71775 7.17184 8.74058 7.20119 8.76341 7.23055C8.77645 7.24359 8.7895 7.2599 8.80254 7.27294L8.84494 7.3186C8.87429 7.34795 8.91017 7.38383 8.94931 7.4197C8.96235 7.42949 8.97214 7.43928 8.98518 7.44906L9.0178 7.47515C9.03736 7.49146 9.05693 7.50777 9.0765 7.52081C9.09933 7.53712 9.12542 7.55342 9.15151 7.56973L9.18087 7.5893C9.20043 7.60234 9.21674 7.61213 9.23631 7.62517C9.25914 7.63822 9.28523 7.65126 9.31132 7.66431L9.35372 7.68714C9.37003 7.69693 9.38959 7.70671 9.40916 7.71323C9.43852 7.72628 9.46787 7.73606 9.49722 7.74911L9.5331 7.76215C9.55267 7.76868 9.57224 7.77846 9.5918 7.78499C9.62442 7.79477 9.65703 7.80455 9.68964 7.81434L9.72878 7.82412C9.74835 7.83064 9.76466 7.83391 9.78423 7.84043C9.81684 7.84695 9.85271 7.85347 9.88533 7.86L9.93751 7.86978C9.95382 7.87304 9.97339 7.8763 9.98969 7.87956C10.0321 7.88609 10.0778 7.88935 10.1202 7.89587H10.1626C10.1626 7.89587 10.1919 7.90239 10.2082 7.90566C10.3517 7.91544 10.5115 7.91544 10.6681 7.90566C10.6844 7.90566 10.7007 7.90566 10.717 7.9024H10.7529C10.7985 7.89261 10.8442 7.88935 10.8898 7.88283C10.9061 7.88283 10.9257 7.8763 10.942 7.87304L10.9942 7.86326C11.0301 7.85673 11.066 7.85021 11.0986 7.84369C11.1181 7.84043 11.1344 7.83391 11.1508 7.83065L11.1932 7.8176C11.2258 7.80781 11.2616 7.80129 11.2943 7.78825C11.3138 7.78172 11.3334 7.7752 11.353 7.76868L11.3954 7.75237C11.4247 7.74259 11.4541 7.72954 11.4802 7.71976C11.4997 7.70997 11.516 7.70345 11.5356 7.69367L11.5682 7.67736C11.5976 7.66431 11.6237 7.648 11.653 7.63496C11.6726 7.62517 11.6889 7.61213 11.7085 7.60235L11.7345 7.58604C11.7606 7.56973 11.7867 7.55342 11.8128 7.53386C11.8324 7.51755 11.852 7.5045 11.8813 7.48167L11.8944 7.47189C12.002 7.37731 12.1324 7.23707 12.1585 7.20446L12.1716 7.18815L12.1944 7.1588L12.2075 7.13922C12.2075 7.13922 12.227 7.11313 12.2368 7.10009C12.2596 7.06747 12.2825 7.0316 12.302 6.99246L12.3151 6.97289C12.3151 6.97289 12.3281 6.95006 12.3346 6.94028C12.364 6.88483 12.3934 6.82613 12.4162 6.76742C12.5695 6.40541 12.5923 6.0597 12.5923 5.88684L12.5988 4.04741C12.6021 3.0005 12.6053 1.85575 12.6086 1.62419L13.4435 0.838184L13.4337 5.41394L13.424 5.41068ZM6.20972 7.73606L6.18037 7.7752C6.06622 7.92197 5.91293 8.04264 5.85423 8.08503L5.82814 8.1046C5.29979 8.48945 4.5888 8.57098 4.08002 8.57425C3.2288 8.57425 2.5015 8.31333 2.03512 7.84043C1.62744 7.42623 1.42524 6.862 1.43502 6.16732V6.12492L2.3156 6.83591L2.35148 7.03812C2.36126 7.07073 2.37431 7.10661 2.39061 7.15227L2.40366 7.18488L2.44932 7.16531L2.41018 7.19793L2.42649 7.23381L2.47215 7.21097L2.43627 7.25011L2.45258 7.28273L2.49498 7.25663L2.45584 7.29251L2.46889 7.31534C2.46889 7.31534 2.47867 7.33165 2.48846 7.34469L2.50476 7.36753L2.52433 7.39688L2.54064 7.41644C2.54064 7.41644 2.55368 7.43275 2.56347 7.4458L2.7298 7.60887L2.75915 7.6317L2.82112 7.67409C2.82112 7.67409 2.84395 7.68714 2.85373 7.69693C2.86352 7.70345 2.87656 7.70997 2.88635 7.71649C2.89939 7.72302 2.90918 7.72954 2.92222 7.73606C2.93527 7.74258 2.94505 7.74911 2.96462 7.75889L3.07877 7.81108C3.07877 7.81108 3.10486 7.82086 3.12117 7.82738L3.16683 7.84369C3.16683 7.84369 3.19618 7.85347 3.20923 7.86C3.22553 7.86652 3.24184 7.86978 3.25815 7.8763C3.27445 7.87957 3.2875 7.88609 3.30381 7.88935C3.32011 7.89261 3.33968 7.89913 3.35925 7.9024C3.37556 7.90566 3.3886 7.90892 3.40491 7.91218C3.41796 7.91544 3.43426 7.9187 3.44731 7.92196L3.62669 7.95458C3.64299 7.95458 3.6593 7.95784 3.67887 7.9611H3.71474C3.71474 7.9611 3.73757 7.96762 3.75062 7.97088C3.77019 7.97088 3.78976 7.97415 3.81259 7.97741L3.88108 7.98393C3.91043 7.98393 3.93652 7.98393 3.9724 7.98719H4.01806C4.06045 7.99045 4.10611 7.99045 4.16156 7.99045C4.23005 7.99045 4.29854 7.99045 4.37355 7.98067C4.38659 7.98067 4.4029 7.98067 4.41595 7.97415H4.44856C4.49096 7.96436 4.5301 7.9611 4.56923 7.95458C4.58554 7.95458 4.60185 7.94805 4.61815 7.94479L4.66381 7.93501C4.69317 7.92848 4.72578 7.92196 4.75513 7.91544C4.7747 7.90892 4.79101 7.90565 4.80732 7.89913L4.83993 7.88935C4.86928 7.87956 4.89864 7.86978 4.92799 7.86C4.94756 7.85347 4.96386 7.84369 4.98343 7.8339L5.01278 7.82086C5.03888 7.80782 5.06171 7.79803 5.0878 7.78499C5.10737 7.7752 5.12693 7.76216 5.1465 7.74911L5.16281 7.73933C5.1889 7.72302 5.21173 7.70997 5.23456 7.69367C5.24761 7.68388 5.26065 7.6741 5.28022 7.65779C5.46286 7.50777 5.62593 7.26316 5.6455 7.23381C5.79226 6.96637 5.87054 6.64023 5.87706 6.26517C5.87706 6.20646 5.88032 4.81384 4.13221 4.30832C4.05393 4.28549 3.97892 4.26266 3.90717 4.23657C3.2875 4.02458 2.55368 3.61038 2.56021 2.84395V2.82438C2.56021 2.80155 2.56021 2.76894 2.56347 2.7298C2.57651 2.55695 2.63522 2.22102 2.87982 1.90793C3.16357 1.54265 3.59081 1.34044 4.14851 1.30783C4.18765 1.30783 4.22679 1.30457 4.26592 1.3013H4.28875H4.30832H4.35724H4.37355C4.39312 1.3013 4.41269 1.3013 4.44204 1.3013H4.47791C4.50074 1.3013 4.52031 1.30457 4.53988 1.30783H4.57576C4.59859 1.31435 4.61815 1.31435 4.63772 1.31761H4.66708C4.68664 1.32413 4.70947 1.32739 4.72904 1.33066H4.75187C4.7747 1.34044 4.79427 1.3437 4.81384 1.34696H4.83015C4.85298 1.35675 4.87254 1.36001 4.9019 1.3698C5.09106 1.42524 5.24761 1.51329 5.3748 1.6307C5.38459 1.64049 5.39763 1.65354 5.40742 1.66332C5.4172 1.6731 5.42698 1.68615 5.43677 1.69594C5.48569 1.75138 5.52809 1.81334 5.5607 1.88183L5.56722 1.89162L5.57375 1.90467L5.61615 2.01555L4.91494 2.70045C4.84645 2.39387 4.68338 2.03838 4.14851 2.03838C3.90717 2.03838 3.67235 2.14601 3.52232 2.32213C3.41469 2.44932 3.35925 2.59934 3.35599 2.76241C3.35599 2.88635 3.36251 3.02985 3.43752 3.14726C3.54515 3.33642 3.86477 3.54841 4.47139 3.8289C4.59859 3.8876 4.71926 3.94304 4.82036 3.98544C4.89211 4.01806 4.95082 4.04415 4.99648 4.06372C6.06622 4.56924 6.72829 5.11063 6.71198 6.23582C6.7022 6.83918 6.53586 7.34143 6.21298 7.72954L6.20972 7.73606ZM2.4004 6.63044L1.6307 6.01078H3.03637L2.4004 6.63044ZM6.50325 2.80807H5.09758L5.73356 2.18841L6.50325 2.80807ZM2.07752 1.49373C2.10361 1.46111 2.14275 1.41872 2.19167 1.3698L2.21123 1.35022C2.23733 1.32739 2.26342 1.30131 2.28951 1.27848L2.32865 1.23934C2.37104 1.2002 2.41997 1.16433 2.47215 1.12519L2.5015 1.10236C2.98093 0.756648 3.61038 0.557705 4.23331 0.554443C4.86928 0.554443 5.72703 0.779477 6.22603 1.41219C6.56195 1.84596 6.65653 2.21776 6.68589 2.68414L5.82161 1.9862L5.81509 1.96337V1.94706L5.74334 1.78073C5.73682 1.76769 5.7303 1.75464 5.72051 1.7416L5.71399 1.72855C5.71399 1.72855 5.70094 1.70898 5.69442 1.6992L5.65528 1.64049L5.63571 1.6144L5.61941 1.59483L5.59984 1.56874L5.49873 1.46111C5.49873 1.46111 5.47917 1.44481 5.46938 1.43502L5.44981 1.41871C5.44981 1.41871 5.42698 1.39915 5.4172 1.39262L5.39763 1.37631C5.39763 1.37631 5.37154 1.35675 5.35197 1.3437L5.33893 1.33392C5.31936 1.32087 5.30305 1.31109 5.28348 1.3013L5.2737 1.29478C5.25087 1.28173 5.22804 1.26869 5.20521 1.2589L5.17912 1.24586C5.17912 1.24586 5.1465 1.22955 5.1302 1.22303L5.1041 1.21324L5.0878 1.20673C5.0878 1.20673 5.06497 1.19694 5.05192 1.19368C5.04214 1.19042 5.03235 1.18715 5.02257 1.18389H5.01278C5.01278 1.18389 4.98343 1.17085 4.97039 1.16758C4.95734 1.16432 4.9443 1.16106 4.92473 1.15454L4.87907 1.14149C4.87907 1.14149 4.84645 1.13497 4.83015 1.13171L4.78122 1.12193C4.76492 1.11866 4.74861 1.1154 4.72904 1.11214C4.71274 1.11214 4.69643 1.10562 4.67686 1.10562C4.66055 1.10562 4.64098 1.10236 4.62142 1.0991C4.60511 1.0991 4.5888 1.09584 4.56597 1.09257C4.5464 1.09257 4.5301 1.08931 4.51053 1.08931L4.39312 1.08279C4.39312 1.08279 4.36703 1.08279 4.35398 1.08279H4.3018H4.29201H4.27245C4.23005 1.08279 4.18439 1.08279 4.14199 1.08931C4.07024 1.09258 3.99849 1.10236 3.92347 1.11214C3.90717 1.11214 3.89412 1.11866 3.87781 1.12193L3.82889 1.13171C3.78976 1.13823 3.75388 1.14476 3.71801 1.15454C3.69844 1.1578 3.67887 1.16433 3.66256 1.17085L3.61364 1.18389C3.58429 1.19368 3.55167 1.2002 3.52232 1.20998C3.50275 1.21651 3.48645 1.22303 3.46688 1.23281L3.431 1.24912C3.40165 1.26217 3.36904 1.27195 3.33968 1.28826C3.32011 1.29804 3.30381 1.30783 3.28424 1.31761L3.25815 1.33066C3.22879 1.34696 3.19618 1.36327 3.16683 1.37958C3.14726 1.39263 3.12769 1.40567 3.10812 1.41871L3.08203 1.43502C3.05594 1.45133 3.03311 1.46764 3.01028 1.48721C2.99397 1.50025 2.97767 1.51329 2.96136 1.5296L2.93527 1.55243C2.91244 1.572 2.88961 1.59157 2.87004 1.61114C2.85373 1.62744 2.83416 1.64701 2.81786 1.66658L2.79829 1.68615H2.79503L2.75915 1.72529C2.73306 1.75464 2.71023 1.78726 2.69066 1.81335L2.66457 1.84922L2.64826 1.87205C2.63848 1.8851 2.6287 1.9014 2.62217 1.91445C2.61565 1.9275 2.60587 1.94054 2.59934 1.95359C2.58956 1.96663 2.58304 1.98294 2.57651 1.99599L2.55694 2.03512C2.55694 2.03512 2.5439 2.06447 2.53411 2.07752L2.48193 2.19493C2.48193 2.19493 2.47215 2.22428 2.46563 2.23733C2.46236 2.25037 2.45584 2.26016 2.45258 2.2732C2.44606 2.28625 2.4428 2.30256 2.43627 2.32539L2.42975 2.34822C2.42975 2.34822 2.42323 2.37104 2.4167 2.39061L2.3743 2.5863L2.42323 2.59282L2.37104 2.59934L2.36452 2.64174L2.41344 2.65479H2.36126L2.358 2.70045V2.71349L2.35148 2.84069C2.34169 3.72779 3.15378 4.19417 3.83542 4.42899C3.91043 4.45508 3.9887 4.48118 4.07024 4.50401C5.66507 4.96713 5.66833 6.20646 5.66833 6.25864C5.66181 6.60435 5.59332 6.90114 5.4596 7.13922C5.42698 7.19793 5.38785 7.25664 5.34219 7.30882C5.0878 7.62191 4.69317 7.77846 4.16808 7.77846C4.12242 7.77846 4.07676 7.77846 4.03436 7.77846H3.9887C3.95935 7.7752 3.93326 7.7752 3.90717 7.77194H3.85498C3.83215 7.76541 3.80932 7.76541 3.78976 7.76215L3.73105 7.75563C3.71148 7.75563 3.69518 7.75237 3.67561 7.74911L3.51906 7.72302C3.51906 7.72302 3.48645 7.7165 3.47014 7.71323C3.45709 7.71323 3.44405 7.70671 3.43426 7.70345L3.29402 7.66431C3.29402 7.66431 3.26793 7.65453 3.25489 7.65127C3.24184 7.64801 3.22553 7.64148 3.21249 7.63822L3.1864 7.62843L3.03963 7.55995C3.03963 7.55995 3.0168 7.55016 3.00702 7.54364C2.99723 7.53712 2.98745 7.53386 2.9744 7.52407L2.87004 7.44906L2.74611 7.33165L2.72654 7.30882L2.71023 7.28925L2.66457 7.22402L2.57977 7.05769L2.52433 6.82939H2.47215L2.52107 6.81635V6.8033L3.19944 6.14123C3.25489 6.60109 3.51254 7.09356 4.08654 7.09356C4.34093 7.09356 4.58228 6.97942 4.74535 6.78047L4.75513 6.77069C4.88233 6.61414 4.94756 6.42824 4.95082 6.22929C4.95734 5.66181 4.51053 5.4596 4.11264 5.28022L4.08002 5.26718C3.90717 5.18564 3.74084 5.11389 3.58429 5.04866L3.39513 4.96713C2.49824 4.58228 1.58178 4.02132 1.60135 2.79503C1.60787 2.3156 1.77421 1.86879 2.08078 1.50025L2.07752 1.49373ZM9.15477 0.701206L8.38508 1.42524L7.61865 0.697941H9.15151L9.15477 0.701206ZM9.33415 5.96838C9.37981 6.26843 9.46787 6.49999 9.60811 6.67284C9.79727 6.90767 10.081 7.02834 10.4496 7.02834C10.8279 7.02834 11.1018 6.92071 11.2877 6.69894C11.428 6.52934 11.516 6.29452 11.5519 5.97816C11.5747 5.789 11.578 5.58354 11.578 5.41068L11.5878 0.861012L12.3901 1.62092C12.3901 1.859 12.3868 2.99398 12.3803 4.03437L12.3738 5.74008V5.88684C12.3738 6.04339 12.351 6.35649 12.214 6.68589C12.1227 6.9044 11.9922 7.0903 11.8291 7.24359C11.4997 7.5469 11.0301 7.70345 10.4365 7.70345C9.85272 7.70345 9.38633 7.54364 9.05367 7.23381C8.8906 7.08378 8.76014 6.89462 8.66556 6.67937C8.48618 6.26843 8.48619 5.88685 8.48619 5.88358L8.49597 1.62092L9.31458 0.851228L9.3048 5.41394C9.3048 5.63245 9.31458 5.81509 9.34067 5.97816L9.33415 5.96838ZM13.2641 0.704465L12.4945 1.4285L11.728 0.704465H13.2609H13.2641ZM0 0V9.1613H33.1424V0H0Z" fill="white"/>
<path d="M66.6928 10.6514C62.6911 10.6514 59.4492 13.5084 59.4492 18.3255C59.4492 23.1426 62.6943 25.9996 66.6928 25.9996C70.6913 25.9996 73.9364 23.1426 73.9364 18.3255C73.9364 13.5084 70.6913 10.6514 66.6928 10.6514ZM66.6928 22.4903C64.8208 22.4903 63.3042 20.9379 63.3042 18.3222C63.3042 15.7066 64.8208 14.1541 66.6928 14.1541C68.5649 14.1541 70.0814 15.7066 70.0814 18.3222C70.0814 20.9379 68.5649 22.4903 66.6928 22.4903Z" fill="white"/>
<path d="M101.413 14.327C101.433 14.327 101.453 14.3205 101.466 14.3075C101.482 14.2944 101.492 14.2716 101.492 14.2487V11.2189C101.492 11.1993 101.485 11.1798 101.472 11.1667C101.459 11.1504 101.436 11.1406 101.413 11.1406H91.0324C91.0096 11.1406 90.99 11.1504 90.9769 11.1635C90.9639 11.1765 90.9541 11.1961 90.9541 11.2189V25.4321C90.9541 25.4549 90.9639 25.4745 90.9769 25.4876C90.99 25.5006 91.0096 25.5104 91.0324 25.5104H101.413C101.436 25.5104 101.456 25.5006 101.469 25.4876C101.485 25.4745 101.492 25.4549 101.492 25.4321V22.4023C101.492 22.3827 101.485 22.3631 101.472 22.3501C101.459 22.3338 101.436 22.324 101.413 22.324H94.5025V19.9203H100.866C100.888 19.9203 100.908 19.9106 100.921 19.8975C100.934 19.8845 100.944 19.8649 100.944 19.8421V16.8122C100.944 16.7926 100.937 16.7731 100.921 16.76C100.908 16.7437 100.885 16.7339 100.862 16.7339H94.4993V14.3303H101.41L101.413 14.327Z" fill="white"/>
<path d="M57.6459 11.1377H47.2648C47.2452 11.1377 47.2257 11.1442 47.2126 11.1573C47.1963 11.1703 47.1865 11.1931 47.1865 11.216V25.4292C47.1865 25.452 47.1963 25.4716 47.2094 25.4846C47.2224 25.4977 47.242 25.5075 47.2648 25.5075H57.6459C57.6687 25.5075 57.6883 25.4977 57.7013 25.4846C57.7143 25.4716 57.7241 25.452 57.7241 25.4292V22.3993C57.7241 22.3798 57.7176 22.3602 57.7046 22.3472C57.6915 22.3308 57.6687 22.3211 57.6459 22.3211H50.7349V19.9174H57.0979C57.1208 19.9174 57.1403 19.9076 57.1534 19.8946C57.1664 19.8815 57.1762 19.862 57.1762 19.8391V16.8093C57.1762 16.7897 57.1697 16.7701 57.1534 16.7571C57.1403 16.7408 57.1175 16.731 57.0947 16.731H50.7317V14.3274H57.6426C57.6654 14.3274 57.685 14.3176 57.698 14.3045C57.7111 14.2915 57.7209 14.2719 57.7209 14.2491V11.2192C57.7209 11.1964 57.7111 11.1768 57.698 11.1638C57.685 11.1507 57.6654 11.141 57.6426 11.141" fill="white"/>
<path d="M29.6955 11.1377H24.2C24.2 11.1377 24.174 11.1377 24.1642 11.1475C24.1511 11.154 24.1413 11.1638 24.1316 11.1801L16.2422 25.3933C16.2292 25.4194 16.2292 25.4488 16.2422 25.4716C16.2553 25.4944 16.2813 25.5107 16.3107 25.5107H20.482C20.4983 25.5107 20.5147 25.5042 20.5277 25.4944C20.5375 25.4879 20.544 25.4781 20.5505 25.4683L26.0982 15.4721H26.2221V25.4324C26.2221 25.4585 26.2319 25.4781 26.2515 25.4944C26.2645 25.5042 26.2808 25.5107 26.3004 25.5107H29.6923C29.7118 25.5107 29.7314 25.5042 29.7444 25.4879C29.7607 25.4748 29.7705 25.452 29.7705 25.4292V11.216C29.7705 11.1964 29.764 11.1801 29.751 11.1638C29.7379 11.1475 29.7151 11.1377 29.6923 11.1377" fill="white"/>
<path d="M88.6024 11.1377H85.2105C85.1877 11.1377 85.1681 11.1475 85.1551 11.1605C85.142 11.1736 85.1323 11.1931 85.1323 11.216V18.303H85.0083L81.0555 11.1801C81.0555 11.1801 81.0392 11.1573 81.0261 11.1507C81.0131 11.1442 81.0001 11.141 80.987 11.141H75.7394C75.7166 11.141 75.697 11.1507 75.684 11.1638C75.6709 11.1768 75.6611 11.1964 75.6611 11.2192V25.4324C75.6611 25.4324 75.6611 25.4553 75.6677 25.4618C75.6807 25.4912 75.7068 25.5107 75.7394 25.5107H79.1313C79.1541 25.5107 79.1737 25.5009 79.1867 25.4879C79.1998 25.4748 79.2095 25.4553 79.2095 25.4324V15.1427H79.402C79.5748 16.2972 80.0869 18.0682 81.5741 19.6989C83.8114 22.1515 83.844 24.9302 83.831 25.4324C83.831 25.452 83.8375 25.4683 83.8473 25.4814C83.8603 25.5009 83.8831 25.5107 83.9092 25.5107H88.6057C88.6252 25.5107 88.6448 25.5042 88.6578 25.4912C88.6742 25.4781 88.6839 25.4553 88.6839 25.4324V11.2192C88.6839 11.2029 88.6774 11.1866 88.6709 11.1768C88.6578 11.1573 88.6318 11.141 88.6057 11.141" fill="white"/>
<path d="M21.7079 11.1961C21.6981 11.1635 21.6688 11.1406 21.6329 11.1406H16.6658C16.6462 11.1406 16.6266 11.1471 16.6136 11.1602C16.5973 11.1732 16.5875 11.1961 16.5875 11.2189C16.6006 11.7212 16.5679 14.4966 14.3306 16.9525C12.8434 18.5832 12.3314 20.3541 12.1585 21.5086H11.9661V11.2189C11.9661 11.2189 11.9661 11.1993 11.9596 11.1895C11.9465 11.1602 11.9204 11.1406 11.8878 11.1406H8.25787C8.23504 11.1406 8.21547 11.1504 8.20242 11.1635C8.18938 11.1765 8.17959 11.1993 8.17959 11.2189C8.19264 11.7212 8.16003 14.4966 5.9227 16.9525C4.4355 18.5832 3.92346 20.3541 3.7506 21.5086H3.55818V11.2189C3.55818 11.2189 3.55818 11.1993 3.55166 11.1895C3.53861 11.1602 3.51252 11.1406 3.47991 11.1406H0.08804C0.0652101 11.1406 0.0456423 11.1504 0.0325966 11.1635C0.019551 11.1765 0.00976562 11.1961 0.00976562 11.2189V25.4321C0.00976562 25.4582 0.022812 25.481 0.0423805 25.4973C0.0554261 25.5071 0.0717329 25.5104 0.08804 25.5104H5.33565C5.33565 25.5104 5.365 25.5071 5.37478 25.5006C5.38783 25.4941 5.39761 25.4843 5.40414 25.4713L8.35571 20.1552H8.41768V25.4321C8.41768 25.4549 8.42746 25.4745 8.44051 25.4876C8.45355 25.5006 8.47312 25.5104 8.49595 25.5104H13.7436C13.7436 25.5104 13.7696 25.5071 13.7827 25.5006C13.7957 25.4941 13.8055 25.4843 13.812 25.4713L21.7014 11.258C21.7112 11.2385 21.7144 11.2156 21.7079 11.1993" fill="white"/>
<path d="M45.3267 11.1768C45.3136 11.154 45.2876 11.1377 45.2582 11.1377H40.2911C40.2682 11.1377 40.2454 11.1475 40.2324 11.1638C40.2193 11.1768 40.2128 11.1964 40.2128 11.216C40.2258 11.7182 40.1932 14.4937 37.9559 16.9495C36.4687 18.5802 35.9567 20.3512 35.7838 21.5057H35.5914V11.216C35.5914 11.1964 35.5849 11.1768 35.5718 11.1638C35.5588 11.1475 35.5359 11.1377 35.5131 11.1377H32.1212C32.0984 11.1377 32.0788 11.1475 32.0658 11.1605C32.0528 11.1736 32.043 11.1931 32.043 11.216V25.4292C32.043 25.452 32.0528 25.4683 32.0658 25.4846C32.0788 25.5009 32.1017 25.5075 32.1212 25.5075H37.3688C37.3688 25.5075 37.3982 25.5042 37.408 25.4977C37.421 25.4912 37.4308 25.4814 37.4373 25.4683L39.1528 22.3798H39.2148L40.9303 25.4683C40.9303 25.4683 40.9466 25.4912 40.9564 25.4977C40.9694 25.5042 40.9825 25.5107 40.9988 25.5107H45.2582C45.2876 25.5107 45.3136 25.4944 45.3267 25.4716C45.3397 25.4488 45.343 25.4194 45.3267 25.3933L41.4032 18.3258L45.3267 11.2584C45.3397 11.2323 45.3397 11.2029 45.3267 11.1801" fill="white"/>
</svg>
