<svg width="226" height="22" viewBox="0 0 226 22" fill="none" xmlns="http://www.w3.org/2000/svg">
<mask id="path-1-outside-1_2005_2914" maskUnits="userSpaceOnUse" x="16" y="0" width="196" height="23" fill="black">
<rect fill="white" x="16" width="196" height="23"/>
<path d="M27.8617 4.24C28.7151 4.24 29.4751 4.44 30.1417 4.84C30.8084 5.22667 31.3284 5.76667 31.7017 6.46C32.0751 7.14 32.2617 7.90667 32.2617 8.76V9.02C32.2617 9.87333 32.0751 10.6467 31.7017 11.34C31.3284 12.0333 30.8084 12.58 30.1417 12.98C29.4751 13.3667 28.7151 13.56 27.8617 13.56H24.5617V18H20.1417V4.24H27.8617ZM24.5617 10.34H26.3817C26.8484 10.34 27.1951 10.22 27.4217 9.98C27.6617 9.74 27.7817 9.41333 27.7817 9V8.84C27.7817 8.41333 27.6617 8.08667 27.4217 7.86C27.1951 7.62 26.8484 7.5 26.3817 7.5H24.5617V10.34ZM41.6961 18L41.1161 16.06H36.2961L35.7161 18H31.1961L36.2161 4.24H41.3561L46.3761 18H41.6961ZM37.2161 12.98H40.1961L38.7561 8.08H38.6761L37.2161 12.98ZM60.7025 8.46C60.7025 9.3 60.4758 10.06 60.0225 10.74C59.5692 11.42 58.9092 11.92 58.0425 12.24L61.1025 18H56.1425L53.7025 12.98H52.0625V18H47.6425V4.24H56.0625C57.0492 4.24 57.8892 4.43333 58.5825 4.82C59.2892 5.19333 59.8158 5.70667 60.1625 6.36C60.5225 7 60.7025 7.7 60.7025 8.46ZM56.2025 8.64C56.2025 8.28 56.0825 7.98 55.8425 7.74C55.6025 7.5 55.3092 7.38 54.9625 7.38H52.0625V9.92H54.9625C55.3092 9.92 55.6025 9.8 55.8425 9.56C56.0825 9.30667 56.2025 9 56.2025 8.64ZM72.1289 4.24H77.6089L72.6689 9.9L77.7089 18H72.4889L69.6289 12.96L67.2289 14.92V18H62.8089V4.24H67.2289V10.12L72.1289 4.24ZM92.2492 4C93.5692 4 94.7559 4.2 95.8092 4.6C96.8626 5 97.6959 5.59333 98.3092 6.38C98.9359 7.15333 99.2492 8.1 99.2492 9.22H95.0292C95.0292 8.64667 94.7759 8.18667 94.2692 7.84C93.7626 7.48 93.1492 7.3 92.4292 7.3C91.3892 7.3 90.6026 7.58 90.0692 8.14C89.5359 8.68667 89.2692 9.46667 89.2692 10.48V11.76C89.2692 12.7733 89.5359 13.56 90.0692 14.12C90.6026 14.6667 91.3892 14.94 92.4292 14.94C93.1492 14.94 93.7626 14.7733 94.2692 14.44C94.7759 14.0933 95.0292 13.6533 95.0292 13.12H91.9092V10.32H99.2492V18H96.9692L96.5292 16.64C95.2759 17.7067 93.6359 18.24 91.6092 18.24C89.3292 18.24 87.6159 17.6467 86.4692 16.46C85.3226 15.26 84.7492 13.48 84.7492 11.12C84.7492 8.78667 85.3959 7.02 86.6892 5.82C87.9959 4.60667 89.8492 4 92.2492 4ZM115.289 12.46C115.289 14.34 114.696 15.7733 113.509 16.76C112.323 17.7467 110.636 18.24 108.449 18.24C106.263 18.24 104.569 17.7467 103.369 16.76C102.183 15.7733 101.589 14.34 101.589 12.46V4.24H106.009V12.4C106.009 13.1733 106.216 13.7933 106.629 14.26C107.043 14.7133 107.643 14.94 108.429 14.94C109.216 14.94 109.816 14.7067 110.229 14.24C110.656 13.7733 110.869 13.16 110.869 12.4V4.24H115.289V12.46ZM127.69 18L121.91 11.32V18H117.85V4.24H121.71L127.49 11.02V4.24H131.55V18H127.69ZM150.71 18L148.93 9.62H148.85L147.07 18H142.21L138.99 4.24H143.59L145.17 12.04H145.25L146.81 4.24H151.17L152.83 12.04H152.91L154.39 4.24H158.79L155.57 18H150.71ZM166.478 4C168.851 4 170.684 4.60667 171.978 5.82C173.271 7.03333 173.918 8.8 173.918 11.12C173.918 13.44 173.271 15.2067 171.978 16.42C170.684 17.6333 168.851 18.24 166.478 18.24C164.104 18.24 162.271 17.64 160.978 16.44C159.698 15.2267 159.058 13.4533 159.058 11.12C159.058 8.78667 159.698 7.02 160.978 5.82C162.271 4.60667 164.104 4 166.478 4ZM166.478 7.3C165.531 7.3 164.811 7.58667 164.318 8.16C163.824 8.73333 163.578 9.50667 163.578 10.48V11.76C163.578 12.7333 163.824 13.5067 164.318 14.08C164.811 14.6533 165.531 14.94 166.478 14.94C167.424 14.94 168.144 14.6533 168.638 14.08C169.144 13.5067 169.398 12.7333 169.398 11.76V10.48C169.398 9.50667 169.144 8.73333 168.638 8.16C168.144 7.58667 167.424 7.3 166.478 7.3ZM182.738 4C185.111 4 186.945 4.60667 188.238 5.82C189.531 7.03333 190.178 8.8 190.178 11.12C190.178 13.44 189.531 15.2067 188.238 16.42C186.945 17.6333 185.111 18.24 182.738 18.24C180.365 18.24 178.531 17.64 177.238 16.44C175.958 15.2267 175.318 13.4533 175.318 11.12C175.318 8.78667 175.958 7.02 177.238 5.82C178.531 4.60667 180.365 4 182.738 4ZM182.738 7.3C181.791 7.3 181.071 7.58667 180.578 8.16C180.085 8.73333 179.838 9.50667 179.838 10.48V11.76C179.838 12.7333 180.085 13.5067 180.578 14.08C181.071 14.6533 181.791 14.94 182.738 14.94C183.685 14.94 184.405 14.6533 184.898 14.08C185.405 13.5067 185.658 12.7333 185.658 11.76V10.48C185.658 9.50667 185.405 8.73333 184.898 8.16C184.405 7.58667 183.685 7.3 182.738 7.3ZM201.478 4.24H206.958L202.018 9.9L207.058 18H201.838L198.978 12.96L196.578 14.92V18H192.158V4.24H196.578V10.12L201.478 4.24Z"/>
</mask>
<path d="M27.8617 4.24C28.7151 4.24 29.4751 4.44 30.1417 4.84C30.8084 5.22667 31.3284 5.76667 31.7017 6.46C32.0751 7.14 32.2617 7.90667 32.2617 8.76V9.02C32.2617 9.87333 32.0751 10.6467 31.7017 11.34C31.3284 12.0333 30.8084 12.58 30.1417 12.98C29.4751 13.3667 28.7151 13.56 27.8617 13.56H24.5617V18H20.1417V4.24H27.8617ZM24.5617 10.34H26.3817C26.8484 10.34 27.1951 10.22 27.4217 9.98C27.6617 9.74 27.7817 9.41333 27.7817 9V8.84C27.7817 8.41333 27.6617 8.08667 27.4217 7.86C27.1951 7.62 26.8484 7.5 26.3817 7.5H24.5617V10.34ZM41.6961 18L41.1161 16.06H36.2961L35.7161 18H31.1961L36.2161 4.24H41.3561L46.3761 18H41.6961ZM37.2161 12.98H40.1961L38.7561 8.08H38.6761L37.2161 12.98ZM60.7025 8.46C60.7025 9.3 60.4758 10.06 60.0225 10.74C59.5692 11.42 58.9092 11.92 58.0425 12.24L61.1025 18H56.1425L53.7025 12.98H52.0625V18H47.6425V4.24H56.0625C57.0492 4.24 57.8892 4.43333 58.5825 4.82C59.2892 5.19333 59.8158 5.70667 60.1625 6.36C60.5225 7 60.7025 7.7 60.7025 8.46ZM56.2025 8.64C56.2025 8.28 56.0825 7.98 55.8425 7.74C55.6025 7.5 55.3092 7.38 54.9625 7.38H52.0625V9.92H54.9625C55.3092 9.92 55.6025 9.8 55.8425 9.56C56.0825 9.30667 56.2025 9 56.2025 8.64ZM72.1289 4.24H77.6089L72.6689 9.9L77.7089 18H72.4889L69.6289 12.96L67.2289 14.92V18H62.8089V4.24H67.2289V10.12L72.1289 4.24ZM92.2492 4C93.5692 4 94.7559 4.2 95.8092 4.6C96.8626 5 97.6959 5.59333 98.3092 6.38C98.9359 7.15333 99.2492 8.1 99.2492 9.22H95.0292C95.0292 8.64667 94.7759 8.18667 94.2692 7.84C93.7626 7.48 93.1492 7.3 92.4292 7.3C91.3892 7.3 90.6026 7.58 90.0692 8.14C89.5359 8.68667 89.2692 9.46667 89.2692 10.48V11.76C89.2692 12.7733 89.5359 13.56 90.0692 14.12C90.6026 14.6667 91.3892 14.94 92.4292 14.94C93.1492 14.94 93.7626 14.7733 94.2692 14.44C94.7759 14.0933 95.0292 13.6533 95.0292 13.12H91.9092V10.32H99.2492V18H96.9692L96.5292 16.64C95.2759 17.7067 93.6359 18.24 91.6092 18.24C89.3292 18.24 87.6159 17.6467 86.4692 16.46C85.3226 15.26 84.7492 13.48 84.7492 11.12C84.7492 8.78667 85.3959 7.02 86.6892 5.82C87.9959 4.60667 89.8492 4 92.2492 4ZM115.289 12.46C115.289 14.34 114.696 15.7733 113.509 16.76C112.323 17.7467 110.636 18.24 108.449 18.24C106.263 18.24 104.569 17.7467 103.369 16.76C102.183 15.7733 101.589 14.34 101.589 12.46V4.24H106.009V12.4C106.009 13.1733 106.216 13.7933 106.629 14.26C107.043 14.7133 107.643 14.94 108.429 14.94C109.216 14.94 109.816 14.7067 110.229 14.24C110.656 13.7733 110.869 13.16 110.869 12.4V4.24H115.289V12.46ZM127.69 18L121.91 11.32V18H117.85V4.24H121.71L127.49 11.02V4.24H131.55V18H127.69ZM150.71 18L148.93 9.62H148.85L147.07 18H142.21L138.99 4.24H143.59L145.17 12.04H145.25L146.81 4.24H151.17L152.83 12.04H152.91L154.39 4.24H158.79L155.57 18H150.71ZM166.478 4C168.851 4 170.684 4.60667 171.978 5.82C173.271 7.03333 173.918 8.8 173.918 11.12C173.918 13.44 173.271 15.2067 171.978 16.42C170.684 17.6333 168.851 18.24 166.478 18.24C164.104 18.24 162.271 17.64 160.978 16.44C159.698 15.2267 159.058 13.4533 159.058 11.12C159.058 8.78667 159.698 7.02 160.978 5.82C162.271 4.60667 164.104 4 166.478 4ZM166.478 7.3C165.531 7.3 164.811 7.58667 164.318 8.16C163.824 8.73333 163.578 9.50667 163.578 10.48V11.76C163.578 12.7333 163.824 13.5067 164.318 14.08C164.811 14.6533 165.531 14.94 166.478 14.94C167.424 14.94 168.144 14.6533 168.638 14.08C169.144 13.5067 169.398 12.7333 169.398 11.76V10.48C169.398 9.50667 169.144 8.73333 168.638 8.16C168.144 7.58667 167.424 7.3 166.478 7.3ZM182.738 4C185.111 4 186.945 4.60667 188.238 5.82C189.531 7.03333 190.178 8.8 190.178 11.12C190.178 13.44 189.531 15.2067 188.238 16.42C186.945 17.6333 185.111 18.24 182.738 18.24C180.365 18.24 178.531 17.64 177.238 16.44C175.958 15.2267 175.318 13.4533 175.318 11.12C175.318 8.78667 175.958 7.02 177.238 5.82C178.531 4.60667 180.365 4 182.738 4ZM182.738 7.3C181.791 7.3 181.071 7.58667 180.578 8.16C180.085 8.73333 179.838 9.50667 179.838 10.48V11.76C179.838 12.7333 180.085 13.5067 180.578 14.08C181.071 14.6533 181.791 14.94 182.738 14.94C183.685 14.94 184.405 14.6533 184.898 14.08C185.405 13.5067 185.658 12.7333 185.658 11.76V10.48C185.658 9.50667 185.405 8.73333 184.898 8.16C184.405 7.58667 183.685 7.3 182.738 7.3ZM201.478 4.24H206.958L202.018 9.9L207.058 18H201.838L198.978 12.96L196.578 14.92V18H192.158V4.24H196.578V10.12L201.478 4.24Z" fill="black"/>
<path d="M30.1417 4.84L28.0837 8.26997C28.1007 8.28015 28.1177 8.2902 28.1348 8.30012L30.1417 4.84ZM31.7017 6.46L28.1798 8.3564C28.185 8.36597 28.1902 8.37551 28.1954 8.38503L31.7017 6.46ZM31.7017 11.34L35.2236 13.2364V13.2364L31.7017 11.34ZM30.1417 12.98L32.1486 16.4401C32.1657 16.4302 32.1827 16.4201 32.1997 16.41L30.1417 12.98ZM24.5617 13.56V9.56C22.3526 9.56 20.5617 11.3509 20.5617 13.56H24.5617ZM24.5617 18V22C26.7709 22 28.5617 20.2091 28.5617 18H24.5617ZM20.1417 18H16.1417C16.1417 20.2091 17.9326 22 20.1417 22V18ZM20.1417 4.24V0.24C17.9326 0.24 16.1417 2.03086 16.1417 4.24H20.1417ZM24.5617 10.34H20.5617C20.5617 12.5491 22.3526 14.34 24.5617 14.34V10.34ZM27.4217 9.98L24.5933 7.15157C24.5664 7.1785 24.5398 7.20582 24.5137 7.23351L27.4217 9.98ZM27.4217 7.86L24.5137 10.6065C24.566 10.6619 24.6198 10.7157 24.6752 10.7681L27.4217 7.86ZM24.5617 7.5V3.5C22.3526 3.5 20.5617 5.29086 20.5617 7.5H24.5617ZM27.8617 8.24C27.974 8.24 28.0331 8.25287 28.0537 8.2583C28.0721 8.26313 28.0781 8.26662 28.0837 8.26997L32.1997 1.41003C30.8516 0.601194 29.3671 0.24 27.8617 0.24V8.24ZM28.1348 8.30012C28.1467 8.30702 28.1518 8.31099 28.1523 8.31138C28.1528 8.31172 28.1517 8.31088 28.1504 8.30957C28.1492 8.30828 28.1506 8.30953 28.1547 8.31518C28.1589 8.32096 28.1677 8.33386 28.1798 8.3564L35.2236 4.5636C34.5076 3.2339 33.4697 2.14609 32.1486 1.37988L28.1348 8.30012ZM28.1954 8.38503C28.2133 8.41756 28.2617 8.51081 28.2617 8.76H36.2617C36.2617 7.30252 35.9368 5.86244 35.208 4.53496L28.1954 8.38503ZM28.2617 8.76V9.02H36.2617V8.76H28.2617ZM28.2617 9.02C28.2617 9.26817 28.2135 9.38113 28.1798 9.4436L35.2236 13.2364C35.9366 11.9122 36.2617 10.4785 36.2617 9.02H28.2617ZM28.1798 9.4436C28.1545 9.49071 28.1377 9.50867 28.1335 9.51314C28.1295 9.51738 28.1174 9.52983 28.0837 9.55003L32.1997 16.41C33.4917 15.6348 34.5137 14.5547 35.2236 13.2364L28.1798 9.4436ZM28.1348 9.51988C28.1265 9.5247 28.1141 9.53121 28.0856 9.53846C28.0548 9.54629 27.9848 9.56 27.8617 9.56V17.56C29.3424 17.56 30.8085 17.2174 32.1486 16.4401L28.1348 9.51988ZM27.8617 9.56H24.5617V17.56H27.8617V9.56ZM20.5617 13.56V18H28.5617V13.56H20.5617ZM24.5617 14H20.1417V22H24.5617V14ZM24.1417 18V4.24H16.1417V18H24.1417ZM20.1417 8.24H27.8617V0.24H20.1417V8.24ZM24.5617 14.34H26.3817V6.34H24.5617V14.34ZM26.3817 14.34C27.4844 14.34 29.0788 14.051 30.3298 12.7265L24.5137 7.23351C25.3113 6.38898 26.2123 6.34 26.3817 6.34V14.34ZM30.2501 12.8084C31.3981 11.6605 31.7817 10.2281 31.7817 9H23.7817C23.7817 8.82226 23.8075 8.5284 23.937 8.17573C24.0718 7.80877 24.2926 7.45231 24.5933 7.15157L30.2501 12.8084ZM31.7817 9V8.84H23.7817V9H31.7817ZM31.7817 8.84C31.7817 7.65204 31.4254 6.13926 30.1682 4.95195L24.6752 10.7681C24.3211 10.4336 24.0785 10.0393 23.937 9.65427C23.8028 9.28871 23.7817 8.9945 23.7817 8.84H31.7817ZM30.3298 5.11351C29.0788 3.78898 27.4844 3.5 26.3817 3.5V11.5C26.2123 11.5 25.3113 11.451 24.5137 10.6065L30.3298 5.11351ZM26.3817 3.5H24.5617V11.5H26.3817V3.5ZM20.5617 7.5V10.34H28.5617V7.5H20.5617ZM41.6961 18L37.8637 19.1458C38.3701 20.8395 39.9283 22 41.6961 22V18ZM41.1161 16.06L44.9485 14.9142C44.4421 13.2205 42.8839 12.06 41.1161 12.06V16.06ZM36.2961 16.06V12.06C34.5283 12.06 32.9701 13.2205 32.4637 14.9142L36.2961 16.06ZM35.7161 18V22C37.4839 22 39.0421 20.8395 39.5485 19.1458L35.7161 18ZM31.1961 18L27.4384 16.6291C26.9909 17.8556 27.1702 19.2233 27.9186 20.2931C28.6671 21.3628 29.8905 22 31.1961 22V18ZM36.2161 4.24V0.24C34.5356 0.24 33.0343 1.29037 32.4584 2.86908L36.2161 4.24ZM41.3561 4.24L45.1138 2.86908C44.5379 1.29037 43.0366 0.24 41.3561 0.24V4.24ZM46.3761 18V22C47.6817 22 48.9051 21.3628 49.6536 20.2931C50.402 19.2233 50.5813 17.8556 50.1338 16.6291L46.3761 18ZM37.2161 12.98L33.3826 11.8378C33.022 13.0483 33.2542 14.3581 34.0092 15.3707C34.7641 16.3834 35.953 16.98 37.2161 16.98V12.98ZM40.1961 12.98V16.98C41.4566 16.98 42.6433 16.3859 43.3985 15.3767C44.1538 14.3676 44.3892 13.0615 44.0338 11.8522L40.1961 12.98ZM38.7561 8.08L42.5938 6.95218C42.0934 5.24943 40.5309 4.08 38.7561 4.08V8.08ZM38.6761 8.08V4.08C36.9069 4.08 35.3478 5.24225 34.8426 6.93779L38.6761 8.08ZM45.5285 16.8542L44.9485 14.9142L37.2837 17.2058L37.8637 19.1458L45.5285 16.8542ZM41.1161 12.06H36.2961V20.06H41.1161V12.06ZM32.4637 14.9142L31.8837 16.8542L39.5485 19.1458L40.1285 17.2058L32.4637 14.9142ZM35.7161 14H31.1961V22H35.7161V14ZM34.9538 19.3709L39.9738 5.61092L32.4584 2.86908L27.4384 16.6291L34.9538 19.3709ZM36.2161 8.24H41.3561V0.24H36.2161V8.24ZM37.5984 5.61092L42.6184 19.3709L50.1338 16.6291L45.1138 2.86908L37.5984 5.61092ZM46.3761 14H41.6961V22H46.3761V14ZM37.2161 16.98H40.1961V8.98H37.2161V16.98ZM44.0338 11.8522L42.5938 6.95218L34.9184 9.20782L36.3584 14.1078L44.0338 11.8522ZM38.7561 4.08H38.6761V12.08H38.7561V4.08ZM34.8426 6.93779L33.3826 11.8378L41.0495 14.1222L42.5095 9.22221L34.8426 6.93779ZM60.0225 10.74L56.6943 8.5212V8.5212L60.0225 10.74ZM58.0425 12.24L56.657 8.48761C55.574 8.8875 54.7165 9.73583 54.3051 10.8145C53.8937 11.8932 53.9684 13.0971 54.51 14.1166L58.0425 12.24ZM61.1025 18V22C62.5064 22 63.8075 21.264 64.5308 20.0608C65.2541 18.8575 65.2936 17.3632 64.635 16.1234L61.1025 18ZM56.1425 18L52.545 19.7486C53.2143 21.1258 54.6112 22 56.1425 22V18ZM53.7025 12.98L57.3001 11.2314C56.6307 9.85419 55.2338 8.98 53.7025 8.98V12.98ZM52.0625 12.98V8.98C49.8534 8.98 48.0625 10.7709 48.0625 12.98H52.0625ZM52.0625 18V22C54.2716 22 56.0625 20.2091 56.0625 18H52.0625ZM47.6425 18H43.6425C43.6425 20.2091 45.4334 22 47.6425 22V18ZM47.6425 4.24V0.24C45.4334 0.24 43.6425 2.03086 43.6425 4.24H47.6425ZM58.5825 4.82L56.6342 8.31346C56.6607 8.3282 56.6873 8.34264 56.714 8.35677L58.5825 4.82ZM60.1625 6.36L56.6291 8.23486C56.6445 8.26378 56.6602 8.29251 56.6762 8.32105L60.1625 6.36ZM55.8425 7.74L53.0141 10.5684V10.5684L55.8425 7.74ZM52.0625 7.38V3.38C49.8534 3.38 48.0625 5.17086 48.0625 7.38H52.0625ZM52.0625 9.92H48.0625C48.0625 12.1291 49.8534 13.92 52.0625 13.92V9.92ZM55.8425 9.56L58.6709 12.3884C58.6964 12.363 58.7215 12.3371 58.7463 12.311L55.8425 9.56ZM56.7025 8.46C56.7025 8.48967 56.7005 8.50697 56.6995 8.51393C56.6986 8.52069 56.6981 8.52094 56.6994 8.51678C56.7006 8.51255 56.7022 8.50879 56.703 8.50697C56.7038 8.50527 56.7019 8.50987 56.6943 8.5212L63.3507 12.9588C64.2548 11.6026 64.7025 10.0664 64.7025 8.46H56.7025ZM56.6943 8.5212C56.7046 8.50575 56.7182 8.48828 56.7343 8.4712C56.7504 8.45419 56.7641 8.44269 56.7721 8.43663C56.7798 8.43078 56.7776 8.43348 56.761 8.44239C56.7441 8.45147 56.7109 8.46772 56.657 8.48761L59.428 15.9924C60.9801 15.4193 62.3682 14.4326 63.3507 12.9588L56.6943 8.5212ZM54.51 14.1166L57.57 19.8766L64.635 16.1234L61.575 10.3634L54.51 14.1166ZM61.1025 14H56.1425V22H61.1025V14ZM59.7401 16.2514L57.3001 11.2314L50.105 14.7286L52.545 19.7486L59.7401 16.2514ZM53.7025 8.98H52.0625V16.98H53.7025V8.98ZM48.0625 12.98V18H56.0625V12.98H48.0625ZM52.0625 14H47.6425V22H52.0625V14ZM51.6425 18V4.24H43.6425V18H51.6425ZM47.6425 8.24H56.0625V0.24H47.6425V8.24ZM56.0625 8.24C56.5307 8.24 56.6646 8.33041 56.6342 8.31346L60.5308 1.32654C59.1137 0.536257 57.5677 0.24 56.0625 0.24V8.24ZM56.714 8.35677C56.7581 8.38007 56.749 8.38199 56.7156 8.34945C56.6999 8.33423 56.683 8.31524 56.6666 8.29332C56.6502 8.27143 56.6377 8.25114 56.6291 8.23486L63.6959 4.48514C62.9428 3.06587 61.8067 1.99946 60.451 1.28323L56.714 8.35677ZM56.6762 8.32105C56.6883 8.34254 56.6916 8.35367 56.6935 8.36116C56.6956 8.36939 56.7025 8.39874 56.7025 8.46H64.7025C64.7025 7.0381 64.3577 5.65914 63.6488 4.39895L56.6762 8.32105ZM60.2025 8.64C60.2025 7.29055 59.7101 5.95075 58.6709 4.91157L53.0141 10.5684C52.7707 10.3251 52.5499 10.0087 52.3986 9.63056C52.2492 9.25705 52.2025 8.91087 52.2025 8.64H60.2025ZM58.6709 4.91157C57.663 3.90364 56.3446 3.38 54.9625 3.38V11.38C54.6654 11.38 54.3054 11.3266 53.928 11.1722C53.5489 11.0171 53.2427 10.7971 53.0141 10.5684L58.6709 4.91157ZM54.9625 3.38H52.0625V11.38H54.9625V3.38ZM48.0625 7.38V9.92H56.0625V7.38H48.0625ZM52.0625 13.92H54.9625V5.92H52.0625V13.92ZM54.9625 13.92C56.3446 13.92 57.663 13.3964 58.6709 12.3884L53.0141 6.73157C53.2427 6.50293 53.5489 6.28289 53.928 6.12781C54.3054 5.97343 54.6654 5.92 54.9625 5.92V13.92ZM58.7463 12.311C59.7145 11.289 60.2025 9.98758 60.2025 8.64H52.2025C52.2025 8.36785 52.2495 8.03505 52.3875 7.6824C52.5264 7.32753 52.7256 7.03392 52.9387 6.80902L58.7463 12.311ZM72.1289 4.24V0.24C70.9418 0.24 69.816 0.767292 69.056 1.67926L72.1289 4.24ZM77.6089 4.24L80.6225 6.87025C81.654 5.68846 81.8995 4.01287 81.2504 2.58485C80.6013 1.15684 79.1775 0.24 77.6089 0.24V4.24ZM72.6689 9.9L69.6553 7.26975C68.4988 8.59483 68.3435 10.5199 69.2727 12.0132L72.6689 9.9ZM77.7089 18V22C79.1616 22 80.5001 21.2124 81.2055 19.9426C81.911 18.6727 81.8726 17.1202 81.1051 15.8868L77.7089 18ZM72.4889 18L69.01 19.9741C69.7206 21.2263 71.0492 22 72.4889 22V18ZM69.6289 12.96L73.1078 10.9859C72.5263 9.96109 71.5225 9.24483 70.3643 9.02819C69.2062 8.81155 68.0114 9.11657 67.0988 9.86187L69.6289 12.96ZM67.2289 14.92L64.6988 11.8219C63.7686 12.5815 63.2289 13.719 63.2289 14.92H67.2289ZM67.2289 18V22C69.438 22 71.2289 20.2091 71.2289 18H67.2289ZM62.8089 18H58.8089C58.8089 20.2091 60.5998 22 62.8089 22V18ZM62.8089 4.24V0.24C60.5998 0.24 58.8089 2.03086 58.8089 4.24H62.8089ZM67.2289 4.24H71.2289C71.2289 2.03086 69.438 0.24 67.2289 0.24V4.24ZM67.2289 10.12H63.2289C63.2289 11.8041 64.2837 13.3078 65.8672 13.8811C67.4507 14.4544 69.2237 13.9745 70.3018 12.6807L67.2289 10.12ZM72.1289 8.24H77.6089V0.24H72.1289V8.24ZM74.5953 1.60975L69.6553 7.26975L75.6825 12.5302L80.6225 6.87025L74.5953 1.60975ZM69.2727 12.0132L74.3127 20.1132L81.1051 15.8868L76.0651 7.78679L69.2727 12.0132ZM77.7089 14H72.4889V22H77.7089V14ZM75.9678 16.0259L73.1078 10.9859L66.15 14.9341L69.01 19.9741L75.9678 16.0259ZM67.0988 9.86187L64.6988 11.8219L69.759 18.0181L72.159 16.0581L67.0988 9.86187ZM63.2289 14.92V18H71.2289V14.92H63.2289ZM67.2289 14H62.8089V22H67.2289V14ZM66.8089 18V4.24H58.8089V18H66.8089ZM62.8089 8.24H67.2289V0.24H62.8089V8.24ZM63.2289 4.24V10.12H71.2289V4.24H63.2289ZM70.3018 12.6807L75.2018 6.80074L69.056 1.67926L64.156 7.55926L70.3018 12.6807ZM95.8092 4.6L94.3892 8.33945V8.33945L95.8092 4.6ZM98.3092 6.38L95.1547 8.83946C95.1701 8.85923 95.1857 8.87886 95.2015 8.89833L98.3092 6.38ZM99.2492 9.22V13.22C101.458 13.22 103.249 11.4291 103.249 9.22H99.2492ZM95.0292 9.22H91.0292C91.0292 11.4291 92.8201 13.22 95.0292 13.22V9.22ZM94.2692 7.84L91.9524 11.1007C91.9716 11.1144 91.991 11.1279 92.0105 11.1412L94.2692 7.84ZM90.0692 8.14L92.9324 10.9333C92.9436 10.9218 92.9547 10.9102 92.9658 10.8986L90.0692 8.14ZM90.0692 14.12L87.1727 16.8786C87.1837 16.8902 87.1949 16.9018 87.2061 16.9133L90.0692 14.12ZM94.2692 14.44L96.4677 17.7817C96.4879 17.7684 96.508 17.7549 96.528 17.7412L94.2692 14.44ZM95.0292 13.12H99.0292C99.0292 10.9109 97.2384 9.12 95.0292 9.12V13.12ZM91.9092 13.12H87.9092C87.9092 15.3291 89.7001 17.12 91.9092 17.12V13.12ZM91.9092 10.32V6.32C89.7001 6.32 87.9092 8.11086 87.9092 10.32H91.9092ZM99.2492 10.32H103.249C103.249 8.11086 101.458 6.32 99.2492 6.32V10.32ZM99.2492 18V22C101.458 22 103.249 20.2091 103.249 18H99.2492ZM96.9692 18L93.1634 19.2313C93.6974 20.8818 95.2345 22 96.9692 22V18ZM96.5292 16.64L100.335 15.4087C99.9239 14.138 98.9057 13.1563 97.6208 12.7918C96.3359 12.4274 94.9538 12.7282 93.9367 13.5938L96.5292 16.64ZM86.4692 16.46L83.5773 19.2234C83.5824 19.2288 83.5876 19.2342 83.5927 19.2395L86.4692 16.46ZM86.6892 5.82L89.4099 8.75225L89.411 8.75117L86.6892 5.82ZM92.2492 8C93.1657 8 93.86 8.13851 94.3892 8.33945L97.2293 0.860552C95.6517 0.261492 93.9728 -9.53674e-07 92.2492 -9.53674e-07V8ZM94.3892 8.33945C94.8489 8.51403 95.0477 8.70221 95.1547 8.83946L101.464 3.92054C100.344 2.48446 98.8762 1.48597 97.2293 0.860551L94.3892 8.33945ZM95.2015 8.89833C95.2101 8.90892 95.2117 8.91138 95.2168 8.92688C95.2239 8.94819 95.2492 9.03511 95.2492 9.22H103.249C103.249 7.30467 102.693 5.43641 101.417 3.86167L95.2015 8.89833ZM99.2492 5.22H95.0292V13.22H99.2492V5.22ZM99.0292 9.22C99.0292 7.21948 98.0331 5.5686 96.528 4.53877L92.0105 11.1412C91.8344 11.0207 91.5579 10.7785 91.3354 10.3746C91.1073 9.96035 91.0292 9.54462 91.0292 9.22H99.0292ZM96.5861 4.57928C95.2996 3.66524 93.8436 3.3 92.4292 3.3V11.3C92.4554 11.3 92.4048 11.3031 92.3028 11.2731C92.1956 11.2417 92.0714 11.1852 91.9524 11.1007L96.5861 4.57928ZM92.4292 3.3C90.6863 3.3 88.6942 3.78378 87.1727 5.38138L92.9658 10.8986C92.7664 11.108 92.5494 11.2254 92.4005 11.2784C92.2723 11.324 92.2585 11.3 92.4292 11.3V3.3ZM87.2061 5.3467C85.7305 6.8592 85.2692 8.77459 85.2692 10.48H93.2692C93.2692 10.3164 93.2916 10.3195 93.2541 10.429C93.2108 10.5556 93.1127 10.7485 92.9324 10.9333L87.2061 5.3467ZM85.2692 10.48V11.76H93.2692V10.48H85.2692ZM85.2692 11.76C85.2692 13.4716 85.7327 15.3667 87.1727 16.8786L92.9658 11.3614C93.1291 11.5329 93.2183 11.7102 93.2575 11.8258C93.2913 11.9256 93.2692 11.9226 93.2692 11.76H85.2692ZM87.2061 16.9133C88.7327 18.478 90.7126 18.94 92.4292 18.94V10.94C92.2496 10.94 92.2531 10.9153 92.3721 10.9566C92.5109 11.0048 92.7275 11.1167 92.9324 11.3267L87.2061 16.9133ZM92.4292 18.94C93.7819 18.94 95.1942 18.6195 96.4677 17.7817L92.0708 11.0983C92.1875 11.0216 92.2985 10.9772 92.3803 10.955C92.4573 10.934 92.481 10.94 92.4292 10.94V18.94ZM96.528 17.7412C97.9336 16.7795 99.0292 15.1891 99.0292 13.12H91.0292C91.0292 12.7229 91.132 12.2723 91.3727 11.8541C91.6017 11.4564 91.8704 11.2346 92.0105 11.1388L96.528 17.7412ZM95.0292 9.12H91.9092V17.12H95.0292V9.12ZM95.9092 13.12V10.32H87.9092V13.12H95.9092ZM91.9092 14.32H99.2492V6.32H91.9092V14.32ZM95.2492 10.32V18H103.249V10.32H95.2492ZM99.2492 14H96.9692V22H99.2492V14ZM100.775 16.7687L100.335 15.4087L92.7234 17.8713L93.1634 19.2313L100.775 16.7687ZM93.9367 13.5938C93.5633 13.9116 92.9138 14.24 91.6092 14.24V22.24C94.358 22.24 96.9884 21.5017 99.1217 19.6862L93.9367 13.5938ZM91.6092 14.24C89.9894 14.24 89.4874 13.8271 89.3457 13.6805L83.5927 19.2395C85.7443 21.4662 88.6691 22.24 91.6092 22.24V14.24ZM89.3612 13.6966C89.1782 13.5051 88.7492 12.8858 88.7492 11.12H80.7492C80.7492 14.0742 81.4669 17.0149 83.5773 19.2234L89.3612 13.6966ZM88.7492 11.12C88.7492 9.52315 89.1724 8.97259 89.4099 8.75225L83.9686 2.88775C81.6194 5.06741 80.7492 8.05018 80.7492 11.12H88.7492ZM89.411 8.75117C89.753 8.43365 90.5032 8 92.2492 8V-9.53674e-07C89.1952 -9.53674e-07 86.2388 0.779684 83.9674 2.88883L89.411 8.75117ZM113.509 16.76L110.952 13.6843V13.6843L113.509 16.76ZM103.369 16.76L100.812 19.8357C100.818 19.8404 100.823 19.8451 100.829 19.8497L103.369 16.76ZM101.589 4.24V0.24C99.3802 0.24 97.5894 2.03086 97.5894 4.24H101.589ZM106.009 4.24H110.009C110.009 2.03086 108.219 0.24 106.009 0.24V4.24ZM106.629 14.26L103.635 16.9121C103.648 16.9265 103.661 16.9408 103.674 16.955L106.629 14.26ZM110.229 14.24L107.277 11.5409C107.263 11.5565 107.249 11.5721 107.235 11.5879L110.229 14.24ZM110.869 4.24V0.24C108.66 0.24 106.869 2.03086 106.869 4.24H110.869ZM115.289 4.24H119.289C119.289 2.03086 117.499 0.24 115.289 0.24V4.24ZM111.289 12.46C111.289 13.4362 111.026 13.6226 110.952 13.6843L116.067 19.8357C118.366 17.924 119.289 15.2438 119.289 12.46H111.289ZM110.952 13.6843C110.732 13.8675 110.085 14.24 108.449 14.24V22.24C111.187 22.24 113.914 21.6258 116.067 19.8357L110.952 13.6843ZM108.449 14.24C106.817 14.24 106.151 13.869 105.91 13.6703L100.829 19.8497C102.987 21.6243 105.708 22.24 108.449 22.24V14.24ZM105.927 13.6843C105.853 13.6226 105.589 13.4362 105.589 12.46H97.5894C97.5894 15.2438 98.5129 17.924 100.812 19.8357L105.927 13.6843ZM105.589 12.46V4.24H97.5894V12.46H105.589ZM101.589 8.24H106.009V0.24H101.589V8.24ZM102.009 4.24V12.4H110.009V4.24H102.009ZM102.009 12.4C102.009 13.9061 102.428 15.5496 103.635 16.9121L109.624 11.6079C109.792 11.7977 109.9 12.0037 109.959 12.1801C110.014 12.3449 110.009 12.4334 110.009 12.4H102.009ZM103.674 16.955C105.046 18.46 106.855 18.94 108.429 18.94V10.94C108.413 10.94 108.562 10.937 108.803 11.0281C109.065 11.127 109.348 11.3048 109.585 11.565L103.674 16.955ZM108.429 18.94C110.039 18.94 111.861 18.4307 113.224 16.8921L107.235 11.5879C107.464 11.3289 107.747 11.1432 108.02 11.037C108.146 10.988 108.25 10.9637 108.321 10.9517C108.356 10.9458 108.383 10.9429 108.401 10.9414C108.419 10.94 108.429 10.94 108.429 10.94V18.94ZM113.181 16.9391C114.413 15.5918 114.869 13.9461 114.869 12.4H106.869C106.869 12.4072 106.868 12.2969 106.931 12.1159C106.998 11.9238 107.114 11.7193 107.277 11.5409L113.181 16.9391ZM114.869 12.4V4.24H106.869V12.4H114.869ZM110.869 8.24H115.289V0.24H110.869V8.24ZM111.289 4.24V12.46H119.289V4.24H111.289ZM127.69 18L124.665 20.6173C125.424 21.4954 126.528 22 127.69 22V18ZM121.91 11.32L124.934 8.70269C123.841 7.43945 122.078 6.98848 120.513 7.57171C118.948 8.15493 117.91 9.64951 117.91 11.32H121.91ZM121.91 18V22C124.119 22 125.91 20.2091 125.91 18H121.91ZM117.85 18H113.85C113.85 20.2091 115.64 22 117.85 22V18ZM117.85 4.24V0.24C115.64 0.24 113.85 2.03086 113.85 4.24H117.85ZM121.71 4.24L124.754 1.64498C123.994 0.753513 122.881 0.24 121.71 0.24V4.24ZM127.49 11.02L124.446 13.615C125.533 14.8904 127.3 15.3527 128.872 14.7734C130.445 14.1941 131.49 12.6959 131.49 11.02H127.49ZM127.49 4.24V0.24C125.28 0.24 123.49 2.03086 123.49 4.24H127.49ZM131.55 4.24H135.55C135.55 2.03086 133.759 0.24 131.55 0.24V4.24ZM131.55 18V22C133.759 22 135.55 20.2091 135.55 18H131.55ZM130.714 15.3827L124.934 8.70269L118.885 13.9373L124.665 20.6173L130.714 15.3827ZM117.91 11.32V18H125.91V11.32H117.91ZM121.91 14H117.85V22H121.91V14ZM121.85 18V4.24H113.85V18H121.85ZM117.85 8.24H121.71V0.24H117.85V8.24ZM118.666 6.83502L124.446 13.615L130.534 8.42498L124.754 1.64498L118.666 6.83502ZM131.49 11.02V4.24H123.49V11.02H131.49ZM127.49 8.24H131.55V0.24H127.49V8.24ZM127.55 4.24V18H135.55V4.24H127.55ZM131.55 14H127.69V22H131.55V14ZM150.71 18L146.797 18.8311C147.19 20.6787 148.821 22 150.71 22V18ZM148.93 9.62L152.843 8.7889C152.45 6.94128 150.819 5.62 148.93 5.62V9.62ZM148.85 9.62V5.62C146.961 5.62 145.33 6.94128 144.937 8.7889L148.85 9.62ZM147.07 18V22C148.959 22 150.59 20.6787 150.983 18.8311L147.07 18ZM142.21 18L138.315 18.9114C138.738 20.7206 140.352 22 142.21 22V18ZM138.99 4.24V0.24C137.769 0.24 136.614 0.797805 135.856 1.75461C135.097 2.71142 134.817 3.96241 135.095 5.15142L138.99 4.24ZM143.59 4.24L147.51 3.44587C147.132 1.58073 145.493 0.24 143.59 0.24V4.24ZM145.17 12.04L141.249 12.8341C141.627 14.6993 143.267 16.04 145.17 16.04V12.04ZM145.25 12.04V16.04C147.157 16.04 148.798 14.6942 149.172 12.8245L145.25 12.04ZM146.81 4.24V0.24C144.903 0.24 143.261 1.58584 142.888 3.45553L146.81 4.24ZM151.17 4.24L155.082 3.40736C154.689 1.56047 153.058 0.24 151.17 0.24V4.24ZM152.83 12.04L148.917 12.8726C149.311 14.7195 150.942 16.04 152.83 16.04V12.04ZM152.91 12.04V16.04C154.831 16.04 156.482 14.6736 156.84 12.7857L152.91 12.04ZM154.39 4.24V0.24C152.468 0.24 150.818 1.60642 150.46 3.49433L154.39 4.24ZM158.79 4.24L162.685 5.15142C162.963 3.96241 162.683 2.71142 161.924 1.75461C161.165 0.797805 160.011 0.24 158.79 0.24V4.24ZM155.57 18V22C157.428 22 159.041 20.7206 159.465 18.9114L155.57 18ZM154.623 17.1689L152.843 8.7889L145.017 10.4511L146.797 18.8311L154.623 17.1689ZM148.93 5.62H148.85V13.62H148.93V5.62ZM144.937 8.7889L143.157 17.1689L150.983 18.8311L152.763 10.4511L144.937 8.7889ZM147.07 14H142.21V22H147.07V14ZM146.105 17.0886L142.885 3.32858L135.095 5.15142L138.315 18.9114L146.105 17.0886ZM138.99 8.24H143.59V0.24H138.99V8.24ZM139.669 5.03413L141.249 12.8341L149.09 11.2459L147.51 3.44587L139.669 5.03413ZM145.17 16.04H145.25V8.04H145.17V16.04ZM149.172 12.8245L150.732 5.02446L142.888 3.45553L141.328 11.2555L149.172 12.8245ZM146.81 8.24H151.17V0.24H146.81V8.24ZM147.257 5.07263L148.917 12.8726L156.742 11.2074L155.082 3.40736L147.257 5.07263ZM152.83 16.04H152.91V8.04H152.83V16.04ZM156.84 12.7857L158.32 4.98567L150.46 3.49433L148.98 11.2943L156.84 12.7857ZM154.39 8.24H158.79V0.24H154.39V8.24ZM154.895 3.32858L151.675 17.0886L159.465 18.9114L162.685 5.15142L154.895 3.32858ZM155.57 14H150.71V22H155.57V14ZM171.978 16.42L169.241 13.5028L171.978 16.42ZM160.978 16.44L158.226 19.343C158.236 19.3528 158.247 19.3626 158.257 19.3722L160.978 16.44ZM160.978 5.82L163.714 8.73815L163.715 8.73721L160.978 5.82ZM164.318 8.16L167.35 10.769V10.769L164.318 8.16ZM168.638 14.08L165.64 11.4312C165.629 11.4444 165.617 11.4577 165.606 11.471L168.638 14.08ZM168.638 8.16L165.606 10.769C165.617 10.7823 165.629 10.7956 165.64 10.8088L168.638 8.16ZM166.478 8C168.186 8 168.911 8.42756 169.241 8.73721L174.715 2.90279C172.458 0.785774 169.516 -9.53674e-07 166.478 -9.53674e-07V8ZM169.241 8.73721C169.5 8.98016 169.918 9.54726 169.918 11.12H177.918C177.918 8.05274 177.042 5.0865 174.715 2.90279L169.241 8.73721ZM169.918 11.12C169.918 12.6927 169.5 13.2598 169.241 13.5028L174.715 19.3372C177.042 17.1535 177.918 14.1873 177.918 11.12H169.918ZM169.241 13.5028C168.911 13.8124 168.186 14.24 166.478 14.24V22.24C169.516 22.24 172.458 21.4542 174.715 19.3372L169.241 13.5028ZM166.478 14.24C164.759 14.24 164.028 13.8132 163.698 13.5077L158.257 19.3722C160.515 21.4668 163.45 22.24 166.478 22.24V14.24ZM163.73 13.537C163.48 13.3008 163.058 12.7259 163.058 11.12H155.058C155.058 14.1808 155.915 17.1525 158.226 19.343L163.73 13.537ZM163.058 11.12C163.058 9.51127 163.481 8.95578 163.714 8.73815L158.242 2.90185C155.914 5.08422 155.058 8.06206 155.058 11.12H163.058ZM163.715 8.73721C164.045 8.42756 164.77 8 166.478 8V-9.53674e-07C163.439 -9.53674e-07 160.498 0.785774 158.241 2.90279L163.715 8.73721ZM166.478 3.3C164.683 3.3 162.724 3.87959 161.286 5.55103L167.35 10.769C167.165 10.9835 166.931 11.1421 166.707 11.2313C166.505 11.3119 166.402 11.3 166.478 11.3V3.3ZM161.286 5.55103C160.006 7.03803 159.578 8.83022 159.578 10.48H167.578C167.578 10.3264 167.598 10.31 167.574 10.3855C167.546 10.473 167.479 10.6191 167.35 10.769L161.286 5.55103ZM159.578 10.48V11.76H167.578V10.48H159.578ZM159.578 11.76C159.578 13.4098 160.006 15.202 161.286 16.689L167.35 11.471C167.479 11.6209 167.546 11.767 167.574 11.8545C167.598 11.93 167.578 11.9136 167.578 11.76H159.578ZM161.286 16.689C162.724 18.3604 164.683 18.94 166.478 18.94V10.94C166.402 10.94 166.505 10.9281 166.707 11.0087C166.931 11.0979 167.165 11.2565 167.35 11.471L161.286 16.689ZM166.478 18.94C168.272 18.94 170.232 18.3604 171.67 16.689L165.606 11.471C165.79 11.2565 166.024 11.0979 166.248 11.0087C166.451 10.9281 166.553 10.94 166.478 10.94V18.94ZM171.635 16.7288C172.949 15.2424 173.398 13.4353 173.398 11.76H165.398C165.398 11.9041 165.379 11.9099 165.407 11.8248C165.439 11.7271 165.51 11.5783 165.64 11.4312L171.635 16.7288ZM173.398 11.76V10.48H165.398V11.76H173.398ZM173.398 10.48C173.398 8.80473 172.949 6.99758 171.635 5.51121L165.64 10.8088C165.51 10.6617 165.439 10.5129 165.407 10.4152C165.379 10.3301 165.398 10.3359 165.398 10.48H173.398ZM171.67 5.55103C170.232 3.87959 168.272 3.3 166.478 3.3V11.3C166.553 11.3 166.451 11.3119 166.248 11.2313C166.024 11.1421 165.79 10.9835 165.606 10.769L171.67 5.55103ZM188.238 16.42L185.501 13.5028L188.238 16.42ZM177.238 16.44L174.486 19.343C174.496 19.3528 174.507 19.3626 174.517 19.3722L177.238 16.44ZM177.238 5.82L179.974 8.73815L179.975 8.73721L177.238 5.82ZM180.578 8.16L183.61 10.769V10.769L180.578 8.16ZM184.898 14.08L181.901 11.4312C181.889 11.4444 181.877 11.4577 181.866 11.471L184.898 14.08ZM184.898 8.16L181.866 10.769C181.877 10.7823 181.889 10.7956 181.901 10.8088L184.898 8.16ZM182.738 8C184.446 8 185.171 8.42756 185.501 8.73721L190.975 2.90279C188.718 0.785774 185.777 -9.53674e-07 182.738 -9.53674e-07V8ZM185.501 8.73721C185.76 8.98016 186.178 9.54726 186.178 11.12H194.178C194.178 8.05274 193.302 5.0865 190.975 2.90279L185.501 8.73721ZM186.178 11.12C186.178 12.6927 185.76 13.2598 185.501 13.5028L190.975 19.3372C193.302 17.1535 194.178 14.1873 194.178 11.12H186.178ZM185.501 13.5028C185.171 13.8124 184.446 14.24 182.738 14.24V22.24C185.777 22.24 188.718 21.4542 190.975 19.3372L185.501 13.5028ZM182.738 14.24C181.019 14.24 180.288 13.8132 179.959 13.5077L174.517 19.3722C176.775 21.4668 179.71 22.24 182.738 22.24V14.24ZM179.99 13.537C179.741 13.3008 179.318 12.7259 179.318 11.12H171.318C171.318 14.1808 172.175 17.1525 174.486 19.343L179.99 13.537ZM179.318 11.12C179.318 9.51127 179.742 8.95578 179.974 8.73815L174.502 2.90185C172.174 5.08422 171.318 8.06206 171.318 11.12H179.318ZM179.975 8.73721C180.305 8.42756 181.03 8 182.738 8V-9.53674e-07C179.699 -9.53674e-07 176.758 0.785774 174.501 2.90279L179.975 8.73721ZM182.738 3.3C180.943 3.3 178.984 3.87959 177.546 5.55103L183.61 10.769C183.425 10.9835 183.191 11.1421 182.968 11.2313C182.765 11.3119 182.662 11.3 182.738 11.3V3.3ZM177.546 5.55103C176.266 7.03803 175.838 8.83022 175.838 10.48H183.838C183.838 10.3264 183.858 10.31 183.834 10.3855C183.806 10.473 183.739 10.6191 183.61 10.769L177.546 5.55103ZM175.838 10.48V11.76H183.838V10.48H175.838ZM175.838 11.76C175.838 13.4098 176.266 15.202 177.546 16.689L183.61 11.471C183.739 11.6209 183.806 11.767 183.834 11.8545C183.858 11.93 183.838 11.9136 183.838 11.76H175.838ZM177.546 16.689C178.984 18.3604 180.943 18.94 182.738 18.94V10.94C182.662 10.94 182.765 10.9281 182.968 11.0087C183.191 11.0979 183.425 11.2565 183.61 11.471L177.546 16.689ZM182.738 18.94C184.532 18.94 186.492 18.3604 187.93 16.689L181.866 11.471C182.051 11.2565 182.284 11.0979 182.508 11.0087C182.711 10.9281 182.814 10.94 182.738 10.94V18.94ZM187.895 16.7288C189.209 15.2424 189.658 13.4353 189.658 11.76H181.658C181.658 11.9041 181.639 11.9099 181.667 11.8248C181.699 11.7271 181.771 11.5783 181.901 11.4312L187.895 16.7288ZM189.658 11.76V10.48H181.658V11.76H189.658ZM189.658 10.48C189.658 8.80473 189.209 6.99758 187.895 5.51121L181.901 10.8088C181.771 10.6617 181.699 10.5129 181.667 10.4152C181.639 10.3301 181.658 10.3359 181.658 10.48H189.658ZM187.93 5.55103C186.492 3.87959 184.532 3.3 182.738 3.3V11.3C182.814 11.3 182.711 11.3119 182.508 11.2313C182.284 11.1421 182.051 10.9835 181.866 10.769L187.93 5.55103ZM201.478 4.24V0.24C200.291 0.24 199.165 0.767292 198.405 1.67926L201.478 4.24ZM206.958 4.24L209.972 6.87025C211.003 5.68846 211.249 4.01287 210.6 2.58485C209.951 1.15684 208.527 0.24 206.958 0.24V4.24ZM202.018 9.9L199.005 7.26975C197.848 8.59483 197.693 10.5199 198.622 12.0132L202.018 9.9ZM207.058 18V22C208.511 22 209.849 21.2124 210.555 19.9426C211.26 18.6727 211.222 17.1202 210.454 15.8868L207.058 18ZM201.838 18L198.359 19.9741C199.07 21.2263 200.398 22 201.838 22V18ZM198.978 12.96L202.457 10.9859C201.876 9.96109 200.872 9.24483 199.714 9.02819C198.555 8.81155 197.361 9.11657 196.448 9.86187L198.978 12.96ZM196.578 14.92L194.048 11.8219C193.118 12.5815 192.578 13.719 192.578 14.92H196.578ZM196.578 18V22C198.787 22 200.578 20.2091 200.578 18H196.578ZM192.158 18H188.158C188.158 20.2091 189.949 22 192.158 22V18ZM192.158 4.24V0.24C189.949 0.24 188.158 2.03086 188.158 4.24H192.158ZM196.578 4.24H200.578C200.578 2.03086 198.787 0.24 196.578 0.24V4.24ZM196.578 10.12H192.578C192.578 11.8041 193.633 13.3078 195.216 13.8811C196.8 14.4544 198.573 13.9745 199.651 12.6807L196.578 10.12ZM201.478 8.24H206.958V0.24H201.478V8.24ZM203.945 1.60975L199.005 7.26975L205.032 12.5302L209.972 6.87025L203.945 1.60975ZM198.622 12.0132L203.662 20.1132L210.454 15.8868L205.414 7.78679L198.622 12.0132ZM207.058 14H201.838V22H207.058V14ZM205.317 16.0259L202.457 10.9859L195.499 14.9341L198.359 19.9741L205.317 16.0259ZM196.448 9.86187L194.048 11.8219L199.108 18.0181L201.508 16.0581L196.448 9.86187ZM192.578 14.92V18H200.578V14.92H192.578ZM196.578 14H192.158V22H196.578V14ZM196.158 18V4.24H188.158V18H196.158ZM192.158 8.24H196.578V0.24H192.158V8.24ZM192.578 4.24V10.12H200.578V4.24H192.578ZM199.651 12.6807L204.551 6.80074L198.405 1.67926L193.505 7.55926L199.651 12.6807Z" fill="#468ED3" mask="url(#path-1-outside-1_2005_2914)"/>
<mask id="path-3-outside-2_2005_2914" maskUnits="userSpaceOnUse" x="18" y="2" width="192" height="19" fill="black">
<rect fill="white" x="18" y="2" width="192" height="19"/>
<path d="M27.8617 4.24C28.7151 4.24 29.4751 4.44 30.1417 4.84C30.8084 5.22667 31.3284 5.76667 31.7017 6.46C32.0751 7.14 32.2617 7.90667 32.2617 8.76V9.02C32.2617 9.87333 32.0751 10.6467 31.7017 11.34C31.3284 12.0333 30.8084 12.58 30.1417 12.98C29.4751 13.3667 28.7151 13.56 27.8617 13.56H24.5617V18H20.1417V4.24H27.8617ZM24.5617 10.34H26.3817C26.8484 10.34 27.1951 10.22 27.4217 9.98C27.6617 9.74 27.7817 9.41333 27.7817 9V8.84C27.7817 8.41333 27.6617 8.08667 27.4217 7.86C27.1951 7.62 26.8484 7.5 26.3817 7.5H24.5617V10.34ZM41.6961 18L41.1161 16.06H36.2961L35.7161 18H31.1961L36.2161 4.24H41.3561L46.3761 18H41.6961ZM37.2161 12.98H40.1961L38.7561 8.08H38.6761L37.2161 12.98ZM60.7025 8.46C60.7025 9.3 60.4758 10.06 60.0225 10.74C59.5692 11.42 58.9092 11.92 58.0425 12.24L61.1025 18H56.1425L53.7025 12.98H52.0625V18H47.6425V4.24H56.0625C57.0492 4.24 57.8892 4.43333 58.5825 4.82C59.2892 5.19333 59.8158 5.70667 60.1625 6.36C60.5225 7 60.7025 7.7 60.7025 8.46ZM56.2025 8.64C56.2025 8.28 56.0825 7.98 55.8425 7.74C55.6025 7.5 55.3092 7.38 54.9625 7.38H52.0625V9.92H54.9625C55.3092 9.92 55.6025 9.8 55.8425 9.56C56.0825 9.30667 56.2025 9 56.2025 8.64ZM72.1289 4.24H77.6089L72.6689 9.9L77.7089 18H72.4889L69.6289 12.96L67.2289 14.92V18H62.8089V4.24H67.2289V10.12L72.1289 4.24ZM92.2492 4C93.5692 4 94.7559 4.2 95.8092 4.6C96.8626 5 97.6959 5.59333 98.3092 6.38C98.9359 7.15333 99.2492 8.1 99.2492 9.22H95.0292C95.0292 8.64667 94.7759 8.18667 94.2692 7.84C93.7626 7.48 93.1492 7.3 92.4292 7.3C91.3892 7.3 90.6026 7.58 90.0692 8.14C89.5359 8.68667 89.2692 9.46667 89.2692 10.48V11.76C89.2692 12.7733 89.5359 13.56 90.0692 14.12C90.6026 14.6667 91.3892 14.94 92.4292 14.94C93.1492 14.94 93.7626 14.7733 94.2692 14.44C94.7759 14.0933 95.0292 13.6533 95.0292 13.12H91.9092V10.32H99.2492V18H96.9692L96.5292 16.64C95.2759 17.7067 93.6359 18.24 91.6092 18.24C89.3292 18.24 87.6159 17.6467 86.4692 16.46C85.3226 15.26 84.7492 13.48 84.7492 11.12C84.7492 8.78667 85.3959 7.02 86.6892 5.82C87.9959 4.60667 89.8492 4 92.2492 4ZM115.289 12.46C115.289 14.34 114.696 15.7733 113.509 16.76C112.323 17.7467 110.636 18.24 108.449 18.24C106.263 18.24 104.569 17.7467 103.369 16.76C102.183 15.7733 101.589 14.34 101.589 12.46V4.24H106.009V12.4C106.009 13.1733 106.216 13.7933 106.629 14.26C107.043 14.7133 107.643 14.94 108.429 14.94C109.216 14.94 109.816 14.7067 110.229 14.24C110.656 13.7733 110.869 13.16 110.869 12.4V4.24H115.289V12.46ZM127.69 18L121.91 11.32V18H117.85V4.24H121.71L127.49 11.02V4.24H131.55V18H127.69ZM150.71 18L148.93 9.62H148.85L147.07 18H142.21L138.99 4.24H143.59L145.17 12.04H145.25L146.81 4.24H151.17L152.83 12.04H152.91L154.39 4.24H158.79L155.57 18H150.71ZM166.478 4C168.851 4 170.684 4.60667 171.978 5.82C173.271 7.03333 173.918 8.8 173.918 11.12C173.918 13.44 173.271 15.2067 171.978 16.42C170.684 17.6333 168.851 18.24 166.478 18.24C164.104 18.24 162.271 17.64 160.978 16.44C159.698 15.2267 159.058 13.4533 159.058 11.12C159.058 8.78667 159.698 7.02 160.978 5.82C162.271 4.60667 164.104 4 166.478 4ZM166.478 7.3C165.531 7.3 164.811 7.58667 164.318 8.16C163.824 8.73333 163.578 9.50667 163.578 10.48V11.76C163.578 12.7333 163.824 13.5067 164.318 14.08C164.811 14.6533 165.531 14.94 166.478 14.94C167.424 14.94 168.144 14.6533 168.638 14.08C169.144 13.5067 169.398 12.7333 169.398 11.76V10.48C169.398 9.50667 169.144 8.73333 168.638 8.16C168.144 7.58667 167.424 7.3 166.478 7.3ZM182.738 4C185.111 4 186.945 4.60667 188.238 5.82C189.531 7.03333 190.178 8.8 190.178 11.12C190.178 13.44 189.531 15.2067 188.238 16.42C186.945 17.6333 185.111 18.24 182.738 18.24C180.365 18.24 178.531 17.64 177.238 16.44C175.958 15.2267 175.318 13.4533 175.318 11.12C175.318 8.78667 175.958 7.02 177.238 5.82C178.531 4.60667 180.365 4 182.738 4ZM182.738 7.3C181.791 7.3 181.071 7.58667 180.578 8.16C180.085 8.73333 179.838 9.50667 179.838 10.48V11.76C179.838 12.7333 180.085 13.5067 180.578 14.08C181.071 14.6533 181.791 14.94 182.738 14.94C183.685 14.94 184.405 14.6533 184.898 14.08C185.405 13.5067 185.658 12.7333 185.658 11.76V10.48C185.658 9.50667 185.405 8.73333 184.898 8.16C184.405 7.58667 183.685 7.3 182.738 7.3ZM201.478 4.24H206.958L202.018 9.9L207.058 18H201.838L198.978 12.96L196.578 14.92V18H192.158V4.24H196.578V10.12L201.478 4.24Z"/>
</mask>
<path d="M27.8617 4.24C28.7151 4.24 29.4751 4.44 30.1417 4.84C30.8084 5.22667 31.3284 5.76667 31.7017 6.46C32.0751 7.14 32.2617 7.90667 32.2617 8.76V9.02C32.2617 9.87333 32.0751 10.6467 31.7017 11.34C31.3284 12.0333 30.8084 12.58 30.1417 12.98C29.4751 13.3667 28.7151 13.56 27.8617 13.56H24.5617V18H20.1417V4.24H27.8617ZM24.5617 10.34H26.3817C26.8484 10.34 27.1951 10.22 27.4217 9.98C27.6617 9.74 27.7817 9.41333 27.7817 9V8.84C27.7817 8.41333 27.6617 8.08667 27.4217 7.86C27.1951 7.62 26.8484 7.5 26.3817 7.5H24.5617V10.34ZM41.6961 18L41.1161 16.06H36.2961L35.7161 18H31.1961L36.2161 4.24H41.3561L46.3761 18H41.6961ZM37.2161 12.98H40.1961L38.7561 8.08H38.6761L37.2161 12.98ZM60.7025 8.46C60.7025 9.3 60.4758 10.06 60.0225 10.74C59.5692 11.42 58.9092 11.92 58.0425 12.24L61.1025 18H56.1425L53.7025 12.98H52.0625V18H47.6425V4.24H56.0625C57.0492 4.24 57.8892 4.43333 58.5825 4.82C59.2892 5.19333 59.8158 5.70667 60.1625 6.36C60.5225 7 60.7025 7.7 60.7025 8.46ZM56.2025 8.64C56.2025 8.28 56.0825 7.98 55.8425 7.74C55.6025 7.5 55.3092 7.38 54.9625 7.38H52.0625V9.92H54.9625C55.3092 9.92 55.6025 9.8 55.8425 9.56C56.0825 9.30667 56.2025 9 56.2025 8.64ZM72.1289 4.24H77.6089L72.6689 9.9L77.7089 18H72.4889L69.6289 12.96L67.2289 14.92V18H62.8089V4.24H67.2289V10.12L72.1289 4.24ZM92.2492 4C93.5692 4 94.7559 4.2 95.8092 4.6C96.8626 5 97.6959 5.59333 98.3092 6.38C98.9359 7.15333 99.2492 8.1 99.2492 9.22H95.0292C95.0292 8.64667 94.7759 8.18667 94.2692 7.84C93.7626 7.48 93.1492 7.3 92.4292 7.3C91.3892 7.3 90.6026 7.58 90.0692 8.14C89.5359 8.68667 89.2692 9.46667 89.2692 10.48V11.76C89.2692 12.7733 89.5359 13.56 90.0692 14.12C90.6026 14.6667 91.3892 14.94 92.4292 14.94C93.1492 14.94 93.7626 14.7733 94.2692 14.44C94.7759 14.0933 95.0292 13.6533 95.0292 13.12H91.9092V10.32H99.2492V18H96.9692L96.5292 16.64C95.2759 17.7067 93.6359 18.24 91.6092 18.24C89.3292 18.24 87.6159 17.6467 86.4692 16.46C85.3226 15.26 84.7492 13.48 84.7492 11.12C84.7492 8.78667 85.3959 7.02 86.6892 5.82C87.9959 4.60667 89.8492 4 92.2492 4ZM115.289 12.46C115.289 14.34 114.696 15.7733 113.509 16.76C112.323 17.7467 110.636 18.24 108.449 18.24C106.263 18.24 104.569 17.7467 103.369 16.76C102.183 15.7733 101.589 14.34 101.589 12.46V4.24H106.009V12.4C106.009 13.1733 106.216 13.7933 106.629 14.26C107.043 14.7133 107.643 14.94 108.429 14.94C109.216 14.94 109.816 14.7067 110.229 14.24C110.656 13.7733 110.869 13.16 110.869 12.4V4.24H115.289V12.46ZM127.69 18L121.91 11.32V18H117.85V4.24H121.71L127.49 11.02V4.24H131.55V18H127.69ZM150.71 18L148.93 9.62H148.85L147.07 18H142.21L138.99 4.24H143.59L145.17 12.04H145.25L146.81 4.24H151.17L152.83 12.04H152.91L154.39 4.24H158.79L155.57 18H150.71ZM166.478 4C168.851 4 170.684 4.60667 171.978 5.82C173.271 7.03333 173.918 8.8 173.918 11.12C173.918 13.44 173.271 15.2067 171.978 16.42C170.684 17.6333 168.851 18.24 166.478 18.24C164.104 18.24 162.271 17.64 160.978 16.44C159.698 15.2267 159.058 13.4533 159.058 11.12C159.058 8.78667 159.698 7.02 160.978 5.82C162.271 4.60667 164.104 4 166.478 4ZM166.478 7.3C165.531 7.3 164.811 7.58667 164.318 8.16C163.824 8.73333 163.578 9.50667 163.578 10.48V11.76C163.578 12.7333 163.824 13.5067 164.318 14.08C164.811 14.6533 165.531 14.94 166.478 14.94C167.424 14.94 168.144 14.6533 168.638 14.08C169.144 13.5067 169.398 12.7333 169.398 11.76V10.48C169.398 9.50667 169.144 8.73333 168.638 8.16C168.144 7.58667 167.424 7.3 166.478 7.3ZM182.738 4C185.111 4 186.945 4.60667 188.238 5.82C189.531 7.03333 190.178 8.8 190.178 11.12C190.178 13.44 189.531 15.2067 188.238 16.42C186.945 17.6333 185.111 18.24 182.738 18.24C180.365 18.24 178.531 17.64 177.238 16.44C175.958 15.2267 175.318 13.4533 175.318 11.12C175.318 8.78667 175.958 7.02 177.238 5.82C178.531 4.60667 180.365 4 182.738 4ZM182.738 7.3C181.791 7.3 181.071 7.58667 180.578 8.16C180.085 8.73333 179.838 9.50667 179.838 10.48V11.76C179.838 12.7333 180.085 13.5067 180.578 14.08C181.071 14.6533 181.791 14.94 182.738 14.94C183.685 14.94 184.405 14.6533 184.898 14.08C185.405 13.5067 185.658 12.7333 185.658 11.76V10.48C185.658 9.50667 185.405 8.73333 184.898 8.16C184.405 7.58667 183.685 7.3 182.738 7.3ZM201.478 4.24H206.958L202.018 9.9L207.058 18H201.838L198.978 12.96L196.578 14.92V18H192.158V4.24H196.578V10.12L201.478 4.24Z" fill="black"/>
<path d="M30.1417 4.84L29.1127 6.55499C29.1212 6.56007 29.1297 6.5651 29.1383 6.57006L30.1417 4.84ZM31.7017 6.46L29.9408 7.4082C29.9434 7.41298 29.9459 7.41776 29.9486 7.42252L31.7017 6.46ZM31.7017 11.34L33.4627 12.2882L31.7017 11.34ZM30.1417 12.98L31.1452 14.7101C31.1537 14.7051 31.1622 14.7001 31.1707 14.695L30.1417 12.98ZM24.5617 13.56V11.56C23.4572 11.56 22.5617 12.4554 22.5617 13.56H24.5617ZM24.5617 18V20C25.6663 20 26.5617 19.1046 26.5617 18H24.5617ZM20.1417 18H18.1417C18.1417 19.1046 19.0372 20 20.1417 20V18ZM20.1417 4.24V2.24C19.0372 2.24 18.1417 3.13543 18.1417 4.24H20.1417ZM24.5617 10.34H22.5617C22.5617 11.4446 23.4572 12.34 24.5617 12.34V10.34ZM27.4217 9.98L26.0075 8.56579C25.994 8.57925 25.9808 8.59291 25.9677 8.60675L27.4217 9.98ZM27.4217 7.86L25.9677 9.23325C25.9938 9.26094 26.0208 9.28787 26.0485 9.31402L27.4217 7.86ZM24.5617 7.5V5.5C23.4572 5.5 22.5617 6.39543 22.5617 7.5H24.5617ZM27.8617 6.24C28.3891 6.24 28.7868 6.3594 29.1127 6.55499L31.1707 3.12501C30.1634 2.5206 29.0411 2.24 27.8617 2.24V6.24ZM29.1383 6.57006C29.4778 6.76695 29.7388 7.03305 29.9408 7.4082L33.4627 5.5118C32.918 4.50029 32.139 3.68638 31.1452 3.10994L29.1383 6.57006ZM29.9486 7.42252C30.1442 7.77878 30.2617 8.20874 30.2617 8.76H34.2617C34.2617 7.60459 34.0059 6.50122 33.4549 5.49748L29.9486 7.42252ZM30.2617 8.76V9.02H34.2617V8.76H30.2617ZM30.2617 9.02C30.2617 9.57075 30.1443 10.0139 29.9408 10.3918L33.4627 12.2882C34.0058 11.2794 34.2617 10.1759 34.2617 9.02H30.2617ZM29.9408 10.3918C29.7357 10.7726 29.4667 11.0526 29.1127 11.265L31.1707 14.695C32.15 14.1074 32.9211 13.294 33.4627 12.2882L29.9408 10.3918ZM29.1383 11.2499C28.8083 11.4413 28.4014 11.56 27.8617 11.56V15.56C29.0287 15.56 30.1418 15.292 31.1452 14.7101L29.1383 11.2499ZM27.8617 11.56H24.5617V15.56H27.8617V11.56ZM22.5617 13.56V18H26.5617V13.56H22.5617ZM24.5617 16H20.1417V20H24.5617V16ZM22.1417 18V4.24H18.1417V18H22.1417ZM20.1417 6.24H27.8617V2.24H20.1417V6.24ZM24.5617 12.34H26.3817V8.34H24.5617V12.34ZM26.3817 12.34C27.1664 12.34 28.1369 12.1355 28.8757 11.3532L25.9677 8.60675C26.0992 8.46753 26.2409 8.39346 26.3375 8.36003C26.423 8.33044 26.4501 8.34 26.3817 8.34V12.34ZM28.8359 11.3942C29.5299 10.7003 29.7817 9.8207 29.7817 9H25.7817C25.7817 9.01446 25.7796 8.96003 25.8144 8.86536C25.8518 8.76355 25.9171 8.65616 26.0075 8.56579L28.8359 11.3942ZM29.7817 9V8.84H25.7817V9H29.7817ZM29.7817 8.84C29.7817 8.03269 29.5435 7.11296 28.795 6.40597L26.0485 9.31402C25.9314 9.20346 25.8551 9.07549 25.8144 8.96463C25.7772 8.86352 25.7817 8.81058 25.7817 8.84H29.7817ZM28.8757 6.48675C28.1369 5.70449 27.1664 5.5 26.3817 5.5V9.5C26.4501 9.5 26.423 9.50956 26.3375 9.47997C26.2409 9.44654 26.0992 9.37247 25.9677 9.23325L28.8757 6.48675ZM26.3817 5.5H24.5617V9.5H26.3817V5.5ZM22.5617 7.5V10.34H26.5617V7.5H22.5617ZM41.6961 18L39.7799 18.5729C40.0331 19.4198 40.8122 20 41.6961 20V18ZM41.1161 16.06L43.0323 15.4871C42.7791 14.6402 42 14.06 41.1161 14.06V16.06ZM36.2961 16.06V14.06C35.4122 14.06 34.6331 14.6402 34.3799 15.4871L36.2961 16.06ZM35.7161 18V20C36.6 20 37.3791 19.4198 37.6323 18.5729L35.7161 18ZM31.1961 18L29.3172 17.3145C29.0935 17.9278 29.1831 18.6117 29.5574 19.1465C29.9316 19.6814 30.5433 20 31.1961 20V18ZM36.2161 4.24V2.24C35.3759 2.24 34.6252 2.76519 34.3372 3.55454L36.2161 4.24ZM41.3561 4.24L43.235 3.55454C42.947 2.76519 42.1963 2.24 41.3561 2.24V4.24ZM46.3761 18V20C47.0289 20 47.6406 19.6814 48.0148 19.1465C48.3891 18.6117 48.4787 17.9278 48.255 17.3145L46.3761 18ZM37.2161 12.98L35.2994 12.4089C35.119 13.0141 35.2352 13.669 35.6126 14.1754C35.9901 14.6817 36.5845 14.98 37.2161 14.98V12.98ZM40.1961 12.98V14.98C40.8263 14.98 41.4197 14.6829 41.7973 14.1784C42.1749 13.6738 42.2926 13.0208 42.115 12.4161L40.1961 12.98ZM38.7561 8.08L40.675 7.51609C40.4248 6.66471 39.6435 6.08 38.7561 6.08V8.08ZM38.6761 8.08V6.08C37.7915 6.08 37.012 6.66112 36.7594 7.50889L38.6761 8.08ZM43.6123 17.4271L43.0323 15.4871L39.1999 16.6329L39.7799 18.5729L43.6123 17.4271ZM41.1161 14.06H36.2961V18.06H41.1161V14.06ZM34.3799 15.4871L33.7999 17.4271L37.6323 18.5729L38.2123 16.6329L34.3799 15.4871ZM35.7161 16H31.1961V20H35.7161V16ZM33.075 18.6855L38.095 4.92546L34.3372 3.55454L29.3172 17.3145L33.075 18.6855ZM36.2161 6.24H41.3561V2.24H36.2161V6.24ZM39.4772 4.92546L44.4972 18.6855L48.255 17.3145L43.235 3.55454L39.4772 4.92546ZM46.3761 16H41.6961V20H46.3761V16ZM37.2161 14.98H40.1961V10.98H37.2161V14.98ZM42.115 12.4161L40.675 7.51609L36.8372 8.64391L38.2772 13.5439L42.115 12.4161ZM38.7561 6.08H38.6761V10.08H38.7561V6.08ZM36.7594 7.50889L35.2994 12.4089L39.1328 13.5511L40.5928 8.65111L36.7594 7.50889ZM60.0225 10.74L58.3584 9.6306V9.6306L60.0225 10.74ZM58.0425 12.24L57.3498 10.3638C56.8082 10.5638 56.3795 10.9879 56.1738 11.5273C55.9681 12.0666 56.0055 12.6685 56.2763 13.1783L58.0425 12.24ZM61.1025 18V20C61.8045 20 62.455 19.632 62.8167 19.0304C63.1783 18.4288 63.1981 17.6816 62.8687 17.0617L61.1025 18ZM56.1425 18L54.3437 18.8743C54.6784 19.5629 55.3769 20 56.1425 20V18ZM53.7025 12.98L55.5013 12.1057C55.1666 11.4171 54.4681 10.98 53.7025 10.98V12.98ZM52.0625 12.98V10.98C50.9579 10.98 50.0625 11.8754 50.0625 12.98H52.0625ZM52.0625 18V20C53.1671 20 54.0625 19.1046 54.0625 18H52.0625ZM47.6425 18H45.6425C45.6425 19.1046 46.5379 20 47.6425 20V18ZM47.6425 4.24V2.24C46.5379 2.24 45.6425 3.13543 45.6425 4.24H47.6425ZM58.5825 4.82L57.6084 6.56673C57.6216 6.5741 57.6349 6.58132 57.6483 6.58839L58.5825 4.82ZM60.1625 6.36L58.3958 7.29743C58.4035 7.31189 58.4113 7.32626 58.4194 7.34052L60.1625 6.36ZM55.8425 7.74L54.4283 9.15421L54.4283 9.15421L55.8425 7.74ZM52.0625 7.38V5.38C50.9579 5.38 50.0625 6.27543 50.0625 7.38H52.0625ZM52.0625 9.92H50.0625C50.0625 11.0246 50.9579 11.92 52.0625 11.92V9.92ZM55.8425 9.56L57.2567 10.9742C57.2695 10.9615 57.282 10.9486 57.2944 10.9355L55.8425 9.56ZM58.7025 8.46C58.7025 8.9168 58.5863 9.2887 58.3584 9.6306L61.6866 11.8494C62.3653 10.8313 62.7025 9.68319 62.7025 8.46H58.7025ZM58.3584 9.6306C58.1697 9.91369 57.8737 10.1703 57.3498 10.3638L58.7353 14.1162C59.9446 13.6697 60.9687 12.9263 61.6866 11.8494L58.3584 9.6306ZM56.2763 13.1783L59.3363 18.9383L62.8687 17.0617L59.8087 11.3017L56.2763 13.1783ZM61.1025 16H56.1425V20H61.1025V16ZM57.9413 17.1257L55.5013 12.1057L51.9037 13.8543L54.3437 18.8743L57.9413 17.1257ZM53.7025 10.98H52.0625V14.98H53.7025V10.98ZM50.0625 12.98V18H54.0625V12.98H50.0625ZM52.0625 16H47.6425V20H52.0625V16ZM49.6425 18V4.24H45.6425V18H49.6425ZM47.6425 6.24H56.0625V2.24H47.6425V6.24ZM56.0625 6.24C56.7899 6.24 57.2769 6.38187 57.6084 6.56673L59.5566 3.07327C58.5014 2.48479 57.3084 2.24 56.0625 2.24V6.24ZM57.6483 6.58839C58.0304 6.79027 58.2523 7.02706 58.3958 7.29743L61.9292 5.42257C61.3793 4.38627 60.5479 3.5964 59.5167 3.05161L57.6483 6.58839ZM58.4194 7.34052C58.6049 7.67043 58.7025 8.03095 58.7025 8.46H62.7025C62.7025 7.36905 62.4401 6.32957 61.9057 5.37948L58.4194 7.34052ZM58.2025 8.64C58.2025 7.78528 57.8963 6.96538 57.2567 6.32579L54.4283 9.15421C54.3666 9.09253 54.3012 9.00187 54.2556 8.88778C54.2108 8.77603 54.2025 8.68543 54.2025 8.64H58.2025ZM57.2567 6.32579C56.6328 5.70182 55.8269 5.38 54.9625 5.38V9.38C54.9006 9.38 54.8006 9.36829 54.6852 9.32109C54.569 9.27356 54.4826 9.20853 54.4283 9.15421L57.2567 6.32579ZM54.9625 5.38H52.0625V9.38H54.9625V5.38ZM50.0625 7.38V9.92H54.0625V7.38H50.0625ZM52.0625 11.92H54.9625V7.92H52.0625V11.92ZM54.9625 11.92C55.8269 11.92 56.6328 11.5982 57.2567 10.9742L54.4283 8.14579C54.4826 8.09146 54.569 8.02644 54.6852 7.97891C54.8006 7.93171 54.9006 7.92 54.9625 7.92V11.92ZM57.2944 10.9355C57.8985 10.2978 58.2025 9.49379 58.2025 8.64H54.2025C54.2025 8.59392 54.211 8.51086 54.25 8.4112C54.2894 8.31043 54.3441 8.23362 54.3906 8.18451L57.2944 10.9355ZM72.1289 4.24V2.24C71.5353 2.24 70.9725 2.50365 70.5925 2.95963L72.1289 4.24ZM77.6089 4.24L79.1157 5.55512C79.6314 4.96423 79.7542 4.12643 79.4297 3.41243C79.1051 2.69842 78.3932 2.24 77.6089 2.24V4.24ZM72.6689 9.9L71.1621 8.58488C70.5838 9.24742 70.5062 10.2099 70.9708 10.9566L72.6689 9.9ZM77.7089 18V20C78.4352 20 79.1045 19.6062 79.4572 18.9713C79.81 18.3364 79.7907 17.5601 79.407 16.9434L77.7089 18ZM72.4889 18L70.7495 18.9871C71.1047 19.6131 71.7691 20 72.4889 20V18ZM69.6289 12.96L71.3684 11.9729C71.0776 11.4605 70.5757 11.1024 69.9966 10.9941C69.4175 10.8858 68.8201 11.0383 68.3638 11.4109L69.6289 12.96ZM67.2289 14.92L65.9638 13.3709C65.4987 13.7508 65.2289 14.3195 65.2289 14.92H67.2289ZM67.2289 18V20C68.3335 20 69.2289 19.1046 69.2289 18H67.2289ZM62.8089 18H60.8089C60.8089 19.1046 61.7043 20 62.8089 20V18ZM62.8089 4.24V2.24C61.7043 2.24 60.8089 3.13543 60.8089 4.24H62.8089ZM67.2289 4.24H69.2289C69.2289 3.13543 68.3335 2.24 67.2289 2.24V4.24ZM67.2289 10.12H65.2289C65.2289 10.962 65.7563 11.7139 66.5481 12.0005C67.3398 12.2872 68.2263 12.0472 68.7654 11.4004L67.2289 10.12ZM72.1289 6.24H77.6089V2.24H72.1289V6.24ZM76.1021 2.92488L71.1621 8.58488L74.1757 11.2151L79.1157 5.55512L76.1021 2.92488ZM70.9708 10.9566L76.0108 19.0566L79.407 16.9434L74.367 8.8434L70.9708 10.9566ZM77.7089 16H72.4889V20H77.7089V16ZM74.2284 17.0129L71.3684 11.9729L67.8895 13.9471L70.7495 18.9871L74.2284 17.0129ZM68.3638 11.4109L65.9638 13.3709L68.494 16.4691L70.894 14.5091L68.3638 11.4109ZM65.2289 14.92V18H69.2289V14.92H65.2289ZM67.2289 16H62.8089V20H67.2289V16ZM64.8089 18V4.24H60.8089V18H64.8089ZM62.8089 6.24H67.2289V2.24H62.8089V6.24ZM65.2289 4.24V10.12H69.2289V4.24H65.2289ZM68.7654 11.4004L73.6654 5.52037L70.5925 2.95963L65.6925 8.83963L68.7654 11.4004ZM95.8092 4.6L95.0992 6.46972V6.46972L95.8092 4.6ZM98.3092 6.38L96.732 7.60973C96.7397 7.61962 96.7475 7.62943 96.7554 7.63917L98.3092 6.38ZM99.2492 9.22V11.22C100.354 11.22 101.249 10.3246 101.249 9.22H99.2492ZM95.0292 9.22H93.0292C93.0292 10.3246 93.9247 11.22 95.0292 11.22V9.22ZM94.2692 7.84L93.1108 9.47036C93.1204 9.4772 93.1301 9.48395 93.1399 9.49061L94.2692 7.84ZM90.0692 8.14L91.5008 9.53665C91.5064 9.5309 91.512 9.52512 91.5175 9.51931L90.0692 8.14ZM90.0692 14.12L88.6209 15.4993C88.6265 15.5051 88.632 15.5109 88.6377 15.5166L90.0692 14.12ZM94.2692 14.44L95.3685 16.1108C95.3786 16.1042 95.3886 16.0974 95.3986 16.0906L94.2692 14.44ZM95.0292 13.12H97.0292C97.0292 12.0154 96.1338 11.12 95.0292 11.12V13.12ZM91.9092 13.12H89.9092C89.9092 14.2246 90.8046 15.12 91.9092 15.12V13.12ZM91.9092 10.32V8.32C90.8046 8.32 89.9092 9.21543 89.9092 10.32H91.9092ZM99.2492 10.32H101.249C101.249 9.21543 100.354 8.32 99.2492 8.32V10.32ZM99.2492 18V20C100.354 20 101.249 19.1046 101.249 18H99.2492ZM96.9692 18L95.0663 18.6156C95.3333 19.4409 96.1018 20 96.9692 20V18ZM96.5292 16.64L98.4321 16.0244C98.2265 15.389 97.7174 14.8981 97.075 14.7159C96.4325 14.5337 95.7415 14.6841 95.233 15.1169L96.5292 16.64ZM86.4692 16.46L85.0232 17.8417L85.031 17.8498L86.4692 16.46ZM86.6892 5.82L88.0495 7.28613L88.0501 7.28559L86.6892 5.82ZM92.2492 6C93.3674 6 94.308 6.16925 95.0992 6.46972L96.5192 2.73028C95.2038 2.23075 93.771 2 92.2492 2V6ZM95.0992 6.46972C95.8557 6.75701 96.3718 7.14777 96.732 7.60973L99.8865 5.15027C99.02 4.03889 97.8694 3.24299 96.5192 2.73028L95.0992 6.46972ZM96.7554 7.63917C97.0573 8.01179 97.2492 8.49767 97.2492 9.22H101.249C101.249 7.70233 100.814 6.29487 99.8631 5.12083L96.7554 7.63917ZM99.2492 7.22H95.0292V11.22H99.2492V7.22ZM97.0292 9.22C97.0292 7.93307 96.4045 6.87763 95.3986 6.18939L93.1399 9.49061C93.1785 9.51703 93.1352 9.49677 93.0873 9.40981C93.0649 9.36901 93.0488 9.32659 93.0392 9.28747C93.0299 9.24921 93.0292 9.22477 93.0292 9.22H97.0292ZM95.4276 6.20964C94.5311 5.57262 93.4964 5.3 92.4292 5.3V9.3C92.802 9.3 92.994 9.38738 93.1108 9.47036L95.4276 6.20964ZM92.4292 5.3C91.0378 5.3 89.6484 5.68189 88.6209 6.76069L91.5175 9.51931C91.5567 9.47811 91.7407 9.3 92.4292 9.3V5.3ZM88.6377 6.74335C87.6332 7.77293 87.2692 9.12063 87.2692 10.48H91.2692C91.2692 9.8127 91.4386 9.6004 91.5008 9.53665L88.6377 6.74335ZM87.2692 10.48V11.76H91.2692V10.48H87.2692ZM87.2692 11.76C87.2692 13.1224 87.6343 14.4633 88.6209 15.4993L91.5175 12.7407C91.4375 12.6567 91.2692 12.4242 91.2692 11.76H87.2692ZM88.6377 15.5166C89.6676 16.5723 91.0509 16.94 92.4292 16.94V12.94C91.7275 12.94 91.5375 12.761 91.5008 12.7234L88.6377 15.5166ZM92.4292 16.94C93.4656 16.94 94.4784 16.6964 95.3685 16.1108L93.17 12.7692C93.0467 12.8502 92.8329 12.94 92.4292 12.94V16.94ZM95.3986 16.0906C96.3548 15.4364 97.0292 14.4212 97.0292 13.12H93.0292C93.0292 13.0936 93.0325 13.0512 93.0462 12.9987C93.06 12.9457 93.081 12.8955 93.106 12.8521C93.1571 12.7632 93.1965 12.7506 93.1399 12.7894L95.3986 16.0906ZM95.0292 11.12H91.9092V15.12H95.0292V11.12ZM93.9092 13.12V10.32H89.9092V13.12H93.9092ZM91.9092 12.32H99.2492V8.32H91.9092V12.32ZM97.2492 10.32V18H101.249V10.32H97.2492ZM99.2492 16H96.9692V20H99.2492V16ZM98.8721 17.3844L98.4321 16.0244L94.6263 17.2556L95.0663 18.6156L98.8721 17.3844ZM95.233 15.1169C94.4196 15.8091 93.2748 16.24 91.6092 16.24V20.24C93.9969 20.24 96.1322 19.6042 97.8255 18.1631L95.233 15.1169ZM91.6092 16.24C89.6593 16.24 88.5517 15.7369 87.9075 15.0702L85.031 17.8498C86.6801 19.5564 88.9991 20.24 91.6092 20.24V16.24ZM87.9152 15.0783C87.2504 14.3826 86.7492 13.1829 86.7492 11.12H82.7492C82.7492 13.7771 83.3947 16.1374 85.0232 17.8417L87.9152 15.0783ZM86.7492 11.12C86.7492 9.15491 87.2841 7.99629 88.0495 7.28612L85.3289 4.35387C83.5076 6.0437 82.7492 8.41842 82.7492 11.12H86.7492ZM88.0501 7.28559C88.8744 6.52016 90.1762 6 92.2492 6V2C89.5222 2 87.1173 2.69317 85.3283 4.35441L88.0501 7.28559ZM113.509 16.76L112.231 15.2221V15.2221L113.509 16.76ZM103.369 16.76L102.091 18.2979L102.099 18.3049L103.369 16.76ZM101.589 4.24V2.24C100.485 2.24 99.5894 3.13543 99.5894 4.24H101.589ZM106.009 4.24H108.009C108.009 3.13543 107.114 2.24 106.009 2.24V4.24ZM106.629 14.26L105.132 15.5861C105.139 15.5933 105.145 15.6004 105.151 15.6075L106.629 14.26ZM110.229 14.24L108.753 12.8905C108.746 12.8982 108.739 12.9061 108.732 12.9139L110.229 14.24ZM110.869 4.24V2.24C109.765 2.24 108.869 3.13543 108.869 4.24H110.869ZM115.289 4.24H117.289C117.289 3.13543 116.394 2.24 115.289 2.24V4.24ZM113.289 12.46C113.289 13.8881 112.861 14.698 112.231 15.2221L114.788 18.2979C116.531 16.8487 117.289 14.7919 117.289 12.46H113.289ZM112.231 15.2221C111.527 15.8071 110.361 16.24 108.449 16.24V20.24C110.912 20.24 113.118 19.6862 114.788 18.2979L112.231 15.2221ZM108.449 16.24C106.54 16.24 105.36 15.8078 104.64 15.2151L102.099 18.3049C103.778 19.6855 105.985 20.24 108.449 20.24V16.24ZM104.648 15.2221C104.018 14.698 103.589 13.8881 103.589 12.46H99.5894C99.5894 14.7919 100.348 16.8487 102.091 18.2979L104.648 15.2221ZM103.589 12.46V4.24H99.5894V12.46H103.589ZM101.589 6.24H106.009V2.24H101.589V6.24ZM104.009 4.24V12.4H108.009V4.24H104.009ZM104.009 12.4C104.009 13.5397 104.322 14.6715 105.132 15.5861L108.127 12.9339C108.11 12.9152 108.009 12.8069 108.009 12.4H104.009ZM105.151 15.6075C106.044 16.5867 107.249 16.94 108.429 16.94V12.94C108.225 12.94 108.126 12.9102 108.096 12.8991C108.077 12.8918 108.092 12.8957 108.107 12.9125L105.151 15.6075ZM108.429 16.94C109.628 16.94 110.839 16.5687 111.727 15.5661L108.732 12.9139C108.734 12.9115 108.74 12.9059 108.748 12.9007C108.755 12.8956 108.756 12.8966 108.744 12.901C108.721 12.9103 108.628 12.94 108.429 12.94V16.94ZM111.705 15.5895C112.535 14.6826 112.869 13.553 112.869 12.4H108.869C108.869 12.767 108.777 12.8641 108.753 12.8905L111.705 15.5895ZM112.869 12.4V4.24H108.869V12.4H112.869ZM110.869 6.24H115.289V2.24H110.869V6.24ZM113.289 4.24V12.46H117.289V4.24H113.289ZM127.69 18L126.177 19.3087C126.557 19.7477 127.109 20 127.69 20V18ZM121.91 11.32L123.422 10.0113C122.875 9.37972 121.994 9.15424 121.211 9.44585C120.429 9.73746 119.91 10.4848 119.91 11.32H121.91ZM121.91 18V20C123.014 20 123.91 19.1046 123.91 18H121.91ZM117.85 18H115.85C115.85 19.1046 116.745 20 117.85 20V18ZM117.85 4.24V2.24C116.745 2.24 115.85 3.13543 115.85 4.24H117.85ZM121.71 4.24L123.232 2.94249C122.852 2.49676 122.295 2.24 121.71 2.24V4.24ZM127.49 11.02L125.968 12.3175C126.511 12.9552 127.395 13.1864 128.181 12.8967C128.967 12.607 129.49 11.8579 129.49 11.02H127.49ZM127.49 4.24V2.24C126.385 2.24 125.49 3.13543 125.49 4.24H127.49ZM131.55 4.24H133.55C133.55 3.13543 132.654 2.24 131.55 2.24V4.24ZM131.55 18V20C132.654 20 133.55 19.1046 133.55 18H131.55ZM129.202 16.6913L123.422 10.0113L120.397 12.6287L126.177 19.3087L129.202 16.6913ZM119.91 11.32V18H123.91V11.32H119.91ZM121.91 16H117.85V20H121.91V16ZM119.85 18V4.24H115.85V18H119.85ZM117.85 6.24H121.71V2.24H117.85V6.24ZM120.188 5.53751L125.968 12.3175L129.012 9.72249L123.232 2.94249L120.188 5.53751ZM129.49 11.02V4.24H125.49V11.02H129.49ZM127.49 6.24H131.55V2.24H127.49V6.24ZM129.55 4.24V18H133.55V4.24H129.55ZM131.55 16H127.69V20H131.55V16ZM150.71 18L148.753 18.4156C148.95 19.3394 149.765 20 150.71 20V18ZM148.93 9.62L150.886 9.20445C150.69 8.28064 149.874 7.62 148.93 7.62V9.62ZM148.85 9.62V7.62C147.905 7.62 147.09 8.28064 146.893 9.20445L148.85 9.62ZM147.07 18V20C148.014 20 148.83 19.3394 149.026 18.4156L147.07 18ZM142.21 18L140.262 18.4557C140.474 19.3603 141.281 20 142.21 20V18ZM138.99 4.24V2.24C138.379 2.24 137.802 2.5189 137.423 2.99731C137.043 3.47571 136.903 4.1012 137.042 4.69571L138.99 4.24ZM143.59 4.24L145.55 3.84294C145.361 2.91037 144.541 2.24 143.59 2.24V4.24ZM145.17 12.04L143.21 12.4371C143.399 13.3696 144.218 14.04 145.17 14.04V12.04ZM145.25 12.04V14.04C146.203 14.04 147.024 13.3671 147.211 12.4322L145.25 12.04ZM146.81 4.24V2.24C145.856 2.24 145.036 2.91292 144.849 3.84777L146.81 4.24ZM151.17 4.24L153.126 3.82368C152.93 2.90024 152.114 2.24 151.17 2.24V4.24ZM152.83 12.04L150.874 12.4563C151.07 13.3798 151.886 14.04 152.83 14.04V12.04ZM152.91 12.04V14.04C153.871 14.04 154.696 13.3568 154.875 12.4128L152.91 12.04ZM154.39 4.24V2.24C153.429 2.24 152.604 2.92321 152.425 3.86716L154.39 4.24ZM158.79 4.24L160.737 4.69571C160.876 4.1012 160.736 3.47571 160.357 2.99731C159.978 2.5189 159.4 2.24 158.79 2.24V4.24ZM155.57 18V20C156.499 20 157.306 19.3603 157.517 18.4557L155.57 18ZM152.666 17.5844L150.886 9.20445L146.973 10.0355L148.753 18.4156L152.666 17.5844ZM148.93 7.62H148.85V11.62H148.93V7.62ZM146.893 9.20445L145.113 17.5844L149.026 18.4156L150.806 10.0355L146.893 9.20445ZM147.07 16H142.21V20H147.07V16ZM144.157 17.5443L140.937 3.78429L137.042 4.69571L140.262 18.4557L144.157 17.5443ZM138.99 6.24H143.59V2.24H138.99V6.24ZM141.63 4.63706L143.21 12.4371L147.13 11.6429L145.55 3.84294L141.63 4.63706ZM145.17 14.04H145.25V10.04H145.17V14.04ZM147.211 12.4322L148.771 4.63223L144.849 3.84777L143.289 11.6478L147.211 12.4322ZM146.81 6.24H151.17V2.24H146.81V6.24ZM149.214 4.65632L150.874 12.4563L154.786 11.6237L153.126 3.82368L149.214 4.65632ZM152.83 14.04H152.91V10.04H152.83V14.04ZM154.875 12.4128L156.355 4.61283L152.425 3.86716L150.945 11.6672L154.875 12.4128ZM154.39 6.24H158.79V2.24H154.39V6.24ZM156.842 3.78429L153.622 17.5443L157.517 18.4557L160.737 4.69571L156.842 3.78429ZM155.57 16H150.71V20H155.57V16ZM171.978 16.42L170.609 14.9614L171.978 16.42ZM160.978 16.44L159.602 17.8915C159.607 17.8964 159.612 17.9013 159.617 17.9061L160.978 16.44ZM160.978 5.82L162.346 7.27907L162.346 7.2786L160.978 5.82ZM164.318 8.16L165.834 9.46448V9.46448L164.318 8.16ZM168.638 14.08L167.139 12.7556C167.133 12.7622 167.128 12.7688 167.122 12.7755L168.638 14.08ZM168.638 8.16L167.122 9.46448C167.128 9.47116 167.133 9.4778 167.139 9.4844L168.638 8.16ZM166.478 6C168.519 6 169.798 6.51711 170.609 7.2786L173.346 4.36139C171.571 2.69622 169.184 2 166.478 2V6ZM170.609 7.2786C171.386 8.00675 171.918 9.17363 171.918 11.12H175.918C175.918 8.42637 175.157 6.05992 173.346 4.36139L170.609 7.2786ZM171.918 11.12C171.918 13.0664 171.386 14.2333 170.609 14.9614L173.346 17.8786C175.157 16.1801 175.918 13.8136 175.918 11.12H171.918ZM170.609 14.9614C169.798 15.7229 168.519 16.24 166.478 16.24V20.24C169.184 20.24 171.571 19.5438 173.346 17.8786L170.609 14.9614ZM166.478 16.24C164.432 16.24 163.149 15.7266 162.338 14.9739L159.617 17.9061C161.393 19.5534 163.777 20.24 166.478 20.24V16.24ZM162.354 14.9885C161.589 14.2637 161.058 13.0896 161.058 11.12H157.058C157.058 13.8171 157.806 16.1896 159.602 17.8915L162.354 14.9885ZM161.058 11.12C161.058 9.14897 161.59 7.98789 162.346 7.27907L159.61 4.36092C157.806 6.05211 157.058 8.42437 157.058 11.12H161.058ZM162.346 7.2786C163.158 6.51711 164.437 6 166.478 6V2C163.772 2 161.384 2.69622 159.609 4.36139L162.346 7.2786ZM166.478 5.3C165.107 5.3 163.768 5.73313 162.802 6.85552L165.834 9.46448C165.855 9.4402 165.955 9.3 166.478 9.3V5.3ZM162.802 6.85552C161.915 7.88568 161.578 9.16844 161.578 10.48H165.578C165.578 9.84489 165.734 9.58098 165.834 9.46448L162.802 6.85552ZM161.578 10.48V11.76H165.578V10.48H161.578ZM161.578 11.76C161.578 13.0716 161.915 14.3543 162.802 15.3845L165.834 12.7755C165.734 12.659 165.578 12.3951 165.578 11.76H161.578ZM162.802 15.3845C163.768 16.5069 165.107 16.94 166.478 16.94V12.94C165.955 12.94 165.855 12.7998 165.834 12.7755L162.802 15.3845ZM166.478 16.94C167.848 16.94 169.188 16.5069 170.154 15.3845L167.122 12.7755C167.101 12.7998 167.001 12.94 166.478 12.94V16.94ZM170.136 15.4044C171.047 14.3745 171.398 13.0843 171.398 11.76H167.398C167.398 12.3824 167.242 12.6388 167.139 12.7556L170.136 15.4044ZM171.398 11.76V10.48H167.398V11.76H171.398ZM171.398 10.48C171.398 9.1557 171.047 7.86546 170.136 6.8356L167.139 9.4844C167.242 9.60121 167.398 9.85764 167.398 10.48H171.398ZM170.154 6.85552C169.188 5.73313 167.848 5.3 166.478 5.3V9.3C167.001 9.3 167.101 9.4402 167.122 9.46448L170.154 6.85552ZM188.238 16.42L186.87 14.9614L188.238 16.42ZM177.238 16.44L175.862 17.8915C175.867 17.8964 175.872 17.9013 175.878 17.9061L177.238 16.44ZM177.238 5.82L178.606 7.27907L178.606 7.2786L177.238 5.82ZM180.578 8.16L182.094 9.46448V9.46448L180.578 8.16ZM184.898 14.08L183.399 12.7556C183.393 12.7622 183.388 12.7688 183.382 12.7755L184.898 14.08ZM184.898 8.16L183.382 9.46448C183.388 9.47116 183.393 9.4778 183.399 9.4844L184.898 8.16ZM182.738 6C184.779 6 186.058 6.51711 186.87 7.2786L189.606 4.36139C187.831 2.69622 185.444 2 182.738 2V6ZM186.87 7.2786C187.646 8.00675 188.178 9.17363 188.178 11.12H192.178C192.178 8.42637 191.417 6.05992 189.606 4.36139L186.87 7.2786ZM188.178 11.12C188.178 13.0664 187.646 14.2333 186.87 14.9614L189.606 17.8786C191.417 16.1801 192.178 13.8136 192.178 11.12H188.178ZM186.87 14.9614C186.058 15.7229 184.779 16.24 182.738 16.24V20.24C185.444 20.24 187.831 19.5438 189.606 17.8786L186.87 14.9614ZM182.738 16.24C180.692 16.24 179.41 15.7266 178.598 14.9739L175.878 17.9061C177.653 19.5534 180.037 20.24 182.738 20.24V16.24ZM178.614 14.9885C177.849 14.2637 177.318 13.0896 177.318 11.12H173.318C173.318 13.8171 174.067 16.1896 175.862 17.8915L178.614 14.9885ZM177.318 11.12C177.318 9.14897 177.85 7.98789 178.606 7.27907L175.87 4.36092C174.066 6.05211 173.318 8.42437 173.318 11.12H177.318ZM178.606 7.2786C179.418 6.51711 180.697 6 182.738 6V2C180.032 2 177.645 2.69622 175.87 4.36139L178.606 7.2786ZM182.738 5.3C181.367 5.3 180.028 5.73313 179.062 6.85552L182.094 9.46448C182.115 9.4402 182.215 9.3 182.738 9.3V5.3ZM179.062 6.85552C178.176 7.88568 177.838 9.16844 177.838 10.48H181.838C181.838 9.84489 181.994 9.58098 182.094 9.46448L179.062 6.85552ZM177.838 10.48V11.76H181.838V10.48H177.838ZM177.838 11.76C177.838 13.0716 178.176 14.3543 179.062 15.3845L182.094 12.7755C181.994 12.659 181.838 12.3951 181.838 11.76H177.838ZM179.062 15.3845C180.028 16.5069 181.367 16.94 182.738 16.94V12.94C182.215 12.94 182.115 12.7998 182.094 12.7755L179.062 15.3845ZM182.738 16.94C184.109 16.94 185.448 16.5069 186.414 15.3845L183.382 12.7755C183.361 12.7998 183.261 12.94 182.738 12.94V16.94ZM186.397 15.4044C187.307 14.3745 187.658 13.0843 187.658 11.76H183.658C183.658 12.3824 183.503 12.6388 183.399 12.7556L186.397 15.4044ZM187.658 11.76V10.48H183.658V11.76H187.658ZM187.658 10.48C187.658 9.1557 187.307 7.86546 186.397 6.8356L183.399 9.4844C183.503 9.60121 183.658 9.85764 183.658 10.48H187.658ZM186.414 6.85552C185.448 5.73313 184.109 5.3 182.738 5.3V9.3C183.261 9.3 183.361 9.4402 183.382 9.46448L186.414 6.85552ZM201.478 4.24V2.24C200.885 2.24 200.322 2.50365 199.942 2.95963L201.478 4.24ZM206.958 4.24L208.465 5.55512C208.981 4.96423 209.103 4.12643 208.779 3.41243C208.454 2.69842 207.742 2.24 206.958 2.24V4.24ZM202.018 9.9L200.511 8.58488C199.933 9.24742 199.855 10.2099 200.32 10.9566L202.018 9.9ZM207.058 18V20C207.784 20 208.454 19.6062 208.806 18.9713C209.159 18.3364 209.14 17.5601 208.756 16.9434L207.058 18ZM201.838 18L200.099 18.9871C200.454 19.6131 201.118 20 201.838 20V18ZM198.978 12.96L200.718 11.9729C200.427 11.4605 199.925 11.1024 199.346 10.9941C198.767 10.8858 198.169 11.0383 197.713 11.4109L198.978 12.96ZM196.578 14.92L195.313 13.3709C194.848 13.7508 194.578 14.3195 194.578 14.92H196.578ZM196.578 18V20C197.683 20 198.578 19.1046 198.578 18H196.578ZM192.158 18H190.158C190.158 19.1046 191.054 20 192.158 20V18ZM192.158 4.24V2.24C191.054 2.24 190.158 3.13543 190.158 4.24H192.158ZM196.578 4.24H198.578C198.578 3.13543 197.683 2.24 196.578 2.24V4.24ZM196.578 10.12H194.578C194.578 10.962 195.106 11.7139 195.897 12.0005C196.689 12.2872 197.576 12.0472 198.115 11.4004L196.578 10.12ZM201.478 6.24H206.958V2.24H201.478V6.24ZM205.451 2.92488L200.511 8.58488L203.525 11.2151L208.465 5.55512L205.451 2.92488ZM200.32 10.9566L205.36 19.0566L208.756 16.9434L203.716 8.8434L200.32 10.9566ZM207.058 16H201.838V20H207.058V16ZM203.578 17.0129L200.718 11.9729L197.239 13.9471L200.099 18.9871L203.578 17.0129ZM197.713 11.4109L195.313 13.3709L197.843 16.4691L200.243 14.5091L197.713 11.4109ZM194.578 14.92V18H198.578V14.92H194.578ZM196.578 16H192.158V20H196.578V16ZM194.158 18V4.24H190.158V18H194.158ZM192.158 6.24H196.578V2.24H192.158V6.24ZM194.578 4.24V10.12H198.578V4.24H194.578ZM198.115 11.4004L203.015 5.52037L199.942 2.95963L195.042 8.83963L198.115 11.4004Z" fill="white" mask="url(#path-3-outside-2_2005_2914)"/>
</svg>
