<svg width="226" height="22" viewBox="0 0 226 22" fill="none" xmlns="http://www.w3.org/2000/svg">
<mask id="path-1-outside-1_2005_2896" maskUnits="userSpaceOnUse" x="39" y="0" width="148" height="23" fill="black">
<rect fill="white" x="39" width="148" height="23"/>
<path d="M53.0363 4.24H58.5163L53.5763 9.9L58.6163 18H53.3963L50.5363 12.96L48.1363 14.92V18H43.7163V4.24H48.1363V10.12L53.0363 4.24ZM60.1765 18V4.24H64.5965V18H60.1765ZM79.1699 18V13.04C79.1699 12.4267 79.1899 11.8 79.2299 11.16C79.2833 10.5067 79.3366 9.96 79.3899 9.52C79.4433 9.08 79.4766 8.8 79.4899 8.68H79.4099L76.8699 18H73.4099L70.8499 8.7H70.7699C70.7833 8.82 70.8166 9.1 70.8699 9.54C70.9366 9.96667 70.9966 10.5067 71.0499 11.16C71.1033 11.8 71.1299 12.4267 71.1299 13.04V18H67.0699V4.24H73.3099L75.3899 12.18H75.4699L77.5299 4.24H83.5499V18H79.1699ZM99.0168 4C100.337 4 101.523 4.2 102.577 4.6C103.63 5 104.463 5.59333 105.077 6.38C105.703 7.15333 106.017 8.1 106.017 9.22H101.797C101.797 8.64667 101.543 8.18667 101.037 7.84C100.53 7.48 99.9168 7.3 99.1968 7.3C98.1568 7.3 97.3701 7.58 96.8368 8.14C96.3035 8.68667 96.0368 9.46667 96.0368 10.48V11.76C96.0368 12.7733 96.3035 13.56 96.8368 14.12C97.3701 14.6667 98.1568 14.94 99.1968 14.94C99.9168 14.94 100.53 14.7733 101.037 14.44C101.543 14.0933 101.797 13.6533 101.797 13.12H98.6768V10.32H106.017V18H103.737L103.297 16.64C102.043 17.7067 100.403 18.24 98.3768 18.24C96.0968 18.24 94.3835 17.6467 93.2368 16.46C92.0901 15.26 91.5168 13.48 91.5168 11.12C91.5168 8.78667 92.1635 7.02 93.4568 5.82C94.7635 4.60667 96.6168 4 99.0168 4ZM116.897 18H112.477V12.66L107.017 4.24H112.097L114.737 8.82H114.817L117.457 4.24H122.277L116.897 12.66V18ZM137.223 12.46C137.223 14.34 136.63 15.7733 135.443 16.76C134.257 17.7467 132.57 18.24 130.383 18.24C128.197 18.24 126.503 17.7467 125.303 16.76C124.117 15.7733 123.523 14.34 123.523 12.46V4.24H127.943V12.4C127.943 13.1733 128.15 13.7933 128.563 14.26C128.977 14.7133 129.577 14.94 130.363 14.94C131.15 14.94 131.75 14.7067 132.163 14.24C132.59 13.7733 132.803 13.16 132.803 12.4V4.24H137.223V12.46ZM149.784 18L144.904 4.24H149.624L152.384 13.44H152.464L155.244 4.24H159.764L154.904 18H149.784ZM161.41 18V4.24H165.83V18H161.41ZM178.424 18L172.644 11.32V18H168.584V4.24H172.444L178.224 11.02V4.24H182.284V18H178.424Z"/>
</mask>
<path d="M53.0363 4.24H58.5163L53.5763 9.9L58.6163 18H53.3963L50.5363 12.96L48.1363 14.92V18H43.7163V4.24H48.1363V10.12L53.0363 4.24ZM60.1765 18V4.24H64.5965V18H60.1765ZM79.1699 18V13.04C79.1699 12.4267 79.1899 11.8 79.2299 11.16C79.2833 10.5067 79.3366 9.96 79.3899 9.52C79.4433 9.08 79.4766 8.8 79.4899 8.68H79.4099L76.8699 18H73.4099L70.8499 8.7H70.7699C70.7833 8.82 70.8166 9.1 70.8699 9.54C70.9366 9.96667 70.9966 10.5067 71.0499 11.16C71.1033 11.8 71.1299 12.4267 71.1299 13.04V18H67.0699V4.24H73.3099L75.3899 12.18H75.4699L77.5299 4.24H83.5499V18H79.1699ZM99.0168 4C100.337 4 101.523 4.2 102.577 4.6C103.63 5 104.463 5.59333 105.077 6.38C105.703 7.15333 106.017 8.1 106.017 9.22H101.797C101.797 8.64667 101.543 8.18667 101.037 7.84C100.53 7.48 99.9168 7.3 99.1968 7.3C98.1568 7.3 97.3701 7.58 96.8368 8.14C96.3035 8.68667 96.0368 9.46667 96.0368 10.48V11.76C96.0368 12.7733 96.3035 13.56 96.8368 14.12C97.3701 14.6667 98.1568 14.94 99.1968 14.94C99.9168 14.94 100.53 14.7733 101.037 14.44C101.543 14.0933 101.797 13.6533 101.797 13.12H98.6768V10.32H106.017V18H103.737L103.297 16.64C102.043 17.7067 100.403 18.24 98.3768 18.24C96.0968 18.24 94.3835 17.6467 93.2368 16.46C92.0901 15.26 91.5168 13.48 91.5168 11.12C91.5168 8.78667 92.1635 7.02 93.4568 5.82C94.7635 4.60667 96.6168 4 99.0168 4ZM116.897 18H112.477V12.66L107.017 4.24H112.097L114.737 8.82H114.817L117.457 4.24H122.277L116.897 12.66V18ZM137.223 12.46C137.223 14.34 136.63 15.7733 135.443 16.76C134.257 17.7467 132.57 18.24 130.383 18.24C128.197 18.24 126.503 17.7467 125.303 16.76C124.117 15.7733 123.523 14.34 123.523 12.46V4.24H127.943V12.4C127.943 13.1733 128.15 13.7933 128.563 14.26C128.977 14.7133 129.577 14.94 130.363 14.94C131.15 14.94 131.75 14.7067 132.163 14.24C132.59 13.7733 132.803 13.16 132.803 12.4V4.24H137.223V12.46ZM149.784 18L144.904 4.24H149.624L152.384 13.44H152.464L155.244 4.24H159.764L154.904 18H149.784ZM161.41 18V4.24H165.83V18H161.41ZM178.424 18L172.644 11.32V18H168.584V4.24H172.444L178.224 11.02V4.24H182.284V18H178.424Z" fill="black"/>
<path d="M53.0363 4.24V0.24C51.8492 0.24 50.7234 0.767292 49.9634 1.67926L53.0363 4.24ZM58.5163 4.24L61.5299 6.87025C62.5614 5.68846 62.8069 4.01287 62.1578 2.58485C61.5088 1.15684 60.0849 0.24 58.5163 0.24V4.24ZM53.5763 9.9L50.5627 7.26975C49.4062 8.59483 49.2509 10.5199 50.1801 12.0132L53.5763 9.9ZM58.6163 18V22C60.069 22 61.4075 21.2124 62.113 19.9426C62.8184 18.6727 62.78 17.1202 62.0126 15.8868L58.6163 18ZM53.3963 18L49.9174 19.9741C50.628 21.2263 51.9566 22 53.3963 22V18ZM50.5363 12.96L54.0152 10.9859C53.4337 9.96109 52.43 9.24483 51.2718 9.02819C50.1136 8.81155 48.9188 9.11657 48.0062 9.86187L50.5363 12.96ZM48.1363 14.92L45.6062 11.8219C44.676 12.5815 44.1363 13.719 44.1363 14.92H48.1363ZM48.1363 18V22C50.3455 22 52.1363 20.2091 52.1363 18H48.1363ZM43.7163 18H39.7163C39.7163 20.2091 41.5072 22 43.7163 22V18ZM43.7163 4.24V0.24C41.5072 0.24 39.7163 2.03086 39.7163 4.24H43.7163ZM48.1363 4.24H52.1363C52.1363 2.03086 50.3455 0.24 48.1363 0.24V4.24ZM48.1363 10.12H44.1363C44.1363 11.8041 45.1911 13.3078 46.7746 13.8811C48.3581 14.4544 50.1311 13.9745 51.2092 12.6807L48.1363 10.12ZM53.0363 8.24H58.5163V0.24H53.0363V8.24ZM55.5027 1.60975L50.5627 7.26975L56.5899 12.5302L61.5299 6.87025L55.5027 1.60975ZM50.1801 12.0132L55.2201 20.1132L62.0126 15.8868L56.9726 7.78679L50.1801 12.0132ZM58.6163 14H53.3963V22H58.6163V14ZM56.8752 16.0259L54.0152 10.9859L47.0574 14.9341L49.9174 19.9741L56.8752 16.0259ZM48.0062 9.86187L45.6062 11.8219L50.6665 18.0181L53.0665 16.0581L48.0062 9.86187ZM44.1363 14.92V18H52.1363V14.92H44.1363ZM48.1363 14H43.7163V22H48.1363V14ZM47.7163 18V4.24H39.7163V18H47.7163ZM43.7163 8.24H48.1363V0.24H43.7163V8.24ZM44.1363 4.24V10.12H52.1363V4.24H44.1363ZM51.2092 12.6807L56.1092 6.80074L49.9634 1.67926L45.0634 7.55926L51.2092 12.6807ZM60.1765 18H56.1765C56.1765 20.2091 57.9673 22 60.1765 22V18ZM60.1765 4.24V0.24C57.9673 0.24 56.1765 2.03086 56.1765 4.24H60.1765ZM64.5965 4.24H68.5965C68.5965 2.03086 66.8056 0.24 64.5965 0.24V4.24ZM64.5965 18V22C66.8056 22 68.5965 20.2091 68.5965 18H64.5965ZM64.1765 18V4.24H56.1765V18H64.1765ZM60.1765 8.24H64.5965V0.24H60.1765V8.24ZM60.5965 4.24V18H68.5965V4.24H60.5965ZM64.5965 14H60.1765V22H64.5965V14ZM79.1699 18H75.1699C75.1699 20.2091 76.9608 22 79.1699 22V18ZM79.2299 11.16L75.2432 10.8346C75.2411 10.8598 75.2393 10.8852 75.2377 10.9105L79.2299 11.16ZM79.3899 9.52L83.3609 10.0013V10.0013L79.3899 9.52ZM79.4899 8.68L83.4655 9.12175C83.5911 7.99093 83.2292 6.86011 82.4704 6.01232C81.7116 5.16453 80.6277 4.68 79.4899 4.68V8.68ZM79.4099 8.68V4.68C77.6058 4.68 76.025 5.88764 75.5507 7.62823L79.4099 8.68ZM76.8699 18V22C78.674 22 80.2548 20.7924 80.7292 19.0518L76.8699 18ZM73.4099 18L69.5534 19.0616C70.0312 20.7973 71.6096 22 73.4099 22V18ZM70.8499 8.7L74.7065 7.63841C74.2287 5.90268 72.6502 4.7 70.8499 4.7V8.7ZM70.7699 8.7V4.7C69.6321 4.7 68.5482 5.18453 67.7894 6.03231C67.0306 6.8801 66.6687 8.01091 66.7944 9.14173L70.7699 8.7ZM70.8699 9.54L66.899 10.0213C66.9045 10.0668 66.9108 10.1122 66.9179 10.1575L70.8699 9.54ZM71.0499 11.16L67.0632 11.4854L67.0637 11.4922L71.0499 11.16ZM71.1299 18V22C73.3391 22 75.1299 20.2091 75.1299 18H71.1299ZM67.0699 18H63.0699C63.0699 20.2091 64.8608 22 67.0699 22V18ZM67.0699 4.24V0.24C64.8608 0.24 63.0699 2.03086 63.0699 4.24H67.0699ZM73.3099 4.24L77.1794 3.22634C76.7185 1.46697 75.1287 0.24 73.3099 0.24V4.24ZM75.3899 12.18L71.5205 13.1937C71.9814 14.953 73.5712 16.18 75.3899 16.18V12.18ZM75.4699 12.18V16.18C77.2922 16.18 78.8841 14.9484 79.3417 13.1845L75.4699 12.18ZM77.5299 4.24V0.24C75.7077 0.24 74.1157 1.47162 73.6581 3.23547L77.5299 4.24ZM83.5499 4.24H87.5499C87.5499 2.03086 85.7591 0.24 83.5499 0.24V4.24ZM83.5499 18V22C85.7591 22 87.5499 20.2091 87.5499 18H83.5499ZM83.1699 18V13.04H75.1699V18H83.1699ZM83.1699 13.04C83.1699 12.5136 83.1871 11.9702 83.2221 11.4095L75.2377 10.9105C75.1927 11.6298 75.1699 12.3398 75.1699 13.04H83.1699ZM83.2167 11.4854C83.2675 10.8621 83.316 10.3714 83.3609 10.0013L75.419 9.03867C75.3572 9.54863 75.299 10.1512 75.2432 10.8346L83.2167 11.4854ZM83.3609 10.0013C83.4134 9.56752 83.4495 9.26572 83.4655 9.12175L75.5144 8.23825C75.5037 8.33428 75.4731 8.59248 75.419 9.03868L83.3609 10.0013ZM79.4899 4.68H79.4099V12.68H79.4899V4.68ZM75.5507 7.62823L73.0107 16.9482L80.7292 19.0518L83.2692 9.73177L75.5507 7.62823ZM76.8699 14H73.4099V22H76.8699V14ZM77.2665 16.9384L74.7065 7.63841L66.9934 9.76159L69.5534 19.0616L77.2665 16.9384ZM70.8499 4.7H70.7699V12.7H70.8499V4.7ZM66.7944 9.14173C66.8104 9.28572 66.8464 9.58753 66.899 10.0213L74.8409 9.05868C74.7868 8.61247 74.7561 8.35428 74.7455 8.25827L66.7944 9.14173ZM66.9179 10.1575C66.9638 10.4515 67.0142 10.8855 67.0632 11.4854L75.0367 10.8346C74.979 10.1279 74.9094 9.48185 74.822 8.92249L66.9179 10.1575ZM67.0637 11.4922C67.1083 12.0268 67.1299 12.5426 67.1299 13.04H75.1299C75.1299 12.3107 75.0982 11.5732 75.0361 10.8278L67.0637 11.4922ZM67.1299 13.04V18H75.1299V13.04H67.1299ZM71.1299 14H67.0699V22H71.1299V14ZM71.0699 18V4.24H63.0699V18H71.0699ZM67.0699 8.24H73.3099V0.24H67.0699V8.24ZM69.4405 5.25365L71.5205 13.1937L79.2594 11.1663L77.1794 3.22634L69.4405 5.25365ZM75.3899 16.18H75.4699V8.18H75.3899V16.18ZM79.3417 13.1845L81.4017 5.24452L73.6581 3.23547L71.5981 11.1755L79.3417 13.1845ZM77.5299 8.24H83.5499V0.24H77.5299V8.24ZM79.5499 4.24V18H87.5499V4.24H79.5499ZM83.5499 14H79.1699V22H83.5499V14ZM102.577 4.6L101.157 8.33945V8.33945L102.577 4.6ZM105.077 6.38L101.922 8.83946C101.938 8.85923 101.953 8.87886 101.969 8.89833L105.077 6.38ZM106.017 9.22V13.22C108.226 13.22 110.017 11.4291 110.017 9.22H106.017ZM101.797 9.22H97.7968C97.7968 11.4291 99.5877 13.22 101.797 13.22V9.22ZM101.037 7.84L98.72 11.1007C98.7392 11.1144 98.7586 11.1279 98.7781 11.1412L101.037 7.84ZM96.8368 8.14L99.6999 10.9333C99.7111 10.9218 99.7223 10.9102 99.7334 10.8986L96.8368 8.14ZM96.8368 14.12L93.9402 16.8786C93.9513 16.8902 93.9625 16.9018 93.9737 16.9133L96.8368 14.12ZM101.037 14.44L103.235 17.7817C103.255 17.7684 103.276 17.7549 103.296 17.7412L101.037 14.44ZM101.797 13.12H105.797C105.797 10.9109 104.006 9.12 101.797 9.12V13.12ZM98.6768 13.12H94.6768C94.6768 15.3291 96.4677 17.12 98.6768 17.12V13.12ZM98.6768 10.32V6.32C96.4677 6.32 94.6768 8.11086 94.6768 10.32H98.6768ZM106.017 10.32H110.017C110.017 8.11086 108.226 6.32 106.017 6.32V10.32ZM106.017 18V22C108.226 22 110.017 20.2091 110.017 18H106.017ZM103.737 18L99.931 19.2313C100.465 20.8818 102.002 22 103.737 22V18ZM103.297 16.64L107.103 15.4087C106.691 14.138 105.673 13.1563 104.388 12.7918C103.103 12.4274 101.721 12.7282 100.704 13.5938L103.297 16.64ZM93.2368 16.46L90.3448 19.2234C90.35 19.2288 90.3551 19.2342 90.3603 19.2395L93.2368 16.46ZM93.4568 5.82L96.1774 8.75225L96.1786 8.75117L93.4568 5.82ZM99.0168 8C99.9333 8 100.628 8.13851 101.157 8.33945L103.997 0.860552C102.419 0.261492 100.74 -9.53674e-07 99.0168 -9.53674e-07V8ZM101.157 8.33945C101.616 8.51403 101.815 8.70221 101.922 8.83946L108.231 3.92054C107.112 2.48446 105.644 1.48597 103.997 0.860551L101.157 8.33945ZM101.969 8.89833C101.978 8.90892 101.979 8.91138 101.984 8.92688C101.991 8.94819 102.017 9.03511 102.017 9.22H110.017C110.017 7.30467 109.461 5.43641 108.185 3.86167L101.969 8.89833ZM106.017 5.22H101.797V13.22H106.017V5.22ZM105.797 9.22C105.797 7.21948 104.801 5.5686 103.296 4.53877L98.7781 11.1412C98.602 11.0207 98.3255 10.7785 98.103 10.3746C97.8749 9.96035 97.7968 9.54462 97.7968 9.22H105.797ZM103.354 4.57928C102.067 3.66524 100.611 3.3 99.1968 3.3V11.3C99.2229 11.3 99.1724 11.3031 99.0704 11.2731C98.9632 11.2417 98.8389 11.1852 98.72 11.1007L103.354 4.57928ZM99.1968 3.3C97.4539 3.3 95.4618 3.78378 93.9402 5.38138L99.7334 10.8986C99.534 11.108 99.317 11.2254 99.1681 11.2784C99.0399 11.324 99.0261 11.3 99.1968 11.3V3.3ZM93.9737 5.3467C92.4981 6.8592 92.0368 8.77459 92.0368 10.48H100.037C100.037 10.3164 100.059 10.3195 100.022 10.429C99.9784 10.5556 99.8802 10.7485 99.6999 10.9333L93.9737 5.3467ZM92.0368 10.48V11.76H100.037V10.48H92.0368ZM92.0368 11.76C92.0368 13.4716 92.5003 15.3667 93.9402 16.8786L99.7334 11.3614C99.8967 11.5329 99.9859 11.7102 100.025 11.8258C100.059 11.9256 100.037 11.9226 100.037 11.76H92.0368ZM93.9737 16.9133C95.5002 18.478 97.4802 18.94 99.1968 18.94V10.94C99.0172 10.94 99.0207 10.9153 99.1396 10.9566C99.2785 11.0048 99.495 11.1167 99.6999 11.3267L93.9737 16.9133ZM99.1968 18.94C100.549 18.94 101.962 18.6195 103.235 17.7817L98.8383 11.0983C98.955 11.0216 99.0661 10.9772 99.1479 10.955C99.2249 10.934 99.2486 10.94 99.1968 10.94V18.94ZM103.296 17.7412C104.701 16.7795 105.797 15.1891 105.797 13.12H97.7968C97.7968 12.7229 97.8995 12.2723 98.1403 11.8541C98.3693 11.4564 98.638 11.2346 98.7781 11.1388L103.296 17.7412ZM101.797 9.12H98.6768V17.12H101.797V9.12ZM102.677 13.12V10.32H94.6768V13.12H102.677ZM98.6768 14.32H106.017V6.32H98.6768V14.32ZM102.017 10.32V18H110.017V10.32H102.017ZM106.017 14H103.737V22H106.017V14ZM107.543 16.7687L107.103 15.4087L99.491 17.8713L99.931 19.2313L107.543 16.7687ZM100.704 13.5938C100.331 13.9116 99.6814 14.24 98.3768 14.24V22.24C101.126 22.24 103.756 21.5017 105.889 19.6862L100.704 13.5938ZM98.3768 14.24C96.757 14.24 96.255 13.8271 96.1133 13.6805L90.3603 19.2395C92.5119 21.4662 95.4366 22.24 98.3768 22.24V14.24ZM96.1288 13.6966C95.9458 13.5051 95.5168 12.8858 95.5168 11.12H87.5168C87.5168 14.0742 88.2345 17.0149 90.3448 19.2234L96.1288 13.6966ZM95.5168 11.12C95.5168 9.52315 95.94 8.97259 96.1774 8.75225L90.7362 2.88775C88.387 5.06741 87.5168 8.05018 87.5168 11.12H95.5168ZM96.1786 8.75117C96.5206 8.43365 97.2708 8 99.0168 8V-9.53674e-07C95.9628 -9.53674e-07 93.0064 0.779684 90.735 2.88883L96.1786 8.75117ZM116.897 18V22C119.106 22 120.897 20.2091 120.897 18H116.897ZM112.477 18H108.477C108.477 20.2091 110.268 22 112.477 22V18ZM112.477 12.66H116.477C116.477 11.8876 116.253 11.1317 115.833 10.4837L112.477 12.66ZM107.017 4.24V0.24C105.551 0.24 104.202 1.04202 103.502 2.33019C102.802 3.61835 102.863 5.18623 103.661 6.41631L107.017 4.24ZM112.097 4.24L115.562 2.24242C114.848 1.00345 113.527 0.24 112.097 0.24V4.24ZM114.737 8.82L111.271 10.8176C111.986 12.0565 113.307 12.82 114.737 12.82V8.82ZM114.817 8.82V12.82C116.247 12.82 117.568 12.0565 118.282 10.8176L114.817 8.82ZM117.457 4.24V0.24C116.027 0.24 114.706 1.00345 113.991 2.24242L117.457 4.24ZM122.277 4.24L125.648 6.39371C126.434 5.16237 126.487 3.59998 125.785 2.31839C125.083 1.03681 123.738 0.24 122.277 0.24V4.24ZM116.897 12.66L113.526 10.5063C113.115 11.1494 112.897 11.8968 112.897 12.66H116.897ZM116.897 14H112.477V22H116.897V14ZM116.477 18V12.66H108.477V18H116.477ZM115.833 10.4837L110.373 2.06369L103.661 6.41631L109.121 14.8363L115.833 10.4837ZM107.017 8.24H112.097V0.24H107.017V8.24ZM108.631 6.23758L111.271 10.8176L118.202 6.82242L115.562 2.24242L108.631 6.23758ZM114.737 12.82H114.817V4.82H114.737V12.82ZM118.282 10.8176L120.922 6.23758L113.991 2.24242L111.351 6.82242L118.282 10.8176ZM117.457 8.24H122.277V0.24H117.457V8.24ZM118.906 2.08628L113.526 10.5063L120.268 14.8137L125.648 6.39371L118.906 2.08628ZM112.897 12.66V18H120.897V12.66H112.897ZM135.443 16.76L132.886 13.6843V13.6843L135.443 16.76ZM125.303 16.76L122.746 19.8357C122.752 19.8404 122.757 19.8451 122.763 19.8497L125.303 16.76ZM123.523 4.24V0.24C121.314 0.24 119.523 2.03086 119.523 4.24H123.523ZM127.943 4.24H131.943C131.943 2.03086 130.152 0.24 127.943 0.24V4.24ZM128.563 14.26L125.569 16.9121C125.582 16.9265 125.595 16.9408 125.608 16.955L128.563 14.26ZM132.163 14.24L129.211 11.5409C129.197 11.5565 129.183 11.5721 129.169 11.5879L132.163 14.24ZM132.803 4.24V0.24C130.594 0.24 128.803 2.03086 128.803 4.24H132.803ZM137.223 4.24H141.223C141.223 2.03086 139.432 0.24 137.223 0.24V4.24ZM133.223 12.46C133.223 13.4362 132.96 13.6226 132.886 13.6843L138.001 19.8357C140.3 17.924 141.223 15.2438 141.223 12.46H133.223ZM132.886 13.6843C132.666 13.8675 132.019 14.24 130.383 14.24V22.24C133.121 22.24 135.848 21.6258 138.001 19.8357L132.886 13.6843ZM130.383 14.24C128.751 14.24 128.085 13.869 127.844 13.6703L122.763 19.8497C124.921 21.6243 127.642 22.24 130.383 22.24V14.24ZM127.861 13.6843C127.787 13.6226 127.523 13.4362 127.523 12.46H119.523C119.523 15.2438 120.447 17.924 122.746 19.8357L127.861 13.6843ZM127.523 12.46V4.24H119.523V12.46H127.523ZM123.523 8.24H127.943V0.24H123.523V8.24ZM123.943 4.24V12.4H131.943V4.24H123.943ZM123.943 12.4C123.943 13.9061 124.362 15.5496 125.569 16.9121L131.558 11.6079C131.726 11.7977 131.834 12.0037 131.893 12.1801C131.948 12.3449 131.943 12.4334 131.943 12.4H123.943ZM125.608 16.955C126.98 18.46 128.789 18.94 130.363 18.94V10.94C130.347 10.94 130.496 10.937 130.737 11.0281C130.999 11.127 131.282 11.3048 131.519 11.565L125.608 16.955ZM130.363 18.94C131.973 18.94 133.795 18.4307 135.158 16.8921L129.169 11.5879C129.398 11.3289 129.681 11.1432 129.954 11.037C130.08 10.988 130.184 10.9637 130.255 10.9517C130.29 10.9458 130.317 10.9429 130.335 10.9414C130.353 10.94 130.363 10.94 130.363 10.94V18.94ZM135.115 16.9391C136.347 15.5918 136.803 13.9461 136.803 12.4H128.803C128.803 12.4072 128.802 12.2969 128.865 12.1159C128.932 11.9238 129.048 11.7193 129.211 11.5409L135.115 16.9391ZM136.803 12.4V4.24H128.803V12.4H136.803ZM132.803 8.24H137.223V0.24H132.803V8.24ZM133.223 4.24V12.46H141.223V4.24H133.223ZM149.784 18L146.014 19.337C146.58 20.9333 148.09 22 149.784 22V18ZM144.904 4.24V0.24C143.604 0.24 142.386 0.871011 141.637 1.93219C140.887 2.99337 140.699 4.35251 141.134 5.57701L144.904 4.24ZM149.624 4.24L153.455 3.09061C152.947 1.39867 151.39 0.24 149.624 0.24V4.24ZM152.384 13.44L148.552 14.5894C149.06 16.2813 150.617 17.44 152.384 17.44V13.44ZM152.464 13.44V17.44C154.227 17.44 155.783 16.2851 156.293 14.597L152.464 13.44ZM155.244 4.24V0.24C153.48 0.24 151.925 1.39488 151.415 3.08297L155.244 4.24ZM159.764 4.24L163.535 5.57214C163.968 4.34794 163.779 2.99003 163.029 1.93008C162.28 0.87013 161.062 0.24 159.764 0.24V4.24ZM154.904 18V22C156.599 22 158.111 20.9309 158.675 19.3321L154.904 18ZM153.554 16.663L148.674 2.90299L141.134 5.57701L146.014 19.337L153.554 16.663ZM144.904 8.24H149.624V0.24H144.904V8.24ZM145.792 5.38939L148.552 14.5894L156.215 12.2906L153.455 3.09061L145.792 5.38939ZM152.384 17.44H152.464V9.44H152.384V17.44ZM156.293 14.597L159.073 5.39703L151.415 3.08297L148.635 12.283L156.293 14.597ZM155.244 8.24H159.764V0.24H155.244V8.24ZM155.992 2.90786L151.132 16.6679L158.675 19.3321L163.535 5.57214L155.992 2.90786ZM154.904 14H149.784V22H154.904V14ZM161.41 18H157.41C157.41 20.2091 159.201 22 161.41 22V18ZM161.41 4.24V0.24C159.201 0.24 157.41 2.03086 157.41 4.24H161.41ZM165.83 4.24H169.83C169.83 2.03086 168.039 0.24 165.83 0.24V4.24ZM165.83 18V22C168.039 22 169.83 20.2091 169.83 18H165.83ZM165.41 18V4.24H157.41V18H165.41ZM161.41 8.24H165.83V0.24H161.41V8.24ZM161.83 4.24V18H169.83V4.24H161.83ZM165.83 14H161.41V22H165.83V14ZM178.424 18L175.399 20.6173C176.158 21.4954 177.262 22 178.424 22V18ZM172.644 11.32L175.668 8.70269C174.575 7.43945 172.812 6.98848 171.247 7.57171C169.682 8.15493 168.644 9.64951 168.644 11.32H172.644ZM172.644 18V22C174.853 22 176.644 20.2091 176.644 18H172.644ZM168.584 18H164.584C164.584 20.2091 166.374 22 168.584 22V18ZM168.584 4.24V0.24C166.374 0.24 164.584 2.03086 164.584 4.24H168.584ZM172.444 4.24L175.488 1.64498C174.728 0.753513 173.615 0.24 172.444 0.24V4.24ZM178.224 11.02L175.18 13.615C176.267 14.8904 178.034 15.3527 179.606 14.7734C181.179 14.1941 182.224 12.6959 182.224 11.02H178.224ZM178.224 4.24V0.24C176.014 0.24 174.224 2.03086 174.224 4.24H178.224ZM182.284 4.24H186.284C186.284 2.03086 184.493 0.24 182.284 0.24V4.24ZM182.284 18V22C184.493 22 186.284 20.2091 186.284 18H182.284ZM181.448 15.3827L175.668 8.70269L169.619 13.9373L175.399 20.6173L181.448 15.3827ZM168.644 11.32V18H176.644V11.32H168.644ZM172.644 14H168.584V22H172.644V14ZM172.584 18V4.24H164.584V18H172.584ZM168.584 8.24H172.444V0.24H168.584V8.24ZM169.4 6.83502L175.18 13.615L181.268 8.42498L175.488 1.64498L169.4 6.83502ZM182.224 11.02V4.24H174.224V11.02H182.224ZM178.224 8.24H182.284V0.24H178.224V8.24ZM178.284 4.24V18H186.284V4.24H178.284ZM182.284 14H178.424V22H182.284V14Z" fill="#468ED3" mask="url(#path-1-outside-1_2005_2896)"/>
<mask id="path-3-outside-2_2005_2896" maskUnits="userSpaceOnUse" x="41" y="2" width="144" height="19" fill="black">
<rect fill="white" x="41" y="2" width="144" height="19"/>
<path d="M53.0363 4.24H58.5163L53.5763 9.9L58.6163 18H53.3963L50.5363 12.96L48.1363 14.92V18H43.7163V4.24H48.1363V10.12L53.0363 4.24ZM60.1765 18V4.24H64.5965V18H60.1765ZM79.1699 18V13.04C79.1699 12.4267 79.1899 11.8 79.2299 11.16C79.2833 10.5067 79.3366 9.96 79.3899 9.52C79.4433 9.08 79.4766 8.8 79.4899 8.68H79.4099L76.8699 18H73.4099L70.8499 8.7H70.7699C70.7833 8.82 70.8166 9.1 70.8699 9.54C70.9366 9.96667 70.9966 10.5067 71.0499 11.16C71.1033 11.8 71.1299 12.4267 71.1299 13.04V18H67.0699V4.24H73.3099L75.3899 12.18H75.4699L77.5299 4.24H83.5499V18H79.1699ZM99.0168 4C100.337 4 101.523 4.2 102.577 4.6C103.63 5 104.463 5.59333 105.077 6.38C105.703 7.15333 106.017 8.1 106.017 9.22H101.797C101.797 8.64667 101.543 8.18667 101.037 7.84C100.53 7.48 99.9168 7.3 99.1968 7.3C98.1568 7.3 97.3701 7.58 96.8368 8.14C96.3035 8.68667 96.0368 9.46667 96.0368 10.48V11.76C96.0368 12.7733 96.3035 13.56 96.8368 14.12C97.3701 14.6667 98.1568 14.94 99.1968 14.94C99.9168 14.94 100.53 14.7733 101.037 14.44C101.543 14.0933 101.797 13.6533 101.797 13.12H98.6768V10.32H106.017V18H103.737L103.297 16.64C102.043 17.7067 100.403 18.24 98.3768 18.24C96.0968 18.24 94.3835 17.6467 93.2368 16.46C92.0901 15.26 91.5168 13.48 91.5168 11.12C91.5168 8.78667 92.1635 7.02 93.4568 5.82C94.7635 4.60667 96.6168 4 99.0168 4ZM116.897 18H112.477V12.66L107.017 4.24H112.097L114.737 8.82H114.817L117.457 4.24H122.277L116.897 12.66V18ZM137.223 12.46C137.223 14.34 136.63 15.7733 135.443 16.76C134.257 17.7467 132.57 18.24 130.383 18.24C128.197 18.24 126.503 17.7467 125.303 16.76C124.117 15.7733 123.523 14.34 123.523 12.46V4.24H127.943V12.4C127.943 13.1733 128.15 13.7933 128.563 14.26C128.977 14.7133 129.577 14.94 130.363 14.94C131.15 14.94 131.75 14.7067 132.163 14.24C132.59 13.7733 132.803 13.16 132.803 12.4V4.24H137.223V12.46ZM149.784 18L144.904 4.24H149.624L152.384 13.44H152.464L155.244 4.24H159.764L154.904 18H149.784ZM161.41 18V4.24H165.83V18H161.41ZM178.424 18L172.644 11.32V18H168.584V4.24H172.444L178.224 11.02V4.24H182.284V18H178.424Z"/>
</mask>
<path d="M53.0363 4.24H58.5163L53.5763 9.9L58.6163 18H53.3963L50.5363 12.96L48.1363 14.92V18H43.7163V4.24H48.1363V10.12L53.0363 4.24ZM60.1765 18V4.24H64.5965V18H60.1765ZM79.1699 18V13.04C79.1699 12.4267 79.1899 11.8 79.2299 11.16C79.2833 10.5067 79.3366 9.96 79.3899 9.52C79.4433 9.08 79.4766 8.8 79.4899 8.68H79.4099L76.8699 18H73.4099L70.8499 8.7H70.7699C70.7833 8.82 70.8166 9.1 70.8699 9.54C70.9366 9.96667 70.9966 10.5067 71.0499 11.16C71.1033 11.8 71.1299 12.4267 71.1299 13.04V18H67.0699V4.24H73.3099L75.3899 12.18H75.4699L77.5299 4.24H83.5499V18H79.1699ZM99.0168 4C100.337 4 101.523 4.2 102.577 4.6C103.63 5 104.463 5.59333 105.077 6.38C105.703 7.15333 106.017 8.1 106.017 9.22H101.797C101.797 8.64667 101.543 8.18667 101.037 7.84C100.53 7.48 99.9168 7.3 99.1968 7.3C98.1568 7.3 97.3701 7.58 96.8368 8.14C96.3035 8.68667 96.0368 9.46667 96.0368 10.48V11.76C96.0368 12.7733 96.3035 13.56 96.8368 14.12C97.3701 14.6667 98.1568 14.94 99.1968 14.94C99.9168 14.94 100.53 14.7733 101.037 14.44C101.543 14.0933 101.797 13.6533 101.797 13.12H98.6768V10.32H106.017V18H103.737L103.297 16.64C102.043 17.7067 100.403 18.24 98.3768 18.24C96.0968 18.24 94.3835 17.6467 93.2368 16.46C92.0901 15.26 91.5168 13.48 91.5168 11.12C91.5168 8.78667 92.1635 7.02 93.4568 5.82C94.7635 4.60667 96.6168 4 99.0168 4ZM116.897 18H112.477V12.66L107.017 4.24H112.097L114.737 8.82H114.817L117.457 4.24H122.277L116.897 12.66V18ZM137.223 12.46C137.223 14.34 136.63 15.7733 135.443 16.76C134.257 17.7467 132.57 18.24 130.383 18.24C128.197 18.24 126.503 17.7467 125.303 16.76C124.117 15.7733 123.523 14.34 123.523 12.46V4.24H127.943V12.4C127.943 13.1733 128.15 13.7933 128.563 14.26C128.977 14.7133 129.577 14.94 130.363 14.94C131.15 14.94 131.75 14.7067 132.163 14.24C132.59 13.7733 132.803 13.16 132.803 12.4V4.24H137.223V12.46ZM149.784 18L144.904 4.24H149.624L152.384 13.44H152.464L155.244 4.24H159.764L154.904 18H149.784ZM161.41 18V4.24H165.83V18H161.41ZM178.424 18L172.644 11.32V18H168.584V4.24H172.444L178.224 11.02V4.24H182.284V18H178.424Z" fill="black"/>
<path d="M53.0363 4.24V2.24C52.4428 2.24 51.8799 2.50365 51.4999 2.95963L53.0363 4.24ZM58.5163 4.24L60.0231 5.55512C60.5389 4.96423 60.6616 4.12643 60.3371 3.41243C60.0125 2.69842 59.3006 2.24 58.5163 2.24V4.24ZM53.5763 9.9L52.0695 8.58488C51.4913 9.24742 51.4136 10.2099 51.8782 10.9566L53.5763 9.9ZM58.6163 18V20C59.3427 20 60.0119 19.6062 60.3646 18.9713C60.7174 18.3364 60.6982 17.5601 60.3144 16.9434L58.6163 18ZM53.3963 18L51.6569 18.9871C52.0121 19.6131 52.6765 20 53.3963 20V18ZM50.5363 12.96L52.2758 11.9729C51.985 11.4605 51.4831 11.1024 50.904 10.9941C50.325 10.8858 49.7276 11.0383 49.2713 11.4109L50.5363 12.96ZM48.1363 14.92L46.8713 13.3709C46.4062 13.7508 46.1363 14.3195 46.1363 14.92H48.1363ZM48.1363 18V20C49.2409 20 50.1363 19.1046 50.1363 18H48.1363ZM43.7163 18H41.7163C41.7163 19.1046 42.6118 20 43.7163 20V18ZM43.7163 4.24V2.24C42.6118 2.24 41.7163 3.13543 41.7163 4.24H43.7163ZM48.1363 4.24H50.1363C50.1363 3.13543 49.2409 2.24 48.1363 2.24V4.24ZM48.1363 10.12H46.1363C46.1363 10.962 46.6637 11.7139 47.4555 12.0005C48.2472 12.2872 49.1337 12.0472 49.6728 11.4004L48.1363 10.12ZM53.0363 6.24H58.5163V2.24H53.0363V6.24ZM57.0095 2.92488L52.0695 8.58488L55.0831 11.2151L60.0231 5.55512L57.0095 2.92488ZM51.8782 10.9566L56.9182 19.0566L60.3144 16.9434L55.2744 8.8434L51.8782 10.9566ZM58.6163 16H53.3963V20H58.6163V16ZM55.1358 17.0129L52.2758 11.9729L48.7969 13.9471L51.6569 18.9871L55.1358 17.0129ZM49.2713 11.4109L46.8713 13.3709L49.4014 16.4691L51.8014 14.5091L49.2713 11.4109ZM46.1363 14.92V18H50.1363V14.92H46.1363ZM48.1363 16H43.7163V20H48.1363V16ZM45.7163 18V4.24H41.7163V18H45.7163ZM43.7163 6.24H48.1363V2.24H43.7163V6.24ZM46.1363 4.24V10.12H50.1363V4.24H46.1363ZM49.6728 11.4004L54.5728 5.52037L51.4999 2.95963L46.5999 8.83963L49.6728 11.4004ZM60.1765 18H58.1765C58.1765 19.1046 59.0719 20 60.1765 20V18ZM60.1765 4.24V2.24C59.0719 2.24 58.1765 3.13543 58.1765 4.24H60.1765ZM64.5965 4.24H66.5965C66.5965 3.13543 65.701 2.24 64.5965 2.24V4.24ZM64.5965 18V20C65.701 20 66.5965 19.1046 66.5965 18H64.5965ZM62.1765 18V4.24H58.1765V18H62.1765ZM60.1765 6.24H64.5965V2.24H60.1765V6.24ZM62.5965 4.24V18H66.5965V4.24H62.5965ZM64.5965 16H60.1765V20H64.5965V16ZM79.1699 18H77.1699C77.1699 19.1046 78.0654 20 79.1699 20V18ZM79.2299 11.16L77.2365 10.9973C77.2355 11.0099 77.2346 11.0226 77.2338 11.0352L79.2299 11.16ZM79.3899 9.52L81.3754 9.76066V9.76066L79.3899 9.52ZM79.4899 8.68L81.4777 8.90087C81.5405 8.33546 81.3596 7.77006 80.9802 7.34616C80.6008 6.92227 80.0588 6.68 79.4899 6.68V8.68ZM79.4099 8.68V6.68C78.5079 6.68 77.7175 7.28382 77.4803 8.15411L79.4099 8.68ZM76.8699 18V20C77.772 20 78.5624 19.3962 78.7995 18.5259L76.8699 18ZM73.4099 18L71.4816 18.5308C71.7205 19.3987 72.5098 20 73.4099 20V18ZM70.8499 8.7L72.7782 8.1692C72.5393 7.30134 71.7501 6.7 70.8499 6.7V8.7ZM70.7699 8.7V6.7C70.201 6.7 69.6591 6.94226 69.2797 7.36616C68.9003 7.79005 68.7193 8.35546 68.7822 8.92086L70.7699 8.7ZM70.8699 9.54L68.8845 9.78066C68.8872 9.80341 68.8904 9.82611 68.8939 9.84875L70.8699 9.54ZM71.0499 11.16L69.0565 11.3227L69.0568 11.3261L71.0499 11.16ZM71.1299 18V20C72.2345 20 73.1299 19.1046 73.1299 18H71.1299ZM67.0699 18H65.0699C65.0699 19.1046 65.9653 20 67.0699 20V18ZM67.0699 4.24V2.24C65.9653 2.24 65.0699 3.13543 65.0699 4.24H67.0699ZM73.3099 4.24L75.2446 3.73317C75.0142 2.85349 74.2193 2.24 73.3099 2.24V4.24ZM75.3899 12.18L73.4552 12.6868C73.6857 13.5665 74.4805 14.18 75.3899 14.18V12.18ZM75.4699 12.18V14.18C76.381 14.18 77.177 13.5642 77.4058 12.6823L75.4699 12.18ZM77.5299 4.24V2.24C76.6188 2.24 75.8228 2.85581 75.594 3.73774L77.5299 4.24ZM83.5499 4.24H85.5499C85.5499 3.13543 84.6545 2.24 83.5499 2.24V4.24ZM83.5499 18V20C84.6545 20 85.5499 19.1046 85.5499 18H83.5499ZM81.1699 18V13.04H77.1699V18H81.1699ZM81.1699 13.04C81.1699 12.4701 81.1885 11.8851 81.226 11.2848L77.2338 11.0352C77.1913 11.7149 77.1699 12.3832 77.1699 13.04H81.1699ZM81.2233 11.3227C81.2754 10.6844 81.3263 10.1657 81.3754 9.76066L77.4044 9.27934C77.3469 9.75431 77.2911 10.3289 77.2365 10.9973L81.2233 11.3227ZM81.3754 9.76066C81.4283 9.32376 81.463 9.03286 81.4777 8.90087L77.5022 8.45913C77.4902 8.56714 77.4582 8.83624 77.4044 9.27934L81.3754 9.76066ZM79.4899 6.68H79.4099V10.68H79.4899V6.68ZM77.4803 8.15411L74.9403 17.4741L78.7995 18.5259L81.3395 9.20588L77.4803 8.15411ZM76.8699 16H73.4099V20H76.8699V16ZM75.3382 17.4692L72.7782 8.1692L68.9216 9.23079L71.4816 18.5308L75.3382 17.4692ZM70.8499 6.7H70.7699V10.7H70.8499V6.7ZM68.7822 8.92086C68.7968 9.05286 68.8315 9.34377 68.8845 9.78066L72.8554 9.29934C72.8017 8.85623 72.7697 8.58714 72.7577 8.47914L68.7822 8.92086ZM68.8939 9.84875C68.9502 10.2091 69.0054 10.6961 69.0565 11.3227L73.0433 10.9973C72.9878 10.3173 72.923 9.72426 72.8459 9.23124L68.8939 9.84875ZM69.0568 11.3261C69.1058 11.9134 69.1299 12.4846 69.1299 13.04H73.1299C73.1299 12.3687 73.1007 11.6866 73.043 10.9939L69.0568 11.3261ZM69.1299 13.04V18H73.1299V13.04H69.1299ZM71.1299 16H67.0699V20H71.1299V16ZM69.0699 18V4.24H65.0699V18H69.0699ZM67.0699 6.24H73.3099V2.24H67.0699V6.24ZM71.3752 4.74683L73.4552 12.6868L77.3246 11.6732L75.2446 3.73317L71.3752 4.74683ZM75.3899 14.18H75.4699V10.18H75.3899V14.18ZM77.4058 12.6823L79.4658 4.74226L75.594 3.73774L73.534 11.6777L77.4058 12.6823ZM77.5299 6.24H83.5499V2.24H77.5299V6.24ZM81.5499 4.24V18H85.5499V4.24H81.5499ZM83.5499 16H79.1699V20H83.5499V16ZM102.577 4.6L101.867 6.46972V6.46972L102.577 4.6ZM105.077 6.38L103.5 7.60973C103.507 7.61962 103.515 7.62943 103.523 7.63917L105.077 6.38ZM106.017 9.22V11.22C107.121 11.22 108.017 10.3246 108.017 9.22H106.017ZM101.797 9.22H99.7968C99.7968 10.3246 100.692 11.22 101.797 11.22V9.22ZM101.037 7.84L99.8784 9.47036C99.888 9.4772 99.8977 9.48395 99.9074 9.49061L101.037 7.84ZM96.8368 8.14L98.2684 9.53665C98.274 9.5309 98.2795 9.52512 98.2851 9.51931L96.8368 8.14ZM96.8368 14.12L95.3885 15.4993C95.3941 15.5051 95.3996 15.5109 95.4052 15.5166L96.8368 14.12ZM101.037 14.44L102.136 16.1108C102.146 16.1042 102.156 16.0974 102.166 16.0906L101.037 14.44ZM101.797 13.12H103.797C103.797 12.0154 102.901 11.12 101.797 11.12V13.12ZM98.6768 13.12H96.6768C96.6768 14.2246 97.5722 15.12 98.6768 15.12V13.12ZM98.6768 10.32V8.32C97.5722 8.32 96.6768 9.21543 96.6768 10.32H98.6768ZM106.017 10.32H108.017C108.017 9.21543 107.121 8.32 106.017 8.32V10.32ZM106.017 18V20C107.121 20 108.017 19.1046 108.017 18H106.017ZM103.737 18L101.834 18.6156C102.101 19.4409 102.869 20 103.737 20V18ZM103.297 16.64L105.2 16.0244C104.994 15.389 104.485 14.8981 103.843 14.7159C103.2 14.5337 102.509 14.6841 102.001 15.1169L103.297 16.64ZM93.2368 16.46L91.7908 17.8417L91.7986 17.8498L93.2368 16.46ZM93.4568 5.82L94.8171 7.28613L94.8177 7.28559L93.4568 5.82ZM99.0168 6C100.135 6 101.076 6.16925 101.867 6.46972L103.287 2.73028C101.971 2.23075 100.539 2 99.0168 2V6ZM101.867 6.46972C102.623 6.75701 103.139 7.14777 103.5 7.60973L106.654 5.15027C105.788 4.03889 104.637 3.24299 103.287 2.73028L101.867 6.46972ZM103.523 7.63917C103.825 8.01179 104.017 8.49767 104.017 9.22H108.017C108.017 7.70233 107.582 6.29487 106.631 5.12083L103.523 7.63917ZM106.017 7.22H101.797V11.22H106.017V7.22ZM103.797 9.22C103.797 7.93307 103.172 6.87763 102.166 6.18939L99.9074 9.49061C99.946 9.51703 99.9028 9.49677 99.8549 9.40981C99.8324 9.36901 99.8164 9.32659 99.8068 9.28747C99.7974 9.24921 99.7968 9.22477 99.7968 9.22H103.797ZM102.195 6.20964C101.299 5.57262 100.264 5.3 99.1968 5.3V9.3C99.5696 9.3 99.7616 9.38738 99.8784 9.47036L102.195 6.20964ZM99.1968 5.3C97.8053 5.3 96.416 5.68189 95.3885 6.76069L98.2851 9.51931C98.3243 9.47811 98.5083 9.3 99.1968 9.3V5.3ZM95.4052 6.74335C94.4008 7.77293 94.0368 9.12063 94.0368 10.48H98.0368C98.0368 9.8127 98.2062 9.6004 98.2684 9.53665L95.4052 6.74335ZM94.0368 10.48V11.76H98.0368V10.48H94.0368ZM94.0368 11.76C94.0368 13.1224 94.4019 14.4633 95.3885 15.4993L98.2851 12.7407C98.2051 12.6567 98.0368 12.4242 98.0368 11.76H94.0368ZM95.4052 15.5166C96.4352 16.5723 97.8185 16.94 99.1968 16.94V12.94C98.4951 12.94 98.3051 12.761 98.2684 12.7234L95.4052 15.5166ZM99.1968 16.94C100.233 16.94 101.246 16.6964 102.136 16.1108L99.9376 12.7692C99.8143 12.8502 99.6005 12.94 99.1968 12.94V16.94ZM102.166 16.0906C103.122 15.4364 103.797 14.4212 103.797 13.12H99.7968C99.7968 13.0936 99.8001 13.0512 99.8138 12.9987C99.8276 12.9457 99.8485 12.8955 99.8736 12.8521C99.9247 12.7632 99.9641 12.7506 99.9074 12.7894L102.166 16.0906ZM101.797 11.12H98.6768V15.12H101.797V11.12ZM100.677 13.12V10.32H96.6768V13.12H100.677ZM98.6768 12.32H106.017V8.32H98.6768V12.32ZM104.017 10.32V18H108.017V10.32H104.017ZM106.017 16H103.737V20H106.017V16ZM105.64 17.3844L105.2 16.0244L101.394 17.2556L101.834 18.6156L105.64 17.3844ZM102.001 15.1169C101.187 15.8091 100.042 16.24 98.3768 16.24V20.24C100.765 20.24 102.9 19.6042 104.593 18.1631L102.001 15.1169ZM98.3768 16.24C96.4269 16.24 95.3192 15.7369 94.675 15.0702L91.7986 17.8498C93.4477 19.5564 95.7667 20.24 98.3768 20.24V16.24ZM94.6828 15.0783C94.018 14.3826 93.5168 13.1829 93.5168 11.12H89.5168C89.5168 13.7771 90.1623 16.1374 91.7908 17.8417L94.6828 15.0783ZM93.5168 11.12C93.5168 9.15491 94.0517 7.99629 94.8171 7.28612L92.0965 4.35387C90.2752 6.0437 89.5168 8.41842 89.5168 11.12H93.5168ZM94.8177 7.28559C95.642 6.52016 96.9438 6 99.0168 6V2C96.2898 2 93.8849 2.69317 92.0959 4.35441L94.8177 7.28559ZM116.897 18V20C118.002 20 118.897 19.1046 118.897 18H116.897ZM112.477 18H110.477C110.477 19.1046 111.372 20 112.477 20V18ZM112.477 12.66H114.477C114.477 12.2738 114.365 11.8959 114.155 11.5718L112.477 12.66ZM107.017 4.24V2.24C106.284 2.24 105.61 2.64101 105.26 3.28509C104.91 3.92918 104.94 4.71312 105.339 5.32815L107.017 4.24ZM112.097 4.24L113.83 3.24121C113.473 2.62173 112.812 2.24 112.097 2.24V4.24ZM114.737 8.82L113.004 9.81879C113.361 10.4383 114.022 10.82 114.737 10.82V8.82ZM114.817 8.82V10.82C115.532 10.82 116.193 10.4383 116.55 9.81879L114.817 8.82ZM117.457 4.24V2.24C116.742 2.24 116.081 2.62173 115.724 3.24121L117.457 4.24ZM122.277 4.24L123.962 5.31686C124.356 4.70118 124.382 3.91999 124.031 3.2792C123.68 2.6384 123.008 2.24 122.277 2.24V4.24ZM116.897 12.66L115.212 11.5831C115.006 11.9047 114.897 12.2784 114.897 12.66H116.897ZM116.897 16H112.477V20H116.897V16ZM114.477 18V12.66H110.477V18H114.477ZM114.155 11.5718L108.695 3.15184L105.339 5.32815L110.799 13.7482L114.155 11.5718ZM107.017 6.24H112.097V2.24H107.017V6.24ZM110.364 5.23879L113.004 9.81879L116.47 7.82121L113.83 3.24121L110.364 5.23879ZM114.737 10.82H114.817V6.82H114.737V10.82ZM116.55 9.81879L119.19 5.23879L115.724 3.24121L113.084 7.82121L116.55 9.81879ZM117.457 6.24H122.277V2.24H117.457V6.24ZM120.592 3.16314L115.212 11.5831L118.582 13.7369L123.962 5.31686L120.592 3.16314ZM114.897 12.66V18H118.897V12.66H114.897ZM135.443 16.76L134.165 15.2221V15.2221L135.443 16.76ZM125.303 16.76L124.025 18.2979L124.033 18.3049L125.303 16.76ZM123.523 4.24V2.24C122.419 2.24 121.523 3.13543 121.523 4.24H123.523ZM127.943 4.24H129.943C129.943 3.13543 129.048 2.24 127.943 2.24V4.24ZM128.563 14.26L127.066 15.5861C127.073 15.5933 127.079 15.6004 127.085 15.6075L128.563 14.26ZM132.163 14.24L130.687 12.8905C130.68 12.8982 130.673 12.9061 130.666 12.9139L132.163 14.24ZM132.803 4.24V2.24C131.699 2.24 130.803 3.13543 130.803 4.24H132.803ZM137.223 4.24H139.223C139.223 3.13543 138.328 2.24 137.223 2.24V4.24ZM135.223 12.46C135.223 13.8881 134.795 14.698 134.165 15.2221L136.722 18.2979C138.465 16.8487 139.223 14.7919 139.223 12.46H135.223ZM134.165 15.2221C133.461 15.8071 132.295 16.24 130.383 16.24V20.24C132.846 20.24 135.052 19.6862 136.722 18.2979L134.165 15.2221ZM130.383 16.24C128.474 16.24 127.294 15.8078 126.574 15.2151L124.033 18.3049C125.712 19.6855 127.919 20.24 130.383 20.24V16.24ZM126.582 15.2221C125.952 14.698 125.523 13.8881 125.523 12.46H121.523C121.523 14.7919 122.282 16.8487 124.025 18.2979L126.582 15.2221ZM125.523 12.46V4.24H121.523V12.46H125.523ZM123.523 6.24H127.943V2.24H123.523V6.24ZM125.943 4.24V12.4H129.943V4.24H125.943ZM125.943 12.4C125.943 13.5397 126.256 14.6715 127.066 15.5861L130.061 12.9339C130.044 12.9152 129.943 12.8069 129.943 12.4H125.943ZM127.085 15.6075C127.978 16.5867 129.183 16.94 130.363 16.94V12.94C130.159 12.94 130.06 12.9102 130.03 12.8991C130.011 12.8918 130.026 12.8957 130.041 12.9125L127.085 15.6075ZM130.363 16.94C131.562 16.94 132.773 16.5687 133.661 15.5661L130.666 12.9139C130.668 12.9115 130.674 12.9059 130.682 12.9007C130.689 12.8956 130.69 12.8966 130.678 12.901C130.655 12.9103 130.562 12.94 130.363 12.94V16.94ZM133.639 15.5895C134.469 14.6826 134.803 13.553 134.803 12.4H130.803C130.803 12.767 130.711 12.8641 130.687 12.8905L133.639 15.5895ZM134.803 12.4V4.24H130.803V12.4H134.803ZM132.803 6.24H137.223V2.24H132.803V6.24ZM135.223 4.24V12.46H139.223V4.24H135.223ZM149.784 18L147.899 18.6685C148.182 19.4666 148.937 20 149.784 20V18ZM144.904 4.24V2.24C144.254 2.24 143.645 2.55551 143.27 3.0861C142.895 3.61669 142.802 4.29625 143.019 4.90851L144.904 4.24ZM149.624 4.24L151.539 3.6653C151.286 2.81934 150.507 2.24 149.624 2.24V4.24ZM152.384 13.44L150.468 14.0147C150.722 14.8607 151.5 15.44 152.384 15.44V13.44ZM152.464 13.44V15.44C153.345 15.44 154.123 14.8626 154.378 14.0185L152.464 13.44ZM155.244 4.24V2.24C154.362 2.24 153.584 2.81744 153.329 3.66149L155.244 4.24ZM159.764 4.24L161.65 4.90607C161.866 4.29397 161.771 3.61502 161.396 3.08504C161.022 2.55506 160.413 2.24 159.764 2.24V4.24ZM154.904 18V20C155.751 20 156.507 19.4655 156.79 18.6661L154.904 18ZM151.669 17.3315L146.789 3.57149L143.019 4.90851L147.899 18.6685L151.669 17.3315ZM144.904 6.24H149.624V2.24H144.904V6.24ZM147.708 4.8147L150.468 14.0147L154.299 12.8653L151.539 3.6653L147.708 4.8147ZM152.384 15.44H152.464V11.44H152.384V15.44ZM154.378 14.0185L157.158 4.81851L153.329 3.66149L150.549 12.8615L154.378 14.0185ZM155.244 6.24H159.764V2.24H155.244V6.24ZM157.878 3.57393L153.018 17.3339L156.79 18.6661L161.65 4.90607L157.878 3.57393ZM154.904 16H149.784V20H154.904V16ZM161.41 18H159.41C159.41 19.1046 160.305 20 161.41 20V18ZM161.41 4.24V2.24C160.305 2.24 159.41 3.13543 159.41 4.24H161.41ZM165.83 4.24H167.83C167.83 3.13543 166.935 2.24 165.83 2.24V4.24ZM165.83 18V20C166.935 20 167.83 19.1046 167.83 18H165.83ZM163.41 18V4.24H159.41V18H163.41ZM161.41 6.24H165.83V2.24H161.41V6.24ZM163.83 4.24V18H167.83V4.24H163.83ZM165.83 16H161.41V20H165.83V16ZM178.424 18L176.911 19.3087C177.291 19.7477 177.843 20 178.424 20V18ZM172.644 11.32L174.156 10.0113C173.609 9.37972 172.728 9.15424 171.945 9.44585C171.163 9.73746 170.644 10.4848 170.644 11.32H172.644ZM172.644 18V20C173.748 20 174.644 19.1046 174.644 18H172.644ZM168.584 18H166.584C166.584 19.1046 167.479 20 168.584 20V18ZM168.584 4.24V2.24C167.479 2.24 166.584 3.13543 166.584 4.24H168.584ZM172.444 4.24L173.966 2.94249C173.586 2.49676 173.029 2.24 172.444 2.24V4.24ZM178.224 11.02L176.702 12.3175C177.245 12.9552 178.129 13.1864 178.915 12.8967C179.701 12.607 180.224 11.8579 180.224 11.02H178.224ZM178.224 4.24V2.24C177.119 2.24 176.224 3.13543 176.224 4.24H178.224ZM182.284 4.24H184.284C184.284 3.13543 183.388 2.24 182.284 2.24V4.24ZM182.284 18V20C183.388 20 184.284 19.1046 184.284 18H182.284ZM179.936 16.6913L174.156 10.0113L171.131 12.6287L176.911 19.3087L179.936 16.6913ZM170.644 11.32V18H174.644V11.32H170.644ZM172.644 16H168.584V20H172.644V16ZM170.584 18V4.24H166.584V18H170.584ZM168.584 6.24H172.444V2.24H168.584V6.24ZM170.922 5.53751L176.702 12.3175L179.746 9.72249L173.966 2.94249L170.922 5.53751ZM180.224 11.02V4.24H176.224V11.02H180.224ZM178.224 6.24H182.284V2.24H178.224V6.24ZM180.284 4.24V18H184.284V4.24H180.284ZM182.284 16H178.424V20H182.284V16Z" fill="white" mask="url(#path-3-outside-2_2005_2896)"/>
</svg>
