<svg width="226" height="22" viewBox="0 0 226 22" fill="none" xmlns="http://www.w3.org/2000/svg">
<mask id="path-1-outside-1_2005_2788" maskUnits="userSpaceOnUse" x="28" y="0" width="169" height="23" fill="black">
<rect fill="white" x="28" width="169" height="23"/>
<path d="M39.1495 4C40.9095 4 42.3561 4.36 43.4895 5.08C44.6228 5.78667 45.2028 6.84 45.2295 8.24V8.48H41.0895V8.4C41.0895 8 40.9428 7.66667 40.6495 7.4C40.3561 7.13333 39.9095 7 39.3095 7C38.7228 7 38.2695 7.08667 37.9495 7.26C37.6428 7.43333 37.4895 7.64667 37.4895 7.9C37.4895 8.26 37.7028 8.52667 38.1295 8.7C38.5561 8.87333 39.2428 9.05333 40.1895 9.24C41.2961 9.46667 42.2028 9.70667 42.9095 9.96C43.6295 10.2 44.2561 10.6 44.7895 11.16C45.3228 11.72 45.5961 12.48 45.6095 13.44C45.6095 15.0667 45.0561 16.2733 43.9495 17.06C42.8561 17.8467 41.3895 18.24 39.5495 18.24C37.4028 18.24 35.7295 17.88 34.5295 17.16C33.3428 16.44 32.7495 15.1667 32.7495 13.34H36.9295C36.9295 14.0333 37.1095 14.5 37.4695 14.74C37.8295 14.9667 38.3895 15.08 39.1495 15.08C39.7095 15.08 40.1695 15.02 40.5295 14.9C40.9028 14.78 41.0895 14.5333 41.0895 14.16C41.0895 13.8267 40.8828 13.58 40.4695 13.42C40.0695 13.2467 39.4095 13.0667 38.4895 12.88C37.3695 12.64 36.4428 12.3933 35.7095 12.14C34.9761 11.8733 34.3361 11.44 33.7895 10.84C33.2428 10.24 32.9695 9.42667 32.9695 8.4C32.9695 6.89333 33.5495 5.78667 34.7095 5.08C35.8828 4.36 37.3628 4 39.1495 4ZM61.103 12.46C61.103 14.34 60.5097 15.7733 59.323 16.76C58.1364 17.7467 56.4497 18.24 54.263 18.24C52.0764 18.24 50.383 17.7467 49.183 16.76C47.9964 15.7733 47.403 14.34 47.403 12.46V4.24H51.823V12.4C51.823 13.1733 52.0297 13.7933 52.443 14.26C52.8564 14.7133 53.4564 14.94 54.243 14.94C55.0297 14.94 55.6297 14.7067 56.043 14.24C56.4697 13.7733 56.683 13.16 56.683 12.4V4.24H61.103V12.46ZM73.5032 18L67.7232 11.32V18H63.6632V4.24H67.5232L73.3032 11.02V4.24H77.3632V18H73.5032ZM86.8434 4C88.1634 4 89.35 4.2 90.4034 4.6C91.4567 5 92.29 5.59333 92.9034 6.38C93.53 7.15333 93.8434 8.1 93.8434 9.22H89.6234C89.6234 8.64667 89.37 8.18667 88.8634 7.84C88.3567 7.48 87.7434 7.3 87.0234 7.3C85.9834 7.3 85.1967 7.58 84.6634 8.14C84.13 8.68667 83.8634 9.46667 83.8634 10.48V11.76C83.8634 12.7733 84.13 13.56 84.6634 14.12C85.1967 14.6667 85.9834 14.94 87.0234 14.94C87.7434 14.94 88.3567 14.7733 88.8634 14.44C89.37 14.0933 89.6234 13.6533 89.6234 13.12H86.5034V10.32H93.8434V18H91.5634L91.1234 16.64C89.87 17.7067 88.23 18.24 86.2034 18.24C83.9234 18.24 82.21 17.6467 81.0634 16.46C79.9167 15.26 79.3434 13.48 79.3434 11.12C79.3434 8.78667 79.99 7.02 81.2834 5.82C82.59 4.60667 84.4434 4 86.8434 4ZM111.724 18V12.78H106.864V18H102.444V4.24H106.864V9.26H111.724V4.24H116.144V18H111.724ZM127.924 18L127.344 16.06H122.524L121.944 18H117.424L122.444 4.24H127.584L132.604 18H127.924ZM123.444 12.98H126.424L124.984 8.08H124.904L123.444 12.98ZM143.71 18L137.93 11.32V18H133.87V4.24H137.73L143.51 11.02V4.24H147.57V18H143.71ZM165.551 4.24C166.244 4.24 166.877 4.38667 167.451 4.68C168.037 4.96 168.497 5.36 168.831 5.88C169.177 6.4 169.351 6.98 169.351 7.62C169.351 9.31333 168.584 10.38 167.051 10.82V10.9C168.797 11.3 169.671 12.4467 169.671 14.34C169.671 15.06 169.491 15.7 169.131 16.26C168.784 16.8067 168.304 17.2333 167.691 17.54C167.077 17.8467 166.404 18 165.671 18H156.391V4.24H165.551ZM160.811 9.6H163.851C164.144 9.6 164.384 9.5 164.571 9.3C164.771 9.08667 164.871 8.82667 164.871 8.52V8.32C164.871 8.02667 164.771 7.78 164.571 7.58C164.371 7.36667 164.131 7.26 163.851 7.26H160.811V9.6ZM160.811 14.8H164.171C164.464 14.8 164.704 14.7 164.891 14.5C165.091 14.2867 165.191 14.0267 165.191 13.72V13.52C165.191 13.2133 165.091 12.96 164.891 12.76C164.704 12.5467 164.464 12.44 164.171 12.44H160.811V14.8ZM171.757 18V4.24H176.177V18H171.757ZM188.77 18L182.99 11.32V18H178.93V4.24H182.79L188.57 11.02V4.24H192.63V18H188.77Z"/>
</mask>
<path d="M39.1495 4C40.9095 4 42.3561 4.36 43.4895 5.08C44.6228 5.78667 45.2028 6.84 45.2295 8.24V8.48H41.0895V8.4C41.0895 8 40.9428 7.66667 40.6495 7.4C40.3561 7.13333 39.9095 7 39.3095 7C38.7228 7 38.2695 7.08667 37.9495 7.26C37.6428 7.43333 37.4895 7.64667 37.4895 7.9C37.4895 8.26 37.7028 8.52667 38.1295 8.7C38.5561 8.87333 39.2428 9.05333 40.1895 9.24C41.2961 9.46667 42.2028 9.70667 42.9095 9.96C43.6295 10.2 44.2561 10.6 44.7895 11.16C45.3228 11.72 45.5961 12.48 45.6095 13.44C45.6095 15.0667 45.0561 16.2733 43.9495 17.06C42.8561 17.8467 41.3895 18.24 39.5495 18.24C37.4028 18.24 35.7295 17.88 34.5295 17.16C33.3428 16.44 32.7495 15.1667 32.7495 13.34H36.9295C36.9295 14.0333 37.1095 14.5 37.4695 14.74C37.8295 14.9667 38.3895 15.08 39.1495 15.08C39.7095 15.08 40.1695 15.02 40.5295 14.9C40.9028 14.78 41.0895 14.5333 41.0895 14.16C41.0895 13.8267 40.8828 13.58 40.4695 13.42C40.0695 13.2467 39.4095 13.0667 38.4895 12.88C37.3695 12.64 36.4428 12.3933 35.7095 12.14C34.9761 11.8733 34.3361 11.44 33.7895 10.84C33.2428 10.24 32.9695 9.42667 32.9695 8.4C32.9695 6.89333 33.5495 5.78667 34.7095 5.08C35.8828 4.36 37.3628 4 39.1495 4ZM61.103 12.46C61.103 14.34 60.5097 15.7733 59.323 16.76C58.1364 17.7467 56.4497 18.24 54.263 18.24C52.0764 18.24 50.383 17.7467 49.183 16.76C47.9964 15.7733 47.403 14.34 47.403 12.46V4.24H51.823V12.4C51.823 13.1733 52.0297 13.7933 52.443 14.26C52.8564 14.7133 53.4564 14.94 54.243 14.94C55.0297 14.94 55.6297 14.7067 56.043 14.24C56.4697 13.7733 56.683 13.16 56.683 12.4V4.24H61.103V12.46ZM73.5032 18L67.7232 11.32V18H63.6632V4.24H67.5232L73.3032 11.02V4.24H77.3632V18H73.5032ZM86.8434 4C88.1634 4 89.35 4.2 90.4034 4.6C91.4567 5 92.29 5.59333 92.9034 6.38C93.53 7.15333 93.8434 8.1 93.8434 9.22H89.6234C89.6234 8.64667 89.37 8.18667 88.8634 7.84C88.3567 7.48 87.7434 7.3 87.0234 7.3C85.9834 7.3 85.1967 7.58 84.6634 8.14C84.13 8.68667 83.8634 9.46667 83.8634 10.48V11.76C83.8634 12.7733 84.13 13.56 84.6634 14.12C85.1967 14.6667 85.9834 14.94 87.0234 14.94C87.7434 14.94 88.3567 14.7733 88.8634 14.44C89.37 14.0933 89.6234 13.6533 89.6234 13.12H86.5034V10.32H93.8434V18H91.5634L91.1234 16.64C89.87 17.7067 88.23 18.24 86.2034 18.24C83.9234 18.24 82.21 17.6467 81.0634 16.46C79.9167 15.26 79.3434 13.48 79.3434 11.12C79.3434 8.78667 79.99 7.02 81.2834 5.82C82.59 4.60667 84.4434 4 86.8434 4ZM111.724 18V12.78H106.864V18H102.444V4.24H106.864V9.26H111.724V4.24H116.144V18H111.724ZM127.924 18L127.344 16.06H122.524L121.944 18H117.424L122.444 4.24H127.584L132.604 18H127.924ZM123.444 12.98H126.424L124.984 8.08H124.904L123.444 12.98ZM143.71 18L137.93 11.32V18H133.87V4.24H137.73L143.51 11.02V4.24H147.57V18H143.71ZM165.551 4.24C166.244 4.24 166.877 4.38667 167.451 4.68C168.037 4.96 168.497 5.36 168.831 5.88C169.177 6.4 169.351 6.98 169.351 7.62C169.351 9.31333 168.584 10.38 167.051 10.82V10.9C168.797 11.3 169.671 12.4467 169.671 14.34C169.671 15.06 169.491 15.7 169.131 16.26C168.784 16.8067 168.304 17.2333 167.691 17.54C167.077 17.8467 166.404 18 165.671 18H156.391V4.24H165.551ZM160.811 9.6H163.851C164.144 9.6 164.384 9.5 164.571 9.3C164.771 9.08667 164.871 8.82667 164.871 8.52V8.32C164.871 8.02667 164.771 7.78 164.571 7.58C164.371 7.36667 164.131 7.26 163.851 7.26H160.811V9.6ZM160.811 14.8H164.171C164.464 14.8 164.704 14.7 164.891 14.5C165.091 14.2867 165.191 14.0267 165.191 13.72V13.52C165.191 13.2133 165.091 12.96 164.891 12.76C164.704 12.5467 164.464 12.44 164.171 12.44H160.811V14.8ZM171.757 18V4.24H176.177V18H171.757ZM188.77 18L182.99 11.32V18H178.93V4.24H182.79L188.57 11.02V4.24H192.63V18H188.77Z" fill="black"/>
<path d="M43.4895 5.08L41.3445 8.45628C41.354 8.46231 41.3635 8.46829 41.373 8.47423L43.4895 5.08ZM45.2295 8.24H49.2295C49.2295 8.21461 49.2292 8.18921 49.2287 8.16382L45.2295 8.24ZM45.2295 8.48V12.48C47.4386 12.48 49.2295 10.6891 49.2295 8.48H45.2295ZM41.0895 8.48H37.0895C37.0895 10.6891 38.8803 12.48 41.0895 12.48V8.48ZM40.6495 7.4L43.3401 4.44024L43.3401 4.44024L40.6495 7.4ZM37.9495 7.26L36.0443 3.74283C36.0232 3.75428 36.0022 3.76592 35.9812 3.77775L37.9495 7.26ZM38.1295 8.7L39.635 4.99413L39.635 4.99413L38.1295 8.7ZM40.1894 9.24L40.9921 5.32135C40.9825 5.31939 40.9729 5.31746 40.9633 5.31557L40.1894 9.24ZM42.9095 9.96L41.5596 13.7254C41.5878 13.7355 41.6161 13.7453 41.6445 13.7547L42.9095 9.96ZM45.6095 13.44H49.6095C49.6095 13.4215 49.6093 13.403 49.6091 13.3844L45.6095 13.44ZM43.9495 17.06L41.6319 13.7998C41.6257 13.8042 41.6195 13.8086 41.6133 13.8131L43.9495 17.06ZM34.5294 17.16L32.4545 20.5798C32.4602 20.5832 32.4658 20.5866 32.4715 20.59L34.5294 17.16ZM32.7495 13.34V9.34C30.5403 9.34 28.7495 11.1309 28.7495 13.34H32.7495ZM36.9295 13.34H40.9295C40.9295 11.1309 39.1386 9.34 36.9295 9.34V13.34ZM37.4695 14.74L35.2506 18.0682C35.2796 18.0875 35.3088 18.1064 35.3382 18.1249L37.4695 14.74ZM40.5294 14.9L39.3054 11.0919C39.2918 11.0963 39.2781 11.1007 39.2645 11.1053L40.5294 14.9ZM40.4695 13.42L38.879 17.0902C38.9274 17.1112 38.9763 17.1312 39.0255 17.1503L40.4695 13.42ZM38.4894 12.88L37.6513 16.7912C37.6656 16.7943 37.6798 16.7972 37.6941 16.8001L38.4894 12.88ZM35.7094 12.14L34.3425 15.8992C34.3627 15.9065 34.383 15.9137 34.4034 15.9208L35.7094 12.14ZM33.7895 10.84L30.8327 13.534V13.534L33.7895 10.84ZM34.7094 5.08L36.7905 8.49605L36.8015 8.48929L34.7094 5.08ZM39.1494 8C40.3814 8 41.0233 8.25223 41.3445 8.45628L45.6344 1.70372C43.6889 0.467773 41.4375 -9.53674e-07 39.1494 -9.53674e-07V8ZM41.373 8.47423C41.4067 8.49522 41.3987 8.49514 41.3695 8.46517C41.3389 8.43367 41.3022 8.38696 41.2705 8.32938C41.2392 8.2724 41.2262 8.22953 41.2227 8.21521C41.2197 8.20325 41.2286 8.23261 41.2302 8.31618L49.2287 8.16382C49.1778 5.48916 47.953 3.1493 45.6059 1.68576L41.373 8.47423ZM41.2295 8.24V8.48H49.2295V8.24H41.2295ZM45.2295 4.48H41.0895V12.48H45.2295V4.48ZM45.0895 8.48V8.4H37.0895V8.48H45.0895ZM45.0895 8.4C45.0895 6.88462 44.4759 5.47276 43.3401 4.44024L37.9588 10.3598C37.7281 10.1501 37.4897 9.85086 37.3182 9.46095C37.147 9.07191 37.0895 8.69968 37.0895 8.4H45.0895ZM43.3401 4.44024C42.0114 3.23225 40.4084 3 39.3095 3V11C39.4105 11 38.7009 11.0344 37.9588 10.3598L43.3401 4.44024ZM39.3095 3C38.4218 3 37.2025 3.11546 36.0443 3.74283L39.8546 10.7772C39.5715 10.9305 39.3545 10.9797 39.2806 10.9938C39.2037 11.0085 39.204 11 39.3095 11V3ZM35.9812 3.77775C34.9707 4.34891 33.4894 5.66639 33.4894 7.9H41.4894C41.4894 8.64358 41.2454 9.33787 40.8525 9.88454C40.4962 10.3803 40.1058 10.6359 39.9177 10.7423L35.9812 3.77775ZM33.4894 7.9C33.4894 8.93531 33.8197 9.98591 34.526 10.8688C35.1832 11.6903 35.9891 12.148 36.6239 12.4059L39.635 4.99413C39.8432 5.07871 40.3291 5.31639 40.7729 5.87122C41.2659 6.48742 41.4894 7.22469 41.4894 7.9H33.4894ZM36.6239 12.4059C37.4255 12.7315 38.4284 12.9698 39.4156 13.1644L40.9633 5.31557C40.5442 5.23292 40.2201 5.159 39.9787 5.09573C39.7235 5.02882 39.6271 4.99095 39.635 4.99413L36.6239 12.4059ZM39.3868 13.1586C40.3904 13.3642 41.0964 13.5593 41.5596 13.7254L44.2593 6.19464C43.3091 5.85402 42.2018 5.56913 40.9921 5.32135L39.3868 13.1586ZM41.6445 13.7547C41.732 13.7839 41.8017 13.8228 41.8929 13.9186L47.686 8.40138C46.7106 7.37717 45.5269 6.61611 44.1744 6.16527L41.6445 13.7547ZM41.8929 13.9186C41.7588 13.7779 41.6736 13.6235 41.6305 13.5037C41.592 13.3968 41.6082 13.377 41.6098 13.4955L49.6091 13.3844C49.5853 11.6713 49.0722 9.85685 47.686 8.40138L41.8929 13.9186ZM41.6095 13.44C41.6095 13.8046 41.5475 13.9216 41.5585 13.8977C41.5639 13.886 41.5782 13.8601 41.602 13.8315C41.6254 13.8034 41.6406 13.7936 41.6319 13.7998L46.267 20.3202C48.6461 18.629 49.6095 16.0704 49.6095 13.44H41.6095ZM41.6133 13.8131C41.4096 13.9597 40.8518 14.24 39.5494 14.24V22.24C41.9271 22.24 44.3027 21.7336 46.2856 20.3069L41.6133 13.8131ZM39.5494 14.24C37.7714 14.24 36.9184 13.9286 36.5874 13.73L32.4715 20.59C34.5405 21.8314 37.0342 22.24 39.5494 22.24V14.24ZM36.6044 13.7402C36.6331 13.7577 36.6829 13.7944 36.7343 13.852C36.7854 13.9093 36.8118 13.9575 36.8202 13.9755C36.8324 14.0018 36.7495 13.8379 36.7495 13.34H28.7495C28.7495 16.064 29.6992 18.908 32.4545 20.5798L36.6044 13.7402ZM32.7495 17.34H36.9295V9.34H32.7495V17.34ZM32.9295 13.34C32.9295 14.5412 33.2304 16.7213 35.2506 18.0682L39.6883 11.4118C40.2986 11.8187 40.6371 12.3573 40.7965 12.7705C40.9376 13.1365 40.9295 13.371 40.9295 13.34H32.9295ZM35.3382 18.1249C36.6641 18.9597 38.1494 19.08 39.1494 19.08V11.08C38.9545 11.08 38.9024 11.0643 38.9529 11.0745C38.9947 11.0829 39.2569 11.1386 39.6007 11.3551L35.3382 18.1249ZM39.1494 19.08C39.9548 19.08 40.8821 18.9988 41.7944 18.6947L39.2645 11.1053C39.3214 11.0863 39.3622 11.0764 39.3831 11.0718C39.4041 11.0672 39.4096 11.067 39.3971 11.0686C39.3694 11.0722 39.2906 11.08 39.1494 11.08V19.08ZM41.7535 18.7081C42.513 18.464 43.4311 17.9743 44.1391 17.0388C44.86 16.0861 45.0895 15.0328 45.0895 14.16H37.0895C37.0895 13.6606 37.2255 12.9172 37.7598 12.2112C38.2811 11.5224 38.9193 11.216 39.3054 11.0919L41.7535 18.7081ZM45.0895 14.16C45.0895 13.0906 44.7303 12.0271 44.0005 11.1561C43.3303 10.3562 42.5238 9.92601 41.9134 9.68973L39.0255 17.1503C38.8284 17.074 38.3319 16.8472 37.8684 16.2939C37.3453 15.6696 37.0895 14.8961 37.0895 14.16H45.0895ZM42.0599 9.74978C41.2504 9.39898 40.2399 9.15365 39.2848 8.95988L37.6941 16.8001C38.097 16.8819 38.4016 16.9539 38.622 17.0141C38.8591 17.0787 38.9227 17.1091 38.879 17.0902L42.0599 9.74978ZM39.3276 8.96879C38.299 8.74839 37.5422 8.5412 37.0155 8.35924L34.4034 15.9208C35.3433 16.2455 36.4399 16.5316 37.6513 16.7912L39.3276 8.96879ZM37.0764 8.38083C36.9762 8.34439 36.8751 8.28747 36.7462 8.14604L30.8327 13.534C31.7971 14.5925 32.976 15.4023 34.3425 15.8992L37.0764 8.38083ZM36.7462 8.14604C36.8025 8.20774 36.8512 8.27482 36.8905 8.34264C36.9296 8.40992 36.953 8.46694 36.9661 8.50577C36.9915 8.58136 36.9695 8.56271 36.9695 8.4H28.9694C28.9694 10.1494 29.4507 12.0172 30.8327 13.534L36.7462 8.14604ZM36.9695 8.4C36.9695 8.27902 36.9812 8.22082 36.9832 8.21167C36.9846 8.20515 36.9774 8.23944 36.9474 8.29682C36.9165 8.35569 36.8762 8.41092 36.8344 8.45446C36.7941 8.49648 36.772 8.50732 36.7905 8.49604L32.6284 1.66396C30.1287 3.18678 28.9694 5.68037 28.9694 8.4H36.9695ZM36.8015 8.48929C37.1838 8.25469 37.8855 8 39.1494 8V-9.53674e-07C36.8401 -9.53674e-07 34.5817 0.465309 32.6174 1.67071L36.8015 8.48929ZM59.323 16.76L56.7657 13.6843V13.6843L59.323 16.76ZM49.183 16.76L46.6257 19.8357C46.6313 19.8404 46.637 19.8451 46.6426 19.8497L49.183 16.76ZM47.403 4.24V0.24C45.1939 0.24 43.403 2.03086 43.403 4.24H47.403ZM51.823 4.24H55.823C55.823 2.03086 54.0322 0.24 51.823 0.24V4.24ZM52.443 14.26L49.4487 16.9121C49.4614 16.9265 49.4743 16.9408 49.4872 16.955L52.443 14.26ZM56.043 14.24L53.0909 11.5409C53.0767 11.5565 53.0626 11.5721 53.0487 11.5879L56.043 14.24ZM56.683 4.24V0.24C54.4739 0.24 52.683 2.03086 52.683 4.24H56.683ZM61.103 4.24H65.103C65.103 2.03086 63.3122 0.24 61.103 0.24V4.24ZM57.103 12.46C57.103 13.4362 56.8399 13.6226 56.7657 13.6843L61.8804 19.8357C64.1796 17.924 65.103 15.2438 65.103 12.46H57.103ZM56.7657 13.6843C56.5453 13.8675 55.8988 14.24 54.263 14.24V22.24C57.0007 22.24 59.7274 21.6258 61.8804 19.8357L56.7657 13.6843ZM54.263 14.24C52.6311 14.24 51.9651 13.869 51.7235 13.6703L46.6426 19.8497C48.801 21.6243 51.5217 22.24 54.263 22.24V14.24ZM51.7404 13.6843C51.6662 13.6226 51.403 13.4362 51.403 12.46H43.403C43.403 15.2438 44.3265 17.924 46.6257 19.8357L51.7404 13.6843ZM51.403 12.46V4.24H43.403V12.46H51.403ZM47.403 8.24H51.823V0.24H47.403V8.24ZM47.823 4.24V12.4H55.823V4.24H47.823ZM47.823 12.4C47.823 13.9061 48.2419 15.5496 49.4487 16.9121L55.4374 11.6079C55.6055 11.7977 55.714 12.0037 55.7728 12.1801C55.8277 12.3449 55.823 12.4334 55.823 12.4H47.823ZM49.4872 16.955C50.8594 18.46 52.669 18.94 54.243 18.94V10.94C54.2268 10.94 54.3755 10.937 54.6166 11.0281C54.8783 11.127 55.1616 11.3048 55.3989 11.565L49.4872 16.955ZM54.243 18.94C55.8527 18.94 57.6747 18.4307 59.0374 16.8921L53.0487 11.5879C53.278 11.3289 53.5602 11.1432 53.8333 11.037C53.9593 10.988 54.0633 10.9637 54.1343 10.9517C54.1696 10.9458 54.1969 10.9429 54.215 10.9414C54.233 10.94 54.2427 10.94 54.243 10.94V18.94ZM58.9952 16.9391C60.227 15.5918 60.683 13.9461 60.683 12.4H52.683C52.683 12.4072 52.6821 12.2969 52.7451 12.1159C52.8119 11.9238 52.9278 11.7193 53.0909 11.5409L58.9952 16.9391ZM60.683 12.4V4.24H52.683V12.4H60.683ZM56.683 8.24H61.103V0.24H56.683V8.24ZM57.103 4.24V12.46H65.103V4.24H57.103ZM73.5032 18L70.4784 20.6173C71.2381 21.4954 72.342 22 73.5032 22V18ZM67.7232 11.32L70.748 8.70269C69.655 7.43945 67.892 6.98848 66.3267 7.57171C64.7613 8.15493 63.7232 9.64951 63.7232 11.32H67.7232ZM67.7232 18V22C69.9323 22 71.7232 20.2091 71.7232 18H67.7232ZM63.6632 18H59.6632C59.6632 20.2091 61.4541 22 63.6632 22V18ZM63.6632 4.24V0.24C61.4541 0.24 59.6632 2.03086 59.6632 4.24H63.6632ZM67.5232 4.24L70.5672 1.64498C69.8072 0.753513 68.6946 0.24 67.5232 0.24V4.24ZM73.3032 11.02L70.2592 13.615C71.3464 14.8904 73.1134 15.3527 74.686 14.7734C76.2585 14.1941 77.3032 12.6959 77.3032 11.02H73.3032ZM73.3032 4.24V0.24C71.0941 0.24 69.3032 2.03086 69.3032 4.24H73.3032ZM77.3632 4.24H81.3632C81.3632 2.03086 79.5723 0.24 77.3632 0.24V4.24ZM77.3632 18V22C79.5723 22 81.3632 20.2091 81.3632 18H77.3632ZM76.528 15.3827L70.748 8.70269L64.6984 13.9373L70.4784 20.6173L76.528 15.3827ZM63.7232 11.32V18H71.7232V11.32H63.7232ZM67.7232 14H63.6632V22H67.7232V14ZM67.6632 18V4.24H59.6632V18H67.6632ZM63.6632 8.24H67.5232V0.24H63.6632V8.24ZM64.4792 6.83502L70.2592 13.615L76.3472 8.42498L70.5672 1.64498L64.4792 6.83502ZM77.3032 11.02V4.24H69.3032V11.02H77.3032ZM73.3032 8.24H77.3632V0.24H73.3032V8.24ZM73.3632 4.24V18H81.3632V4.24H73.3632ZM77.3632 14H73.5032V22H77.3632V14ZM90.4034 4.6L88.9833 8.33945V8.33945L90.4034 4.6ZM92.9034 6.38L89.7488 8.83946C89.7642 8.85923 89.7798 8.87886 89.7956 8.89833L92.9034 6.38ZM93.8434 9.22V13.22C96.0525 13.22 97.8434 11.4291 97.8434 9.22H93.8434ZM89.6234 9.22H85.6234C85.6234 11.4291 87.4142 13.22 89.6234 13.22V9.22ZM88.8634 7.84L86.5465 11.1007C86.5658 11.1144 86.5851 11.1279 86.6046 11.1412L88.8634 7.84ZM84.6634 8.14L87.5265 10.9333C87.5377 10.9218 87.5488 10.9102 87.5599 10.8986L84.6634 8.14ZM84.6634 14.12L81.7668 16.8786C81.7779 16.8902 81.789 16.9018 81.8002 16.9133L84.6634 14.12ZM88.8634 14.44L91.0618 17.7817C91.082 17.7684 91.1021 17.7549 91.1221 17.7412L88.8634 14.44ZM89.6234 13.12H93.6234C93.6234 10.9109 91.8325 9.12 89.6234 9.12V13.12ZM86.5034 13.12H82.5034C82.5034 15.3291 84.2942 17.12 86.5034 17.12V13.12ZM86.5034 10.32V6.32C84.2942 6.32 82.5034 8.11086 82.5034 10.32H86.5034ZM93.8434 10.32H97.8434C97.8434 8.11086 96.0525 6.32 93.8434 6.32V10.32ZM93.8434 18V22C96.0525 22 97.8434 20.2091 97.8434 18H93.8434ZM91.5634 18L87.7576 19.2313C88.2916 20.8818 89.8286 22 91.5634 22V18ZM91.1234 16.64L94.9291 15.4087C94.518 14.138 93.4998 13.1563 92.2149 12.7918C90.93 12.4274 89.548 12.7282 88.5309 13.5938L91.1234 16.64ZM81.0634 16.46L78.1714 19.2234C78.1765 19.2288 78.1817 19.2342 78.1869 19.2395L81.0634 16.46ZM81.2834 5.82L84.004 8.75225L84.0052 8.75117L81.2834 5.82ZM86.8434 8C87.7598 8 88.4542 8.13851 88.9833 8.33945L91.8234 0.860552C90.2459 0.261492 88.5669 -9.53674e-07 86.8434 -9.53674e-07V8ZM88.9833 8.33945C89.443 8.51403 89.6418 8.70221 89.7488 8.83946L96.0579 3.92054C94.9382 2.48446 93.4703 1.48597 91.8234 0.860551L88.9833 8.33945ZM89.7956 8.89833C89.8042 8.90892 89.8058 8.91138 89.811 8.92688C89.818 8.94819 89.8434 9.03511 89.8434 9.22H97.8434C97.8434 7.30467 97.2872 5.43641 96.0111 3.86167L89.7956 8.89833ZM93.8434 5.22H89.6234V13.22H93.8434V5.22ZM93.6234 9.22C93.6234 7.21948 92.6272 5.5686 91.1221 4.53877L86.6046 11.1412C86.4285 11.0207 86.152 10.7785 85.9296 10.3746C85.7014 9.96035 85.6234 9.54462 85.6234 9.22H93.6234ZM91.1802 4.57928C89.8938 3.66524 88.4378 3.3 87.0234 3.3V11.3C87.0495 11.3 86.999 11.3031 86.8969 11.2731C86.7898 11.2417 86.6655 11.1852 86.5465 11.1007L91.1802 4.57928ZM87.0234 3.3C85.2804 3.3 83.2883 3.78378 81.7668 5.38138L87.5599 10.8986C87.3605 11.108 87.1436 11.2254 86.9947 11.2784C86.8664 11.324 86.8527 11.3 87.0234 11.3V3.3ZM81.8002 5.3467C80.3246 6.8592 79.8634 8.77459 79.8634 10.48H87.8634C87.8634 10.3164 87.8857 10.3195 87.8483 10.429C87.805 10.5556 87.7068 10.7485 87.5265 10.9333L81.8002 5.3467ZM79.8634 10.48V11.76H87.8634V10.48H79.8634ZM79.8634 11.76C79.8634 13.4716 80.3268 15.3667 81.7668 16.8786L87.5599 11.3614C87.7232 11.5329 87.8124 11.7102 87.8516 11.8258C87.8854 11.9256 87.8634 11.9226 87.8634 11.76H79.8634ZM81.8002 16.9133C83.3268 18.478 85.3067 18.94 87.0234 18.94V10.94C86.8437 10.94 86.8473 10.9153 86.9662 10.9566C87.1051 11.0048 87.3216 11.1167 87.5265 11.3267L81.8002 16.9133ZM87.0234 18.94C88.376 18.94 89.7883 18.6195 91.0618 17.7817L86.6649 11.0983C86.7816 11.0216 86.8926 10.9772 86.9744 10.955C87.0515 10.934 87.0752 10.94 87.0234 10.94V18.94ZM91.1221 17.7412C92.5278 16.7795 93.6234 15.1891 93.6234 13.12H85.6234C85.6234 12.7229 85.7261 12.2723 85.9669 11.8541C86.1959 11.4564 86.4646 11.2346 86.6046 11.1388L91.1221 17.7412ZM89.6234 9.12H86.5034V17.12H89.6234V9.12ZM90.5034 13.12V10.32H82.5034V13.12H90.5034ZM86.5034 14.32H93.8434V6.32H86.5034V14.32ZM89.8434 10.32V18H97.8434V10.32H89.8434ZM93.8434 14H91.5634V22H93.8434V14ZM95.3691 16.7687L94.9291 15.4087L87.3176 17.8713L87.7576 19.2313L95.3691 16.7687ZM88.5309 13.5938C88.1575 13.9116 87.5079 14.24 86.2034 14.24V22.24C88.9521 22.24 91.5826 21.5017 93.7158 19.6862L88.5309 13.5938ZM86.2034 14.24C84.5835 14.24 84.0816 13.8271 83.9398 13.6805L78.1869 19.2395C80.3385 21.4662 83.2632 22.24 86.2034 22.24V14.24ZM83.9553 13.6966C83.7724 13.5051 83.3434 12.8858 83.3434 11.12H75.3434C75.3434 14.0742 76.061 17.0149 78.1714 19.2234L83.9553 13.6966ZM83.3434 11.12C83.3434 9.52315 83.7665 8.97259 84.004 8.75225L78.5627 2.88775C76.2135 5.06741 75.3434 8.05018 75.3434 11.12H83.3434ZM84.0052 8.75117C84.3471 8.43365 85.0974 8 86.8434 8V-9.53674e-07C83.7894 -9.53674e-07 80.8329 0.779684 78.5616 2.88883L84.0052 8.75117ZM111.724 18H107.724C107.724 20.2091 109.515 22 111.724 22V18ZM111.724 12.78H115.724C115.724 10.5709 113.933 8.78 111.724 8.78V12.78ZM106.864 12.78V8.78C104.655 8.78 102.864 10.5709 102.864 12.78H106.864ZM106.864 18V22C109.073 22 110.864 20.2091 110.864 18H106.864ZM102.444 18H98.4437C98.4437 20.2091 100.235 22 102.444 22V18ZM102.444 4.24V0.24C100.235 0.24 98.4437 2.03086 98.4437 4.24H102.444ZM106.864 4.24H110.864C110.864 2.03086 109.073 0.24 106.864 0.24V4.24ZM106.864 9.26H102.864C102.864 11.4691 104.655 13.26 106.864 13.26V9.26ZM111.724 9.26V13.26C113.933 13.26 115.724 11.4691 115.724 9.26H111.724ZM111.724 4.24V0.24C109.515 0.24 107.724 2.03086 107.724 4.24H111.724ZM116.144 4.24H120.144C120.144 2.03086 118.353 0.24 116.144 0.24V4.24ZM116.144 18V22C118.353 22 120.144 20.2091 120.144 18H116.144ZM115.724 18V12.78H107.724V18H115.724ZM111.724 8.78H106.864V16.78H111.724V8.78ZM102.864 12.78V18H110.864V12.78H102.864ZM106.864 14H102.444V22H106.864V14ZM106.444 18V4.24H98.4437V18H106.444ZM102.444 8.24H106.864V0.24H102.444V8.24ZM102.864 4.24V9.26H110.864V4.24H102.864ZM106.864 13.26H111.724V5.26H106.864V13.26ZM115.724 9.26V4.24H107.724V9.26H115.724ZM111.724 8.24H116.144V0.24H111.724V8.24ZM112.144 4.24V18H120.144V4.24H112.144ZM116.144 14H111.724V22H116.144V14ZM127.924 18L124.091 19.1458C124.598 20.8395 126.156 22 127.924 22V18ZM127.344 16.06L131.176 14.9142C130.67 13.2205 129.112 12.06 127.344 12.06V16.06ZM122.524 16.06V12.06C120.756 12.06 119.198 13.2205 118.691 14.9142L122.524 16.06ZM121.944 18V22C123.712 22 125.27 20.8395 125.776 19.1458L121.944 18ZM117.424 18L113.666 16.6291C113.219 17.8556 113.398 19.2233 114.146 20.2931C114.895 21.3628 116.118 22 117.424 22V18ZM122.444 4.24V0.24C120.763 0.24 119.262 1.29037 118.686 2.86908L122.444 4.24ZM127.584 4.24L131.342 2.86908C130.766 1.29037 129.264 0.24 127.584 0.24V4.24ZM132.604 18V22C133.909 22 135.133 21.3628 135.881 20.2931C136.63 19.2233 136.809 17.8556 136.362 16.6291L132.604 18ZM123.444 12.98L119.61 11.8378C119.25 13.0483 119.482 14.3581 120.237 15.3707C120.992 16.3834 122.181 16.98 123.444 16.98V12.98ZM126.424 12.98V16.98C127.684 16.98 128.871 16.3859 129.626 15.3767C130.382 14.3676 130.617 13.0615 130.262 11.8522L126.424 12.98ZM124.984 8.08L128.822 6.95218C128.321 5.24943 126.759 4.08 124.984 4.08V8.08ZM124.904 8.08V4.08C123.135 4.08 121.576 5.24225 121.07 6.93779L124.904 8.08ZM131.756 16.8542L131.176 14.9142L123.511 17.2058L124.091 19.1458L131.756 16.8542ZM127.344 12.06H122.524V20.06H127.344V12.06ZM118.691 14.9142L118.111 16.8542L125.776 19.1458L126.356 17.2058L118.691 14.9142ZM121.944 14H117.424V22H121.944V14ZM121.182 19.3709L126.202 5.61092L118.686 2.86908L113.666 16.6291L121.182 19.3709ZM122.444 8.24H127.584V0.24H122.444V8.24ZM123.826 5.61092L128.846 19.3709L136.362 16.6291L131.342 2.86908L123.826 5.61092ZM132.604 14H127.924V22H132.604V14ZM123.444 16.98H126.424V8.98H123.444V16.98ZM130.262 11.8522L128.822 6.95218L121.146 9.20782L122.586 14.1078L130.262 11.8522ZM124.984 4.08H124.904V12.08H124.984V4.08ZM121.07 6.93779L119.61 11.8378L127.277 14.1222L128.737 9.22221L121.07 6.93779ZM143.71 18L140.685 20.6173C141.445 21.4954 142.549 22 143.71 22V18ZM137.93 11.32L140.955 8.70269C139.862 7.43945 138.099 6.98848 136.534 7.57171C134.968 8.15493 133.93 9.64951 133.93 11.32H137.93ZM137.93 18V22C140.139 22 141.93 20.2091 141.93 18H137.93ZM133.87 18H129.87C129.87 20.2091 131.661 22 133.87 22V18ZM133.87 4.24V0.24C131.661 0.24 129.87 2.03086 129.87 4.24H133.87ZM137.73 4.24L140.774 1.64498C140.014 0.753513 138.902 0.24 137.73 0.24V4.24ZM143.51 11.02L140.466 13.615C141.553 14.8904 143.32 15.3527 144.893 14.7734C146.466 14.1941 147.51 12.6959 147.51 11.02H143.51ZM143.51 4.24V0.24C141.301 0.24 139.51 2.03086 139.51 4.24H143.51ZM147.57 4.24H151.57C151.57 2.03086 149.779 0.24 147.57 0.24V4.24ZM147.57 18V22C149.779 22 151.57 20.2091 151.57 18H147.57ZM146.735 15.3827L140.955 8.70269L134.905 13.9373L140.685 20.6173L146.735 15.3827ZM133.93 11.32V18H141.93V11.32H133.93ZM137.93 14H133.87V22H137.93V14ZM137.87 18V4.24H129.87V18H137.87ZM133.87 8.24H137.73V0.24H133.87V8.24ZM134.686 6.83502L140.466 13.615L146.554 8.42498L140.774 1.64498L134.686 6.83502ZM147.51 11.02V4.24H139.51V11.02H147.51ZM143.51 8.24H147.57V0.24H143.51V8.24ZM143.57 4.24V18H151.57V4.24H143.57ZM147.57 14H143.71V22H147.57V14ZM167.451 4.68L165.629 8.24099C165.661 8.25776 165.694 8.27407 165.728 8.28992L167.451 4.68ZM168.831 5.88L165.463 8.03866C165.476 8.05883 165.489 8.07888 165.502 8.0988L168.831 5.88ZM167.051 10.82L165.947 6.97517C164.232 7.4673 163.051 9.03578 163.051 10.82H167.051ZM167.051 10.9H163.051C163.051 12.7651 164.34 14.3827 166.158 14.7991L167.051 10.9ZM169.131 16.26L165.766 14.097C165.761 14.1039 165.757 14.1109 165.753 14.1178L169.131 16.26ZM156.391 18H152.391C152.391 20.2091 154.181 22 156.391 22V18ZM156.391 4.24V0.24C154.181 0.24 152.391 2.03086 152.391 4.24H156.391ZM160.811 9.6H156.811C156.811 11.8091 158.601 13.6 160.811 13.6V9.6ZM164.571 9.3L161.652 6.56423L161.646 6.57073L164.571 9.3ZM164.571 7.58L161.652 10.3158C161.682 10.3471 161.712 10.378 161.742 10.4084L164.571 7.58ZM160.811 7.26V3.26C158.601 3.26 156.811 5.05086 156.811 7.26H160.811ZM160.811 14.8H156.811C156.811 17.0091 158.601 18.8 160.811 18.8V14.8ZM164.891 14.5L161.972 11.7642L161.966 11.7707L164.891 14.5ZM164.891 12.76L161.88 15.394C161.939 15.4608 161.999 15.5257 162.062 15.5884L164.891 12.76ZM160.811 12.44V8.44C158.601 8.44 156.811 10.2309 156.811 12.44H160.811ZM165.551 8.24C165.614 8.24 165.641 8.24645 165.643 8.24687C165.645 8.24725 165.643 8.24693 165.639 8.24546C165.635 8.24399 165.631 8.24232 165.629 8.24099L169.272 1.11901C168.093 0.515338 166.828 0.24 165.551 0.24V8.24ZM165.728 8.28992C165.717 8.28467 165.671 8.26058 165.611 8.20842C165.55 8.15531 165.499 8.09484 165.463 8.03866L172.198 3.72133C171.441 2.54022 170.396 1.65352 169.173 1.07008L165.728 8.28992ZM165.502 8.0988C165.462 8.03884 165.419 7.95349 165.388 7.85035C165.357 7.74798 165.351 7.66565 165.351 7.62H173.351C173.351 6.21047 172.955 4.85486 172.159 3.6612L165.502 8.0988ZM165.351 7.62C165.351 7.87104 165.297 7.67561 165.527 7.35546C165.636 7.20451 165.761 7.09483 165.865 7.0265C165.962 6.9629 166.005 6.95855 165.947 6.97517L168.154 14.6648C169.594 14.2516 171.01 13.4346 172.024 12.0245C173.02 10.6377 173.351 9.06229 173.351 7.62H165.351ZM163.051 10.82V10.9H171.051V10.82H163.051ZM166.158 14.7991C166.262 14.8231 166.247 14.8339 166.163 14.7846C166.071 14.7298 165.946 14.6308 165.833 14.4836C165.594 14.1696 165.671 13.9944 165.671 14.34H173.671C173.671 12.7923 173.31 11.097 172.198 9.63638C171.067 8.15121 169.5 7.35748 167.943 7.00094L166.158 14.7991ZM165.671 14.34C165.671 14.364 165.668 14.3374 165.685 14.277C165.703 14.2144 165.731 14.1504 165.766 14.097L172.495 18.423C173.304 17.1651 173.671 15.7618 173.671 14.34H165.671ZM165.753 14.1178C165.777 14.079 165.812 14.0366 165.853 14.0004C165.893 13.9652 165.915 13.9554 165.902 13.9623L169.479 21.1177C170.703 20.506 171.749 19.5998 172.509 18.4022L165.753 14.1178ZM165.902 13.9623C165.882 13.9722 165.827 14 165.671 14V22C166.981 22 168.272 21.7212 169.479 21.1177L165.902 13.9623ZM165.671 14H156.391V22H165.671V14ZM160.391 18V4.24H152.391V18H160.391ZM156.391 8.24H165.551V0.24H156.391V8.24ZM160.811 13.6H163.851V5.6H160.811V13.6ZM163.851 13.6C165.163 13.6 166.493 13.1031 167.495 12.0293L161.646 6.57073C161.92 6.277 162.28 6.01288 162.712 5.83269C163.138 5.65513 163.537 5.6 163.851 5.6V13.6ZM167.489 12.0358C168.42 11.0422 168.871 9.78835 168.871 8.52H160.871C160.871 8.2319 160.919 7.88135 161.062 7.50908C161.207 7.13349 161.417 6.81516 161.652 6.56423L167.489 12.0358ZM168.871 8.52V8.32H160.871V8.52H168.871ZM168.871 8.32C168.871 7.00973 168.38 5.73222 167.399 4.75157L161.742 10.4084C161.488 10.1539 161.252 9.8213 161.089 9.41782C160.926 9.01724 160.871 8.63577 160.871 8.32H168.871ZM167.489 4.84423C166.57 3.8646 165.29 3.26 163.851 3.26V11.26C163.468 11.26 163.041 11.184 162.616 10.9952C162.195 10.8082 161.876 10.5546 161.652 10.3158L167.489 4.84423ZM163.851 3.26H160.811V11.26H163.851V3.26ZM156.811 7.26V9.6H164.811V7.26H156.811ZM160.811 18.8H164.171V10.8H160.811V18.8ZM164.171 18.8C165.483 18.8 166.813 18.3031 167.815 17.2293L161.966 11.7707C162.24 11.477 162.6 11.2129 163.032 11.0327C163.458 10.8551 163.857 10.8 164.171 10.8V18.8ZM167.809 17.2358C168.74 16.2422 169.191 14.9883 169.191 13.72H161.191C161.191 13.4319 161.239 13.0814 161.382 12.7091C161.527 12.3335 161.737 12.0152 161.972 11.7642L167.809 17.2358ZM169.191 13.72V13.52H161.191V13.72H169.191ZM169.191 13.52C169.191 12.251 168.736 10.9487 167.719 9.93157L162.062 15.5884C161.79 15.3163 161.554 14.9712 161.395 14.5687C161.239 14.1725 161.191 13.8064 161.191 13.52H169.191ZM167.901 10.126C166.925 9.01068 165.572 8.44 164.171 8.44V16.44C163.823 16.44 163.394 16.3744 162.946 16.1752C162.494 15.9745 162.138 15.6891 161.88 15.394L167.901 10.126ZM164.171 8.44H160.811V16.44H164.171V8.44ZM156.811 12.44V14.8H164.811V12.44H156.811ZM171.757 18H167.757C167.757 20.2091 169.548 22 171.757 22V18ZM171.757 4.24V0.24C169.548 0.24 167.757 2.03086 167.757 4.24H171.757ZM176.177 4.24H180.177C180.177 2.03086 178.386 0.24 176.177 0.24V4.24ZM176.177 18V22C178.386 22 180.177 20.2091 180.177 18H176.177ZM175.757 18V4.24H167.757V18H175.757ZM171.757 8.24H176.177V0.24H171.757V8.24ZM172.177 4.24V18H180.177V4.24H172.177ZM176.177 14H171.757V22H176.177V14ZM188.77 18L185.746 20.6173C186.505 21.4954 187.609 22 188.77 22V18ZM182.99 11.32L186.015 8.70269C184.922 7.43945 183.159 6.98848 181.594 7.57171C180.028 8.15493 178.99 9.64951 178.99 11.32H182.99ZM182.99 18V22C185.2 22 186.99 20.2091 186.99 18H182.99ZM178.93 18H174.93C174.93 20.2091 176.721 22 178.93 22V18ZM178.93 4.24V0.24C176.721 0.24 174.93 2.03086 174.93 4.24H178.93ZM182.79 4.24L185.834 1.64498C185.074 0.753513 183.962 0.24 182.79 0.24V4.24ZM188.57 11.02L185.526 13.615C186.614 14.8904 188.381 15.3527 189.953 14.7734C191.526 14.1941 192.57 12.6959 192.57 11.02H188.57ZM188.57 4.24V0.24C186.361 0.24 184.57 2.03086 184.57 4.24H188.57ZM192.63 4.24H196.63C196.63 2.03086 194.84 0.24 192.63 0.24V4.24ZM192.63 18V22C194.84 22 196.63 20.2091 196.63 18H192.63ZM191.795 15.3827L186.015 8.70269L179.966 13.9373L185.746 20.6173L191.795 15.3827ZM178.99 11.32V18H186.99V11.32H178.99ZM182.99 14H178.93V22H182.99V14ZM182.93 18V4.24H174.93V18H182.93ZM178.93 8.24H182.79V0.24H178.93V8.24ZM179.746 6.83502L185.526 13.615L191.614 8.42498L185.834 1.64498L179.746 6.83502ZM192.57 11.02V4.24H184.57V11.02H192.57ZM188.57 8.24H192.63V0.24H188.57V8.24ZM188.63 4.24V18H196.63V4.24H188.63ZM192.63 14H188.77V22H192.63V14Z" fill="#468ED3" mask="url(#path-1-outside-1_2005_2788)"/>
<mask id="path-3-outside-2_2005_2788" maskUnits="userSpaceOnUse" x="30" y="2" width="165" height="19" fill="black">
<rect fill="white" x="30" y="2" width="165" height="19"/>
<path d="M39.1495 4C40.9095 4 42.3561 4.36 43.4895 5.08C44.6228 5.78667 45.2028 6.84 45.2295 8.24V8.48H41.0895V8.4C41.0895 8 40.9428 7.66667 40.6495 7.4C40.3561 7.13333 39.9095 7 39.3095 7C38.7228 7 38.2695 7.08667 37.9495 7.26C37.6428 7.43333 37.4895 7.64667 37.4895 7.9C37.4895 8.26 37.7028 8.52667 38.1295 8.7C38.5561 8.87333 39.2428 9.05333 40.1895 9.24C41.2961 9.46667 42.2028 9.70667 42.9095 9.96C43.6295 10.2 44.2561 10.6 44.7895 11.16C45.3228 11.72 45.5961 12.48 45.6095 13.44C45.6095 15.0667 45.0561 16.2733 43.9495 17.06C42.8561 17.8467 41.3895 18.24 39.5495 18.24C37.4028 18.24 35.7295 17.88 34.5295 17.16C33.3428 16.44 32.7495 15.1667 32.7495 13.34H36.9295C36.9295 14.0333 37.1095 14.5 37.4695 14.74C37.8295 14.9667 38.3895 15.08 39.1495 15.08C39.7095 15.08 40.1695 15.02 40.5295 14.9C40.9028 14.78 41.0895 14.5333 41.0895 14.16C41.0895 13.8267 40.8828 13.58 40.4695 13.42C40.0695 13.2467 39.4095 13.0667 38.4895 12.88C37.3695 12.64 36.4428 12.3933 35.7095 12.14C34.9761 11.8733 34.3361 11.44 33.7895 10.84C33.2428 10.24 32.9695 9.42667 32.9695 8.4C32.9695 6.89333 33.5495 5.78667 34.7095 5.08C35.8828 4.36 37.3628 4 39.1495 4ZM61.103 12.46C61.103 14.34 60.5097 15.7733 59.323 16.76C58.1364 17.7467 56.4497 18.24 54.263 18.24C52.0764 18.24 50.383 17.7467 49.183 16.76C47.9964 15.7733 47.403 14.34 47.403 12.46V4.24H51.823V12.4C51.823 13.1733 52.0297 13.7933 52.443 14.26C52.8564 14.7133 53.4564 14.94 54.243 14.94C55.0297 14.94 55.6297 14.7067 56.043 14.24C56.4697 13.7733 56.683 13.16 56.683 12.4V4.24H61.103V12.46ZM73.5032 18L67.7232 11.32V18H63.6632V4.24H67.5232L73.3032 11.02V4.24H77.3632V18H73.5032ZM86.8434 4C88.1634 4 89.35 4.2 90.4034 4.6C91.4567 5 92.29 5.59333 92.9034 6.38C93.53 7.15333 93.8434 8.1 93.8434 9.22H89.6234C89.6234 8.64667 89.37 8.18667 88.8634 7.84C88.3567 7.48 87.7434 7.3 87.0234 7.3C85.9834 7.3 85.1967 7.58 84.6634 8.14C84.13 8.68667 83.8634 9.46667 83.8634 10.48V11.76C83.8634 12.7733 84.13 13.56 84.6634 14.12C85.1967 14.6667 85.9834 14.94 87.0234 14.94C87.7434 14.94 88.3567 14.7733 88.8634 14.44C89.37 14.0933 89.6234 13.6533 89.6234 13.12H86.5034V10.32H93.8434V18H91.5634L91.1234 16.64C89.87 17.7067 88.23 18.24 86.2034 18.24C83.9234 18.24 82.21 17.6467 81.0634 16.46C79.9167 15.26 79.3434 13.48 79.3434 11.12C79.3434 8.78667 79.99 7.02 81.2834 5.82C82.59 4.60667 84.4434 4 86.8434 4ZM111.724 18V12.78H106.864V18H102.444V4.24H106.864V9.26H111.724V4.24H116.144V18H111.724ZM127.924 18L127.344 16.06H122.524L121.944 18H117.424L122.444 4.24H127.584L132.604 18H127.924ZM123.444 12.98H126.424L124.984 8.08H124.904L123.444 12.98ZM143.71 18L137.93 11.32V18H133.87V4.24H137.73L143.51 11.02V4.24H147.57V18H143.71ZM165.551 4.24C166.244 4.24 166.877 4.38667 167.451 4.68C168.037 4.96 168.497 5.36 168.831 5.88C169.177 6.4 169.351 6.98 169.351 7.62C169.351 9.31333 168.584 10.38 167.051 10.82V10.9C168.797 11.3 169.671 12.4467 169.671 14.34C169.671 15.06 169.491 15.7 169.131 16.26C168.784 16.8067 168.304 17.2333 167.691 17.54C167.077 17.8467 166.404 18 165.671 18H156.391V4.24H165.551ZM160.811 9.6H163.851C164.144 9.6 164.384 9.5 164.571 9.3C164.771 9.08667 164.871 8.82667 164.871 8.52V8.32C164.871 8.02667 164.771 7.78 164.571 7.58C164.371 7.36667 164.131 7.26 163.851 7.26H160.811V9.6ZM160.811 14.8H164.171C164.464 14.8 164.704 14.7 164.891 14.5C165.091 14.2867 165.191 14.0267 165.191 13.72V13.52C165.191 13.2133 165.091 12.96 164.891 12.76C164.704 12.5467 164.464 12.44 164.171 12.44H160.811V14.8ZM171.757 18V4.24H176.177V18H171.757ZM188.77 18L182.99 11.32V18H178.93V4.24H182.79L188.57 11.02V4.24H192.63V18H188.77Z"/>
</mask>
<path d="M39.1495 4C40.9095 4 42.3561 4.36 43.4895 5.08C44.6228 5.78667 45.2028 6.84 45.2295 8.24V8.48H41.0895V8.4C41.0895 8 40.9428 7.66667 40.6495 7.4C40.3561 7.13333 39.9095 7 39.3095 7C38.7228 7 38.2695 7.08667 37.9495 7.26C37.6428 7.43333 37.4895 7.64667 37.4895 7.9C37.4895 8.26 37.7028 8.52667 38.1295 8.7C38.5561 8.87333 39.2428 9.05333 40.1895 9.24C41.2961 9.46667 42.2028 9.70667 42.9095 9.96C43.6295 10.2 44.2561 10.6 44.7895 11.16C45.3228 11.72 45.5961 12.48 45.6095 13.44C45.6095 15.0667 45.0561 16.2733 43.9495 17.06C42.8561 17.8467 41.3895 18.24 39.5495 18.24C37.4028 18.24 35.7295 17.88 34.5295 17.16C33.3428 16.44 32.7495 15.1667 32.7495 13.34H36.9295C36.9295 14.0333 37.1095 14.5 37.4695 14.74C37.8295 14.9667 38.3895 15.08 39.1495 15.08C39.7095 15.08 40.1695 15.02 40.5295 14.9C40.9028 14.78 41.0895 14.5333 41.0895 14.16C41.0895 13.8267 40.8828 13.58 40.4695 13.42C40.0695 13.2467 39.4095 13.0667 38.4895 12.88C37.3695 12.64 36.4428 12.3933 35.7095 12.14C34.9761 11.8733 34.3361 11.44 33.7895 10.84C33.2428 10.24 32.9695 9.42667 32.9695 8.4C32.9695 6.89333 33.5495 5.78667 34.7095 5.08C35.8828 4.36 37.3628 4 39.1495 4ZM61.103 12.46C61.103 14.34 60.5097 15.7733 59.323 16.76C58.1364 17.7467 56.4497 18.24 54.263 18.24C52.0764 18.24 50.383 17.7467 49.183 16.76C47.9964 15.7733 47.403 14.34 47.403 12.46V4.24H51.823V12.4C51.823 13.1733 52.0297 13.7933 52.443 14.26C52.8564 14.7133 53.4564 14.94 54.243 14.94C55.0297 14.94 55.6297 14.7067 56.043 14.24C56.4697 13.7733 56.683 13.16 56.683 12.4V4.24H61.103V12.46ZM73.5032 18L67.7232 11.32V18H63.6632V4.24H67.5232L73.3032 11.02V4.24H77.3632V18H73.5032ZM86.8434 4C88.1634 4 89.35 4.2 90.4034 4.6C91.4567 5 92.29 5.59333 92.9034 6.38C93.53 7.15333 93.8434 8.1 93.8434 9.22H89.6234C89.6234 8.64667 89.37 8.18667 88.8634 7.84C88.3567 7.48 87.7434 7.3 87.0234 7.3C85.9834 7.3 85.1967 7.58 84.6634 8.14C84.13 8.68667 83.8634 9.46667 83.8634 10.48V11.76C83.8634 12.7733 84.13 13.56 84.6634 14.12C85.1967 14.6667 85.9834 14.94 87.0234 14.94C87.7434 14.94 88.3567 14.7733 88.8634 14.44C89.37 14.0933 89.6234 13.6533 89.6234 13.12H86.5034V10.32H93.8434V18H91.5634L91.1234 16.64C89.87 17.7067 88.23 18.24 86.2034 18.24C83.9234 18.24 82.21 17.6467 81.0634 16.46C79.9167 15.26 79.3434 13.48 79.3434 11.12C79.3434 8.78667 79.99 7.02 81.2834 5.82C82.59 4.60667 84.4434 4 86.8434 4ZM111.724 18V12.78H106.864V18H102.444V4.24H106.864V9.26H111.724V4.24H116.144V18H111.724ZM127.924 18L127.344 16.06H122.524L121.944 18H117.424L122.444 4.24H127.584L132.604 18H127.924ZM123.444 12.98H126.424L124.984 8.08H124.904L123.444 12.98ZM143.71 18L137.93 11.32V18H133.87V4.24H137.73L143.51 11.02V4.24H147.57V18H143.71ZM165.551 4.24C166.244 4.24 166.877 4.38667 167.451 4.68C168.037 4.96 168.497 5.36 168.831 5.88C169.177 6.4 169.351 6.98 169.351 7.62C169.351 9.31333 168.584 10.38 167.051 10.82V10.9C168.797 11.3 169.671 12.4467 169.671 14.34C169.671 15.06 169.491 15.7 169.131 16.26C168.784 16.8067 168.304 17.2333 167.691 17.54C167.077 17.8467 166.404 18 165.671 18H156.391V4.24H165.551ZM160.811 9.6H163.851C164.144 9.6 164.384 9.5 164.571 9.3C164.771 9.08667 164.871 8.82667 164.871 8.52V8.32C164.871 8.02667 164.771 7.78 164.571 7.58C164.371 7.36667 164.131 7.26 163.851 7.26H160.811V9.6ZM160.811 14.8H164.171C164.464 14.8 164.704 14.7 164.891 14.5C165.091 14.2867 165.191 14.0267 165.191 13.72V13.52C165.191 13.2133 165.091 12.96 164.891 12.76C164.704 12.5467 164.464 12.44 164.171 12.44H160.811V14.8ZM171.757 18V4.24H176.177V18H171.757ZM188.77 18L182.99 11.32V18H178.93V4.24H182.79L188.57 11.02V4.24H192.63V18H188.77Z" fill="black"/>
<path d="M43.4895 5.08L42.417 6.76814C42.4217 6.77115 42.4265 6.77414 42.4312 6.77712L43.4895 5.08ZM45.2295 8.24H47.2295C47.2295 8.2273 47.2293 8.21461 47.2291 8.20191L45.2295 8.24ZM45.2295 8.48V10.48C46.334 10.48 47.2295 9.58457 47.2295 8.48H45.2295ZM41.0895 8.48H39.0895C39.0895 9.58457 39.9849 10.48 41.0895 10.48V8.48ZM40.6495 7.4L41.9948 5.92012V5.92012L40.6495 7.4ZM37.9495 7.26L36.9969 5.50142C36.9863 5.50714 36.9758 5.51296 36.9653 5.51887L37.9495 7.26ZM38.1295 8.7L38.8822 6.84707L38.8822 6.84707L38.1295 8.7ZM40.1894 9.24L40.5908 7.28067C40.586 7.27969 40.5812 7.27873 40.5764 7.27778L40.1894 9.24ZM42.9095 9.96L42.2345 11.8427C42.2486 11.8477 42.2628 11.8526 42.277 11.8574L42.9095 9.96ZM45.6095 13.44H47.6095C47.6095 13.4307 47.6094 13.4215 47.6093 13.4122L45.6095 13.44ZM43.9495 17.06L42.7907 15.4299L42.7814 15.4366L43.9495 17.06ZM34.5294 17.16L33.492 18.8699L33.5005 18.875L34.5294 17.16ZM32.7495 13.34V11.34C31.6449 11.34 30.7495 12.2354 30.7495 13.34H32.7495ZM36.9295 13.34H38.9295C38.9295 12.2354 38.034 11.34 36.9295 11.34V13.34ZM37.4695 14.74L36.3601 16.4041C36.3745 16.4137 36.3891 16.4232 36.4038 16.4325L37.4695 14.74ZM40.5294 14.9L39.9174 12.9959C39.9106 12.9981 39.9038 13.0004 39.897 13.0026L40.5294 14.9ZM40.4695 13.42L39.6742 15.2551C39.6984 15.2656 39.7229 15.2756 39.7475 15.2851L40.4695 13.42ZM38.4894 12.88L38.0704 14.8356C38.0775 14.8371 38.0846 14.8386 38.0918 14.8401L38.4894 12.88ZM35.7094 12.14L35.026 14.0196C35.0361 14.0233 35.0462 14.0269 35.0564 14.0304L35.7094 12.14ZM33.7895 10.84L32.3111 12.187V12.187L33.7895 10.84ZM34.7094 5.08L35.75 6.78803L35.7555 6.78464L34.7094 5.08ZM39.1494 6C40.6454 6 41.6897 6.30611 42.417 6.76814L44.5619 3.39186C43.0225 2.41389 41.1735 2 39.1494 2V6ZM42.4312 6.77712C42.9577 7.10535 43.2153 7.51542 43.2298 8.27809L47.2291 8.20191C47.1903 6.16458 46.2879 4.46798 44.5477 3.38288L42.4312 6.77712ZM43.2295 8.24V8.48H47.2295V8.24H43.2295ZM45.2295 6.48H41.0895V10.48H45.2295V6.48ZM43.0895 8.48V8.4H39.0895V8.48H43.0895ZM43.0895 8.4C43.0895 7.44231 42.7094 6.56971 41.9948 5.92012L39.3041 8.87988C39.2621 8.84172 39.1979 8.76709 39.1488 8.65548C39.0999 8.54429 39.0895 8.44984 39.0895 8.4H43.0895ZM41.9948 5.92012C41.1837 5.18279 40.1589 5 39.3095 5V9C39.3862 9 39.4414 9.00431 39.478 9.00897C39.5145 9.01363 39.5277 9.01803 39.5224 9.01644C39.5166 9.01472 39.4899 9.00618 39.4497 8.98441C39.4085 8.96219 39.3575 8.9284 39.3041 8.87988L41.9948 5.92012ZM39.3095 5C38.5723 5 37.736 5.10106 36.9969 5.50142L38.902 9.01858C38.8405 9.05192 38.8287 9.04402 38.905 9.02942C38.9799 9.0151 39.11 9 39.3095 9V5ZM36.9653 5.51887C36.3067 5.89112 35.4894 6.65653 35.4894 7.9H39.4894C39.4894 8.20846 39.3866 8.49727 39.2285 8.71727C39.0886 8.91183 38.951 8.9913 38.9336 9.00113L36.9653 5.51887ZM35.4894 7.9C35.4894 8.50766 35.6812 9.11129 36.0877 9.61939C36.4696 10.0968 36.9526 10.3806 37.3767 10.5529L38.8822 6.84707C38.8854 6.84836 38.924 6.86416 38.9825 6.90442C39.0424 6.9456 39.1265 7.01473 39.2112 7.12061C39.4043 7.36205 39.4894 7.65234 39.4894 7.9H35.4894ZM37.3767 10.5529C37.9908 10.8024 38.8356 11.0116 39.8025 11.2022L40.5764 7.27778C39.65 7.09511 39.1214 6.94424 38.8822 6.84707L37.3767 10.5529ZM39.7881 11.1993C40.8433 11.4154 41.6496 11.633 42.2345 11.8427L43.5844 8.07732C42.756 7.78034 41.749 7.5179 40.5908 7.28067L39.7881 11.1993ZM42.277 11.8574C42.6807 11.9919 43.0289 12.2114 43.3412 12.5393L46.2377 9.78069C45.4833 8.98858 44.5782 8.40806 43.5419 8.06263L42.277 11.8574ZM43.3412 12.5393C43.4481 12.6516 43.6015 12.8843 43.6096 13.4678L47.6093 13.4122C47.5907 12.0757 47.1975 10.7884 46.2377 9.78069L43.3412 12.5393ZM43.6095 13.44C43.6095 14.5648 43.2611 15.0955 42.7907 15.4299L45.1082 18.6901C46.8511 17.4512 47.6095 15.5685 47.6095 13.44H43.6095ZM42.7814 15.4366C42.1328 15.9032 41.1206 16.24 39.5494 16.24V20.24C41.6583 20.24 43.5794 19.7902 45.1175 18.6834L42.7814 15.4366ZM39.5494 16.24C37.5871 16.24 36.3239 15.9043 35.5584 15.445L33.5005 18.875C35.135 19.8557 37.2185 20.24 39.5494 20.24V16.24ZM35.5669 15.4501C35.1646 15.206 34.7495 14.718 34.7495 13.34H30.7495C30.7495 15.6153 31.521 17.674 33.492 18.8699L35.5669 15.4501ZM32.7495 15.34H36.9295V11.34H32.7495V15.34ZM34.9295 13.34C34.9295 14.2873 35.1699 15.6107 36.3601 16.4041L38.5788 13.0759C38.6776 13.1417 38.7596 13.2211 38.8223 13.3032C38.8835 13.3832 38.9155 13.4515 38.9305 13.4903C38.956 13.5566 38.9295 13.5288 38.9295 13.34H34.9295ZM36.4038 16.4325C37.2468 16.9632 38.2694 17.08 39.1494 17.08V13.08C38.8619 13.08 38.6709 13.058 38.5562 13.0347C38.4371 13.0106 38.4532 12.996 38.5351 13.0475L36.4038 16.4325ZM39.1494 17.08C39.8321 17.08 40.5258 17.0094 41.1619 16.7974L39.897 13.0026C39.8131 13.0306 39.5868 13.08 39.1494 13.08V17.08ZM41.1415 16.8041C41.6145 16.652 42.1436 16.3613 42.5443 15.8319C42.9514 15.2939 43.0895 14.6897 43.0895 14.16H39.0895C39.0895 14.0036 39.1342 13.7095 39.3546 13.4181C39.5686 13.1353 39.8177 13.028 39.9174 12.9959L41.1415 16.8041ZM43.0895 14.16C43.0895 13.542 42.884 12.9377 42.4675 12.4406C42.0807 11.9789 41.6 11.713 41.1914 11.5549L39.7475 15.2851C39.744 15.2838 39.7043 15.2683 39.6438 15.2286C39.582 15.1881 39.4928 15.1185 39.4014 15.0094C39.1915 14.7589 39.0895 14.4447 39.0895 14.16H43.0895ZM41.2647 11.5849C40.6599 11.3228 39.8247 11.1102 38.8871 10.9199L38.0918 14.8401C38.9942 15.0232 39.479 15.1705 39.6742 15.2551L41.2647 11.5849ZM38.9085 10.9244C37.8342 10.6942 36.9925 10.4673 36.3625 10.2496L35.0564 14.0304C35.8931 14.3194 36.9047 14.5858 38.0704 14.8356L38.9085 10.9244ZM36.3929 10.2604C35.9762 10.1089 35.6056 9.86374 35.2678 9.49302L32.3111 12.187C33.0666 13.0163 33.9761 13.6378 35.026 14.0196L36.3929 10.2604ZM35.2678 9.49302C35.1388 9.35139 34.9695 9.06529 34.9695 8.4H30.9694C30.9694 9.78804 31.3468 11.1286 32.3111 12.187L35.2678 9.49302ZM34.9695 8.4C34.9695 7.49981 35.2598 7.08661 35.75 6.78802L33.6689 3.37198C31.8391 4.48672 30.9694 6.28685 30.9694 8.4H34.9695ZM35.7555 6.78464C36.5333 6.30734 37.6241 6 39.1494 6V2C37.1014 2 35.2323 2.41265 33.6634 3.37535L35.7555 6.78464ZM59.323 16.76L58.0444 15.2221L58.0444 15.2221L59.323 16.76ZM49.183 16.76L47.9044 18.2979L47.9128 18.3049L49.183 16.76ZM47.403 4.24V2.24C46.2985 2.24 45.403 3.13543 45.403 4.24H47.403ZM51.823 4.24H53.823C53.823 3.13543 52.9276 2.24 51.823 2.24V4.24ZM52.443 14.26L50.9459 15.5861C50.9522 15.5933 50.9587 15.6004 50.9651 15.6075L52.443 14.26ZM56.043 14.24L54.567 12.8905C54.5599 12.8982 54.5528 12.9061 54.5459 12.9139L56.043 14.24ZM56.683 4.24V2.24C55.5785 2.24 54.683 3.13543 54.683 4.24H56.683ZM61.103 4.24H63.103C63.103 3.13543 62.2076 2.24 61.103 2.24V4.24ZM59.103 12.46C59.103 13.8881 58.6748 14.698 58.0444 15.2221L60.6017 18.2979C62.3446 16.8487 63.103 14.7919 63.103 12.46H59.103ZM58.0444 15.2221C57.3409 15.8071 56.1742 16.24 54.263 16.24V20.24C56.7252 20.24 58.9319 19.6862 60.6017 18.2979L58.0444 15.2221ZM54.263 16.24C52.3537 16.24 51.1741 15.8078 50.4533 15.2151L47.9128 18.3049C49.592 19.6855 51.799 20.24 54.263 20.24V16.24ZM50.4617 15.2221C49.8313 14.698 49.403 13.8881 49.403 12.46H45.403C45.403 14.7919 46.1615 16.8487 47.9044 18.2979L50.4617 15.2221ZM49.403 12.46V4.24H45.403V12.46H49.403ZM47.403 6.24H51.823V2.24H47.403V6.24ZM49.823 4.24V12.4H53.823V4.24H49.823ZM49.823 12.4C49.823 13.5397 50.1358 14.6715 50.9459 15.5861L53.9402 12.9339C53.9236 12.9152 53.823 12.8069 53.823 12.4H49.823ZM50.9651 15.6075C51.8579 16.5867 53.0627 16.94 54.243 16.94V12.94C54.0383 12.94 53.9393 12.9102 53.9098 12.8991C53.8907 12.8918 53.9057 12.8957 53.921 12.9125L50.9651 15.6075ZM54.243 16.94C55.4412 16.94 56.6522 16.5687 57.5402 15.5661L54.5459 12.9139C54.548 12.9115 54.5538 12.9059 54.5613 12.9007C54.5686 12.8956 54.5694 12.8966 54.5582 12.901C54.5343 12.9103 54.4418 12.94 54.243 12.94V16.94ZM57.5191 15.5895C58.3483 14.6826 58.683 13.553 58.683 12.4H54.683C54.683 12.767 54.5911 12.8641 54.567 12.8905L57.5191 15.5895ZM58.683 12.4V4.24H54.683V12.4H58.683ZM56.683 6.24H61.103V2.24H56.683V6.24ZM59.103 4.24V12.46H63.103V4.24H59.103ZM73.5032 18L71.9908 19.3087C72.3707 19.7477 72.9226 20 73.5032 20V18ZM67.7232 11.32L69.2356 10.0113C68.6891 9.37972 67.8076 9.15424 67.0249 9.44585C66.2422 9.73746 65.7232 10.4848 65.7232 11.32H67.7232ZM67.7232 18V20C68.8278 20 69.7232 19.1046 69.7232 18H67.7232ZM63.6632 18H61.6632C61.6632 19.1046 62.5586 20 63.6632 20V18ZM63.6632 4.24V2.24C62.5586 2.24 61.6632 3.13543 61.6632 4.24H63.6632ZM67.5232 4.24L69.0452 2.94249C68.6652 2.49676 68.1089 2.24 67.5232 2.24V4.24ZM73.3032 11.02L71.7812 12.3175C72.3248 12.9552 73.2083 13.1864 73.9946 12.8967C74.7809 12.607 75.3032 11.8579 75.3032 11.02H73.3032ZM73.3032 4.24V2.24C72.1986 2.24 71.3032 3.13543 71.3032 4.24H73.3032ZM77.3632 4.24H79.3632C79.3632 3.13543 78.4678 2.24 77.3632 2.24V4.24ZM77.3632 18V20C78.4678 20 79.3632 19.1046 79.3632 18H77.3632ZM75.0156 16.6913L69.2356 10.0113L66.2108 12.6287L71.9908 19.3087L75.0156 16.6913ZM65.7232 11.32V18H69.7232V11.32H65.7232ZM67.7232 16H63.6632V20H67.7232V16ZM65.6632 18V4.24H61.6632V18H65.6632ZM63.6632 6.24H67.5232V2.24H63.6632V6.24ZM66.0012 5.53751L71.7812 12.3175L74.8252 9.72249L69.0452 2.94249L66.0012 5.53751ZM75.3032 11.02V4.24H71.3032V11.02H75.3032ZM73.3032 6.24H77.3632V2.24H73.3032V6.24ZM75.3632 4.24V18H79.3632V4.24H75.3632ZM77.3632 16H73.5032V20H77.3632V16ZM90.4034 4.6L89.6933 6.46972V6.46972L90.4034 4.6ZM92.9034 6.38L91.3261 7.60973C91.3338 7.61962 91.3416 7.62943 91.3495 7.63917L92.9034 6.38ZM93.8434 9.22V11.22C94.9479 11.22 95.8434 10.3246 95.8434 9.22H93.8434ZM89.6234 9.22H87.6234C87.6234 10.3246 88.5188 11.22 89.6234 11.22V9.22ZM88.8634 7.84L87.7049 9.47036C87.7146 9.4772 87.7243 9.48395 87.734 9.49061L88.8634 7.84ZM84.6634 8.14L86.0949 9.53665C86.1005 9.5309 86.1061 9.52512 86.1116 9.51931L84.6634 8.14ZM84.6634 14.12L83.2151 15.4993C83.2206 15.5051 83.2262 15.5109 83.2318 15.5166L84.6634 14.12ZM88.8634 14.44L89.9626 16.1108C89.9727 16.1042 89.9827 16.0974 89.9927 16.0906L88.8634 14.44ZM89.6234 13.12H91.6234C91.6234 12.0154 90.7279 11.12 89.6234 11.12V13.12ZM86.5034 13.12H84.5034C84.5034 14.2246 85.3988 15.12 86.5034 15.12V13.12ZM86.5034 10.32V8.32C85.3988 8.32 84.5034 9.21543 84.5034 10.32H86.5034ZM93.8434 10.32H95.8434C95.8434 9.21543 94.9479 8.32 93.8434 8.32V10.32ZM93.8434 18V20C94.9479 20 95.8434 19.1046 95.8434 18H93.8434ZM91.5634 18L89.6605 18.6156C89.9275 19.4409 90.696 20 91.5634 20V18ZM91.1234 16.64L93.0262 16.0244C92.8207 15.389 92.3116 14.8981 91.6691 14.7159C91.0267 14.5337 90.3357 14.6841 89.8271 15.1169L91.1234 16.64ZM81.0634 16.46L79.6174 17.8417L79.6251 17.8498L81.0634 16.46ZM81.2834 5.82L82.6437 7.28613L82.6443 7.28559L81.2834 5.82ZM86.8434 6C87.9616 6 88.9021 6.16925 89.6933 6.46972L91.1134 2.73028C89.798 2.23075 88.3651 2 86.8434 2V6ZM89.6933 6.46972C90.4499 6.75701 90.9659 7.14777 91.3261 7.60973L94.4806 5.15027C93.6141 4.03889 92.4635 3.24299 91.1134 2.73028L89.6933 6.46972ZM91.3495 7.63917C91.6515 8.01179 91.8434 8.49767 91.8434 9.22H95.8434C95.8434 7.70233 95.4086 6.29487 94.4572 5.12083L91.3495 7.63917ZM93.8434 7.22H89.6234V11.22H93.8434V7.22ZM91.6234 9.22C91.6234 7.93307 90.9986 6.87763 89.9927 6.18939L87.734 9.49061C87.7726 9.51703 87.7294 9.49677 87.6815 9.40981C87.659 9.36901 87.643 9.32659 87.6334 9.28747C87.624 9.24921 87.6234 9.22477 87.6234 9.22H91.6234ZM90.0218 6.20964C89.1252 5.57262 88.0906 5.3 87.0234 5.3V9.3C87.3962 9.3 87.5882 9.38738 87.7049 9.47036L90.0218 6.20964ZM87.0234 5.3C85.6319 5.3 84.2425 5.68189 83.2151 6.76069L86.1116 9.51931C86.1509 9.47811 86.3348 9.3 87.0234 9.3V5.3ZM83.2318 6.74335C82.2273 7.77293 81.8634 9.12063 81.8634 10.48H85.8634C85.8634 9.8127 86.0327 9.6004 86.0949 9.53665L83.2318 6.74335ZM81.8634 10.48V11.76H85.8634V10.48H81.8634ZM81.8634 11.76C81.8634 13.1224 82.2284 14.4633 83.2151 15.4993L86.1116 12.7407C86.0316 12.6567 85.8634 12.4242 85.8634 11.76H81.8634ZM83.2318 15.5166C84.2617 16.5723 85.645 16.94 87.0234 16.94V12.94C86.3217 12.94 86.1316 12.761 86.0949 12.7234L83.2318 15.5166ZM87.0234 16.94C88.0597 16.94 89.0725 16.6964 89.9626 16.1108L87.7641 12.7692C87.6409 12.8502 87.427 12.94 87.0234 12.94V16.94ZM89.9927 16.0906C90.9489 15.4364 91.6234 14.4212 91.6234 13.12H87.6234C87.6234 13.0936 87.6267 13.0512 87.6403 12.9987C87.6541 12.9457 87.6751 12.8955 87.7001 12.8521C87.7513 12.7632 87.7906 12.7506 87.734 12.7894L89.9927 16.0906ZM89.6234 11.12H86.5034V15.12H89.6234V11.12ZM88.5034 13.12V10.32H84.5034V13.12H88.5034ZM86.5034 12.32H93.8434V8.32H86.5034V12.32ZM91.8434 10.32V18H95.8434V10.32H91.8434ZM93.8434 16H91.5634V20H93.8434V16ZM93.4662 17.3844L93.0262 16.0244L89.2205 17.2556L89.6605 18.6156L93.4662 17.3844ZM89.8271 15.1169C89.0138 15.8091 87.869 16.24 86.2034 16.24V20.24C88.5911 20.24 90.7263 19.6042 92.4196 18.1631L89.8271 15.1169ZM86.2034 16.24C84.2534 16.24 83.1458 15.7369 82.5016 15.0702L79.6251 17.8498C81.2743 19.5564 83.5933 20.24 86.2034 20.24V16.24ZM82.5093 15.0783C81.8445 14.3826 81.3434 13.1829 81.3434 11.12H77.3434C77.3434 13.7771 77.9889 16.1374 79.6174 17.8417L82.5093 15.0783ZM81.3434 11.12C81.3434 9.15491 81.8783 7.99629 82.6437 7.28612L79.923 4.35387C78.1018 6.0437 77.3434 8.41842 77.3434 11.12H81.3434ZM82.6443 7.28559C83.4686 6.52016 84.7704 6 86.8434 6V2C84.1164 2 81.7115 2.69317 79.9225 4.35441L82.6443 7.28559ZM111.724 18H109.724C109.724 19.1046 110.619 20 111.724 20V18ZM111.724 12.78H113.724C113.724 11.6754 112.828 10.78 111.724 10.78V12.78ZM106.864 12.78V10.78C105.759 10.78 104.864 11.6754 104.864 12.78H106.864ZM106.864 18V20C107.968 20 108.864 19.1046 108.864 18H106.864ZM102.444 18H100.444C100.444 19.1046 101.339 20 102.444 20V18ZM102.444 4.24V2.24C101.339 2.24 100.444 3.13543 100.444 4.24H102.444ZM106.864 4.24H108.864C108.864 3.13543 107.968 2.24 106.864 2.24V4.24ZM106.864 9.26H104.864C104.864 10.3646 105.759 11.26 106.864 11.26V9.26ZM111.724 9.26V11.26C112.828 11.26 113.724 10.3646 113.724 9.26H111.724ZM111.724 4.24V2.24C110.619 2.24 109.724 3.13543 109.724 4.24H111.724ZM116.144 4.24H118.144C118.144 3.13543 117.248 2.24 116.144 2.24V4.24ZM116.144 18V20C117.248 20 118.144 19.1046 118.144 18H116.144ZM113.724 18V12.78H109.724V18H113.724ZM111.724 10.78H106.864V14.78H111.724V10.78ZM104.864 12.78V18H108.864V12.78H104.864ZM106.864 16H102.444V20H106.864V16ZM104.444 18V4.24H100.444V18H104.444ZM102.444 6.24H106.864V2.24H102.444V6.24ZM104.864 4.24V9.26H108.864V4.24H104.864ZM106.864 11.26H111.724V7.26H106.864V11.26ZM113.724 9.26V4.24H109.724V9.26H113.724ZM111.724 6.24H116.144V2.24H111.724V6.24ZM114.144 4.24V18H118.144V4.24H114.144ZM116.144 16H111.724V20H116.144V16ZM127.924 18L126.008 18.5729C126.261 19.4198 127.04 20 127.924 20V18ZM127.344 16.06L129.26 15.4871C129.007 14.6402 128.228 14.06 127.344 14.06V16.06ZM122.524 16.06V14.06C121.64 14.06 120.861 14.6402 120.608 15.4871L122.524 16.06ZM121.944 18V20C122.828 20 123.607 19.4198 123.86 18.5729L121.944 18ZM117.424 18L115.545 17.3145C115.321 17.9278 115.411 18.6117 115.785 19.1465C116.159 19.6814 116.771 20 117.424 20V18ZM122.444 4.24V2.24C121.604 2.24 120.853 2.76519 120.565 3.55454L122.444 4.24ZM127.584 4.24L129.463 3.55454C129.175 2.76519 128.424 2.24 127.584 2.24V4.24ZM132.604 18V20C133.257 20 133.868 19.6814 134.243 19.1465C134.617 18.6117 134.706 17.9278 134.483 17.3145L132.604 18ZM123.444 12.98L121.527 12.4089C121.347 13.0141 121.463 13.669 121.84 14.1754C122.218 14.6817 122.812 14.98 123.444 14.98V12.98ZM126.424 12.98V14.98C127.054 14.98 127.647 14.6829 128.025 14.1784C128.403 13.6738 128.52 13.0208 128.343 12.4161L126.424 12.98ZM124.984 8.08L126.903 7.51609C126.652 6.66471 125.871 6.08 124.984 6.08V8.08ZM124.904 8.08V6.08C124.019 6.08 123.24 6.66112 122.987 7.50889L124.904 8.08ZM129.84 17.4271L129.26 15.4871L125.428 16.6329L126.008 18.5729L129.84 17.4271ZM127.344 14.06H122.524V18.06H127.344V14.06ZM120.608 15.4871L120.028 17.4271L123.86 18.5729L124.44 16.6329L120.608 15.4871ZM121.944 16H117.424V20H121.944V16ZM119.303 18.6855L124.323 4.92546L120.565 3.55454L115.545 17.3145L119.303 18.6855ZM122.444 6.24H127.584V2.24H122.444V6.24ZM125.705 4.92546L130.725 18.6855L134.483 17.3145L129.463 3.55454L125.705 4.92546ZM132.604 16H127.924V20H132.604V16ZM123.444 14.98H126.424V10.98H123.444V14.98ZM128.343 12.4161L126.903 7.51609L123.065 8.64391L124.505 13.5439L128.343 12.4161ZM124.984 6.08H124.904V10.08H124.984V6.08ZM122.987 7.50889L121.527 12.4089L125.361 13.5511L126.821 8.65111L122.987 7.50889ZM143.71 18L142.198 19.3087C142.578 19.7477 143.13 20 143.71 20V18ZM137.93 11.32L139.443 10.0113C138.896 9.37972 138.015 9.15424 137.232 9.44585C136.449 9.73746 135.93 10.4848 135.93 11.32H137.93ZM137.93 18V20C139.035 20 139.93 19.1046 139.93 18H137.93ZM133.87 18H131.87C131.87 19.1046 132.766 20 133.87 20V18ZM133.87 4.24V2.24C132.766 2.24 131.87 3.13543 131.87 4.24H133.87ZM137.73 4.24L139.252 2.94249C138.872 2.49676 138.316 2.24 137.73 2.24V4.24ZM143.51 11.02L141.988 12.3175C142.532 12.9552 143.415 13.1864 144.202 12.8967C144.988 12.607 145.51 11.8579 145.51 11.02H143.51ZM143.51 4.24V2.24C142.406 2.24 141.51 3.13543 141.51 4.24H143.51ZM147.57 4.24H149.57C149.57 3.13543 148.675 2.24 147.57 2.24V4.24ZM147.57 18V20C148.675 20 149.57 19.1046 149.57 18H147.57ZM145.223 16.6913L139.443 10.0113L136.418 12.6287L142.198 19.3087L145.223 16.6913ZM135.93 11.32V18H139.93V11.32H135.93ZM137.93 16H133.87V20H137.93V16ZM135.87 18V4.24H131.87V18H135.87ZM133.87 6.24H137.73V2.24H133.87V6.24ZM136.208 5.53751L141.988 12.3175L145.032 9.72249L139.252 2.94249L136.208 5.53751ZM145.51 11.02V4.24H141.51V11.02H145.51ZM143.51 6.24H147.57V2.24H143.51V6.24ZM145.57 4.24V18H149.57V4.24H145.57ZM147.57 16H143.71V20H147.57V16ZM167.451 4.68L166.54 6.4605C166.556 6.46888 166.572 6.47704 166.589 6.48496L167.451 4.68ZM168.831 5.88L167.147 6.95933C167.153 6.96941 167.16 6.97944 167.166 6.9894L168.831 5.88ZM167.051 10.82L166.499 8.89758C165.641 9.14365 165.051 9.92789 165.051 10.82H167.051ZM167.051 10.9H165.051C165.051 11.8326 165.695 12.6414 166.604 12.8495L167.051 10.9ZM169.131 16.26L167.448 15.1785L167.442 15.1889L169.131 16.26ZM156.391 18H154.391C154.391 19.1046 155.286 20 156.391 20V18ZM156.391 4.24V2.24C155.286 2.24 154.391 3.13543 154.391 4.24H156.391ZM160.811 9.6H158.811C158.811 10.7046 159.706 11.6 160.811 11.6V9.6ZM164.571 9.3L163.111 7.93211L163.108 7.93536L164.571 9.3ZM164.571 7.58L163.111 8.94788C163.126 8.96357 163.141 8.97901 163.156 8.99421L164.571 7.58ZM160.811 7.26V5.26C159.706 5.26 158.811 6.15543 158.811 7.26H160.811ZM160.811 14.8H158.811C158.811 15.9046 159.706 16.8 160.811 16.8V14.8ZM164.891 14.5L163.431 13.1321L163.428 13.1354L164.891 14.5ZM164.891 12.76L163.385 14.077C163.415 14.1104 163.445 14.1428 163.476 14.1742L164.891 12.76ZM160.811 12.44V10.44C159.706 10.44 158.811 11.3354 158.811 12.44H160.811ZM165.551 6.24C165.952 6.24 166.27 6.32233 166.54 6.4605L168.362 2.8995C167.485 2.451 166.536 2.24 165.551 2.24V6.24ZM166.589 6.48496C166.858 6.61324 167.025 6.76989 167.147 6.95933L170.514 4.80067C169.969 3.95011 169.217 3.30676 168.312 2.87504L166.589 6.48496ZM167.166 6.9894C167.289 7.17257 167.351 7.36476 167.351 7.62H171.351C171.351 6.59524 171.066 5.62743 170.495 4.7706L167.166 6.9894ZM167.351 7.62C167.351 8.16885 167.228 8.41614 167.152 8.52273C167.083 8.61771 166.929 8.77419 166.499 8.89758L167.602 12.7424C168.706 12.4258 169.701 11.829 170.4 10.8573C171.09 9.8972 171.351 8.76448 171.351 7.62H167.351ZM165.051 10.82V10.9H169.051V10.82H165.051ZM166.604 12.8495C167.136 12.9713 167.335 13.1544 167.424 13.2718C167.523 13.4015 167.671 13.6938 167.671 14.34H171.671C171.671 13.0928 171.381 11.8652 170.607 10.8482C169.823 9.81894 168.712 9.22874 167.497 8.95047L166.604 12.8495ZM167.671 14.34C167.671 14.7091 167.584 14.9674 167.448 15.1785L170.813 17.3415C171.397 16.4326 171.671 15.4109 171.671 14.34H167.671ZM167.442 15.1889C167.301 15.4101 167.104 15.597 166.796 15.7511L168.585 19.3289C169.503 18.8696 170.267 18.2032 170.82 17.3311L167.442 15.1889ZM166.796 15.7511C166.48 15.9094 166.115 16 165.671 16V20C166.692 20 167.675 19.7839 168.585 19.3289L166.796 15.7511ZM165.671 16H156.391V20H165.671V16ZM158.391 18V4.24H154.391V18H158.391ZM156.391 6.24H165.551V2.24H156.391V6.24ZM160.811 11.6H163.851V7.6H160.811V11.6ZM163.851 11.6C164.653 11.6 165.438 11.3015 166.033 10.6646L163.108 7.93536C163.199 7.8385 163.325 7.74394 163.481 7.67885C163.634 7.61507 163.767 7.6 163.851 7.6V11.6ZM166.03 10.6679C166.595 10.0644 166.871 9.30751 166.871 8.52H162.871C162.871 8.45262 162.882 8.34818 162.929 8.22704C162.976 8.10425 163.044 8.00424 163.111 7.93212L166.03 10.6679ZM166.871 8.52V8.32H162.871V8.52H166.871ZM166.871 8.32C166.871 7.5182 166.575 6.75611 165.985 6.16578L163.156 8.99421C163.079 8.91694 162.999 8.80649 162.942 8.66641C162.886 8.52779 162.871 8.40455 162.871 8.32H166.871ZM166.03 6.21212C165.47 5.61563 164.71 5.26 163.851 5.26V9.26C163.73 9.26 163.581 9.23534 163.428 9.16762C163.278 9.10077 163.173 9.01399 163.111 8.94788L166.03 6.21212ZM163.851 5.26H160.811V9.26H163.851V5.26ZM158.811 7.26V9.6H162.811V7.26H158.811ZM160.811 16.8H164.171V12.8H160.811V16.8ZM164.171 16.8C164.973 16.8 165.758 16.5015 166.353 15.8646L163.428 13.1354C163.519 13.0385 163.645 12.9439 163.801 12.8788C163.954 12.8151 164.087 12.8 164.171 12.8V16.8ZM166.35 15.8679C166.915 15.2644 167.191 14.5075 167.191 13.72H163.191C163.191 13.6526 163.202 13.5482 163.249 13.427C163.296 13.3042 163.364 13.2042 163.431 13.1321L166.35 15.8679ZM167.191 13.72V13.52H163.191V13.72H167.191ZM167.191 13.52C167.191 12.7322 166.913 11.9543 166.305 11.3458L163.476 14.1742C163.39 14.0881 163.31 13.9723 163.255 13.8343C163.202 13.6996 163.191 13.5865 163.191 13.52H167.191ZM166.396 11.443C165.814 10.7787 165.018 10.44 164.171 10.44V14.44C164.07 14.44 163.922 14.4206 163.758 14.3476C163.592 14.2739 163.468 14.1712 163.385 14.077L166.396 11.443ZM164.171 10.44H160.811V14.44H164.171V10.44ZM158.811 12.44V14.8H162.811V12.44H158.811ZM171.757 18H169.757C169.757 19.1046 170.652 20 171.757 20V18ZM171.757 4.24V2.24C170.652 2.24 169.757 3.13543 169.757 4.24H171.757ZM176.177 4.24H178.177C178.177 3.13543 177.282 2.24 176.177 2.24V4.24ZM176.177 18V20C177.282 20 178.177 19.1046 178.177 18H176.177ZM173.757 18V4.24H169.757V18H173.757ZM171.757 6.24H176.177V2.24H171.757V6.24ZM174.177 4.24V18H178.177V4.24H174.177ZM176.177 16H171.757V20H176.177V16ZM188.77 18L187.258 19.3087C187.638 19.7477 188.19 20 188.77 20V18ZM182.99 11.32L184.503 10.0113C183.956 9.37972 183.075 9.15424 182.292 9.44585C181.509 9.73746 180.99 10.4848 180.99 11.32H182.99ZM182.99 18V20C184.095 20 184.99 19.1046 184.99 18H182.99ZM178.93 18H176.93C176.93 19.1046 177.826 20 178.93 20V18ZM178.93 4.24V2.24C177.826 2.24 176.93 3.13543 176.93 4.24H178.93ZM182.79 4.24L184.312 2.94249C183.932 2.49676 183.376 2.24 182.79 2.24V4.24ZM188.57 11.02L187.048 12.3175C187.592 12.9552 188.475 13.1864 189.262 12.8967C190.048 12.607 190.57 11.8579 190.57 11.02H188.57ZM188.57 4.24V2.24C187.466 2.24 186.57 3.13543 186.57 4.24H188.57ZM192.63 4.24H194.63C194.63 3.13543 193.735 2.24 192.63 2.24V4.24ZM192.63 18V20C193.735 20 194.63 19.1046 194.63 18H192.63ZM190.283 16.6913L184.503 10.0113L181.478 12.6287L187.258 19.3087L190.283 16.6913ZM180.99 11.32V18H184.99V11.32H180.99ZM182.99 16H178.93V20H182.99V16ZM180.93 18V4.24H176.93V18H180.93ZM178.93 6.24H182.79V2.24H178.93V6.24ZM181.268 5.53751L187.048 12.3175L190.092 9.72249L184.312 2.94249L181.268 5.53751ZM190.57 11.02V4.24H186.57V11.02H190.57ZM188.57 6.24H192.63V2.24H188.57V6.24ZM190.63 4.24V18H194.63V4.24H190.63ZM192.63 16H188.77V20H192.63V16Z" fill="white" mask="url(#path-3-outside-2_2005_2788)"/>
</svg>
