<svg width="226" height="22" viewBox="0 0 226 22" fill="none" xmlns="http://www.w3.org/2000/svg">
<mask id="path-1-outside-1_2005_2824" maskUnits="userSpaceOnUse" x="43" y="0" width="140" height="23" fill="black">
<rect fill="white" x="43" width="140" height="23"/>
<path d="M54.2921 14.7H60.8321V18H47.4921V16.58L53.8721 7.54H47.9721V4.24H60.6721V5.66L54.2921 14.7ZM71.8057 18V12.78H66.9457V18H62.5257V4.24H66.9457V9.26H71.8057V4.24H76.2257V18H71.8057ZM88.0059 18L87.4259 16.06H82.6059L82.0259 18H77.5059L82.5259 4.24H87.6659L92.6859 18H88.0059ZM83.5259 12.98H86.5059L85.0659 8.08H84.9859L83.5259 12.98ZM103.792 18L98.0123 11.32V18H93.9523V4.24H97.8123L103.592 11.02V4.24H107.652V18H103.792ZM117.132 4C118.452 4 119.639 4.2 120.692 4.6C121.746 5 122.579 5.59333 123.192 6.38C123.819 7.15333 124.132 8.1 124.132 9.22H119.912C119.912 8.64667 119.659 8.18667 119.152 7.84C118.646 7.48 118.032 7.3 117.312 7.3C116.272 7.3 115.486 7.58 114.952 8.14C114.419 8.68667 114.152 9.46667 114.152 10.48V11.76C114.152 12.7733 114.419 13.56 114.952 14.12C115.486 14.6667 116.272 14.94 117.312 14.94C118.032 14.94 118.646 14.7733 119.152 14.44C119.659 14.0933 119.912 13.6533 119.912 13.12H116.792V10.32H124.132V18H121.852L121.412 16.64C120.159 17.7067 118.519 18.24 116.492 18.24C114.212 18.24 112.499 17.6467 111.352 16.46C110.206 15.26 109.632 13.48 109.632 11.12C109.632 8.78667 110.279 7.02 111.572 5.82C112.879 4.60667 114.732 4 117.132 4ZM142.013 18V12.78H137.153V18H132.733V4.24H137.153V9.26H142.013V4.24H146.433V18H142.013ZM158.213 18L157.633 16.06H152.813L152.233 18H147.713L152.733 4.24H157.873L162.893 18H158.213ZM153.733 12.98H156.713L155.273 8.08H155.193L153.733 12.98ZM170.648 4C173.021 4 174.854 4.60667 176.148 5.82C177.441 7.03333 178.088 8.8 178.088 11.12C178.088 13.44 177.441 15.2067 176.148 16.42C174.854 17.6333 173.021 18.24 170.648 18.24C168.274 18.24 166.441 17.64 165.148 16.44C163.868 15.2267 163.228 13.4533 163.228 11.12C163.228 8.78667 163.868 7.02 165.148 5.82C166.441 4.60667 168.274 4 170.648 4ZM170.648 7.3C169.701 7.3 168.981 7.58667 168.488 8.16C167.994 8.73333 167.748 9.50667 167.748 10.48V11.76C167.748 12.7333 167.994 13.5067 168.488 14.08C168.981 14.6533 169.701 14.94 170.648 14.94C171.594 14.94 172.314 14.6533 172.808 14.08C173.314 13.5067 173.568 12.7333 173.568 11.76V10.48C173.568 9.50667 173.314 8.73333 172.808 8.16C172.314 7.58667 171.594 7.3 170.648 7.3Z"/>
</mask>
<path d="M54.2921 14.7H60.8321V18H47.4921V16.58L53.8721 7.54H47.9721V4.24H60.6721V5.66L54.2921 14.7ZM71.8057 18V12.78H66.9457V18H62.5257V4.24H66.9457V9.26H71.8057V4.24H76.2257V18H71.8057ZM88.0059 18L87.4259 16.06H82.6059L82.0259 18H77.5059L82.5259 4.24H87.6659L92.6859 18H88.0059ZM83.5259 12.98H86.5059L85.0659 8.08H84.9859L83.5259 12.98ZM103.792 18L98.0123 11.32V18H93.9523V4.24H97.8123L103.592 11.02V4.24H107.652V18H103.792ZM117.132 4C118.452 4 119.639 4.2 120.692 4.6C121.746 5 122.579 5.59333 123.192 6.38C123.819 7.15333 124.132 8.1 124.132 9.22H119.912C119.912 8.64667 119.659 8.18667 119.152 7.84C118.646 7.48 118.032 7.3 117.312 7.3C116.272 7.3 115.486 7.58 114.952 8.14C114.419 8.68667 114.152 9.46667 114.152 10.48V11.76C114.152 12.7733 114.419 13.56 114.952 14.12C115.486 14.6667 116.272 14.94 117.312 14.94C118.032 14.94 118.646 14.7733 119.152 14.44C119.659 14.0933 119.912 13.6533 119.912 13.12H116.792V10.32H124.132V18H121.852L121.412 16.64C120.159 17.7067 118.519 18.24 116.492 18.24C114.212 18.24 112.499 17.6467 111.352 16.46C110.206 15.26 109.632 13.48 109.632 11.12C109.632 8.78667 110.279 7.02 111.572 5.82C112.879 4.60667 114.732 4 117.132 4ZM142.013 18V12.78H137.153V18H132.733V4.24H137.153V9.26H142.013V4.24H146.433V18H142.013ZM158.213 18L157.633 16.06H152.813L152.233 18H147.713L152.733 4.24H157.873L162.893 18H158.213ZM153.733 12.98H156.713L155.273 8.08H155.193L153.733 12.98ZM170.648 4C173.021 4 174.854 4.60667 176.148 5.82C177.441 7.03333 178.088 8.8 178.088 11.12C178.088 13.44 177.441 15.2067 176.148 16.42C174.854 17.6333 173.021 18.24 170.648 18.24C168.274 18.24 166.441 17.64 165.148 16.44C163.868 15.2267 163.228 13.4533 163.228 11.12C163.228 8.78667 163.868 7.02 165.148 5.82C166.441 4.60667 168.274 4 170.648 4ZM170.648 7.3C169.701 7.3 168.981 7.58667 168.488 8.16C167.994 8.73333 167.748 9.50667 167.748 10.48V11.76C167.748 12.7333 167.994 13.5067 168.488 14.08C168.981 14.6533 169.701 14.94 170.648 14.94C171.594 14.94 172.314 14.6533 172.808 14.08C173.314 13.5067 173.568 12.7333 173.568 11.76V10.48C173.568 9.50667 173.314 8.73333 172.808 8.16C172.314 7.58667 171.594 7.3 170.648 7.3Z" fill="black"/>
<path d="M54.2921 14.7L51.024 12.3936C50.1624 13.6144 50.0531 15.2137 50.7406 16.5404C51.4282 17.8671 52.7978 18.7 54.2921 18.7V14.7ZM60.8321 14.7H64.8321C64.8321 12.4909 63.0412 10.7 60.8321 10.7V14.7ZM60.8321 18V22C63.0412 22 64.8321 20.2091 64.8321 18H60.8321ZM47.4921 18H43.4921C43.4921 20.2091 45.283 22 47.4921 22V18ZM47.4921 16.58L44.224 14.2736C43.7478 14.9484 43.4921 15.7541 43.4921 16.58H47.4921ZM53.8721 7.54L57.1402 9.84645C58.0018 8.6256 58.1111 7.0263 57.4236 5.69959C56.7361 4.37288 55.3664 3.54 53.8721 3.54V7.54ZM47.9721 7.54H43.9721C43.9721 9.74914 45.763 11.54 47.9721 11.54V7.54ZM47.9721 4.24V0.24C45.763 0.24 43.9721 2.03086 43.9721 4.24H47.9721ZM60.6721 4.24H64.6721C64.6721 2.03086 62.8812 0.24 60.6721 0.24V4.24ZM60.6721 5.66L63.9402 7.96645C64.4164 7.29164 64.6721 6.48594 64.6721 5.66L60.6721 5.66ZM54.2921 18.7H60.8321V10.7H54.2921V18.7ZM56.8321 14.7V18H64.8321V14.7H56.8321ZM60.8321 14H47.4921V22H60.8321V14ZM51.4921 18V16.58H43.4921V18H51.4921ZM50.7602 18.8864L57.1402 9.84645L50.604 5.23355L44.224 14.2736L50.7602 18.8864ZM53.8721 3.54H47.9721V11.54H53.8721V3.54ZM51.9721 7.54V4.24H43.9721V7.54H51.9721ZM47.9721 8.24H60.6721V0.24H47.9721V8.24ZM56.6721 4.24V5.66H64.6721V4.24H56.6721ZM57.404 3.35355L51.024 12.3936L57.5602 17.0064L63.9402 7.96645L57.404 3.35355ZM71.8057 18H67.8057C67.8057 20.2091 69.5966 22 71.8057 22V18ZM71.8057 12.78H75.8057C75.8057 10.5709 74.0148 8.78 71.8057 8.78V12.78ZM66.9457 12.78V8.78C64.7366 8.78 62.9457 10.5709 62.9457 12.78H66.9457ZM66.9457 18V22C69.1548 22 70.9457 20.2091 70.9457 18H66.9457ZM62.5257 18H58.5257C58.5257 20.2091 60.3166 22 62.5257 22V18ZM62.5257 4.24V0.24C60.3166 0.24 58.5257 2.03086 58.5257 4.24H62.5257ZM66.9457 4.24H70.9457C70.9457 2.03086 69.1548 0.24 66.9457 0.24V4.24ZM66.9457 9.26H62.9457C62.9457 11.4691 64.7366 13.26 66.9457 13.26V9.26ZM71.8057 9.26V13.26C74.0148 13.26 75.8057 11.4691 75.8057 9.26H71.8057ZM71.8057 4.24V0.24C69.5966 0.24 67.8057 2.03086 67.8057 4.24H71.8057ZM76.2257 4.24H80.2257C80.2257 2.03086 78.4348 0.24 76.2257 0.24V4.24ZM76.2257 18V22C78.4348 22 80.2257 20.2091 80.2257 18H76.2257ZM75.8057 18V12.78H67.8057V18H75.8057ZM71.8057 8.78H66.9457V16.78H71.8057V8.78ZM62.9457 12.78V18H70.9457V12.78H62.9457ZM66.9457 14H62.5257V22H66.9457V14ZM66.5257 18V4.24H58.5257V18H66.5257ZM62.5257 8.24H66.9457V0.24H62.5257V8.24ZM62.9457 4.24V9.26H70.9457V4.24H62.9457ZM66.9457 13.26H71.8057V5.26H66.9457V13.26ZM75.8057 9.26V4.24H67.8057V9.26H75.8057ZM71.8057 8.24H76.2257V0.24H71.8057V8.24ZM72.2257 4.24V18H80.2257V4.24H72.2257ZM76.2257 14H71.8057V22H76.2257V14ZM88.0059 18L84.1735 19.1458C84.6799 20.8395 86.238 22 88.0059 22V18ZM87.4259 16.06L91.2583 14.9142C90.7519 13.2205 89.1937 12.06 87.4259 12.06V16.06ZM82.6059 16.06V12.06C80.838 12.06 79.2799 13.2205 78.7735 14.9142L82.6059 16.06ZM82.0259 18V22C83.7937 22 85.3519 20.8395 85.8583 19.1458L82.0259 18ZM77.5059 18L73.7481 16.6291C73.3007 17.8556 73.4799 19.2233 74.2284 20.2931C74.9768 21.3628 76.2003 22 77.5059 22V18ZM82.5259 4.24V0.24C80.8454 0.24 79.3441 1.29037 78.7681 2.86908L82.5259 4.24ZM87.6659 4.24L91.4236 2.86908C90.8476 1.29037 89.3464 0.24 87.6659 0.24V4.24ZM92.6859 18V22C93.9915 22 95.2149 21.3628 95.9633 20.2931C96.7118 19.2233 96.8911 17.8556 96.4436 16.6291L92.6859 18ZM83.5259 12.98L79.6924 11.8378C79.3317 13.0483 79.564 14.3581 80.3189 15.3707C81.0739 16.3834 82.2628 16.98 83.5259 16.98V12.98ZM86.5059 12.98V16.98C87.7663 16.98 88.9531 16.3859 89.7083 15.3767C90.4636 14.3676 90.699 13.0615 90.3436 11.8522L86.5059 12.98ZM85.0659 8.08L88.9036 6.95218C88.4032 5.24943 86.8406 4.08 85.0659 4.08V8.08ZM84.9859 8.08V4.08C83.2167 4.08 81.6576 5.24225 81.1524 6.93779L84.9859 8.08ZM91.8383 16.8542L91.2583 14.9142L83.5935 17.2058L84.1735 19.1458L91.8383 16.8542ZM87.4259 12.06H82.6059V20.06H87.4259V12.06ZM78.7735 14.9142L78.1935 16.8542L85.8583 19.1458L86.4383 17.2058L78.7735 14.9142ZM82.0259 14H77.5059V22H82.0259V14ZM81.2636 19.3709L86.2836 5.61092L78.7681 2.86908L73.7481 16.6291L81.2636 19.3709ZM82.5259 8.24H87.6659V0.24H82.5259V8.24ZM83.9081 5.61092L88.9281 19.3709L96.4436 16.6291L91.4236 2.86908L83.9081 5.61092ZM92.6859 14H88.0059V22H92.6859V14ZM83.5259 16.98H86.5059V8.98H83.5259V16.98ZM90.3436 11.8522L88.9036 6.95218L81.2281 9.20782L82.6682 14.1078L90.3436 11.8522ZM85.0659 4.08H84.9859V12.08H85.0659V4.08ZM81.1524 6.93779L79.6924 11.8378L87.3593 14.1222L88.8193 9.22221L81.1524 6.93779ZM103.792 18L100.767 20.6173C101.527 21.4954 102.631 22 103.792 22V18ZM98.0123 11.32L101.037 8.70269C99.9441 7.43945 98.1811 6.98848 96.6157 7.57171C95.0504 8.15493 94.0123 9.64951 94.0123 11.32H98.0123ZM98.0123 18V22C100.221 22 102.012 20.2091 102.012 18H98.0123ZM93.9523 18H89.9523C89.9523 20.2091 91.7431 22 93.9523 22V18ZM93.9523 4.24V0.24C91.7431 0.24 89.9523 2.03086 89.9523 4.24H93.9523ZM97.8123 4.24L100.856 1.64498C100.096 0.753513 98.9837 0.24 97.8123 0.24V4.24ZM103.592 11.02L100.548 13.615C101.635 14.8904 103.402 15.3527 104.975 14.7734C106.548 14.1941 107.592 12.6959 107.592 11.02H103.592ZM103.592 4.24V0.24C101.383 0.24 99.5923 2.03086 99.5923 4.24H103.592ZM107.652 4.24H111.652C111.652 2.03086 109.861 0.24 107.652 0.24V4.24ZM107.652 18V22C109.861 22 111.652 20.2091 111.652 18H107.652ZM106.817 15.3827L101.037 8.70269L94.9874 13.9373L100.767 20.6173L106.817 15.3827ZM94.0123 11.32V18H102.012V11.32H94.0123ZM98.0123 14H93.9523V22H98.0123V14ZM97.9523 18V4.24H89.9523V18H97.9523ZM93.9523 8.24H97.8123V0.24H93.9523V8.24ZM94.7683 6.83502L100.548 13.615L106.636 8.42498L100.856 1.64498L94.7683 6.83502ZM107.592 11.02V4.24H99.5923V11.02H107.592ZM103.592 8.24H107.652V0.24H103.592V8.24ZM103.652 4.24V18H111.652V4.24H103.652ZM107.652 14H103.792V22H107.652V14ZM120.692 4.6L119.272 8.33945V8.33945L120.692 4.6ZM123.192 6.38L120.038 8.83946C120.053 8.85923 120.069 8.87886 120.085 8.89833L123.192 6.38ZM124.132 9.22V13.22C126.342 13.22 128.132 11.4291 128.132 9.22H124.132ZM119.912 9.22H115.912C115.912 11.4291 117.703 13.22 119.912 13.22V9.22ZM119.152 7.84L116.836 11.1007C116.855 11.1144 116.874 11.1279 116.894 11.1412L119.152 7.84ZM114.952 8.14L117.816 10.9333C117.827 10.9218 117.838 10.9102 117.849 10.8986L114.952 8.14ZM114.952 14.12L112.056 16.8786C112.067 16.8902 112.078 16.9018 112.089 16.9133L114.952 14.12ZM119.152 14.44L121.351 17.7817C121.371 17.7684 121.391 17.7549 121.411 17.7412L119.152 14.44ZM119.912 13.12H123.912C123.912 10.9109 122.122 9.12 119.912 9.12V13.12ZM116.792 13.12H112.792C112.792 15.3291 114.583 17.12 116.792 17.12V13.12ZM116.792 10.32V6.32C114.583 6.32 112.792 8.11086 112.792 10.32H116.792ZM124.132 10.32H128.132C128.132 8.11086 126.342 6.32 124.132 6.32V10.32ZM124.132 18V22C126.342 22 128.132 20.2091 128.132 18H124.132ZM121.852 18L118.047 19.2313C118.581 20.8818 120.118 22 121.852 22V18ZM121.412 16.64L125.218 15.4087C124.807 14.138 123.789 13.1563 122.504 12.7918C121.219 12.4274 119.837 12.7282 118.82 13.5938L121.412 16.64ZM111.352 16.46L108.46 19.2234C108.466 19.2288 108.471 19.2342 108.476 19.2395L111.352 16.46ZM111.572 5.82L114.293 8.75225L114.294 8.75117L111.572 5.82ZM117.132 8C118.049 8 118.743 8.13851 119.272 8.33945L122.112 0.860552C120.535 0.261492 118.856 -9.53674e-07 117.132 -9.53674e-07V8ZM119.272 8.33945C119.732 8.51403 119.931 8.70221 120.038 8.83946L126.347 3.92054C125.227 2.48446 123.759 1.48597 122.112 0.860551L119.272 8.33945ZM120.085 8.89833C120.093 8.90892 120.095 8.91138 120.1 8.92688C120.107 8.94819 120.132 9.03511 120.132 9.22H128.132C128.132 7.30467 127.576 5.43641 126.3 3.86167L120.085 8.89833ZM124.132 5.22H119.912V13.22H124.132V5.22ZM123.912 9.22C123.912 7.21948 122.916 5.5686 121.411 4.53877L116.894 11.1412C116.718 11.0207 116.441 10.7785 116.219 10.3746C115.99 9.96035 115.912 9.54462 115.912 9.22H123.912ZM121.469 4.57928C120.183 3.66524 118.727 3.3 117.312 3.3V11.3C117.339 11.3 117.288 11.3031 117.186 11.2731C117.079 11.2417 116.955 11.1852 116.836 11.1007L121.469 4.57928ZM117.312 3.3C115.57 3.3 113.577 3.78378 112.056 5.38138L117.849 10.8986C117.65 11.108 117.433 11.2254 117.284 11.2784C117.155 11.324 117.142 11.3 117.312 11.3V3.3ZM112.089 5.3467C110.614 6.8592 110.152 8.77459 110.152 10.48H118.152C118.152 10.3164 118.175 10.3195 118.137 10.429C118.094 10.5556 117.996 10.7485 117.816 10.9333L112.089 5.3467ZM110.152 10.48V11.76H118.152V10.48H110.152ZM110.152 11.76C110.152 13.4716 110.616 15.3667 112.056 16.8786L117.849 11.3614C118.012 11.5329 118.101 11.7102 118.141 11.8258C118.175 11.9256 118.152 11.9226 118.152 11.76H110.152ZM112.089 16.9133C113.616 18.478 115.596 18.94 117.312 18.94V10.94C117.133 10.94 117.136 10.9153 117.255 10.9566C117.394 11.0048 117.611 11.1167 117.816 11.3267L112.089 16.9133ZM117.312 18.94C118.665 18.94 120.077 18.6195 121.351 17.7817L116.954 11.0983C117.071 11.0216 117.182 10.9772 117.264 10.955C117.341 10.934 117.364 10.94 117.312 10.94V18.94ZM121.411 17.7412C122.817 16.7795 123.912 15.1891 123.912 13.12H115.912C115.912 12.7229 116.015 12.2723 116.256 11.8541C116.485 11.4564 116.754 11.2346 116.894 11.1388L121.411 17.7412ZM119.912 9.12H116.792V17.12H119.912V9.12ZM120.792 13.12V10.32H112.792V13.12H120.792ZM116.792 14.32H124.132V6.32H116.792V14.32ZM120.132 10.32V18H128.132V10.32H120.132ZM124.132 14H121.852V22H124.132V14ZM125.658 16.7687L125.218 15.4087L117.607 17.8713L118.047 19.2313L125.658 16.7687ZM118.82 13.5938C118.447 13.9116 117.797 14.24 116.492 14.24V22.24C119.241 22.24 121.872 21.5017 124.005 19.6862L118.82 13.5938ZM116.492 14.24C114.873 14.24 114.371 13.8271 114.229 13.6805L108.476 19.2395C110.628 21.4662 113.552 22.24 116.492 22.24V14.24ZM114.244 13.6966C114.061 13.5051 113.632 12.8858 113.632 11.12H105.632C105.632 14.0742 106.35 17.0149 108.46 19.2234L114.244 13.6966ZM113.632 11.12C113.632 9.52315 114.056 8.97259 114.293 8.75225L108.852 2.88775C106.503 5.06741 105.632 8.05018 105.632 11.12H113.632ZM114.294 8.75117C114.636 8.43365 115.386 8 117.132 8V-9.53674e-07C114.078 -9.53674e-07 111.122 0.779684 108.851 2.88883L114.294 8.75117ZM142.013 18H138.013C138.013 20.2091 139.804 22 142.013 22V18ZM142.013 12.78H146.013C146.013 10.5709 144.222 8.78 142.013 8.78V12.78ZM137.153 12.78V8.78C134.944 8.78 133.153 10.5709 133.153 12.78H137.153ZM137.153 18V22C139.362 22 141.153 20.2091 141.153 18H137.153ZM132.733 18H128.733C128.733 20.2091 130.524 22 132.733 22V18ZM132.733 4.24V0.24C130.524 0.24 128.733 2.03086 128.733 4.24H132.733ZM137.153 4.24H141.153C141.153 2.03086 139.362 0.24 137.153 0.24V4.24ZM137.153 9.26H133.153C133.153 11.4691 134.944 13.26 137.153 13.26V9.26ZM142.013 9.26V13.26C144.222 13.26 146.013 11.4691 146.013 9.26H142.013ZM142.013 4.24V0.24C139.804 0.24 138.013 2.03086 138.013 4.24H142.013ZM146.433 4.24H150.433C150.433 2.03086 148.642 0.24 146.433 0.24V4.24ZM146.433 18V22C148.642 22 150.433 20.2091 150.433 18H146.433ZM146.013 18V12.78H138.013V18H146.013ZM142.013 8.78H137.153V16.78H142.013V8.78ZM133.153 12.78V18H141.153V12.78H133.153ZM137.153 14H132.733V22H137.153V14ZM136.733 18V4.24H128.733V18H136.733ZM132.733 8.24H137.153V0.24H132.733V8.24ZM133.153 4.24V9.26H141.153V4.24H133.153ZM137.153 13.26H142.013V5.26H137.153V13.26ZM146.013 9.26V4.24H138.013V9.26H146.013ZM142.013 8.24H146.433V0.24H142.013V8.24ZM142.433 4.24V18H150.433V4.24H142.433ZM146.433 14H142.013V22H146.433V14ZM158.213 18L154.38 19.1458C154.887 20.8395 156.445 22 158.213 22V18ZM157.633 16.06L161.465 14.9142C160.959 13.2205 159.401 12.06 157.633 12.06V16.06ZM152.813 16.06V12.06C151.045 12.06 149.487 13.2205 148.98 14.9142L152.813 16.06ZM152.233 18V22C154.001 22 155.559 20.8395 156.065 19.1458L152.233 18ZM147.713 18L143.955 16.6291C143.508 17.8556 143.687 19.2233 144.435 20.2931C145.184 21.3628 146.407 22 147.713 22V18ZM152.733 4.24V0.24C151.052 0.24 149.551 1.29037 148.975 2.86908L152.733 4.24ZM157.873 4.24L161.631 2.86908C161.055 1.29037 159.553 0.24 157.873 0.24V4.24ZM162.893 18V22C164.198 22 165.422 21.3628 166.17 20.2931C166.919 19.2233 167.098 17.8556 166.651 16.6291L162.893 18ZM153.733 12.98L149.899 11.8378C149.539 13.0483 149.771 14.3581 150.526 15.3707C151.281 16.3834 152.47 16.98 153.733 16.98V12.98ZM156.713 12.98V16.98C157.973 16.98 159.16 16.3859 159.915 15.3767C160.671 14.3676 160.906 13.0615 160.551 11.8522L156.713 12.98ZM155.273 8.08L159.111 6.95218C158.61 5.24943 157.048 4.08 155.273 4.08V8.08ZM155.193 8.08V4.08C153.424 4.08 151.865 5.24225 151.359 6.93779L155.193 8.08ZM162.045 16.8542L161.465 14.9142L153.8 17.2058L154.38 19.1458L162.045 16.8542ZM157.633 12.06H152.813V20.06H157.633V12.06ZM148.98 14.9142L148.4 16.8542L156.065 19.1458L156.645 17.2058L148.98 14.9142ZM152.233 14H147.713V22H152.233V14ZM151.471 19.3709L156.491 5.61092L148.975 2.86908L143.955 16.6291L151.471 19.3709ZM152.733 8.24H157.873V0.24H152.733V8.24ZM154.115 5.61092L159.135 19.3709L166.651 16.6291L161.631 2.86908L154.115 5.61092ZM162.893 14H158.213V22H162.893V14ZM153.733 16.98H156.713V8.98H153.733V16.98ZM160.551 11.8522L159.111 6.95218L151.435 9.20782L152.875 14.1078L160.551 11.8522ZM155.273 4.08H155.193V12.08H155.273V4.08ZM151.359 6.93779L149.899 11.8378L157.566 14.1222L159.026 9.22221L151.359 6.93779ZM176.148 16.42L173.411 13.5028L176.148 16.42ZM165.148 16.44L162.396 19.343C162.406 19.3528 162.417 19.3626 162.427 19.3722L165.148 16.44ZM165.148 5.82L167.883 8.73815L167.884 8.73721L165.148 5.82ZM168.488 8.16L171.52 10.769V10.769L168.488 8.16ZM172.808 14.08L169.81 11.4312C169.799 11.4444 169.787 11.4577 169.776 11.471L172.808 14.08ZM172.808 8.16L169.776 10.769C169.787 10.7823 169.799 10.7956 169.81 10.8088L172.808 8.16ZM170.648 8C172.356 8 173.081 8.42756 173.411 8.73721L178.884 2.90279C176.628 0.785774 173.686 -9.53674e-07 170.648 -9.53674e-07V8ZM173.411 8.73721C173.67 8.98016 174.088 9.54726 174.088 11.12H182.088C182.088 8.05274 181.212 5.0865 178.884 2.90279L173.411 8.73721ZM174.088 11.12C174.088 12.6927 173.67 13.2598 173.411 13.5028L178.884 19.3372C181.212 17.1535 182.088 14.1873 182.088 11.12H174.088ZM173.411 13.5028C173.081 13.8124 172.356 14.24 170.648 14.24V22.24C173.686 22.24 176.628 21.4542 178.884 19.3372L173.411 13.5028ZM170.648 14.24C168.929 14.24 168.198 13.8132 167.868 13.5077L162.427 19.3722C164.685 21.4668 167.62 22.24 170.648 22.24V14.24ZM167.9 13.537C167.65 13.3008 167.228 12.7259 167.228 11.12H159.228C159.228 14.1808 160.085 17.1525 162.396 19.343L167.9 13.537ZM167.228 11.12C167.228 9.51127 167.651 8.95578 167.883 8.73815L162.412 2.90185C160.084 5.08422 159.228 8.06206 159.228 11.12H167.228ZM167.884 8.73721C168.215 8.42756 168.94 8 170.648 8V-9.53674e-07C167.609 -9.53674e-07 164.668 0.785774 162.411 2.90279L167.884 8.73721ZM170.648 3.3C168.853 3.3 166.894 3.87959 165.456 5.55103L171.52 10.769C171.335 10.9835 171.101 11.1421 170.877 11.2313C170.675 11.3119 170.572 11.3 170.648 11.3V3.3ZM165.456 5.55103C164.176 7.03803 163.748 8.83022 163.748 10.48H171.748C171.748 10.3264 171.768 10.31 171.744 10.3855C171.716 10.473 171.649 10.6191 171.52 10.769L165.456 5.55103ZM163.748 10.48V11.76H171.748V10.48H163.748ZM163.748 11.76C163.748 13.4098 164.176 15.202 165.456 16.689L171.52 11.471C171.649 11.6209 171.716 11.767 171.744 11.8545C171.768 11.93 171.748 11.9136 171.748 11.76H163.748ZM165.456 16.689C166.894 18.3604 168.853 18.94 170.648 18.94V10.94C170.572 10.94 170.675 10.9281 170.877 11.0087C171.101 11.0979 171.335 11.2565 171.52 11.471L165.456 16.689ZM170.648 18.94C172.442 18.94 174.402 18.3604 175.84 16.689L169.776 11.471C169.96 11.2565 170.194 11.0979 170.418 11.0087C170.621 10.9281 170.723 10.94 170.648 10.94V18.94ZM175.805 16.7288C177.119 15.2424 177.568 13.4353 177.568 11.76H169.568C169.568 11.9041 169.549 11.9099 169.576 11.8248C169.608 11.7271 169.68 11.5783 169.81 11.4312L175.805 16.7288ZM177.568 11.76V10.48H169.568V11.76H177.568ZM177.568 10.48C177.568 8.80473 177.119 6.99758 175.805 5.51121L169.81 10.8088C169.68 10.6617 169.608 10.5129 169.576 10.4152C169.549 10.3301 169.568 10.3359 169.568 10.48H177.568ZM175.84 5.55103C174.402 3.87959 172.442 3.3 170.648 3.3V11.3C170.723 11.3 170.621 11.3119 170.418 11.2313C170.194 11.1421 169.96 10.9835 169.776 10.769L175.84 5.55103Z" fill="#468ED3" mask="url(#path-1-outside-1_2005_2824)"/>
<mask id="path-3-outside-2_2005_2824" maskUnits="userSpaceOnUse" x="45" y="2" width="136" height="19" fill="black">
<rect fill="white" x="45" y="2" width="136" height="19"/>
<path d="M54.2921 14.7H60.8321V18H47.4921V16.58L53.8721 7.54H47.9721V4.24H60.6721V5.66L54.2921 14.7ZM71.8057 18V12.78H66.9457V18H62.5257V4.24H66.9457V9.26H71.8057V4.24H76.2257V18H71.8057ZM88.0059 18L87.4259 16.06H82.6059L82.0259 18H77.5059L82.5259 4.24H87.6659L92.6859 18H88.0059ZM83.5259 12.98H86.5059L85.0659 8.08H84.9859L83.5259 12.98ZM103.792 18L98.0123 11.32V18H93.9523V4.24H97.8123L103.592 11.02V4.24H107.652V18H103.792ZM117.132 4C118.452 4 119.639 4.2 120.692 4.6C121.746 5 122.579 5.59333 123.192 6.38C123.819 7.15333 124.132 8.1 124.132 9.22H119.912C119.912 8.64667 119.659 8.18667 119.152 7.84C118.646 7.48 118.032 7.3 117.312 7.3C116.272 7.3 115.486 7.58 114.952 8.14C114.419 8.68667 114.152 9.46667 114.152 10.48V11.76C114.152 12.7733 114.419 13.56 114.952 14.12C115.486 14.6667 116.272 14.94 117.312 14.94C118.032 14.94 118.646 14.7733 119.152 14.44C119.659 14.0933 119.912 13.6533 119.912 13.12H116.792V10.32H124.132V18H121.852L121.412 16.64C120.159 17.7067 118.519 18.24 116.492 18.24C114.212 18.24 112.499 17.6467 111.352 16.46C110.206 15.26 109.632 13.48 109.632 11.12C109.632 8.78667 110.279 7.02 111.572 5.82C112.879 4.60667 114.732 4 117.132 4ZM142.013 18V12.78H137.153V18H132.733V4.24H137.153V9.26H142.013V4.24H146.433V18H142.013ZM158.213 18L157.633 16.06H152.813L152.233 18H147.713L152.733 4.24H157.873L162.893 18H158.213ZM153.733 12.98H156.713L155.273 8.08H155.193L153.733 12.98ZM170.648 4C173.021 4 174.854 4.60667 176.148 5.82C177.441 7.03333 178.088 8.8 178.088 11.12C178.088 13.44 177.441 15.2067 176.148 16.42C174.854 17.6333 173.021 18.24 170.648 18.24C168.274 18.24 166.441 17.64 165.148 16.44C163.868 15.2267 163.228 13.4533 163.228 11.12C163.228 8.78667 163.868 7.02 165.148 5.82C166.441 4.60667 168.274 4 170.648 4ZM170.648 7.3C169.701 7.3 168.981 7.58667 168.488 8.16C167.994 8.73333 167.748 9.50667 167.748 10.48V11.76C167.748 12.7333 167.994 13.5067 168.488 14.08C168.981 14.6533 169.701 14.94 170.648 14.94C171.594 14.94 172.314 14.6533 172.808 14.08C173.314 13.5067 173.568 12.7333 173.568 11.76V10.48C173.568 9.50667 173.314 8.73333 172.808 8.16C172.314 7.58667 171.594 7.3 170.648 7.3Z"/>
</mask>
<path d="M54.2921 14.7H60.8321V18H47.4921V16.58L53.8721 7.54H47.9721V4.24H60.6721V5.66L54.2921 14.7ZM71.8057 18V12.78H66.9457V18H62.5257V4.24H66.9457V9.26H71.8057V4.24H76.2257V18H71.8057ZM88.0059 18L87.4259 16.06H82.6059L82.0259 18H77.5059L82.5259 4.24H87.6659L92.6859 18H88.0059ZM83.5259 12.98H86.5059L85.0659 8.08H84.9859L83.5259 12.98ZM103.792 18L98.0123 11.32V18H93.9523V4.24H97.8123L103.592 11.02V4.24H107.652V18H103.792ZM117.132 4C118.452 4 119.639 4.2 120.692 4.6C121.746 5 122.579 5.59333 123.192 6.38C123.819 7.15333 124.132 8.1 124.132 9.22H119.912C119.912 8.64667 119.659 8.18667 119.152 7.84C118.646 7.48 118.032 7.3 117.312 7.3C116.272 7.3 115.486 7.58 114.952 8.14C114.419 8.68667 114.152 9.46667 114.152 10.48V11.76C114.152 12.7733 114.419 13.56 114.952 14.12C115.486 14.6667 116.272 14.94 117.312 14.94C118.032 14.94 118.646 14.7733 119.152 14.44C119.659 14.0933 119.912 13.6533 119.912 13.12H116.792V10.32H124.132V18H121.852L121.412 16.64C120.159 17.7067 118.519 18.24 116.492 18.24C114.212 18.24 112.499 17.6467 111.352 16.46C110.206 15.26 109.632 13.48 109.632 11.12C109.632 8.78667 110.279 7.02 111.572 5.82C112.879 4.60667 114.732 4 117.132 4ZM142.013 18V12.78H137.153V18H132.733V4.24H137.153V9.26H142.013V4.24H146.433V18H142.013ZM158.213 18L157.633 16.06H152.813L152.233 18H147.713L152.733 4.24H157.873L162.893 18H158.213ZM153.733 12.98H156.713L155.273 8.08H155.193L153.733 12.98ZM170.648 4C173.021 4 174.854 4.60667 176.148 5.82C177.441 7.03333 178.088 8.8 178.088 11.12C178.088 13.44 177.441 15.2067 176.148 16.42C174.854 17.6333 173.021 18.24 170.648 18.24C168.274 18.24 166.441 17.64 165.148 16.44C163.868 15.2267 163.228 13.4533 163.228 11.12C163.228 8.78667 163.868 7.02 165.148 5.82C166.441 4.60667 168.274 4 170.648 4ZM170.648 7.3C169.701 7.3 168.981 7.58667 168.488 8.16C167.994 8.73333 167.748 9.50667 167.748 10.48V11.76C167.748 12.7333 167.994 13.5067 168.488 14.08C168.981 14.6533 169.701 14.94 170.648 14.94C171.594 14.94 172.314 14.6533 172.808 14.08C173.314 13.5067 173.568 12.7333 173.568 11.76V10.48C173.568 9.50667 173.314 8.73333 172.808 8.16C172.314 7.58667 171.594 7.3 170.648 7.3Z" fill="black"/>
<path d="M54.2921 14.7L52.6581 13.5468C52.2273 14.1572 52.1726 14.9568 52.5164 15.6202C52.8601 16.2836 53.545 16.7 54.2921 16.7V14.7ZM60.8321 14.7H62.8321C62.8321 13.5954 61.9367 12.7 60.8321 12.7V14.7ZM60.8321 18V20C61.9367 20 62.8321 19.1046 62.8321 18H60.8321ZM47.4921 18H45.4921C45.4921 19.1046 46.3875 20 47.4921 20V18ZM47.4921 16.58L45.8581 15.4268C45.6199 15.7642 45.4921 16.167 45.4921 16.58H47.4921ZM53.8721 7.54L55.5061 8.69322C55.937 8.0828 55.9916 7.28315 55.6478 6.6198C55.3041 5.95644 54.6192 5.54 53.8721 5.54V7.54ZM47.9721 7.54H45.9721C45.9721 8.64457 46.8675 9.54 47.9721 9.54V7.54ZM47.9721 4.24V2.24C46.8675 2.24 45.9721 3.13543 45.9721 4.24H47.9721ZM60.6721 4.24H62.6721C62.6721 3.13543 61.7767 2.24 60.6721 2.24V4.24ZM60.6721 5.66L62.3061 6.81322C62.5443 6.47582 62.6721 6.07297 62.6721 5.66H60.6721ZM54.2921 16.7H60.8321V12.7H54.2921V16.7ZM58.8321 14.7V18H62.8321V14.7H58.8321ZM60.8321 16H47.4921V20H60.8321V16ZM49.4921 18V16.58H45.4921V18H49.4921ZM49.1261 17.7332L55.5061 8.69322L52.2381 6.38678L45.8581 15.4268L49.1261 17.7332ZM53.8721 5.54H47.9721V9.54H53.8721V5.54ZM49.9721 7.54V4.24H45.9721V7.54H49.9721ZM47.9721 6.24H60.6721V2.24H47.9721V6.24ZM58.6721 4.24V5.66H62.6721V4.24H58.6721ZM59.0381 4.50677L52.6581 13.5468L55.9261 15.8532L62.3061 6.81322L59.0381 4.50677ZM71.8057 18H69.8057C69.8057 19.1046 70.7011 20 71.8057 20V18ZM71.8057 12.78H73.8057C73.8057 11.6754 72.9103 10.78 71.8057 10.78V12.78ZM66.9457 12.78V10.78C65.8411 10.78 64.9457 11.6754 64.9457 12.78H66.9457ZM66.9457 18V20C68.0503 20 68.9457 19.1046 68.9457 18H66.9457ZM62.5257 18H60.5257C60.5257 19.1046 61.4211 20 62.5257 20V18ZM62.5257 4.24V2.24C61.4211 2.24 60.5257 3.13543 60.5257 4.24H62.5257ZM66.9457 4.24H68.9457C68.9457 3.13543 68.0503 2.24 66.9457 2.24V4.24ZM66.9457 9.26H64.9457C64.9457 10.3646 65.8411 11.26 66.9457 11.26V9.26ZM71.8057 9.26V11.26C72.9103 11.26 73.8057 10.3646 73.8057 9.26H71.8057ZM71.8057 4.24V2.24C70.7011 2.24 69.8057 3.13543 69.8057 4.24H71.8057ZM76.2257 4.24H78.2257C78.2257 3.13543 77.3303 2.24 76.2257 2.24V4.24ZM76.2257 18V20C77.3303 20 78.2257 19.1046 78.2257 18H76.2257ZM73.8057 18V12.78H69.8057V18H73.8057ZM71.8057 10.78H66.9457V14.78H71.8057V10.78ZM64.9457 12.78V18H68.9457V12.78H64.9457ZM66.9457 16H62.5257V20H66.9457V16ZM64.5257 18V4.24H60.5257V18H64.5257ZM62.5257 6.24H66.9457V2.24H62.5257V6.24ZM64.9457 4.24V9.26H68.9457V4.24H64.9457ZM66.9457 11.26H71.8057V7.26H66.9457V11.26ZM73.8057 9.26V4.24H69.8057V9.26H73.8057ZM71.8057 6.24H76.2257V2.24H71.8057V6.24ZM74.2257 4.24V18H78.2257V4.24H74.2257ZM76.2257 16H71.8057V20H76.2257V16ZM88.0059 18L86.0897 18.5729C86.3429 19.4198 87.1219 20 88.0059 20V18ZM87.4259 16.06L89.3421 15.4871C89.0889 14.6402 88.3098 14.06 87.4259 14.06V16.06ZM82.6059 16.06V14.06C81.7219 14.06 80.9429 14.6402 80.6897 15.4871L82.6059 16.06ZM82.0259 18V20C82.9098 20 83.6889 19.4198 83.9421 18.5729L82.0259 18ZM77.5059 18L75.627 17.3145C75.4033 17.9278 75.4929 18.6117 75.8671 19.1465C76.2413 19.6814 76.8531 20 77.5059 20V18ZM82.5259 4.24V2.24C81.6856 2.24 80.935 2.76519 80.647 3.55454L82.5259 4.24ZM87.6659 4.24L89.5447 3.55454C89.2568 2.76519 88.5061 2.24 87.6659 2.24V4.24ZM92.6859 18V20C93.3387 20 93.9504 19.6814 94.3246 19.1465C94.6988 18.6117 94.7885 17.9278 94.5647 17.3145L92.6859 18ZM83.5259 12.98L81.6091 12.4089C81.4288 13.0141 81.5449 13.669 81.9224 14.1754C82.2999 14.6817 82.8943 14.98 83.5259 14.98V12.98ZM86.5059 12.98V14.98C87.1361 14.98 87.7295 14.6829 88.1071 14.1784C88.4847 13.6738 88.6024 13.0208 88.4247 12.4161L86.5059 12.98ZM85.0659 8.08L86.9847 7.51609C86.7345 6.66471 85.9532 6.08 85.0659 6.08V8.08ZM84.9859 8.08V6.08C84.1013 6.08 83.3217 6.66112 83.0691 7.50889L84.9859 8.08ZM89.9221 17.4271L89.3421 15.4871L85.5097 16.6329L86.0897 18.5729L89.9221 17.4271ZM87.4259 14.06H82.6059V18.06H87.4259V14.06ZM80.6897 15.4871L80.1097 17.4271L83.9421 18.5729L84.5221 16.6329L80.6897 15.4871ZM82.0259 16H77.5059V20H82.0259V16ZM79.3847 18.6855L84.4047 4.92546L80.647 3.55454L75.627 17.3145L79.3847 18.6855ZM82.5259 6.24H87.6659V2.24H82.5259V6.24ZM85.787 4.92546L90.807 18.6855L94.5647 17.3145L89.5447 3.55454L85.787 4.92546ZM92.6859 16H88.0059V20H92.6859V16ZM83.5259 14.98H86.5059V10.98H83.5259V14.98ZM88.4247 12.4161L86.9847 7.51609L83.147 8.64391L84.587 13.5439L88.4247 12.4161ZM85.0659 6.08H84.9859V10.08H85.0659V6.08ZM83.0691 7.50889L81.6091 12.4089L85.4426 13.5511L86.9026 8.65111L83.0691 7.50889ZM103.792 18L102.28 19.3087C102.66 19.7477 103.212 20 103.792 20V18ZM98.0123 11.32L99.5247 10.0113C98.9782 9.37972 98.0967 9.15424 97.314 9.44585C96.5313 9.73746 96.0123 10.4848 96.0123 11.32H98.0123ZM98.0123 18V20C99.1168 20 100.012 19.1046 100.012 18H98.0123ZM93.9523 18H91.9523C91.9523 19.1046 92.8477 20 93.9523 20V18ZM93.9523 4.24V2.24C92.8477 2.24 91.9523 3.13543 91.9523 4.24H93.9523ZM97.8123 4.24L99.3343 2.94249C98.9543 2.49676 98.398 2.24 97.8123 2.24V4.24ZM103.592 11.02L102.07 12.3175C102.614 12.9552 103.497 13.1864 104.284 12.8967C105.07 12.607 105.592 11.8579 105.592 11.02H103.592ZM103.592 4.24V2.24C102.488 2.24 101.592 3.13543 101.592 4.24H103.592ZM107.652 4.24H109.652C109.652 3.13543 108.757 2.24 107.652 2.24V4.24ZM107.652 18V20C108.757 20 109.652 19.1046 109.652 18H107.652ZM105.305 16.6913L99.5247 10.0113L96.4998 12.6287L102.28 19.3087L105.305 16.6913ZM96.0123 11.32V18H100.012V11.32H96.0123ZM98.0123 16H93.9523V20H98.0123V16ZM95.9523 18V4.24H91.9523V18H95.9523ZM93.9523 6.24H97.8123V2.24H93.9523V6.24ZM96.2903 5.53751L102.07 12.3175L105.114 9.72249L99.3343 2.94249L96.2903 5.53751ZM105.592 11.02V4.24H101.592V11.02H105.592ZM103.592 6.24H107.652V2.24H103.592V6.24ZM105.652 4.24V18H109.652V4.24H105.652ZM107.652 16H103.792V20H107.652V16ZM120.692 4.6L119.982 6.46972V6.46972L120.692 4.6ZM123.192 6.38L121.615 7.60973C121.623 7.61962 121.631 7.62943 121.639 7.63917L123.192 6.38ZM124.132 9.22V11.22C125.237 11.22 126.132 10.3246 126.132 9.22H124.132ZM119.912 9.22H117.912C117.912 10.3246 118.808 11.22 119.912 11.22V9.22ZM119.152 7.84L117.994 9.47036C118.004 9.4772 118.013 9.48395 118.023 9.49061L119.152 7.84ZM114.952 8.14L116.384 9.53665C116.39 9.5309 116.395 9.52512 116.401 9.51931L114.952 8.14ZM114.952 14.12L113.504 15.4993C113.51 15.5051 113.515 15.5109 113.521 15.5166L114.952 14.12ZM119.152 14.44L120.252 16.1108C120.262 16.1042 120.272 16.0974 120.282 16.0906L119.152 14.44ZM119.912 13.12H121.912C121.912 12.0154 121.017 11.12 119.912 11.12V13.12ZM116.792 13.12H114.792C114.792 14.2246 115.688 15.12 116.792 15.12V13.12ZM116.792 10.32V8.32C115.688 8.32 114.792 9.21543 114.792 10.32H116.792ZM124.132 10.32H126.132C126.132 9.21543 125.237 8.32 124.132 8.32V10.32ZM124.132 18V20C125.237 20 126.132 19.1046 126.132 18H124.132ZM121.852 18L119.95 18.6156C120.217 19.4409 120.985 20 121.852 20V18ZM121.412 16.64L123.315 16.0244C123.11 15.389 122.601 14.8981 121.958 14.7159C121.316 14.5337 120.625 14.6841 120.116 15.1169L121.412 16.64ZM111.352 16.46L109.906 17.8417L109.914 17.8498L111.352 16.46ZM111.572 5.82L112.933 7.28613L112.933 7.28559L111.572 5.82ZM117.132 6C118.251 6 119.191 6.16925 119.982 6.46972L121.402 2.73028C120.087 2.23075 118.654 2 117.132 2V6ZM119.982 6.46972C120.739 6.75701 121.255 7.14777 121.615 7.60973L124.77 5.15027C123.903 4.03889 122.753 3.24299 121.402 2.73028L119.982 6.46972ZM121.639 7.63917C121.941 8.01179 122.132 8.49767 122.132 9.22H126.132C126.132 7.70233 125.698 6.29487 124.746 5.12083L121.639 7.63917ZM124.132 7.22H119.912V11.22H124.132V7.22ZM121.912 9.22C121.912 7.93307 121.288 6.87763 120.282 6.18939L118.023 9.49061C118.062 9.51703 118.018 9.49677 117.971 9.40981C117.948 9.36901 117.932 9.32659 117.922 9.28747C117.913 9.24921 117.912 9.22477 117.912 9.22H121.912ZM120.311 6.20964C119.414 5.57262 118.38 5.3 117.312 5.3V9.3C117.685 9.3 117.877 9.38738 117.994 9.47036L120.311 6.20964ZM117.312 5.3C115.921 5.3 114.532 5.68189 113.504 6.76069L116.401 9.51931C116.44 9.47811 116.624 9.3 117.312 9.3V5.3ZM113.521 6.74335C112.516 7.77293 112.152 9.12063 112.152 10.48H116.152C116.152 9.8127 116.322 9.6004 116.384 9.53665L113.521 6.74335ZM112.152 10.48V11.76H116.152V10.48H112.152ZM112.152 11.76C112.152 13.1224 112.517 14.4633 113.504 15.4993L116.401 12.7407C116.321 12.6567 116.152 12.4242 116.152 11.76H112.152ZM113.521 15.5166C114.551 16.5723 115.934 16.94 117.312 16.94V12.94C116.611 12.94 116.421 12.761 116.384 12.7234L113.521 15.5166ZM117.312 16.94C118.349 16.94 119.362 16.6964 120.252 16.1108L118.053 12.7692C117.93 12.8502 117.716 12.94 117.312 12.94V16.94ZM120.282 16.0906C121.238 15.4364 121.912 14.4212 121.912 13.12H117.912C117.912 13.0936 117.916 13.0512 117.929 12.9987C117.943 12.9457 117.964 12.8955 117.989 12.8521C118.04 12.7632 118.08 12.7506 118.023 12.7894L120.282 16.0906ZM119.912 11.12H116.792V15.12H119.912V11.12ZM118.792 13.12V10.32H114.792V13.12H118.792ZM116.792 12.32H124.132V8.32H116.792V12.32ZM122.132 10.32V18H126.132V10.32H122.132ZM124.132 16H121.852V20H124.132V16ZM123.755 17.3844L123.315 16.0244L119.51 17.2556L119.95 18.6156L123.755 17.3844ZM120.116 15.1169C119.303 15.8091 118.158 16.24 116.492 16.24V20.24C118.88 20.24 121.015 19.6042 122.709 18.1631L120.116 15.1169ZM116.492 16.24C114.543 16.24 113.435 15.7369 112.791 15.0702L109.914 17.8498C111.563 19.5564 113.882 20.24 116.492 20.24V16.24ZM112.798 15.0783C112.134 14.3826 111.632 13.1829 111.632 11.12H107.632C107.632 13.7771 108.278 16.1374 109.906 17.8417L112.798 15.0783ZM111.632 11.12C111.632 9.15491 112.167 7.99629 112.933 7.28612L110.212 4.35387C108.391 6.0437 107.632 8.41842 107.632 11.12H111.632ZM112.933 7.28559C113.758 6.52016 115.059 6 117.132 6V2C114.405 2 112.001 2.69317 110.212 4.35441L112.933 7.28559ZM142.013 18H140.013C140.013 19.1046 140.908 20 142.013 20V18ZM142.013 12.78H144.013C144.013 11.6754 143.117 10.78 142.013 10.78V12.78ZM137.153 12.78V10.78C136.048 10.78 135.153 11.6754 135.153 12.78H137.153ZM137.153 18V20C138.257 20 139.153 19.1046 139.153 18H137.153ZM132.733 18H130.733C130.733 19.1046 131.628 20 132.733 20V18ZM132.733 4.24V2.24C131.628 2.24 130.733 3.13543 130.733 4.24H132.733ZM137.153 4.24H139.153C139.153 3.13543 138.257 2.24 137.153 2.24V4.24ZM137.153 9.26H135.153C135.153 10.3646 136.048 11.26 137.153 11.26V9.26ZM142.013 9.26V11.26C143.117 11.26 144.013 10.3646 144.013 9.26H142.013ZM142.013 4.24V2.24C140.908 2.24 140.013 3.13543 140.013 4.24H142.013ZM146.433 4.24H148.433C148.433 3.13543 147.537 2.24 146.433 2.24V4.24ZM146.433 18V20C147.537 20 148.433 19.1046 148.433 18H146.433ZM144.013 18V12.78H140.013V18H144.013ZM142.013 10.78H137.153V14.78H142.013V10.78ZM135.153 12.78V18H139.153V12.78H135.153ZM137.153 16H132.733V20H137.153V16ZM134.733 18V4.24H130.733V18H134.733ZM132.733 6.24H137.153V2.24H132.733V6.24ZM135.153 4.24V9.26H139.153V4.24H135.153ZM137.153 11.26H142.013V7.26H137.153V11.26ZM144.013 9.26V4.24H140.013V9.26H144.013ZM142.013 6.24H146.433V2.24H142.013V6.24ZM144.433 4.24V18H148.433V4.24H144.433ZM146.433 16H142.013V20H146.433V16ZM158.213 18L156.297 18.5729C156.55 19.4198 157.329 20 158.213 20V18ZM157.633 16.06L159.549 15.4871C159.296 14.6402 158.517 14.06 157.633 14.06V16.06ZM152.813 16.06V14.06C151.929 14.06 151.15 14.6402 150.897 15.4871L152.813 16.06ZM152.233 18V20C153.117 20 153.896 19.4198 154.149 18.5729L152.233 18ZM147.713 18L145.834 17.3145C145.61 17.9278 145.7 18.6117 146.074 19.1465C146.448 19.6814 147.06 20 147.713 20V18ZM152.733 4.24V2.24C151.893 2.24 151.142 2.76519 150.854 3.55454L152.733 4.24ZM157.873 4.24L159.752 3.55454C159.464 2.76519 158.713 2.24 157.873 2.24V4.24ZM162.893 18V20C163.546 20 164.157 19.6814 164.532 19.1465C164.906 18.6117 164.995 17.9278 164.772 17.3145L162.893 18ZM153.733 12.98L151.816 12.4089C151.636 13.0141 151.752 13.669 152.129 14.1754C152.507 14.6817 153.101 14.98 153.733 14.98V12.98ZM156.713 12.98V14.98C157.343 14.98 157.936 14.6829 158.314 14.1784C158.692 13.6738 158.809 13.0208 158.632 12.4161L156.713 12.98ZM155.273 8.08L157.192 7.51609C156.942 6.66471 156.16 6.08 155.273 6.08V8.08ZM155.193 8.08V6.08C154.308 6.08 153.529 6.66112 153.276 7.50889L155.193 8.08ZM160.129 17.4271L159.549 15.4871L155.717 16.6329L156.297 18.5729L160.129 17.4271ZM157.633 14.06H152.813V18.06H157.633V14.06ZM150.897 15.4871L150.317 17.4271L154.149 18.5729L154.729 16.6329L150.897 15.4871ZM152.233 16H147.713V20H152.233V16ZM149.592 18.6855L154.612 4.92546L150.854 3.55454L145.834 17.3145L149.592 18.6855ZM152.733 6.24H157.873V2.24H152.733V6.24ZM155.994 4.92546L161.014 18.6855L164.772 17.3145L159.752 3.55454L155.994 4.92546ZM162.893 16H158.213V20H162.893V16ZM153.733 14.98H156.713V10.98H153.733V14.98ZM158.632 12.4161L157.192 7.51609L153.354 8.64391L154.794 13.5439L158.632 12.4161ZM155.273 6.08H155.193V10.08H155.273V6.08ZM153.276 7.50889L151.816 12.4089L155.65 13.5511L157.11 8.65111L153.276 7.50889ZM176.148 16.42L174.779 14.9614L176.148 16.42ZM165.148 16.44L163.772 17.8915C163.777 17.8964 163.782 17.9013 163.787 17.9061L165.148 16.44ZM165.148 5.82L166.516 7.27907L166.516 7.2786L165.148 5.82ZM168.488 8.16L170.004 9.46448V9.46448L168.488 8.16ZM172.808 14.08L171.309 12.7556C171.303 12.7622 171.297 12.7688 171.292 12.7755L172.808 14.08ZM172.808 8.16L171.292 9.46448C171.297 9.47116 171.303 9.4778 171.309 9.4844L172.808 8.16ZM170.648 6C172.688 6 173.968 6.51711 174.779 7.2786L177.516 4.36139C175.741 2.69622 173.354 2 170.648 2V6ZM174.779 7.2786C175.555 8.00675 176.088 9.17363 176.088 11.12H180.088C180.088 8.42637 179.327 6.05992 177.516 4.36139L174.779 7.2786ZM176.088 11.12C176.088 13.0664 175.555 14.2333 174.779 14.9614L177.516 17.8786C179.327 16.1801 180.088 13.8136 180.088 11.12H176.088ZM174.779 14.9614C173.968 15.7229 172.688 16.24 170.648 16.24V20.24C173.354 20.24 175.741 19.5438 177.516 17.8786L174.779 14.9614ZM170.648 16.24C168.602 16.24 167.319 15.7266 166.508 14.9739L163.787 17.9061C165.563 19.5534 167.947 20.24 170.648 20.24V16.24ZM166.524 14.9885C165.759 14.2637 165.228 13.0896 165.228 11.12H161.228C161.228 13.8171 161.976 16.1896 163.772 17.8915L166.524 14.9885ZM165.228 11.12C165.228 9.14897 165.76 7.98789 166.516 7.27907L163.78 4.36092C161.976 6.05211 161.228 8.42437 161.228 11.12H165.228ZM166.516 7.2786C167.328 6.51711 168.607 6 170.648 6V2C167.942 2 165.554 2.69622 163.779 4.36139L166.516 7.2786ZM170.648 5.3C169.277 5.3 167.937 5.73313 166.972 6.85552L170.004 9.46448C170.025 9.4402 170.125 9.3 170.648 9.3V5.3ZM166.972 6.85552C166.085 7.88568 165.748 9.16844 165.748 10.48H169.748C169.748 9.84489 169.904 9.58098 170.004 9.46448L166.972 6.85552ZM165.748 10.48V11.76H169.748V10.48H165.748ZM165.748 11.76C165.748 13.0716 166.085 14.3543 166.972 15.3845L170.004 12.7755C169.904 12.659 169.748 12.3951 169.748 11.76H165.748ZM166.972 15.3845C167.937 16.5069 169.277 16.94 170.648 16.94V12.94C170.125 12.94 170.025 12.7998 170.004 12.7755L166.972 15.3845ZM170.648 16.94C172.018 16.94 173.358 16.5069 174.324 15.3845L171.292 12.7755C171.271 12.7998 171.17 12.94 170.648 12.94V16.94ZM174.306 15.4044C175.216 14.3745 175.568 13.0843 175.568 11.76H171.568C171.568 12.3824 171.412 12.6388 171.309 12.7556L174.306 15.4044ZM175.568 11.76V10.48H171.568V11.76H175.568ZM175.568 10.48C175.568 9.1557 175.216 7.86546 174.306 6.8356L171.309 9.4844C171.412 9.60121 171.568 9.85764 171.568 10.48H175.568ZM174.324 6.85552C173.358 5.73313 172.018 5.3 170.648 5.3V9.3C171.17 9.3 171.271 9.4402 171.292 9.46448L174.324 6.85552Z" fill="white" mask="url(#path-3-outside-2_2005_2824)"/>
</svg>
