<svg width="226" height="22" viewBox="0 0 226 22" fill="none" xmlns="http://www.w3.org/2000/svg">
<mask id="path-1-outside-1_2005_2806" maskUnits="userSpaceOnUse" x="30" y="0" width="166" height="23" fill="black">
<rect fill="white" x="30" width="166" height="23"/>
<path d="M43.9687 4.24H49.4487L44.5087 9.9L49.5487 18H44.3287L41.4687 12.96L39.0687 14.92V18H34.6487V4.24H39.0687V10.12L43.9687 4.24ZM51.1089 18V4.24H55.5289V18H51.1089ZM70.1023 18V13.04C70.1023 12.4267 70.1223 11.8 70.1623 11.16C70.2157 10.5067 70.269 9.96 70.3223 9.52C70.3757 9.08 70.409 8.8 70.4223 8.68H70.3423L67.8023 18H64.3423L61.7823 8.7H61.7023C61.7157 8.82 61.749 9.1 61.8023 9.54C61.869 9.96667 61.929 10.5067 61.9823 11.16C62.0357 11.8 62.0623 12.4267 62.0623 13.04V18H58.0023V4.24H64.2423L66.3223 12.18H66.4023L68.4623 4.24H74.4823V18H70.1023ZM93.4092 13.22C93.4092 14.94 92.9159 16.2067 91.9292 17.02C90.9559 17.8333 89.5492 18.24 87.7092 18.24C85.8692 18.24 84.4559 17.8333 83.4692 17.02C82.4959 16.2067 82.0092 14.94 82.0092 13.22V13.04H86.1492V13.2C86.1492 13.8267 86.2626 14.2733 86.4892 14.54C86.7292 14.8067 87.0892 14.94 87.5692 14.94C88.0492 14.94 88.4026 14.8067 88.6292 14.54C88.8692 14.2733 88.9892 13.8267 88.9892 13.2V4.24H93.4092V13.22ZM96.1691 18V4.24H100.589V18H96.1691ZM119.943 18L118.163 9.62H118.083L116.303 18H111.443L108.223 4.24H112.823L114.403 12.04H114.483L116.043 4.24H120.403L122.063 12.04H122.143L123.623 4.24H128.023L124.803 18H119.943ZM135.711 4C138.084 4 139.917 4.60667 141.211 5.82C142.504 7.03333 143.151 8.8 143.151 11.12C143.151 13.44 142.504 15.2067 141.211 16.42C139.917 17.6333 138.084 18.24 135.711 18.24C133.337 18.24 131.504 17.64 130.211 16.44C128.931 15.2267 128.291 13.4533 128.291 11.12C128.291 8.78667 128.931 7.02 130.211 5.82C131.504 4.60667 133.337 4 135.711 4ZM135.711 7.3C134.764 7.3 134.044 7.58667 133.551 8.16C133.057 8.73333 132.811 9.50667 132.811 10.48V11.76C132.811 12.7333 133.057 13.5067 133.551 14.08C134.044 14.6533 134.764 14.94 135.711 14.94C136.657 14.94 137.377 14.6533 137.871 14.08C138.377 13.5067 138.631 12.7333 138.631 11.76V10.48C138.631 9.50667 138.377 8.73333 137.871 8.16C137.377 7.58667 136.657 7.3 135.711 7.3ZM151.971 4C154.344 4 156.177 4.60667 157.471 5.82C158.764 7.03333 159.411 8.8 159.411 11.12C159.411 13.44 158.764 15.2067 157.471 16.42C156.177 17.6333 154.344 18.24 151.971 18.24C149.597 18.24 147.764 17.64 146.471 16.44C145.191 15.2267 144.551 13.4533 144.551 11.12C144.551 8.78667 145.191 7.02 146.471 5.82C147.764 4.60667 149.597 4 151.971 4ZM151.971 7.3C151.024 7.3 150.304 7.58667 149.811 8.16C149.317 8.73333 149.071 9.50667 149.071 10.48V11.76C149.071 12.7333 149.317 13.5067 149.811 14.08C150.304 14.6533 151.024 14.94 151.971 14.94C152.917 14.94 153.637 14.6533 154.131 14.08C154.637 13.5067 154.891 12.7333 154.891 11.76V10.48C154.891 9.50667 154.637 8.73333 154.131 8.16C153.637 7.58667 152.917 7.3 151.971 7.3ZM171.231 18L165.451 11.32V18H161.391V4.24H165.251L171.031 11.02V4.24H175.091V18H171.231ZM184.571 4C185.891 4 187.078 4.2 188.131 4.6C189.184 5 190.018 5.59333 190.631 6.38C191.258 7.15333 191.571 8.1 191.571 9.22H187.351C187.351 8.64667 187.098 8.18667 186.591 7.84C186.084 7.48 185.471 7.3 184.751 7.3C183.711 7.3 182.924 7.58 182.391 8.14C181.858 8.68667 181.591 9.46667 181.591 10.48V11.76C181.591 12.7733 181.858 13.56 182.391 14.12C182.924 14.6667 183.711 14.94 184.751 14.94C185.471 14.94 186.084 14.7733 186.591 14.44C187.098 14.0933 187.351 13.6533 187.351 13.12H184.231V10.32H191.571V18H189.291L188.851 16.64C187.598 17.7067 185.958 18.24 183.931 18.24C181.651 18.24 179.938 17.6467 178.791 16.46C177.644 15.26 177.071 13.48 177.071 11.12C177.071 8.78667 177.718 7.02 179.011 5.82C180.318 4.60667 182.171 4 184.571 4Z"/>
</mask>
<path d="M43.9687 4.24H49.4487L44.5087 9.9L49.5487 18H44.3287L41.4687 12.96L39.0687 14.92V18H34.6487V4.24H39.0687V10.12L43.9687 4.24ZM51.1089 18V4.24H55.5289V18H51.1089ZM70.1023 18V13.04C70.1023 12.4267 70.1223 11.8 70.1623 11.16C70.2157 10.5067 70.269 9.96 70.3223 9.52C70.3757 9.08 70.409 8.8 70.4223 8.68H70.3423L67.8023 18H64.3423L61.7823 8.7H61.7023C61.7157 8.82 61.749 9.1 61.8023 9.54C61.869 9.96667 61.929 10.5067 61.9823 11.16C62.0357 11.8 62.0623 12.4267 62.0623 13.04V18H58.0023V4.24H64.2423L66.3223 12.18H66.4023L68.4623 4.24H74.4823V18H70.1023ZM93.4092 13.22C93.4092 14.94 92.9159 16.2067 91.9292 17.02C90.9559 17.8333 89.5492 18.24 87.7092 18.24C85.8692 18.24 84.4559 17.8333 83.4692 17.02C82.4959 16.2067 82.0092 14.94 82.0092 13.22V13.04H86.1492V13.2C86.1492 13.8267 86.2626 14.2733 86.4892 14.54C86.7292 14.8067 87.0892 14.94 87.5692 14.94C88.0492 14.94 88.4026 14.8067 88.6292 14.54C88.8692 14.2733 88.9892 13.8267 88.9892 13.2V4.24H93.4092V13.22ZM96.1691 18V4.24H100.589V18H96.1691ZM119.943 18L118.163 9.62H118.083L116.303 18H111.443L108.223 4.24H112.823L114.403 12.04H114.483L116.043 4.24H120.403L122.063 12.04H122.143L123.623 4.24H128.023L124.803 18H119.943ZM135.711 4C138.084 4 139.917 4.60667 141.211 5.82C142.504 7.03333 143.151 8.8 143.151 11.12C143.151 13.44 142.504 15.2067 141.211 16.42C139.917 17.6333 138.084 18.24 135.711 18.24C133.337 18.24 131.504 17.64 130.211 16.44C128.931 15.2267 128.291 13.4533 128.291 11.12C128.291 8.78667 128.931 7.02 130.211 5.82C131.504 4.60667 133.337 4 135.711 4ZM135.711 7.3C134.764 7.3 134.044 7.58667 133.551 8.16C133.057 8.73333 132.811 9.50667 132.811 10.48V11.76C132.811 12.7333 133.057 13.5067 133.551 14.08C134.044 14.6533 134.764 14.94 135.711 14.94C136.657 14.94 137.377 14.6533 137.871 14.08C138.377 13.5067 138.631 12.7333 138.631 11.76V10.48C138.631 9.50667 138.377 8.73333 137.871 8.16C137.377 7.58667 136.657 7.3 135.711 7.3ZM151.971 4C154.344 4 156.177 4.60667 157.471 5.82C158.764 7.03333 159.411 8.8 159.411 11.12C159.411 13.44 158.764 15.2067 157.471 16.42C156.177 17.6333 154.344 18.24 151.971 18.24C149.597 18.24 147.764 17.64 146.471 16.44C145.191 15.2267 144.551 13.4533 144.551 11.12C144.551 8.78667 145.191 7.02 146.471 5.82C147.764 4.60667 149.597 4 151.971 4ZM151.971 7.3C151.024 7.3 150.304 7.58667 149.811 8.16C149.317 8.73333 149.071 9.50667 149.071 10.48V11.76C149.071 12.7333 149.317 13.5067 149.811 14.08C150.304 14.6533 151.024 14.94 151.971 14.94C152.917 14.94 153.637 14.6533 154.131 14.08C154.637 13.5067 154.891 12.7333 154.891 11.76V10.48C154.891 9.50667 154.637 8.73333 154.131 8.16C153.637 7.58667 152.917 7.3 151.971 7.3ZM171.231 18L165.451 11.32V18H161.391V4.24H165.251L171.031 11.02V4.24H175.091V18H171.231ZM184.571 4C185.891 4 187.078 4.2 188.131 4.6C189.184 5 190.018 5.59333 190.631 6.38C191.258 7.15333 191.571 8.1 191.571 9.22H187.351C187.351 8.64667 187.098 8.18667 186.591 7.84C186.084 7.48 185.471 7.3 184.751 7.3C183.711 7.3 182.924 7.58 182.391 8.14C181.858 8.68667 181.591 9.46667 181.591 10.48V11.76C181.591 12.7733 181.858 13.56 182.391 14.12C182.924 14.6667 183.711 14.94 184.751 14.94C185.471 14.94 186.084 14.7733 186.591 14.44C187.098 14.0933 187.351 13.6533 187.351 13.12H184.231V10.32H191.571V18H189.291L188.851 16.64C187.598 17.7067 185.958 18.24 183.931 18.24C181.651 18.24 179.938 17.6467 178.791 16.46C177.644 15.26 177.071 13.48 177.071 11.12C177.071 8.78667 177.718 7.02 179.011 5.82C180.318 4.60667 182.171 4 184.571 4Z" fill="black"/>
<path d="M43.9687 4.24V0.24C42.7816 0.24 41.6558 0.767292 40.8959 1.67926L43.9687 4.24ZM49.4487 4.24L52.4623 6.87025C53.4938 5.68846 53.7393 4.01287 53.0902 2.58485C52.4412 1.15684 51.0173 0.24 49.4487 0.24V4.24ZM44.5087 9.9L41.4951 7.26975C40.3386 8.59483 40.1833 10.5199 41.1125 12.0132L44.5087 9.9ZM49.5487 18V22C51.0014 22 52.3399 21.2124 53.0454 19.9426C53.7509 18.6727 53.7124 17.1202 52.945 15.8868L49.5487 18ZM44.3287 18L40.8498 19.9741C41.5604 21.2263 42.889 22 44.3287 22V18ZM41.4687 12.96L44.9477 10.9859C44.3661 9.96109 43.3624 9.24483 42.2042 9.02819C41.046 8.81155 39.8512 9.11657 38.9386 9.86187L41.4687 12.96ZM39.0687 14.92L36.5386 11.8219C35.6084 12.5815 35.0687 13.719 35.0687 14.92H39.0687ZM39.0687 18V22C41.2779 22 43.0687 20.2091 43.0687 18H39.0687ZM34.6487 18H30.6487C30.6487 20.2091 32.4396 22 34.6487 22V18ZM34.6487 4.24V0.24C32.4396 0.24 30.6487 2.03086 30.6487 4.24H34.6487ZM39.0687 4.24H43.0687C43.0687 2.03086 41.2779 0.24 39.0687 0.24V4.24ZM39.0687 10.12H35.0687C35.0687 11.8041 36.1236 13.3078 37.707 13.8811C39.2905 14.4544 41.0635 13.9745 42.1416 12.6807L39.0687 10.12ZM43.9687 8.24H49.4487V0.24H43.9687V8.24ZM46.4351 1.60975L41.4951 7.26975L47.5224 12.5302L52.4623 6.87025L46.4351 1.60975ZM41.1125 12.0132L46.1525 20.1132L52.945 15.8868L47.905 7.78679L41.1125 12.0132ZM49.5487 14H44.3287V22H49.5487V14ZM47.8077 16.0259L44.9477 10.9859L37.9898 14.9341L40.8498 19.9741L47.8077 16.0259ZM38.9386 9.86187L36.5386 11.8219L41.5989 18.0181L43.9989 16.0581L38.9386 9.86187ZM35.0687 14.92V18H43.0687V14.92H35.0687ZM39.0687 14H34.6487V22H39.0687V14ZM38.6487 18V4.24H30.6487V18H38.6487ZM34.6487 8.24H39.0687V0.24H34.6487V8.24ZM35.0687 4.24V10.12H43.0687V4.24H35.0687ZM42.1416 12.6807L47.0416 6.80074L40.8959 1.67926L35.9959 7.55926L42.1416 12.6807ZM51.1089 18H47.1089C47.1089 20.2091 48.8998 22 51.1089 22V18ZM51.1089 4.24V0.24C48.8998 0.24 47.1089 2.03086 47.1089 4.24H51.1089ZM55.5289 4.24H59.5289C59.5289 2.03086 57.738 0.24 55.5289 0.24V4.24ZM55.5289 18V22C57.738 22 59.5289 20.2091 59.5289 18H55.5289ZM55.1089 18V4.24H47.1089V18H55.1089ZM51.1089 8.24H55.5289V0.24H51.1089V8.24ZM51.5289 4.24V18H59.5289V4.24H51.5289ZM55.5289 14H51.1089V22H55.5289V14ZM70.1023 18H66.1023C66.1023 20.2091 67.8932 22 70.1023 22V18ZM70.1623 11.16L66.1756 10.8346C66.1735 10.8598 66.1717 10.8852 66.1701 10.9105L70.1623 11.16ZM70.3223 9.52L74.2933 10.0013L74.2933 10.0013L70.3223 9.52ZM70.4223 8.68L74.3979 9.12175C74.5235 7.99093 74.1617 6.86011 73.4029 6.01232C72.6441 5.16453 71.5601 4.68 70.4223 4.68V8.68ZM70.3423 8.68V4.68C68.5383 4.68 66.9575 5.88764 66.4831 7.62823L70.3423 8.68ZM67.8023 18V22C69.6064 22 71.1872 20.7924 71.6616 19.0518L67.8023 18ZM64.3423 18L60.4858 19.0616C60.9636 20.7973 62.542 22 64.3423 22V18ZM61.7823 8.7L65.6389 7.63841C65.1611 5.90268 63.5826 4.7 61.7823 4.7V8.7ZM61.7023 8.7V4.7C60.5646 4.7 59.4806 5.18453 58.7218 6.03231C57.963 6.8801 57.6012 8.01091 57.7268 9.14173L61.7023 8.7ZM61.8023 9.54L57.8314 10.0213C57.8369 10.0668 57.8432 10.1122 57.8503 10.1575L61.8023 9.54ZM61.9823 11.16L57.9956 11.4854L57.9962 11.4922L61.9823 11.16ZM62.0623 18V22C64.2715 22 66.0623 20.2091 66.0623 18H62.0623ZM58.0023 18H54.0023C54.0023 20.2091 55.7932 22 58.0023 22V18ZM58.0023 4.24V0.24C55.7932 0.24 54.0023 2.03086 54.0023 4.24H58.0023ZM64.2423 4.24L68.1118 3.22634C67.6509 1.46697 66.0611 0.24 64.2423 0.24V4.24ZM66.3223 12.18L62.4529 13.1937C62.9138 14.953 64.5036 16.18 66.3223 16.18V12.18ZM66.4023 12.18V16.18C68.2246 16.18 69.8165 14.9484 70.2742 13.1845L66.4023 12.18ZM68.4623 4.24V0.24C66.6401 0.24 65.0482 1.47162 64.5905 3.23547L68.4623 4.24ZM74.4823 4.24H78.4823C78.4823 2.03086 76.6915 0.24 74.4823 0.24V4.24ZM74.4823 18V22C76.6915 22 78.4823 20.2091 78.4823 18H74.4823ZM74.1023 18V13.04H66.1023V18H74.1023ZM74.1023 13.04C74.1023 12.5136 74.1195 11.9702 74.1546 11.4095L66.1701 10.9105C66.1252 11.6298 66.1023 12.3398 66.1023 13.04H74.1023ZM74.1491 11.4854C74.2 10.8621 74.2484 10.3714 74.2933 10.0013L66.3514 9.03867C66.2896 9.54863 66.2314 10.1512 66.1756 10.8346L74.1491 11.4854ZM74.2933 10.0013C74.3459 9.56752 74.3819 9.26572 74.3979 9.12175L66.4468 8.23825C66.4361 8.33428 66.4055 8.59248 66.3514 9.03868L74.2933 10.0013ZM70.4223 4.68H70.3423V12.68H70.4223V4.68ZM66.4831 7.62823L63.9431 16.9482L71.6616 19.0518L74.2016 9.73177L66.4831 7.62823ZM67.8023 14H64.3423V22H67.8023V14ZM68.1989 16.9384L65.6389 7.63841L57.9258 9.76159L60.4858 19.0616L68.1989 16.9384ZM61.7823 4.7H61.7023V12.7H61.7823V4.7ZM57.7268 9.14173C57.7428 9.28572 57.7788 9.58753 57.8314 10.0213L65.7733 9.05868C65.7192 8.61247 65.6885 8.35428 65.6779 8.25827L57.7268 9.14173ZM57.8503 10.1575C57.8962 10.4515 57.9466 10.8855 57.9956 11.4854L65.9691 10.8346C65.9114 10.1279 65.8418 9.48185 65.7544 8.92249L57.8503 10.1575ZM57.9962 11.4922C58.0407 12.0268 58.0623 12.5426 58.0623 13.04H66.0623C66.0623 12.3107 66.0306 11.5732 65.9685 10.8278L57.9962 11.4922ZM58.0623 13.04V18H66.0623V13.04H58.0623ZM62.0623 14H58.0023V22H62.0623V14ZM62.0023 18V4.24H54.0023V18H62.0023ZM58.0023 8.24H64.2423V0.24H58.0023V8.24ZM60.3729 5.25365L62.4529 13.1937L70.1918 11.1663L68.1118 3.22634L60.3729 5.25365ZM66.3223 16.18H66.4023V8.18H66.3223V16.18ZM70.2742 13.1845L72.3342 5.24452L64.5905 3.23547L62.5305 11.1755L70.2742 13.1845ZM68.4623 8.24H74.4823V0.24H68.4623V8.24ZM70.4823 4.24V18H78.4823V4.24H70.4823ZM74.4823 14H70.1023V22H74.4823V14ZM91.9292 17.02L89.3849 13.9335C89.3781 13.9392 89.3712 13.9448 89.3643 13.9506L91.9292 17.02ZM83.4692 17.02L80.9043 20.0894C80.9112 20.0952 80.918 20.1008 80.9249 20.1065L83.4692 17.02ZM82.0092 13.04V9.04C79.8001 9.04 78.0092 10.8309 78.0092 13.04H82.0092ZM86.1492 13.04H90.1492C90.1492 10.8309 88.3584 9.04 86.1492 9.04V13.04ZM86.4892 14.54L83.4415 17.1306C83.4659 17.1594 83.4908 17.1878 83.516 17.2159L86.4892 14.54ZM88.6292 14.54L85.656 11.8641C85.6308 11.8922 85.6059 11.9206 85.5815 11.9494L88.6292 14.54ZM88.9892 4.24V0.24C86.7801 0.24 84.9892 2.03086 84.9892 4.24H88.9892ZM93.4092 4.24H97.4092C97.4092 2.03086 95.6184 0.24 93.4092 0.24V4.24ZM89.4092 13.22C89.4092 13.7097 89.3376 13.9425 89.3119 14.0083C89.3006 14.0376 89.2994 14.0315 89.3176 14.006C89.3365 13.9794 89.3611 13.9531 89.3849 13.9335L94.4735 20.1065C96.6739 18.2927 97.4092 15.6963 97.4092 13.22H89.4092ZM89.3643 13.9506C89.3642 13.9506 89.2854 14.0195 89.0333 14.0924C88.7696 14.1686 88.345 14.24 87.7092 14.24V22.24C90.0745 22.24 92.5381 21.7239 94.4941 20.0894L89.3643 13.9506ZM87.7092 14.24C86.3994 14.24 86.0272 13.9447 86.0135 13.9335L80.9249 20.1065C82.8846 21.7219 85.3391 22.24 87.7092 22.24V14.24ZM86.0341 13.9506C86.0604 13.9725 86.0858 14.0003 86.1044 14.0269C86.1223 14.0524 86.1203 14.0571 86.1081 14.0254C86.0807 13.9542 86.0092 13.7152 86.0092 13.22H78.0092C78.0092 15.679 78.7271 18.2701 80.9043 20.0894L86.0341 13.9506ZM86.0092 13.22V13.04H78.0092V13.22H86.0092ZM82.0092 17.04H86.1492V9.04H82.0092V17.04ZM82.1492 13.04V13.2H90.1492V13.04H82.1492ZM82.1492 13.2C82.1492 14.1042 82.2728 15.7556 83.4415 17.1306L89.537 11.9494C89.9239 12.4046 90.0634 12.8324 90.1114 13.0212C90.1595 13.2111 90.1492 13.2917 90.1492 13.2H82.1492ZM83.516 17.2159C84.7474 18.584 86.3574 18.94 87.5692 18.94V10.94C87.821 10.94 88.711 11.0293 89.4624 11.8641L83.516 17.2159ZM87.5692 18.94C88.7649 18.94 90.4369 18.5896 91.677 17.1306L85.5815 11.9494C86.3682 11.0238 87.3335 10.94 87.5692 10.94V18.94ZM91.6024 17.2159C92.8462 15.8338 92.9892 14.1417 92.9892 13.2H84.9892C84.9892 13.2779 84.9796 13.1778 85.0362 12.9672C85.0939 12.7524 85.2506 12.3147 85.656 11.8641L91.6024 17.2159ZM92.9892 13.2V4.24H84.9892V13.2H92.9892ZM88.9892 8.24H93.4092V0.24H88.9892V8.24ZM89.4092 4.24V13.22H97.4092V4.24H89.4092ZM96.1691 18H92.1691C92.1691 20.2091 93.9599 22 96.1691 22V18ZM96.1691 4.24V0.24C93.9599 0.24 92.1691 2.03086 92.1691 4.24H96.1691ZM100.589 4.24H104.589C104.589 2.03086 102.798 0.24 100.589 0.24V4.24ZM100.589 18V22C102.798 22 104.589 20.2091 104.589 18H100.589ZM100.169 18V4.24H92.1691V18H100.169ZM96.1691 8.24H100.589V0.24H96.1691V8.24ZM96.5891 4.24V18H104.589V4.24H96.5891ZM100.589 14H96.1691V22H100.589V14ZM119.943 18L116.03 18.8311C116.422 20.6787 118.054 22 119.943 22V18ZM118.163 9.62L122.075 8.7889C121.683 6.94128 120.051 5.62 118.163 5.62V9.62ZM118.083 9.62V5.62C116.194 5.62 114.562 6.94128 114.17 8.7889L118.083 9.62ZM116.303 18V22C118.191 22 119.823 20.6787 120.215 18.8311L116.303 18ZM111.443 18L107.548 18.9114C107.971 20.7206 109.585 22 111.443 22V18ZM108.223 4.24V0.24C107.002 0.24 105.847 0.797805 105.089 1.75461C104.33 2.71142 104.05 3.96241 104.328 5.15142L108.223 4.24ZM112.823 4.24L116.743 3.44587C116.365 1.58073 114.726 0.24 112.823 0.24V4.24ZM114.403 12.04L110.482 12.8341C110.86 14.6993 112.5 16.04 114.403 16.04V12.04ZM114.483 12.04V16.04C116.389 16.04 118.031 14.6942 118.405 12.8245L114.483 12.04ZM116.043 4.24V0.24C114.136 0.24 112.494 1.58584 112.12 3.45553L116.043 4.24ZM120.403 4.24L124.315 3.40736C123.922 1.56047 122.291 0.24 120.403 0.24V4.24ZM122.063 12.04L118.15 12.8726C118.543 14.7195 120.174 16.04 122.063 16.04V12.04ZM122.143 12.04V16.04C124.064 16.04 125.714 14.6736 126.073 12.7857L122.143 12.04ZM123.623 4.24V0.24C121.701 0.24 120.051 1.60642 119.693 3.49433L123.623 4.24ZM128.023 4.24L131.917 5.15142C132.196 3.96241 131.916 2.71142 131.157 1.75461C130.398 0.797805 129.244 0.24 128.023 0.24V4.24ZM124.803 18V22C126.661 22 128.274 20.7206 128.697 18.9114L124.803 18ZM123.855 17.1689L122.075 8.7889L114.25 10.4511L116.03 18.8311L123.855 17.1689ZM118.163 5.62H118.083V13.62H118.163V5.62ZM114.17 8.7889L112.39 17.1689L120.215 18.8311L121.995 10.4511L114.17 8.7889ZM116.303 14H111.443V22H116.303V14ZM115.337 17.0886L112.117 3.32858L104.328 5.15142L107.548 18.9114L115.337 17.0886ZM108.223 8.24H112.823V0.24H108.223V8.24ZM108.902 5.03413L110.482 12.8341L118.323 11.2459L116.743 3.44587L108.902 5.03413ZM114.403 16.04H114.483V8.04H114.403V16.04ZM118.405 12.8245L119.965 5.02446L112.12 3.45553L110.56 11.2555L118.405 12.8245ZM116.043 8.24H120.403V0.24H116.043V8.24ZM116.49 5.07263L118.15 12.8726L125.975 11.2074L124.315 3.40736L116.49 5.07263ZM122.063 16.04H122.143V8.04H122.063V16.04ZM126.073 12.7857L127.553 4.98567L119.693 3.49433L118.213 11.2943L126.073 12.7857ZM123.623 8.24H128.023V0.24H123.623V8.24ZM124.128 3.32858L120.908 17.0886L128.697 18.9114L131.917 5.15142L124.128 3.32858ZM124.803 14H119.943V22H124.803V14ZM141.211 16.42L138.474 13.5028L141.211 16.42ZM130.211 16.44L127.459 19.343C127.469 19.3528 127.48 19.3626 127.49 19.3722L130.211 16.44ZM130.211 5.82L132.946 8.73815L132.947 8.73721L130.211 5.82ZM133.551 8.16L136.583 10.769V10.769L133.551 8.16ZM137.871 14.08L134.873 11.4312C134.862 11.4444 134.85 11.4577 134.839 11.471L137.871 14.08ZM137.871 8.16L134.839 10.769C134.85 10.7823 134.862 10.7956 134.873 10.8088L137.871 8.16ZM135.711 8C137.419 8 138.144 8.42756 138.474 8.73721L143.947 2.90279C141.691 0.785774 138.749 -9.53674e-07 135.711 -9.53674e-07V8ZM138.474 8.73721C138.733 8.98016 139.151 9.54726 139.151 11.12H147.151C147.151 8.05274 146.275 5.0865 143.947 2.90279L138.474 8.73721ZM139.151 11.12C139.151 12.6927 138.733 13.2598 138.474 13.5028L143.947 19.3372C146.275 17.1535 147.151 14.1873 147.151 11.12H139.151ZM138.474 13.5028C138.144 13.8124 137.419 14.24 135.711 14.24V22.24C138.749 22.24 141.691 21.4542 143.947 19.3372L138.474 13.5028ZM135.711 14.24C133.992 14.24 133.26 13.8132 132.931 13.5077L127.49 19.3722C129.747 21.4668 132.683 22.24 135.711 22.24V14.24ZM132.962 13.537C132.713 13.3008 132.291 12.7259 132.291 11.12H124.291C124.291 14.1808 125.148 17.1525 127.459 19.343L132.962 13.537ZM132.291 11.12C132.291 9.51127 132.714 8.95578 132.946 8.73815L127.475 2.90185C125.147 5.08422 124.291 8.06206 124.291 11.12H132.291ZM132.947 8.73721C133.277 8.42756 134.003 8 135.711 8V-9.53674e-07C132.672 -9.53674e-07 129.73 0.785774 127.474 2.90279L132.947 8.73721ZM135.711 3.3C133.916 3.3 131.957 3.87959 130.519 5.55103L136.583 10.769C136.398 10.9835 136.164 11.1421 135.94 11.2313C135.738 11.3119 135.635 11.3 135.711 11.3V3.3ZM130.519 5.55103C129.239 7.03803 128.811 8.83022 128.811 10.48H136.811C136.811 10.3264 136.831 10.31 136.806 10.3855C136.779 10.473 136.712 10.6191 136.583 10.769L130.519 5.55103ZM128.811 10.48V11.76H136.811V10.48H128.811ZM128.811 11.76C128.811 13.4098 129.239 15.202 130.519 16.689L136.583 11.471C136.712 11.6209 136.779 11.767 136.806 11.8545C136.831 11.93 136.811 11.9136 136.811 11.76H128.811ZM130.519 16.689C131.957 18.3604 133.916 18.94 135.711 18.94V10.94C135.635 10.94 135.738 10.9281 135.94 11.0087C136.164 11.0979 136.398 11.2565 136.583 11.471L130.519 16.689ZM135.711 18.94C137.505 18.94 139.464 18.3604 140.903 16.689L134.839 11.471C135.023 11.2565 135.257 11.0979 135.481 11.0087C135.683 10.9281 135.786 10.94 135.711 10.94V18.94ZM140.868 16.7288C142.181 15.2424 142.631 13.4353 142.631 11.76H134.631C134.631 11.9041 134.611 11.9099 134.639 11.8248C134.671 11.7271 134.743 11.5783 134.873 11.4312L140.868 16.7288ZM142.631 11.76V10.48H134.631V11.76H142.631ZM142.631 10.48C142.631 8.80473 142.181 6.99758 140.868 5.51121L134.873 10.8088C134.743 10.6617 134.671 10.5129 134.639 10.4152C134.611 10.3301 134.631 10.3359 134.631 10.48H142.631ZM140.903 5.55103C139.464 3.87959 137.505 3.3 135.711 3.3V11.3C135.786 11.3 135.683 11.3119 135.481 11.2313C135.257 11.1421 135.023 10.9835 134.839 10.769L140.903 5.55103ZM157.471 16.42L154.734 13.5028L157.471 16.42ZM146.471 16.44L143.719 19.343C143.729 19.3528 143.74 19.3626 143.75 19.3722L146.471 16.44ZM146.471 5.82L149.207 8.73815L149.208 8.73721L146.471 5.82ZM149.811 8.16L152.843 10.769V10.769L149.811 8.16ZM154.131 14.08L151.133 11.4312C151.122 11.4444 151.11 11.4577 151.099 11.471L154.131 14.08ZM154.131 8.16L151.099 10.769C151.11 10.7823 151.122 10.7956 151.133 10.8088L154.131 8.16ZM151.971 8C153.679 8 154.404 8.42756 154.734 8.73721L160.208 2.90279C157.951 0.785774 155.009 -9.53674e-07 151.971 -9.53674e-07V8ZM154.734 8.73721C154.993 8.98016 155.411 9.54726 155.411 11.12H163.411C163.411 8.05274 162.535 5.0865 160.208 2.90279L154.734 8.73721ZM155.411 11.12C155.411 12.6927 154.993 13.2598 154.734 13.5028L160.208 19.3372C162.535 17.1535 163.411 14.1873 163.411 11.12H155.411ZM154.734 13.5028C154.404 13.8124 153.679 14.24 151.971 14.24V22.24C155.009 22.24 157.951 21.4542 160.208 19.3372L154.734 13.5028ZM151.971 14.24C150.252 14.24 149.521 13.8132 149.191 13.5077L143.75 19.3722C146.008 21.4668 148.943 22.24 151.971 22.24V14.24ZM149.223 13.537C148.973 13.3008 148.551 12.7259 148.551 11.12H140.551C140.551 14.1808 141.408 17.1525 143.719 19.343L149.223 13.537ZM148.551 11.12C148.551 9.51127 148.974 8.95578 149.207 8.73815L143.735 2.90185C141.407 5.08422 140.551 8.06206 140.551 11.12H148.551ZM149.208 8.73721C149.538 8.42756 150.263 8 151.971 8V-9.53674e-07C148.932 -9.53674e-07 145.991 0.785774 143.734 2.90279L149.208 8.73721ZM151.971 3.3C150.176 3.3 148.217 3.87959 146.779 5.55103L152.843 10.769C152.658 10.9835 152.424 11.1421 152.2 11.2313C151.998 11.3119 151.895 11.3 151.971 11.3V3.3ZM146.779 5.55103C145.499 7.03803 145.071 8.83022 145.071 10.48H153.071C153.071 10.3264 153.091 10.31 153.067 10.3855C153.039 10.473 152.972 10.6191 152.843 10.769L146.779 5.55103ZM145.071 10.48V11.76H153.071V10.48H145.071ZM145.071 11.76C145.071 13.4098 145.499 15.202 146.779 16.689L152.843 11.471C152.972 11.6209 153.039 11.767 153.067 11.8545C153.091 11.93 153.071 11.9136 153.071 11.76H145.071ZM146.779 16.689C148.217 18.3604 150.176 18.94 151.971 18.94V10.94C151.895 10.94 151.998 10.9281 152.2 11.0087C152.424 11.0979 152.658 11.2565 152.843 11.471L146.779 16.689ZM151.971 18.94C153.765 18.94 155.725 18.3604 157.163 16.689L151.099 11.471C151.283 11.2565 151.517 11.0979 151.741 11.0087C151.944 10.9281 152.046 10.94 151.971 10.94V18.94ZM157.128 16.7288C158.442 15.2424 158.891 13.4353 158.891 11.76H150.891C150.891 11.9041 150.872 11.9099 150.9 11.8248C150.932 11.7271 151.003 11.5783 151.133 11.4312L157.128 16.7288ZM158.891 11.76V10.48H150.891V11.76H158.891ZM158.891 10.48C158.891 8.80473 158.442 6.99758 157.128 5.51121L151.133 10.8088C151.003 10.6617 150.932 10.5129 150.9 10.4152C150.872 10.3301 150.891 10.3359 150.891 10.48H158.891ZM157.163 5.55103C155.725 3.87959 153.765 3.3 151.971 3.3V11.3C152.046 11.3 151.944 11.3119 151.741 11.2313C151.517 11.1421 151.283 10.9835 151.099 10.769L157.163 5.55103ZM171.231 18L168.206 20.6173C168.966 21.4954 170.07 22 171.231 22V18ZM165.451 11.32L168.476 8.70269C167.383 7.43945 165.62 6.98848 164.054 7.57171C162.489 8.15493 161.451 9.64951 161.451 11.32H165.451ZM165.451 18V22C167.66 22 169.451 20.2091 169.451 18H165.451ZM161.391 18H157.391C157.391 20.2091 159.182 22 161.391 22V18ZM161.391 4.24V0.24C159.182 0.24 157.391 2.03086 157.391 4.24H161.391ZM165.251 4.24L168.295 1.64498C167.535 0.753513 166.422 0.24 165.251 0.24V4.24ZM171.031 11.02L167.987 13.615C169.074 14.8904 170.841 15.3527 172.414 14.7734C173.986 14.1941 175.031 12.6959 175.031 11.02H171.031ZM171.031 4.24V0.24C168.822 0.24 167.031 2.03086 167.031 4.24H171.031ZM175.091 4.24H179.091C179.091 2.03086 177.3 0.24 175.091 0.24V4.24ZM175.091 18V22C177.3 22 179.091 20.2091 179.091 18H175.091ZM174.256 15.3827L168.476 8.70269L162.426 13.9373L168.206 20.6173L174.256 15.3827ZM161.451 11.32V18H169.451V11.32H161.451ZM165.451 14H161.391V22H165.451V14ZM165.391 18V4.24H157.391V18H165.391ZM161.391 8.24H165.251V0.24H161.391V8.24ZM162.207 6.83502L167.987 13.615L174.075 8.42498L168.295 1.64498L162.207 6.83502ZM175.031 11.02V4.24H167.031V11.02H175.031ZM171.031 8.24H175.091V0.24H171.031V8.24ZM171.091 4.24V18H179.091V4.24H171.091ZM175.091 14H171.231V22H175.091V14ZM188.131 4.6L186.711 8.33945V8.33945L188.131 4.6ZM190.631 6.38L187.477 8.83946C187.492 8.85923 187.508 8.87886 187.523 8.89833L190.631 6.38ZM191.571 9.22V13.22C193.78 13.22 195.571 11.4291 195.571 9.22H191.571ZM187.351 9.22H183.351C183.351 11.4291 185.142 13.22 187.351 13.22V9.22ZM186.591 7.84L184.274 11.1007C184.294 11.1144 184.313 11.1279 184.332 11.1412L186.591 7.84ZM182.391 8.14L185.254 10.9333C185.265 10.9218 185.277 10.9102 185.288 10.8986L182.391 8.14ZM182.391 14.12L179.495 16.8786C179.506 16.8902 179.517 16.9018 179.528 16.9133L182.391 14.12ZM186.591 14.44L188.79 17.7817C188.81 17.7684 188.83 17.7549 188.85 17.7412L186.591 14.44ZM187.351 13.12H191.351C191.351 10.9109 189.56 9.12 187.351 9.12V13.12ZM184.231 13.12H180.231C180.231 15.3291 182.022 17.12 184.231 17.12V13.12ZM184.231 10.32V6.32C182.022 6.32 180.231 8.11086 180.231 10.32H184.231ZM191.571 10.32H195.571C195.571 8.11086 193.78 6.32 191.571 6.32V10.32ZM191.571 18V22C193.78 22 195.571 20.2091 195.571 18H191.571ZM189.291 18L185.485 19.2313C186.019 20.8818 187.556 22 189.291 22V18ZM188.851 16.64L192.657 15.4087C192.246 14.138 191.228 13.1563 189.943 12.7918C188.658 12.4274 187.276 12.7282 186.259 13.5938L188.851 16.64ZM178.791 16.46L175.899 19.2234C175.904 19.2288 175.909 19.2342 175.915 19.2395L178.791 16.46ZM179.011 5.82L181.732 8.75225L181.733 8.75117L179.011 5.82ZM184.571 8C185.488 8 186.182 8.13851 186.711 8.33945L189.551 0.860552C187.974 0.261492 186.295 -9.53674e-07 184.571 -9.53674e-07V8ZM186.711 8.33945C187.171 8.51403 187.37 8.70221 187.477 8.83946L193.786 3.92054C192.666 2.48446 191.198 1.48597 189.551 0.860551L186.711 8.33945ZM187.523 8.89833C187.532 8.90892 187.534 8.91138 187.539 8.92688C187.546 8.94819 187.571 9.03511 187.571 9.22H195.571C195.571 7.30467 195.015 5.43641 193.739 3.86167L187.523 8.89833ZM191.571 5.22H187.351V13.22H191.571V5.22ZM191.351 9.22C191.351 7.21948 190.355 5.5686 188.85 4.53877L184.332 11.1412C184.156 11.0207 183.88 10.7785 183.657 10.3746C183.429 9.96035 183.351 9.54462 183.351 9.22H191.351ZM188.908 4.57928C187.622 3.66524 186.165 3.3 184.751 3.3V11.3C184.777 11.3 184.727 11.3031 184.625 11.2731C184.518 11.2417 184.393 11.1852 184.274 11.1007L188.908 4.57928ZM184.751 3.3C183.008 3.3 181.016 3.78378 179.495 5.38138L185.288 10.8986C185.088 11.108 184.871 11.2254 184.722 11.2784C184.594 11.324 184.58 11.3 184.751 11.3V3.3ZM179.528 5.3467C178.052 6.8592 177.591 8.77459 177.591 10.48H185.591C185.591 10.3164 185.613 10.3195 185.576 10.429C185.533 10.5556 185.435 10.7485 185.254 10.9333L179.528 5.3467ZM177.591 10.48V11.76H185.591V10.48H177.591ZM177.591 11.76C177.591 13.4716 178.055 15.3667 179.495 16.8786L185.288 11.3614C185.451 11.5329 185.54 11.7102 185.579 11.8258C185.613 11.9256 185.591 11.9226 185.591 11.76H177.591ZM179.528 16.9133C181.055 18.478 183.034 18.94 184.751 18.94V10.94C184.571 10.94 184.575 10.9153 184.694 10.9566C184.833 11.0048 185.049 11.1167 185.254 11.3267L179.528 16.9133ZM184.751 18.94C186.104 18.94 187.516 18.6195 188.79 17.7817L184.393 11.0983C184.509 11.0216 184.62 10.9772 184.702 10.955C184.779 10.934 184.803 10.94 184.751 10.94V18.94ZM188.85 17.7412C190.255 16.7795 191.351 15.1891 191.351 13.12H183.351C183.351 12.7229 183.454 12.2723 183.695 11.8541C183.924 11.4564 184.192 11.2346 184.332 11.1388L188.85 17.7412ZM187.351 9.12H184.231V17.12H187.351V9.12ZM188.231 13.12V10.32H180.231V13.12H188.231ZM184.231 14.32H191.571V6.32H184.231V14.32ZM187.571 10.32V18H195.571V10.32H187.571ZM191.571 14H189.291V22H191.571V14ZM193.097 16.7687L192.657 15.4087L185.045 17.8713L185.485 19.2313L193.097 16.7687ZM186.259 13.5938C185.885 13.9116 185.236 14.24 183.931 14.24V22.24C186.68 22.24 189.31 21.5017 191.444 19.6862L186.259 13.5938ZM183.931 14.24C182.311 14.24 181.809 13.8271 181.668 13.6805L175.915 19.2395C178.066 21.4662 180.991 22.24 183.931 22.24V14.24ZM181.683 13.6966C181.5 13.5051 181.071 12.8858 181.071 11.12H173.071C173.071 14.0742 173.789 17.0149 175.899 19.2234L181.683 13.6966ZM181.071 11.12C181.071 9.52315 181.494 8.97259 181.732 8.75225L176.29 2.88775C173.941 5.06741 173.071 8.05018 173.071 11.12H181.071ZM181.733 8.75117C182.075 8.43365 182.825 8 184.571 8V-9.53674e-07C181.517 -9.53674e-07 178.561 0.779684 176.289 2.88883L181.733 8.75117Z" fill="#468ED3" mask="url(#path-1-outside-1_2005_2806)"/>
<mask id="path-3-outside-2_2005_2806" maskUnits="userSpaceOnUse" x="32" y="2" width="162" height="19" fill="black">
<rect fill="white" x="32" y="2" width="162" height="19"/>
<path d="M43.9687 4.24H49.4487L44.5087 9.9L49.5487 18H44.3287L41.4687 12.96L39.0687 14.92V18H34.6487V4.24H39.0687V10.12L43.9687 4.24ZM51.1089 18V4.24H55.5289V18H51.1089ZM70.1023 18V13.04C70.1023 12.4267 70.1223 11.8 70.1623 11.16C70.2157 10.5067 70.269 9.96 70.3223 9.52C70.3757 9.08 70.409 8.8 70.4223 8.68H70.3423L67.8023 18H64.3423L61.7823 8.7H61.7023C61.7157 8.82 61.749 9.1 61.8023 9.54C61.869 9.96667 61.929 10.5067 61.9823 11.16C62.0357 11.8 62.0623 12.4267 62.0623 13.04V18H58.0023V4.24H64.2423L66.3223 12.18H66.4023L68.4623 4.24H74.4823V18H70.1023ZM93.4092 13.22C93.4092 14.94 92.9159 16.2067 91.9292 17.02C90.9559 17.8333 89.5492 18.24 87.7092 18.24C85.8692 18.24 84.4559 17.8333 83.4692 17.02C82.4959 16.2067 82.0092 14.94 82.0092 13.22V13.04H86.1492V13.2C86.1492 13.8267 86.2626 14.2733 86.4892 14.54C86.7292 14.8067 87.0892 14.94 87.5692 14.94C88.0492 14.94 88.4026 14.8067 88.6292 14.54C88.8692 14.2733 88.9892 13.8267 88.9892 13.2V4.24H93.4092V13.22ZM96.1691 18V4.24H100.589V18H96.1691ZM119.943 18L118.163 9.62H118.083L116.303 18H111.443L108.223 4.24H112.823L114.403 12.04H114.483L116.043 4.24H120.403L122.063 12.04H122.143L123.623 4.24H128.023L124.803 18H119.943ZM135.711 4C138.084 4 139.917 4.60667 141.211 5.82C142.504 7.03333 143.151 8.8 143.151 11.12C143.151 13.44 142.504 15.2067 141.211 16.42C139.917 17.6333 138.084 18.24 135.711 18.24C133.337 18.24 131.504 17.64 130.211 16.44C128.931 15.2267 128.291 13.4533 128.291 11.12C128.291 8.78667 128.931 7.02 130.211 5.82C131.504 4.60667 133.337 4 135.711 4ZM135.711 7.3C134.764 7.3 134.044 7.58667 133.551 8.16C133.057 8.73333 132.811 9.50667 132.811 10.48V11.76C132.811 12.7333 133.057 13.5067 133.551 14.08C134.044 14.6533 134.764 14.94 135.711 14.94C136.657 14.94 137.377 14.6533 137.871 14.08C138.377 13.5067 138.631 12.7333 138.631 11.76V10.48C138.631 9.50667 138.377 8.73333 137.871 8.16C137.377 7.58667 136.657 7.3 135.711 7.3ZM151.971 4C154.344 4 156.177 4.60667 157.471 5.82C158.764 7.03333 159.411 8.8 159.411 11.12C159.411 13.44 158.764 15.2067 157.471 16.42C156.177 17.6333 154.344 18.24 151.971 18.24C149.597 18.24 147.764 17.64 146.471 16.44C145.191 15.2267 144.551 13.4533 144.551 11.12C144.551 8.78667 145.191 7.02 146.471 5.82C147.764 4.60667 149.597 4 151.971 4ZM151.971 7.3C151.024 7.3 150.304 7.58667 149.811 8.16C149.317 8.73333 149.071 9.50667 149.071 10.48V11.76C149.071 12.7333 149.317 13.5067 149.811 14.08C150.304 14.6533 151.024 14.94 151.971 14.94C152.917 14.94 153.637 14.6533 154.131 14.08C154.637 13.5067 154.891 12.7333 154.891 11.76V10.48C154.891 9.50667 154.637 8.73333 154.131 8.16C153.637 7.58667 152.917 7.3 151.971 7.3ZM171.231 18L165.451 11.32V18H161.391V4.24H165.251L171.031 11.02V4.24H175.091V18H171.231ZM184.571 4C185.891 4 187.078 4.2 188.131 4.6C189.184 5 190.018 5.59333 190.631 6.38C191.258 7.15333 191.571 8.1 191.571 9.22H187.351C187.351 8.64667 187.098 8.18667 186.591 7.84C186.084 7.48 185.471 7.3 184.751 7.3C183.711 7.3 182.924 7.58 182.391 8.14C181.858 8.68667 181.591 9.46667 181.591 10.48V11.76C181.591 12.7733 181.858 13.56 182.391 14.12C182.924 14.6667 183.711 14.94 184.751 14.94C185.471 14.94 186.084 14.7733 186.591 14.44C187.098 14.0933 187.351 13.6533 187.351 13.12H184.231V10.32H191.571V18H189.291L188.851 16.64C187.598 17.7067 185.958 18.24 183.931 18.24C181.651 18.24 179.938 17.6467 178.791 16.46C177.644 15.26 177.071 13.48 177.071 11.12C177.071 8.78667 177.718 7.02 179.011 5.82C180.318 4.60667 182.171 4 184.571 4Z"/>
</mask>
<path d="M43.9687 4.24H49.4487L44.5087 9.9L49.5487 18H44.3287L41.4687 12.96L39.0687 14.92V18H34.6487V4.24H39.0687V10.12L43.9687 4.24ZM51.1089 18V4.24H55.5289V18H51.1089ZM70.1023 18V13.04C70.1023 12.4267 70.1223 11.8 70.1623 11.16C70.2157 10.5067 70.269 9.96 70.3223 9.52C70.3757 9.08 70.409 8.8 70.4223 8.68H70.3423L67.8023 18H64.3423L61.7823 8.7H61.7023C61.7157 8.82 61.749 9.1 61.8023 9.54C61.869 9.96667 61.929 10.5067 61.9823 11.16C62.0357 11.8 62.0623 12.4267 62.0623 13.04V18H58.0023V4.24H64.2423L66.3223 12.18H66.4023L68.4623 4.24H74.4823V18H70.1023ZM93.4092 13.22C93.4092 14.94 92.9159 16.2067 91.9292 17.02C90.9559 17.8333 89.5492 18.24 87.7092 18.24C85.8692 18.24 84.4559 17.8333 83.4692 17.02C82.4959 16.2067 82.0092 14.94 82.0092 13.22V13.04H86.1492V13.2C86.1492 13.8267 86.2626 14.2733 86.4892 14.54C86.7292 14.8067 87.0892 14.94 87.5692 14.94C88.0492 14.94 88.4026 14.8067 88.6292 14.54C88.8692 14.2733 88.9892 13.8267 88.9892 13.2V4.24H93.4092V13.22ZM96.1691 18V4.24H100.589V18H96.1691ZM119.943 18L118.163 9.62H118.083L116.303 18H111.443L108.223 4.24H112.823L114.403 12.04H114.483L116.043 4.24H120.403L122.063 12.04H122.143L123.623 4.24H128.023L124.803 18H119.943ZM135.711 4C138.084 4 139.917 4.60667 141.211 5.82C142.504 7.03333 143.151 8.8 143.151 11.12C143.151 13.44 142.504 15.2067 141.211 16.42C139.917 17.6333 138.084 18.24 135.711 18.24C133.337 18.24 131.504 17.64 130.211 16.44C128.931 15.2267 128.291 13.4533 128.291 11.12C128.291 8.78667 128.931 7.02 130.211 5.82C131.504 4.60667 133.337 4 135.711 4ZM135.711 7.3C134.764 7.3 134.044 7.58667 133.551 8.16C133.057 8.73333 132.811 9.50667 132.811 10.48V11.76C132.811 12.7333 133.057 13.5067 133.551 14.08C134.044 14.6533 134.764 14.94 135.711 14.94C136.657 14.94 137.377 14.6533 137.871 14.08C138.377 13.5067 138.631 12.7333 138.631 11.76V10.48C138.631 9.50667 138.377 8.73333 137.871 8.16C137.377 7.58667 136.657 7.3 135.711 7.3ZM151.971 4C154.344 4 156.177 4.60667 157.471 5.82C158.764 7.03333 159.411 8.8 159.411 11.12C159.411 13.44 158.764 15.2067 157.471 16.42C156.177 17.6333 154.344 18.24 151.971 18.24C149.597 18.24 147.764 17.64 146.471 16.44C145.191 15.2267 144.551 13.4533 144.551 11.12C144.551 8.78667 145.191 7.02 146.471 5.82C147.764 4.60667 149.597 4 151.971 4ZM151.971 7.3C151.024 7.3 150.304 7.58667 149.811 8.16C149.317 8.73333 149.071 9.50667 149.071 10.48V11.76C149.071 12.7333 149.317 13.5067 149.811 14.08C150.304 14.6533 151.024 14.94 151.971 14.94C152.917 14.94 153.637 14.6533 154.131 14.08C154.637 13.5067 154.891 12.7333 154.891 11.76V10.48C154.891 9.50667 154.637 8.73333 154.131 8.16C153.637 7.58667 152.917 7.3 151.971 7.3ZM171.231 18L165.451 11.32V18H161.391V4.24H165.251L171.031 11.02V4.24H175.091V18H171.231ZM184.571 4C185.891 4 187.078 4.2 188.131 4.6C189.184 5 190.018 5.59333 190.631 6.38C191.258 7.15333 191.571 8.1 191.571 9.22H187.351C187.351 8.64667 187.098 8.18667 186.591 7.84C186.084 7.48 185.471 7.3 184.751 7.3C183.711 7.3 182.924 7.58 182.391 8.14C181.858 8.68667 181.591 9.46667 181.591 10.48V11.76C181.591 12.7733 181.858 13.56 182.391 14.12C182.924 14.6667 183.711 14.94 184.751 14.94C185.471 14.94 186.084 14.7733 186.591 14.44C187.098 14.0933 187.351 13.6533 187.351 13.12H184.231V10.32H191.571V18H189.291L188.851 16.64C187.598 17.7067 185.958 18.24 183.931 18.24C181.651 18.24 179.938 17.6467 178.791 16.46C177.644 15.26 177.071 13.48 177.071 11.12C177.071 8.78667 177.718 7.02 179.011 5.82C180.318 4.60667 182.171 4 184.571 4Z" fill="black"/>
<path d="M43.9687 4.24V2.24C43.3752 2.24 42.8123 2.50365 42.4323 2.95963L43.9687 4.24ZM49.4487 4.24L50.9555 5.55512C51.4713 4.96423 51.594 4.12643 51.2695 3.41243C50.945 2.69842 50.233 2.24 49.4487 2.24V4.24ZM44.5087 9.9L43.0019 8.58488C42.4237 9.24742 42.346 10.2099 42.8106 10.9566L44.5087 9.9ZM49.5487 18V20C50.2751 20 50.9443 19.6062 51.2971 18.9713C51.6498 18.3364 51.6306 17.5601 51.2469 16.9434L49.5487 18ZM44.3287 18L42.5893 18.9871C42.9446 19.6131 43.6089 20 44.3287 20V18ZM41.4687 12.96L43.2082 11.9729C42.9174 11.4605 42.4156 11.1024 41.8365 10.9941C41.2574 10.8858 40.66 11.0383 40.2037 11.4109L41.4687 12.96ZM39.0687 14.92L37.8037 13.3709C37.3386 13.7508 37.0687 14.3195 37.0687 14.92H39.0687ZM39.0687 18V20C40.1733 20 41.0687 19.1046 41.0687 18H39.0687ZM34.6487 18H32.6487C32.6487 19.1046 33.5442 20 34.6487 20V18ZM34.6487 4.24V2.24C33.5442 2.24 32.6487 3.13543 32.6487 4.24H34.6487ZM39.0687 4.24H41.0687C41.0687 3.13543 40.1733 2.24 39.0687 2.24V4.24ZM39.0687 10.12H37.0687C37.0687 10.962 37.5961 11.7139 38.3879 12.0005C39.1796 12.2872 40.0661 12.0472 40.6052 11.4004L39.0687 10.12ZM43.9687 6.24H49.4487V2.24H43.9687V6.24ZM47.9419 2.92488L43.0019 8.58488L46.0155 11.2151L50.9555 5.55512L47.9419 2.92488ZM42.8106 10.9566L47.8506 19.0566L51.2469 16.9434L46.2069 8.8434L42.8106 10.9566ZM49.5487 16H44.3287V20H49.5487V16ZM46.0682 17.0129L43.2082 11.9729L39.7293 13.9471L42.5893 18.9871L46.0682 17.0129ZM40.2037 11.4109L37.8037 13.3709L40.3338 16.4691L42.7338 14.5091L40.2037 11.4109ZM37.0687 14.92V18H41.0687V14.92H37.0687ZM39.0687 16H34.6487V20H39.0687V16ZM36.6487 18V4.24H32.6487V18H36.6487ZM34.6487 6.24H39.0687V2.24H34.6487V6.24ZM37.0687 4.24V10.12H41.0687V4.24H37.0687ZM40.6052 11.4004L45.5052 5.52037L42.4323 2.95963L37.5323 8.83963L40.6052 11.4004ZM51.1089 18H49.1089C49.1089 19.1046 50.0043 20 51.1089 20V18ZM51.1089 4.24V2.24C50.0043 2.24 49.1089 3.13543 49.1089 4.24H51.1089ZM55.5289 4.24H57.5289C57.5289 3.13543 56.6335 2.24 55.5289 2.24V4.24ZM55.5289 18V20C56.6335 20 57.5289 19.1046 57.5289 18H55.5289ZM53.1089 18V4.24H49.1089V18H53.1089ZM51.1089 6.24H55.5289V2.24H51.1089V6.24ZM53.5289 4.24V18H57.5289V4.24H53.5289ZM55.5289 16H51.1089V20H55.5289V16ZM70.1023 18H68.1023C68.1023 19.1046 68.9978 20 70.1023 20V18ZM70.1623 11.16L68.169 10.9973C68.1679 11.0099 68.167 11.0226 68.1662 11.0352L70.1623 11.16ZM70.3223 9.52L72.3078 9.76066V9.76066L70.3223 9.52ZM70.4223 8.68L72.4101 8.90087C72.4729 8.33546 72.292 7.77006 71.9126 7.34616C71.5332 6.92227 70.9912 6.68 70.4223 6.68V8.68ZM70.3423 8.68V6.68C69.4403 6.68 68.6499 7.28382 68.4127 8.15411L70.3423 8.68ZM67.8023 18V20C68.7044 20 69.4948 19.3962 69.732 18.5259L67.8023 18ZM64.3423 18L62.4141 18.5308C62.653 19.3987 63.4422 20 64.3423 20V18ZM61.7823 8.7L63.7106 8.1692C63.4717 7.30134 62.6825 6.7 61.7823 6.7V8.7ZM61.7023 8.7V6.7C61.1335 6.7 60.5915 6.94226 60.2121 7.36616C59.8327 7.79005 59.6518 8.35546 59.7146 8.92086L61.7023 8.7ZM61.8023 9.54L59.8169 9.78066C59.8196 9.80341 59.8228 9.82611 59.8263 9.84875L61.8023 9.54ZM61.9823 11.16L59.989 11.3227L59.9893 11.3261L61.9823 11.16ZM62.0623 18V20C63.1669 20 64.0623 19.1046 64.0623 18H62.0623ZM58.0023 18H56.0023C56.0023 19.1046 56.8978 20 58.0023 20V18ZM58.0023 4.24V2.24C56.8978 2.24 56.0023 3.13543 56.0023 4.24H58.0023ZM64.2423 4.24L66.1771 3.73317C65.9466 2.85349 65.1517 2.24 64.2423 2.24V4.24ZM66.3223 12.18L64.3876 12.6868C64.6181 13.5665 65.413 14.18 66.3223 14.18V12.18ZM66.4023 12.18V14.18C67.3135 14.18 68.1094 13.5642 68.3382 12.6823L66.4023 12.18ZM68.4623 4.24V2.24C67.5512 2.24 66.7552 2.85581 66.5264 3.73774L68.4623 4.24ZM74.4823 4.24H76.4823C76.4823 3.13543 75.5869 2.24 74.4823 2.24V4.24ZM74.4823 18V20C75.5869 20 76.4823 19.1046 76.4823 18H74.4823ZM72.1023 18V13.04H68.1023V18H72.1023ZM72.1023 13.04C72.1023 12.4701 72.1209 11.8851 72.1584 11.2848L68.1662 11.0352C68.1238 11.7149 68.1023 12.3832 68.1023 13.04H72.1023ZM72.1557 11.3227C72.2078 10.6844 72.2587 10.1657 72.3078 9.76066L68.3369 9.27934C68.2793 9.75431 68.2235 10.3289 68.169 10.9973L72.1557 11.3227ZM72.3078 9.76066C72.3608 9.32376 72.3954 9.03286 72.4101 8.90087L68.4346 8.45913C68.4226 8.56714 68.3906 8.83624 68.3369 9.27934L72.3078 9.76066ZM70.4223 6.68H70.3423V10.68H70.4223V6.68ZM68.4127 8.15411L65.8727 17.4741L69.732 18.5259L72.272 9.20588L68.4127 8.15411ZM67.8023 16H64.3423V20H67.8023V16ZM66.2706 17.4692L63.7106 8.1692L59.8541 9.23079L62.4141 18.5308L66.2706 17.4692ZM61.7823 6.7H61.7023V10.7H61.7823V6.7ZM59.7146 8.92086C59.7292 9.05286 59.7639 9.34377 59.8169 9.78066L63.7878 9.29934C63.7341 8.85623 63.7021 8.58714 63.6901 8.47914L59.7146 8.92086ZM59.8263 9.84875C59.8826 10.2091 59.9378 10.6961 59.989 11.3227L63.9757 10.9973C63.9202 10.3173 63.8554 9.72426 63.7784 9.23124L59.8263 9.84875ZM59.9893 11.3261C60.0382 11.9134 60.0623 12.4846 60.0623 13.04H64.0623C64.0623 12.3687 64.0332 11.6866 63.9754 10.9939L59.9893 11.3261ZM60.0623 13.04V18H64.0623V13.04H60.0623ZM62.0623 16H58.0023V20H62.0623V16ZM60.0023 18V4.24H56.0023V18H60.0023ZM58.0023 6.24H64.2423V2.24H58.0023V6.24ZM62.3076 4.74683L64.3876 12.6868L68.2571 11.6732L66.1771 3.73317L62.3076 4.74683ZM66.3223 14.18H66.4023V10.18H66.3223V14.18ZM68.3382 12.6823L70.3982 4.74226L66.5264 3.73774L64.4664 11.6777L68.3382 12.6823ZM68.4623 6.24H74.4823V2.24H68.4623V6.24ZM72.4823 4.24V18H76.4823V4.24H72.4823ZM74.4823 16H70.1023V20H74.4823V16ZM91.9292 17.02L90.657 15.4767L90.6468 15.4853L91.9292 17.02ZM83.4692 17.02L82.1868 18.5548L82.1971 18.5633L83.4692 17.02ZM82.0092 13.04V11.04C80.9046 11.04 80.0092 11.9354 80.0092 13.04H82.0092ZM86.1492 13.04H88.1492C88.1492 11.9354 87.2538 11.04 86.1492 11.04V13.04ZM86.4892 14.54L84.9653 15.8353C84.9776 15.8497 84.99 15.8639 85.0026 15.8779L86.4892 14.54ZM88.6292 14.54L87.1426 13.2021C87.13 13.2161 87.1176 13.2303 87.1053 13.2447L88.6292 14.54ZM88.9892 4.24V2.24C87.8847 2.24 86.9892 3.13543 86.9892 4.24H88.9892ZM93.4092 4.24H95.4092C95.4092 3.13543 94.5138 2.24 93.4092 2.24V4.24ZM91.4092 13.22C91.4092 14.5619 91.0369 15.1636 90.6571 15.4767L93.2014 18.5633C94.7949 17.2497 95.4092 15.3181 95.4092 13.22H91.4092ZM90.6468 15.4853C90.1648 15.8881 89.2866 16.24 87.7092 16.24V20.24C89.8118 20.24 91.747 19.7786 93.2117 18.5547L90.6468 15.4853ZM87.7092 16.24C86.1343 16.24 85.2415 15.889 84.7414 15.4767L82.1971 18.5633C83.6702 19.7776 85.6041 20.24 87.7092 20.24V16.24ZM84.7517 15.4853C84.3803 15.1749 84.0092 14.5705 84.0092 13.22H80.0092C80.0092 15.3095 80.6115 17.2384 82.1868 18.5547L84.7517 15.4853ZM84.0092 13.22V13.04H80.0092V13.22H84.0092ZM82.0092 15.04H86.1492V11.04H82.0092V15.04ZM84.1492 13.04V13.2H88.1492V13.04H84.1492ZM84.1492 13.2C84.1492 13.9654 84.2677 15.0145 84.9653 15.8353L88.0131 13.2447C88.0821 13.3259 88.1232 13.3982 88.1459 13.4457C88.1681 13.4924 88.1741 13.5182 88.1728 13.5131C88.1715 13.5082 88.1652 13.481 88.1594 13.4262C88.1537 13.3719 88.1492 13.2974 88.1492 13.2H84.1492ZM85.0026 15.8779C85.7383 16.6954 86.7233 16.94 87.5692 16.94V12.94C87.5093 12.94 87.5437 12.9311 87.6338 12.9645C87.7356 13.0022 87.8642 13.078 87.9758 13.2021L85.0026 15.8779ZM87.5692 16.94C88.4071 16.94 89.4197 16.6981 90.1531 15.8353L87.1053 13.2447C87.2286 13.0997 87.3736 13.012 87.4881 12.9688C87.589 12.9307 87.6305 12.94 87.5692 12.94V16.94ZM90.1158 15.8779C90.8577 15.0536 90.9892 13.9842 90.9892 13.2H86.9892C86.9892 13.2939 86.9847 13.3642 86.9791 13.414C86.9735 13.4642 86.9677 13.4863 86.9677 13.4861C86.9678 13.4859 86.9759 13.4554 87.0012 13.4052C87.0271 13.3538 87.0715 13.2811 87.1426 13.2021L90.1158 15.8779ZM90.9892 13.2V4.24H86.9892V13.2H90.9892ZM88.9892 6.24H93.4092V2.24H88.9892V6.24ZM91.4092 4.24V13.22H95.4092V4.24H91.4092ZM96.1691 18H94.1691C94.1691 19.1046 95.0645 20 96.1691 20V18ZM96.1691 4.24V2.24C95.0645 2.24 94.1691 3.13543 94.1691 4.24H96.1691ZM100.589 4.24H102.589C102.589 3.13543 101.694 2.24 100.589 2.24V4.24ZM100.589 18V20C101.694 20 102.589 19.1046 102.589 18H100.589ZM98.1691 18V4.24H94.1691V18H98.1691ZM96.1691 6.24H100.589V2.24H96.1691V6.24ZM98.5891 4.24V18H102.589V4.24H98.5891ZM100.589 16H96.1691V20H100.589V16ZM119.943 18L117.986 18.4156C118.183 19.3394 118.998 20 119.943 20V18ZM118.163 9.62L120.119 9.20445C119.923 8.28064 119.107 7.62 118.163 7.62V9.62ZM118.083 9.62V7.62C117.138 7.62 116.323 8.28064 116.126 9.20445L118.083 9.62ZM116.303 18V20C117.247 20 118.063 19.3394 118.259 18.4156L116.303 18ZM111.443 18L109.495 18.4557C109.707 19.3603 110.514 20 111.443 20V18ZM108.223 4.24V2.24C107.612 2.24 107.035 2.5189 106.656 2.99731C106.276 3.47571 106.136 4.1012 106.275 4.69571L108.223 4.24ZM112.823 4.24L114.783 3.84294C114.594 2.91037 113.774 2.24 112.823 2.24V4.24ZM114.403 12.04L112.442 12.4371C112.631 13.3696 113.451 14.04 114.403 14.04V12.04ZM114.483 12.04V14.04C115.436 14.04 116.257 13.3671 116.444 12.4322L114.483 12.04ZM116.043 4.24V2.24C115.089 2.24 114.268 2.91292 114.081 3.84777L116.043 4.24ZM120.403 4.24L122.359 3.82368C122.162 2.90024 121.347 2.24 120.403 2.24V4.24ZM122.063 12.04L120.106 12.4563C120.303 13.3798 121.119 14.04 122.063 14.04V12.04ZM122.143 12.04V14.04C123.103 14.04 123.928 13.3568 124.108 12.4128L122.143 12.04ZM123.623 4.24V2.24C122.662 2.24 121.837 2.92321 121.658 3.86716L123.623 4.24ZM128.023 4.24L129.97 4.69571C130.109 4.1012 129.969 3.47571 129.59 2.99731C129.21 2.5189 128.633 2.24 128.023 2.24V4.24ZM124.803 18V20C125.732 20 126.538 19.3603 126.75 18.4557L124.803 18ZM121.899 17.5844L120.119 9.20445L116.206 10.0355L117.986 18.4156L121.899 17.5844ZM118.163 7.62H118.083V11.62H118.163V7.62ZM116.126 9.20445L114.346 17.5844L118.259 18.4156L120.039 10.0355L116.126 9.20445ZM116.303 16H111.443V20H116.303V16ZM113.39 17.5443L110.17 3.78429L106.275 4.69571L109.495 18.4557L113.39 17.5443ZM108.223 6.24H112.823V2.24H108.223V6.24ZM110.862 4.63706L112.442 12.4371L116.363 11.6429L114.783 3.84294L110.862 4.63706ZM114.403 14.04H114.483V10.04H114.403V14.04ZM116.444 12.4322L118.004 4.63223L114.081 3.84777L112.521 11.6478L116.444 12.4322ZM116.043 6.24H120.403V2.24H116.043V6.24ZM118.446 4.65632L120.106 12.4563L124.019 11.6237L122.359 3.82368L118.446 4.65632ZM122.063 14.04H122.143V10.04H122.063V14.04ZM124.108 12.4128L125.588 4.61283L121.658 3.86716L120.178 11.6672L124.108 12.4128ZM123.623 6.24H128.023V2.24H123.623V6.24ZM126.075 3.78429L122.855 17.5443L126.75 18.4557L129.97 4.69571L126.075 3.78429ZM124.803 16H119.943V20H124.803V16ZM141.211 16.42L139.842 14.9614L141.211 16.42ZM130.211 16.44L128.835 17.8915C128.84 17.8964 128.845 17.9013 128.85 17.9061L130.211 16.44ZM130.211 5.82L131.579 7.27907L131.579 7.2786L130.211 5.82ZM133.551 8.16L135.067 9.46448V9.46448L133.551 8.16ZM137.871 14.08L136.372 12.7556C136.366 12.7622 136.36 12.7688 136.355 12.7755L137.871 14.08ZM137.871 8.16L136.355 9.46448C136.36 9.47116 136.366 9.4778 136.372 9.4844L137.871 8.16ZM135.711 6C137.751 6 139.031 6.51711 139.842 7.2786L142.579 4.36139C140.804 2.69622 138.417 2 135.711 2V6ZM139.842 7.2786C140.618 8.00675 141.151 9.17363 141.151 11.12H145.151C145.151 8.42637 144.39 6.05992 142.579 4.36139L139.842 7.2786ZM141.151 11.12C141.151 13.0664 140.618 14.2333 139.842 14.9614L142.579 17.8786C144.39 16.1801 145.151 13.8136 145.151 11.12H141.151ZM139.842 14.9614C139.031 15.7229 137.751 16.24 135.711 16.24V20.24C138.417 20.24 140.804 19.5438 142.579 17.8786L139.842 14.9614ZM135.711 16.24C133.664 16.24 132.382 15.7266 131.571 14.9739L128.85 17.9061C130.626 19.5534 133.01 20.24 135.711 20.24V16.24ZM131.587 14.9885C130.822 14.2637 130.291 13.0896 130.291 11.12H126.291C126.291 13.8171 127.039 16.1896 128.835 17.8915L131.587 14.9885ZM130.291 11.12C130.291 9.14897 130.822 7.98789 131.579 7.27907L128.843 4.36092C127.039 6.05211 126.291 8.42437 126.291 11.12H130.291ZM131.579 7.2786C132.391 6.51711 133.67 6 135.711 6V2C133.005 2 130.617 2.69622 128.842 4.36139L131.579 7.2786ZM135.711 5.3C134.34 5.3 133 5.73313 132.035 6.85552L135.067 9.46448C135.088 9.4402 135.188 9.3 135.711 9.3V5.3ZM132.035 6.85552C131.148 7.88568 130.811 9.16844 130.811 10.48H134.811C134.811 9.84489 134.966 9.58098 135.067 9.46448L132.035 6.85552ZM130.811 10.48V11.76H134.811V10.48H130.811ZM130.811 11.76C130.811 13.0716 131.148 14.3543 132.035 15.3845L135.067 12.7755C134.966 12.659 134.811 12.3951 134.811 11.76H130.811ZM132.035 15.3845C133 16.5069 134.34 16.94 135.711 16.94V12.94C135.188 12.94 135.088 12.7998 135.067 12.7755L132.035 15.3845ZM135.711 16.94C137.081 16.94 138.421 16.5069 139.387 15.3845L136.355 12.7755C136.334 12.7998 136.233 12.94 135.711 12.94V16.94ZM139.369 15.4044C140.279 14.3745 140.631 13.0843 140.631 11.76H136.631C136.631 12.3824 136.475 12.6388 136.372 12.7556L139.369 15.4044ZM140.631 11.76V10.48H136.631V11.76H140.631ZM140.631 10.48C140.631 9.1557 140.279 7.86546 139.369 6.8356L136.372 9.4844C136.475 9.60121 136.631 9.85764 136.631 10.48H140.631ZM139.387 6.85552C138.421 5.73313 137.081 5.3 135.711 5.3V9.3C136.233 9.3 136.334 9.4402 136.355 9.46448L139.387 6.85552ZM157.471 16.42L156.102 14.9614L157.471 16.42ZM146.471 16.44L145.095 17.8915C145.1 17.8964 145.105 17.9013 145.11 17.9061L146.471 16.44ZM146.471 5.82L147.839 7.27907L147.839 7.2786L146.471 5.82ZM149.811 8.16L151.327 9.46448V9.46448L149.811 8.16ZM154.131 14.08L152.632 12.7556C152.626 12.7622 152.621 12.7688 152.615 12.7755L154.131 14.08ZM154.131 8.16L152.615 9.46448C152.621 9.47116 152.626 9.4778 152.632 9.4844L154.131 8.16ZM151.971 6C154.012 6 155.291 6.51711 156.102 7.2786L158.839 4.36139C157.064 2.69622 154.677 2 151.971 2V6ZM156.102 7.2786C156.879 8.00675 157.411 9.17363 157.411 11.12H161.411C161.411 8.42637 160.65 6.05992 158.839 4.36139L156.102 7.2786ZM157.411 11.12C157.411 13.0664 156.879 14.2333 156.102 14.9614L158.839 17.8786C160.65 16.1801 161.411 13.8136 161.411 11.12H157.411ZM156.102 14.9614C155.291 15.7229 154.012 16.24 151.971 16.24V20.24C154.677 20.24 157.064 19.5438 158.839 17.8786L156.102 14.9614ZM151.971 16.24C149.925 16.24 148.642 15.7266 147.831 14.9739L145.11 17.9061C146.886 19.5534 149.27 20.24 151.971 20.24V16.24ZM147.847 14.9885C147.082 14.2637 146.551 13.0896 146.551 11.12H142.551C142.551 13.8171 143.299 16.1896 145.095 17.8915L147.847 14.9885ZM146.551 11.12C146.551 9.14897 147.083 7.98789 147.839 7.27907L145.103 4.36092C143.299 6.05211 142.551 8.42437 142.551 11.12H146.551ZM147.839 7.2786C148.651 6.51711 149.93 6 151.971 6V2C149.265 2 146.877 2.69622 145.102 4.36139L147.839 7.2786ZM151.971 5.3C150.6 5.3 149.261 5.73313 148.295 6.85552L151.327 9.46448C151.348 9.4402 151.448 9.3 151.971 9.3V5.3ZM148.295 6.85552C147.408 7.88568 147.071 9.16844 147.071 10.48H151.071C151.071 9.84489 151.227 9.58098 151.327 9.46448L148.295 6.85552ZM147.071 10.48V11.76H151.071V10.48H147.071ZM147.071 11.76C147.071 13.0716 147.408 14.3543 148.295 15.3845L151.327 12.7755C151.227 12.659 151.071 12.3951 151.071 11.76H147.071ZM148.295 15.3845C149.261 16.5069 150.6 16.94 151.971 16.94V12.94C151.448 12.94 151.348 12.7998 151.327 12.7755L148.295 15.3845ZM151.971 16.94C153.341 16.94 154.681 16.5069 155.647 15.3845L152.615 12.7755C152.594 12.7998 152.494 12.94 151.971 12.94V16.94ZM155.629 15.4044C156.54 14.3745 156.891 13.0843 156.891 11.76H152.891C152.891 12.3824 152.735 12.6388 152.632 12.7556L155.629 15.4044ZM156.891 11.76V10.48H152.891V11.76H156.891ZM156.891 10.48C156.891 9.1557 156.54 7.86546 155.629 6.8356L152.632 9.4844C152.735 9.60121 152.891 9.85764 152.891 10.48H156.891ZM155.647 6.85552C154.681 5.73313 153.341 5.3 151.971 5.3V9.3C152.494 9.3 152.594 9.4402 152.615 9.46448L155.647 6.85552ZM171.231 18L169.719 19.3087C170.098 19.7477 170.65 20 171.231 20V18ZM165.451 11.32L166.963 10.0113C166.417 9.37972 165.535 9.15424 164.753 9.44585C163.97 9.73746 163.451 10.4848 163.451 11.32H165.451ZM165.451 18V20C166.556 20 167.451 19.1046 167.451 18H165.451ZM161.391 18H159.391C159.391 19.1046 160.286 20 161.391 20V18ZM161.391 4.24V2.24C160.286 2.24 159.391 3.13543 159.391 4.24H161.391ZM165.251 4.24L166.773 2.94249C166.393 2.49676 165.837 2.24 165.251 2.24V4.24ZM171.031 11.02L169.509 12.3175C170.053 12.9552 170.936 13.1864 171.722 12.8967C172.509 12.607 173.031 11.8579 173.031 11.02H171.031ZM171.031 4.24V2.24C169.926 2.24 169.031 3.13543 169.031 4.24H171.031ZM175.091 4.24H177.091C177.091 3.13543 176.196 2.24 175.091 2.24V4.24ZM175.091 18V20C176.196 20 177.091 19.1046 177.091 18H175.091ZM172.743 16.6913L166.963 10.0113L163.939 12.6287L169.719 19.3087L172.743 16.6913ZM163.451 11.32V18H167.451V11.32H163.451ZM165.451 16H161.391V20H165.451V16ZM163.391 18V4.24H159.391V18H163.391ZM161.391 6.24H165.251V2.24H161.391V6.24ZM163.729 5.53751L169.509 12.3175L172.553 9.72249L166.773 2.94249L163.729 5.53751ZM173.031 11.02V4.24H169.031V11.02H173.031ZM171.031 6.24H175.091V2.24H171.031V6.24ZM173.091 4.24V18H177.091V4.24H173.091ZM175.091 16H171.231V20H175.091V16ZM188.131 4.6L187.421 6.46972V6.46972L188.131 4.6ZM190.631 6.38L189.054 7.60973C189.062 7.61962 189.069 7.62943 189.077 7.63917L190.631 6.38ZM191.571 9.22V11.22C192.676 11.22 193.571 10.3246 193.571 9.22H191.571ZM187.351 9.22H185.351C185.351 10.3246 186.247 11.22 187.351 11.22V9.22ZM186.591 7.84L185.433 9.47036C185.442 9.4772 185.452 9.48395 185.462 9.49061L186.591 7.84ZM182.391 8.14L183.823 9.53665C183.828 9.5309 183.834 9.52512 183.839 9.51931L182.391 8.14ZM182.391 14.12L180.943 15.4993C180.948 15.5051 180.954 15.5109 180.96 15.5166L182.391 14.12ZM186.591 14.44L187.69 16.1108C187.7 16.1042 187.71 16.0974 187.72 16.0906L186.591 14.44ZM187.351 13.12H189.351C189.351 12.0154 188.456 11.12 187.351 11.12V13.12ZM184.231 13.12H182.231C182.231 14.2246 183.127 15.12 184.231 15.12V13.12ZM184.231 10.32V8.32C183.127 8.32 182.231 9.21543 182.231 10.32H184.231ZM191.571 10.32H193.571C193.571 9.21543 192.676 8.32 191.571 8.32V10.32ZM191.571 18V20C192.676 20 193.571 19.1046 193.571 18H191.571ZM189.291 18L187.388 18.6156C187.655 19.4409 188.424 20 189.291 20V18ZM188.851 16.64L190.754 16.0244C190.548 15.389 190.039 14.8981 189.397 14.7159C188.754 14.5337 188.063 14.6841 187.555 15.1169L188.851 16.64ZM178.791 16.46L177.345 17.8417L177.353 17.8498L178.791 16.46ZM179.011 5.82L180.371 7.28613L180.372 7.28559L179.011 5.82ZM184.571 6C185.689 6 186.63 6.16925 187.421 6.46972L188.841 2.73028C187.526 2.23075 186.093 2 184.571 2V6ZM187.421 6.46972C188.178 6.75701 188.694 7.14777 189.054 7.60973L192.208 5.15027C191.342 4.03889 190.191 3.24299 188.841 2.73028L187.421 6.46972ZM189.077 7.63917C189.379 8.01179 189.571 8.49767 189.571 9.22H193.571C193.571 7.70233 193.136 6.29487 192.185 5.12083L189.077 7.63917ZM191.571 7.22H187.351V11.22H191.571V7.22ZM189.351 9.22C189.351 7.93307 188.726 6.87763 187.72 6.18939L185.462 9.49061C185.5 9.51703 185.457 9.49677 185.409 9.40981C185.387 9.36901 185.371 9.32659 185.361 9.28747C185.352 9.24921 185.351 9.22477 185.351 9.22H189.351ZM187.75 6.20964C186.853 5.57262 185.818 5.3 184.751 5.3V9.3C185.124 9.3 185.316 9.38738 185.433 9.47036L187.75 6.20964ZM184.751 5.3C183.36 5.3 181.97 5.68189 180.943 6.76069L183.839 9.51931C183.879 9.47811 184.063 9.3 184.751 9.3V5.3ZM180.96 6.74335C179.955 7.77293 179.591 9.12063 179.591 10.48H183.591C183.591 9.8127 183.76 9.6004 183.823 9.53665L180.96 6.74335ZM179.591 10.48V11.76H183.591V10.48H179.591ZM179.591 11.76C179.591 13.1224 179.956 14.4633 180.943 15.4993L183.839 12.7407C183.759 12.6567 183.591 12.4242 183.591 11.76H179.591ZM180.96 15.5166C181.989 16.5723 183.373 16.94 184.751 16.94V12.94C184.049 12.94 183.859 12.761 183.823 12.7234L180.96 15.5166ZM184.751 16.94C185.787 16.94 186.8 16.6964 187.69 16.1108L185.492 12.7692C185.369 12.8502 185.155 12.94 184.751 12.94V16.94ZM187.72 16.0906C188.677 15.4364 189.351 14.4212 189.351 13.12H185.351C185.351 13.0936 185.354 13.0512 185.368 12.9987C185.382 12.9457 185.403 12.8955 185.428 12.8521C185.479 12.7632 185.518 12.7506 185.462 12.7894L187.72 16.0906ZM187.351 11.12H184.231V15.12H187.351V11.12ZM186.231 13.12V10.32H182.231V13.12H186.231ZM184.231 12.32H191.571V8.32H184.231V12.32ZM189.571 10.32V18H193.571V10.32H189.571ZM191.571 16H189.291V20H191.571V16ZM191.194 17.3844L190.754 16.0244L186.948 17.2556L187.388 18.6156L191.194 17.3844ZM187.555 15.1169C186.742 15.8091 185.597 16.24 183.931 16.24V20.24C186.319 20.24 188.454 19.6042 190.147 18.1631L187.555 15.1169ZM183.931 16.24C181.981 16.24 180.874 15.7369 180.229 15.0702L177.353 17.8498C179.002 19.5564 181.321 20.24 183.931 20.24V16.24ZM180.237 15.0783C179.572 14.3826 179.071 13.1829 179.071 11.12H175.071C175.071 13.7771 175.717 16.1374 177.345 17.8417L180.237 15.0783ZM179.071 11.12C179.071 9.15491 179.606 7.99629 180.371 7.28612L177.651 4.35387C175.83 6.0437 175.071 8.41842 175.071 11.12H179.071ZM180.372 7.28559C181.196 6.52016 182.498 6 184.571 6V2C181.844 2 179.439 2.69317 177.65 4.35441L180.372 7.28559Z" fill="white" mask="url(#path-3-outside-2_2005_2806)"/>
</svg>
