<svg width="226" height="22" viewBox="0 0 226 22" fill="none" xmlns="http://www.w3.org/2000/svg">
<mask id="path-1-outside-1_2005_2842" maskUnits="userSpaceOnUse" x="21" y="0" width="185" height="23" fill="black">
<rect fill="white" x="21" width="185" height="23"/>
<path d="M31.5225 4C33.2825 4 34.7292 4.36 35.8625 5.08C36.9958 5.78667 37.5758 6.84 37.6025 8.24V8.48H33.4625V8.4C33.4625 8 33.3158 7.66667 33.0225 7.4C32.7292 7.13333 32.2825 7 31.6825 7C31.0958 7 30.6425 7.08667 30.3225 7.26C30.0158 7.43333 29.8625 7.64667 29.8625 7.9C29.8625 8.26 30.0758 8.52667 30.5025 8.7C30.9292 8.87333 31.6158 9.05333 32.5625 9.24C33.6692 9.46667 34.5758 9.70667 35.2825 9.96C36.0025 10.2 36.6292 10.6 37.1625 11.16C37.6958 11.72 37.9692 12.48 37.9825 13.44C37.9825 15.0667 37.4292 16.2733 36.3225 17.06C35.2292 17.8467 33.7625 18.24 31.9225 18.24C29.7758 18.24 28.1025 17.88 26.9025 17.16C25.7158 16.44 25.1225 15.1667 25.1225 13.34H29.3025C29.3025 14.0333 29.4825 14.5 29.8425 14.74C30.2025 14.9667 30.7625 15.08 31.5225 15.08C32.0825 15.08 32.5425 15.02 32.9025 14.9C33.2758 14.78 33.4625 14.5333 33.4625 14.16C33.4625 13.8267 33.2558 13.58 32.8425 13.42C32.4425 13.2467 31.7825 13.0667 30.8625 12.88C29.7425 12.64 28.8158 12.3933 28.0825 12.14C27.3492 11.8733 26.7092 11.44 26.1625 10.84C25.6158 10.24 25.3425 9.42667 25.3425 8.4C25.3425 6.89333 25.9225 5.78667 27.0825 5.08C28.2558 4.36 29.7358 4 31.5225 4ZM39.7761 4.24H51.6761V7.54H44.1961V9.44H50.5961V12.6H44.1961V14.7H51.8161V18H39.7761V4.24ZM60.6497 4C63.023 4 64.8564 4.60667 66.1497 5.82C67.443 7.03333 68.0897 8.8 68.0897 11.12C68.0897 13.44 67.443 15.2067 66.1497 16.42C64.8564 17.6333 63.023 18.24 60.6497 18.24C58.2764 18.24 56.443 17.64 55.1497 16.44C53.8697 15.2267 53.2297 13.4533 53.2297 11.12C53.2297 8.78667 53.8697 7.02 55.1497 5.82C56.443 4.60667 58.2764 4 60.6497 4ZM60.6497 7.3C59.703 7.3 58.983 7.58667 58.4897 8.16C57.9964 8.73333 57.7497 9.50667 57.7497 10.48V11.76C57.7497 12.7333 57.9964 13.5067 58.4897 14.08C58.983 14.6533 59.703 14.94 60.6497 14.94C61.5964 14.94 62.3164 14.6533 62.8097 14.08C63.3164 13.5067 63.5697 12.7333 63.5697 11.76V10.48C63.5697 9.50667 63.3164 8.73333 62.8097 8.16C62.3164 7.58667 61.5964 7.3 60.6497 7.3ZM79.3898 4.24H84.8698L79.9298 9.9L84.9698 18H79.7498L76.8898 12.96L74.4898 14.92V18H70.0698V4.24H74.4898V10.12L79.3898 4.24ZM104.41 18V13.04C104.41 12.4267 104.43 11.8 104.47 11.16C104.523 10.5067 104.577 9.96 104.63 9.52C104.683 9.08 104.717 8.8 104.73 8.68H104.65L102.11 18H98.6502L96.0902 8.7H96.0102C96.0235 8.82 96.0568 9.1 96.1102 9.54C96.1768 9.96667 96.2368 10.5067 96.2902 11.16C96.3435 11.8 96.3702 12.4267 96.3702 13.04V18H92.3102V4.24H98.5502L100.63 12.18H100.71L102.77 4.24H108.79V18H104.41ZM120.297 18L119.717 16.06H114.897L114.317 18H109.797L114.817 4.24H119.957L124.977 18H120.297ZM115.817 12.98H118.797L117.357 8.08H117.277L115.817 12.98ZM132.777 7.76V18H128.357V7.76H123.837V4.24H137.277V7.76H132.777ZM146.81 7.76V18H142.39V7.76H137.87V4.24H151.31V7.76H146.81ZM162.204 18V12.78H157.344V18H152.924V4.24H157.344V9.26H162.204V4.24H166.624V18H162.204ZM169.184 4.24H181.084V7.54H173.604V9.44H180.004V12.6H173.604V14.7H181.224V18H169.184V4.24ZM193.558 18L191.778 9.62H191.698L189.918 18H185.058L181.838 4.24H186.438L188.018 12.04H188.098L189.658 4.24H194.018L195.678 12.04H195.758L197.238 4.24H201.638L198.418 18H193.558Z"/>
</mask>
<path d="M31.5225 4C33.2825 4 34.7292 4.36 35.8625 5.08C36.9958 5.78667 37.5758 6.84 37.6025 8.24V8.48H33.4625V8.4C33.4625 8 33.3158 7.66667 33.0225 7.4C32.7292 7.13333 32.2825 7 31.6825 7C31.0958 7 30.6425 7.08667 30.3225 7.26C30.0158 7.43333 29.8625 7.64667 29.8625 7.9C29.8625 8.26 30.0758 8.52667 30.5025 8.7C30.9292 8.87333 31.6158 9.05333 32.5625 9.24C33.6692 9.46667 34.5758 9.70667 35.2825 9.96C36.0025 10.2 36.6292 10.6 37.1625 11.16C37.6958 11.72 37.9692 12.48 37.9825 13.44C37.9825 15.0667 37.4292 16.2733 36.3225 17.06C35.2292 17.8467 33.7625 18.24 31.9225 18.24C29.7758 18.24 28.1025 17.88 26.9025 17.16C25.7158 16.44 25.1225 15.1667 25.1225 13.34H29.3025C29.3025 14.0333 29.4825 14.5 29.8425 14.74C30.2025 14.9667 30.7625 15.08 31.5225 15.08C32.0825 15.08 32.5425 15.02 32.9025 14.9C33.2758 14.78 33.4625 14.5333 33.4625 14.16C33.4625 13.8267 33.2558 13.58 32.8425 13.42C32.4425 13.2467 31.7825 13.0667 30.8625 12.88C29.7425 12.64 28.8158 12.3933 28.0825 12.14C27.3492 11.8733 26.7092 11.44 26.1625 10.84C25.6158 10.24 25.3425 9.42667 25.3425 8.4C25.3425 6.89333 25.9225 5.78667 27.0825 5.08C28.2558 4.36 29.7358 4 31.5225 4ZM39.7761 4.24H51.6761V7.54H44.1961V9.44H50.5961V12.6H44.1961V14.7H51.8161V18H39.7761V4.24ZM60.6497 4C63.023 4 64.8564 4.60667 66.1497 5.82C67.443 7.03333 68.0897 8.8 68.0897 11.12C68.0897 13.44 67.443 15.2067 66.1497 16.42C64.8564 17.6333 63.023 18.24 60.6497 18.24C58.2764 18.24 56.443 17.64 55.1497 16.44C53.8697 15.2267 53.2297 13.4533 53.2297 11.12C53.2297 8.78667 53.8697 7.02 55.1497 5.82C56.443 4.60667 58.2764 4 60.6497 4ZM60.6497 7.3C59.703 7.3 58.983 7.58667 58.4897 8.16C57.9964 8.73333 57.7497 9.50667 57.7497 10.48V11.76C57.7497 12.7333 57.9964 13.5067 58.4897 14.08C58.983 14.6533 59.703 14.94 60.6497 14.94C61.5964 14.94 62.3164 14.6533 62.8097 14.08C63.3164 13.5067 63.5697 12.7333 63.5697 11.76V10.48C63.5697 9.50667 63.3164 8.73333 62.8097 8.16C62.3164 7.58667 61.5964 7.3 60.6497 7.3ZM79.3898 4.24H84.8698L79.9298 9.9L84.9698 18H79.7498L76.8898 12.96L74.4898 14.92V18H70.0698V4.24H74.4898V10.12L79.3898 4.24ZM104.41 18V13.04C104.41 12.4267 104.43 11.8 104.47 11.16C104.523 10.5067 104.577 9.96 104.63 9.52C104.683 9.08 104.717 8.8 104.73 8.68H104.65L102.11 18H98.6502L96.0902 8.7H96.0102C96.0235 8.82 96.0568 9.1 96.1102 9.54C96.1768 9.96667 96.2368 10.5067 96.2902 11.16C96.3435 11.8 96.3702 12.4267 96.3702 13.04V18H92.3102V4.24H98.5502L100.63 12.18H100.71L102.77 4.24H108.79V18H104.41ZM120.297 18L119.717 16.06H114.897L114.317 18H109.797L114.817 4.24H119.957L124.977 18H120.297ZM115.817 12.98H118.797L117.357 8.08H117.277L115.817 12.98ZM132.777 7.76V18H128.357V7.76H123.837V4.24H137.277V7.76H132.777ZM146.81 7.76V18H142.39V7.76H137.87V4.24H151.31V7.76H146.81ZM162.204 18V12.78H157.344V18H152.924V4.24H157.344V9.26H162.204V4.24H166.624V18H162.204ZM169.184 4.24H181.084V7.54H173.604V9.44H180.004V12.6H173.604V14.7H181.224V18H169.184V4.24ZM193.558 18L191.778 9.62H191.698L189.918 18H185.058L181.838 4.24H186.438L188.018 12.04H188.098L189.658 4.24H194.018L195.678 12.04H195.758L197.238 4.24H201.638L198.418 18H193.558Z" fill="black"/>
<path d="M35.8625 5.08L33.7176 8.45628C33.7271 8.46231 33.7366 8.46829 33.7461 8.47423L35.8625 5.08ZM37.6025 8.24H41.6025C41.6025 8.21461 41.6023 8.18921 41.6018 8.16382L37.6025 8.24ZM37.6025 8.48V12.48C39.8116 12.48 41.6025 10.6891 41.6025 8.48H37.6025ZM33.4625 8.48H29.4625C29.4625 10.6891 31.2534 12.48 33.4625 12.48V8.48ZM33.0225 7.4L35.7132 4.44024L35.7132 4.44024L33.0225 7.4ZM30.3225 7.26L28.4174 3.74283C28.3962 3.75428 28.3752 3.76592 28.3543 3.77775L30.3225 7.26ZM30.5025 8.7L32.008 4.99413L32.008 4.99413L30.5025 8.7ZM32.5625 9.24L33.3651 5.32135C33.3555 5.31939 33.3459 5.31746 33.3363 5.31557L32.5625 9.24ZM35.2825 9.96L33.9327 13.7254C33.9608 13.7355 33.9892 13.7453 34.0176 13.7547L35.2825 9.96ZM37.9825 13.44H41.9825C41.9825 13.4215 41.9824 13.403 41.9821 13.3844L37.9825 13.44ZM36.3225 17.06L34.005 13.7998C33.9987 13.8042 33.9925 13.8086 33.9863 13.8131L36.3225 17.06ZM26.9025 17.16L24.8276 20.5798C24.8332 20.5832 24.8389 20.5866 24.8445 20.59L26.9025 17.16ZM25.1225 13.34V9.34C22.9134 9.34 21.1225 11.1309 21.1225 13.34H25.1225ZM29.3025 13.34H33.3025C33.3025 11.1309 31.5116 9.34 29.3025 9.34V13.34ZM29.8425 14.74L27.6237 18.0682C27.6526 18.0875 27.6818 18.1064 27.7112 18.1249L29.8425 14.74ZM32.9025 14.9L31.6785 11.0919C31.6648 11.0963 31.6512 11.1007 31.6376 11.1053L32.9025 14.9ZM32.8425 13.42L31.2521 17.0902C31.3005 17.1112 31.3493 17.1312 31.3985 17.1503L32.8425 13.42ZM30.8625 12.88L30.0244 16.7912C30.0386 16.7943 30.0529 16.7972 30.0671 16.8001L30.8625 12.88ZM28.0825 12.14L26.7155 15.8992C26.7358 15.9065 26.7561 15.9137 26.7764 15.9208L28.0825 12.14ZM26.1625 10.84L23.2057 13.534V13.534L26.1625 10.84ZM27.0825 5.08L29.1635 8.49605L29.1746 8.48929L27.0825 5.08ZM31.5225 8C32.7544 8 33.3964 8.25223 33.7176 8.45628L38.0074 1.70372C36.062 0.467773 33.8105 -9.53674e-07 31.5225 -9.53674e-07V8ZM33.7461 8.47423C33.7798 8.49522 33.7717 8.49514 33.7426 8.46517C33.7119 8.43367 33.6753 8.38696 33.6436 8.32938C33.6122 8.2724 33.5993 8.22953 33.5957 8.21521C33.5928 8.20325 33.6016 8.23261 33.6032 8.31618L41.6018 8.16382C41.5508 5.48916 40.3261 3.1493 37.9789 1.68576L33.7461 8.47423ZM33.6025 8.24V8.48H41.6025V8.24H33.6025ZM37.6025 4.48H33.4625V12.48H37.6025V4.48ZM37.4625 8.48V8.4H29.4625V8.48H37.4625ZM37.4625 8.4C37.4625 6.88462 36.849 5.47276 35.7132 4.44024L30.3318 10.3598C30.1012 10.1501 29.8628 9.85086 29.6912 9.46095C29.5201 9.07191 29.4625 8.69968 29.4625 8.4H37.4625ZM35.7132 4.44024C34.3844 3.23225 32.7814 3 31.6825 3V11C31.7836 11 31.0739 11.0344 30.3318 10.3598L35.7132 4.44024ZM31.6825 3C30.7948 3 29.5756 3.11546 28.4174 3.74283L32.2276 10.7772C31.9446 10.9305 31.7276 10.9797 31.6536 10.9938C31.5768 11.0085 31.577 11 31.6825 11V3ZM28.3543 3.77775C27.3437 4.34891 25.8625 5.66639 25.8625 7.9H33.8625C33.8625 8.64358 33.6185 9.33787 33.2256 9.88454C32.8692 10.3803 32.4788 10.6359 32.2907 10.7423L28.3543 3.77775ZM25.8625 7.9C25.8625 8.93531 26.1927 9.98591 26.899 10.8688C27.5562 11.6903 28.3621 12.148 28.997 12.4059L32.008 4.99413C32.2162 5.07871 32.7021 5.31639 33.146 5.87122C33.6389 6.48742 33.8625 7.22469 33.8625 7.9H25.8625ZM28.997 12.4059C29.7986 12.7315 30.8015 12.9698 31.7887 13.1644L33.3363 5.31557C32.9172 5.23292 32.5931 5.159 32.3518 5.09573C32.0965 5.02882 32.0002 4.99095 32.008 4.99413L28.997 12.4059ZM31.7599 13.1586C32.7635 13.3642 33.4695 13.5593 33.9327 13.7254L36.6323 6.19464C35.6822 5.85402 34.5748 5.56913 33.3651 5.32135L31.7599 13.1586ZM34.0176 13.7547C34.1051 13.7839 34.1747 13.8228 34.2659 13.9186L40.059 8.40138C39.0836 7.37717 37.8999 6.61611 36.5474 6.16527L34.0176 13.7547ZM34.2659 13.9186C34.1319 13.7779 34.0466 13.6235 34.0035 13.5037C33.9651 13.3968 33.9812 13.377 33.9829 13.4955L41.9821 13.3844C41.9583 11.6713 41.4452 9.85685 40.059 8.40138L34.2659 13.9186ZM33.9825 13.44C33.9825 13.8046 33.9206 13.9216 33.9316 13.8977C33.9369 13.886 33.9513 13.8601 33.975 13.8315C33.9984 13.8034 34.0136 13.7936 34.005 13.7998L38.64 20.3202C41.0192 18.629 41.9825 16.0704 41.9825 13.44H33.9825ZM33.9863 13.8131C33.7826 13.9597 33.2248 14.24 31.9225 14.24V22.24C34.3002 22.24 36.6757 21.7336 38.6587 20.3069L33.9863 13.8131ZM31.9225 14.24C30.1444 14.24 29.2914 13.9286 28.9605 13.73L24.8445 20.59C26.9136 21.8314 29.4073 22.24 31.9225 22.24V14.24ZM28.9774 13.7402C29.0061 13.7577 29.0559 13.7944 29.1073 13.852C29.1585 13.9093 29.1848 13.9575 29.1932 13.9755C29.2054 14.0018 29.1225 13.8379 29.1225 13.34H21.1225C21.1225 16.064 22.0723 18.908 24.8276 20.5798L28.9774 13.7402ZM25.1225 17.34H29.3025V9.34H25.1225V17.34ZM25.3025 13.34C25.3025 14.5412 25.6034 16.7213 27.6237 18.0682L32.0613 11.4118C32.6717 11.8187 33.0101 12.3573 33.1695 12.7705C33.3107 13.1365 33.3025 13.371 33.3025 13.34H25.3025ZM27.7112 18.1249C29.0371 18.9597 30.5225 19.08 31.5225 19.08V11.08C31.3275 11.08 31.2755 11.0643 31.3259 11.0745C31.3678 11.0829 31.6299 11.1386 31.9737 11.3551L27.7112 18.1249ZM31.5225 19.08C32.3278 19.08 33.2551 18.9988 34.1674 18.6947L31.6376 11.1053C31.6944 11.0863 31.7352 11.0764 31.7561 11.0718C31.7771 11.0672 31.7826 11.067 31.7701 11.0686C31.7425 11.0722 31.6636 11.08 31.5225 11.08V19.08ZM34.1265 18.7081C34.886 18.464 35.8042 17.9743 36.5121 17.0388C37.2331 16.0861 37.4625 15.0328 37.4625 14.16H29.4625C29.4625 13.6606 29.5986 12.9172 30.1329 12.2112C30.6542 11.5224 31.2923 11.216 31.6785 11.0919L34.1265 18.7081ZM37.4625 14.16C37.4625 13.0906 37.1033 12.0271 36.3736 11.1561C35.7033 10.3562 34.8969 9.92601 34.2865 9.68973L31.3985 17.1503C31.2014 17.074 30.705 16.8472 30.2414 16.2939C29.7183 15.6696 29.4625 14.8961 29.4625 14.16H37.4625ZM34.4329 9.74978C33.6234 9.39898 32.6129 9.15365 31.6579 8.95988L30.0671 16.8001C30.47 16.8819 30.7746 16.9539 30.995 17.0141C31.2321 17.0787 31.2957 17.1091 31.2521 17.0902L34.4329 9.74978ZM31.7006 8.96879C30.6721 8.74839 29.9153 8.5412 29.3886 8.35924L26.7764 15.9208C27.7164 16.2455 28.8129 16.5316 30.0244 16.7912L31.7006 8.96879ZM29.4495 8.38083C29.3493 8.34439 29.2481 8.28747 29.1193 8.14604L23.2057 13.534C24.1702 14.5925 25.3491 15.4023 26.7155 15.8992L29.4495 8.38083ZM29.1193 8.14604C29.1755 8.20774 29.2242 8.27482 29.2636 8.34264C29.3026 8.40992 29.3261 8.46694 29.3391 8.50577C29.3645 8.58136 29.3425 8.56271 29.3425 8.4H21.3425C21.3425 10.1494 21.8238 12.0172 23.2057 13.534L29.1193 8.14604ZM29.3425 8.4C29.3425 8.27902 29.3542 8.22082 29.3562 8.21167C29.3577 8.20515 29.3505 8.23944 29.3204 8.29682C29.2896 8.35569 29.2492 8.41092 29.2074 8.45446C29.1671 8.49648 29.145 8.50732 29.1635 8.49604L25.0015 1.66396C22.5018 3.18678 21.3425 5.68037 21.3425 8.4H29.3425ZM29.1746 8.48929C29.5569 8.25469 30.2585 8 31.5225 8V-9.53674e-07C29.2131 -9.53674e-07 26.9548 0.465309 24.9904 1.67071L29.1746 8.48929ZM39.7761 4.24V0.24C37.567 0.24 35.7761 2.03086 35.7761 4.24H39.7761ZM51.6761 4.24H55.6761C55.6761 2.03086 53.8852 0.24 51.6761 0.24V4.24ZM51.6761 7.54V11.54C53.8852 11.54 55.6761 9.74914 55.6761 7.54H51.6761ZM44.1961 7.54V3.54C41.9869 3.54 40.1961 5.33086 40.1961 7.54H44.1961ZM44.1961 9.44H40.1961C40.1961 11.6491 41.9869 13.44 44.1961 13.44V9.44ZM50.5961 9.44H54.5961C54.5961 7.23086 52.8052 5.44 50.5961 5.44V9.44ZM50.5961 12.6V16.6C52.8052 16.6 54.5961 14.8091 54.5961 12.6H50.5961ZM44.1961 12.6V8.6C41.9869 8.6 40.1961 10.3909 40.1961 12.6H44.1961ZM44.1961 14.7H40.1961C40.1961 16.9091 41.9869 18.7 44.1961 18.7V14.7ZM51.8161 14.7H55.8161C55.8161 12.4909 54.0252 10.7 51.8161 10.7V14.7ZM51.8161 18V22C54.0252 22 55.8161 20.2091 55.8161 18H51.8161ZM39.7761 18H35.7761C35.7761 20.2091 37.567 22 39.7761 22V18ZM39.7761 8.24H51.6761V0.24H39.7761V8.24ZM47.6761 4.24V7.54H55.6761V4.24H47.6761ZM51.6761 3.54H44.1961V11.54H51.6761V3.54ZM40.1961 7.54V9.44H48.1961V7.54H40.1961ZM44.1961 13.44H50.5961V5.44H44.1961V13.44ZM46.5961 9.44V12.6H54.5961V9.44H46.5961ZM50.5961 8.6H44.1961V16.6H50.5961V8.6ZM40.1961 12.6V14.7H48.1961V12.6H40.1961ZM44.1961 18.7H51.8161V10.7H44.1961V18.7ZM47.8161 14.7V18H55.8161V14.7H47.8161ZM51.8161 14H39.7761V22H51.8161V14ZM43.7761 18V4.24H35.7761V18H43.7761ZM66.1497 16.42L63.4129 13.5028L66.1497 16.42ZM55.1497 16.44L52.3979 19.343C52.4082 19.3528 52.4186 19.3626 52.429 19.3722L55.1497 16.44ZM55.1497 5.82L57.8854 8.73815L57.8865 8.73721L55.1497 5.82ZM58.4897 8.16L61.5217 10.769V10.769L58.4897 8.16ZM62.8097 14.08L59.8124 11.4312C59.8007 11.4444 59.7891 11.4577 59.7776 11.471L62.8097 14.08ZM62.8097 8.16L59.7776 10.769C59.7891 10.7823 59.8007 10.7956 59.8124 10.8088L62.8097 8.16ZM60.6497 8C62.3578 8 63.0829 8.42756 63.4129 8.73721L68.8865 2.90279C66.6299 0.785774 63.6883 -9.53674e-07 60.6497 -9.53674e-07V8ZM63.4129 8.73721C63.6719 8.98016 64.0897 9.54726 64.0897 11.12H72.0897C72.0897 8.05274 71.2141 5.0865 68.8865 2.90279L63.4129 8.73721ZM64.0897 11.12C64.0897 12.6927 63.6719 13.2598 63.4129 13.5028L68.8865 19.3372C71.2141 17.1535 72.0897 14.1873 72.0897 11.12H64.0897ZM63.4129 13.5028C63.0829 13.8124 62.3578 14.24 60.6497 14.24V22.24C63.6883 22.24 66.6299 21.4542 68.8865 19.3372L63.4129 13.5028ZM60.6497 14.24C58.9307 14.24 58.1995 13.8132 57.8703 13.5077L52.429 19.3722C54.6865 21.4668 57.622 22.24 60.6497 22.24V14.24ZM57.9015 13.537C57.6523 13.3008 57.2297 12.7259 57.2297 11.12H49.2297C49.2297 14.1808 50.087 17.1525 52.3979 19.343L57.9015 13.537ZM57.2297 11.12C57.2297 9.51127 57.6533 8.95578 57.8854 8.73815L52.4139 2.90185C50.0861 5.08422 49.2297 8.06206 49.2297 11.12H57.2297ZM57.8865 8.73721C58.2165 8.42756 58.9416 8 60.6497 8V-9.53674e-07C57.6111 -9.53674e-07 54.6695 0.785774 52.4129 2.90279L57.8865 8.73721ZM60.6497 3.3C58.8552 3.3 56.8959 3.87959 55.4576 5.55103L61.5217 10.769C61.3371 10.9835 61.1032 11.1421 60.8793 11.2313C60.6769 11.3119 60.5741 11.3 60.6497 11.3V3.3ZM55.4576 5.55103C54.1781 7.03803 53.7497 8.83022 53.7497 10.48H61.7497C61.7497 10.3264 61.7696 10.31 61.7455 10.3855C61.7176 10.473 61.6507 10.6191 61.5217 10.769L55.4576 5.55103ZM53.7497 10.48V11.76H61.7497V10.48H53.7497ZM53.7497 11.76C53.7497 13.4098 54.1781 15.202 55.4576 16.689L61.5217 11.471C61.6507 11.6209 61.7176 11.767 61.7455 11.8545C61.7696 11.93 61.7497 11.9136 61.7497 11.76H53.7497ZM55.4576 16.689C56.8959 18.3604 58.8552 18.94 60.6497 18.94V10.94C60.5741 10.94 60.6769 10.9281 60.8793 11.0087C61.1032 11.0979 61.3371 11.2565 61.5217 11.471L55.4576 16.689ZM60.6497 18.94C62.4442 18.94 64.4035 18.3604 65.8417 16.689L59.7776 11.471C59.9622 11.2565 60.1962 11.0979 60.4201 11.0087C60.6225 10.9281 60.7253 10.94 60.6497 10.94V18.94ZM65.807 16.7288C67.1205 15.2424 67.5697 13.4353 67.5697 11.76H59.5697C59.5697 11.9041 59.5506 11.9099 59.5784 11.8248C59.6104 11.7271 59.6824 11.5783 59.8124 11.4312L65.807 16.7288ZM67.5697 11.76V10.48H59.5697V11.76H67.5697ZM67.5697 10.48C67.5697 8.80473 67.1205 6.99758 65.807 5.51121L59.8124 10.8088C59.6824 10.6617 59.6104 10.5129 59.5784 10.4152C59.5506 10.3301 59.5697 10.3359 59.5697 10.48H67.5697ZM65.8417 5.55103C64.4035 3.87959 62.4442 3.3 60.6497 3.3V11.3C60.7253 11.3 60.6225 11.3119 60.4201 11.2313C60.1962 11.1421 59.9622 10.9835 59.7776 10.769L65.8417 5.55103ZM79.3898 4.24V0.24C78.2027 0.24 77.0769 0.767292 76.317 1.67926L79.3898 4.24ZM84.8698 4.24L87.8834 6.87025C88.9149 5.68846 89.1604 4.01287 88.5113 2.58485C87.8623 1.15684 86.4384 0.24 84.8698 0.24V4.24ZM79.9298 9.9L76.9162 7.26975C75.7597 8.59483 75.6044 10.5199 76.5336 12.0132L79.9298 9.9ZM84.9698 18V22C86.4225 22 87.761 21.2124 88.4665 19.9426C89.172 18.6727 89.1335 17.1202 88.3661 15.8868L84.9698 18ZM79.7498 18L76.2709 19.9741C76.9815 21.2263 78.3101 22 79.7498 22V18ZM76.8898 12.96L80.3688 10.9859C79.7872 9.96109 78.7835 9.24483 77.6253 9.02819C76.4671 8.81155 75.2723 9.11657 74.3597 9.86187L76.8898 12.96ZM74.4898 14.92L71.9597 11.8219C71.0295 12.5815 70.4898 13.719 70.4898 14.92H74.4898ZM74.4898 18V22C76.699 22 78.4898 20.2091 78.4898 18H74.4898ZM70.0698 18H66.0698C66.0698 20.2091 67.8607 22 70.0698 22V18ZM70.0698 4.24V0.24C67.8607 0.24 66.0698 2.03086 66.0698 4.24H70.0698ZM74.4898 4.24H78.4898C78.4898 2.03086 76.699 0.24 74.4898 0.24V4.24ZM74.4898 10.12H70.4898C70.4898 11.8041 71.5446 13.3078 73.1281 13.8811C74.7116 14.4544 76.4846 13.9745 77.5627 12.6807L74.4898 10.12ZM79.3898 8.24H84.8698V0.24H79.3898V8.24ZM81.8562 1.60975L76.9162 7.26975L82.9435 12.5302L87.8834 6.87025L81.8562 1.60975ZM76.5336 12.0132L81.5736 20.1132L88.3661 15.8868L83.3261 7.78679L76.5336 12.0132ZM84.9698 14H79.7498V22H84.9698V14ZM83.2287 16.0259L80.3688 10.9859L73.4109 14.9341L76.2709 19.9741L83.2287 16.0259ZM74.3597 9.86187L71.9597 11.8219L77.02 18.0181L79.42 16.0581L74.3597 9.86187ZM70.4898 14.92V18H78.4898V14.92H70.4898ZM74.4898 14H70.0698V22H74.4898V14ZM74.0698 18V4.24H66.0698V18H74.0698ZM70.0698 8.24H74.4898V0.24H70.0698V8.24ZM70.4898 4.24V10.12H78.4898V4.24H70.4898ZM77.5627 12.6807L82.4627 6.80074L76.317 1.67926L71.417 7.55926L77.5627 12.6807ZM104.41 18H100.41C100.41 20.2091 102.201 22 104.41 22V18ZM104.47 11.16L100.483 10.8346C100.481 10.8598 100.48 10.8852 100.478 10.9105L104.47 11.16ZM104.63 9.52L108.601 10.0013V10.0013L104.63 9.52ZM104.73 8.68L108.706 9.12175C108.831 7.99093 108.469 6.86011 107.711 6.01232C106.952 5.16453 105.868 4.68 104.73 4.68V8.68ZM104.65 8.68V4.68C102.846 4.68 101.265 5.88764 100.791 7.62823L104.65 8.68ZM102.11 18V22C103.914 22 105.495 20.7924 105.969 19.0518L102.11 18ZM98.6502 18L94.7936 19.0616C95.2714 20.7973 96.8499 22 98.6502 22V18ZM96.0902 8.7L99.9467 7.63841C99.4689 5.90268 97.8904 4.7 96.0902 4.7V8.7ZM96.0102 8.7V4.7C94.8724 4.7 93.7884 5.18453 93.0296 6.03231C92.2708 6.8801 91.909 8.01091 92.0346 9.14173L96.0102 8.7ZM96.1102 9.54L92.1392 10.0213C92.1447 10.0668 92.151 10.1122 92.1581 10.1575L96.1102 9.54ZM96.2902 11.16L92.3034 11.4854L92.304 11.4922L96.2902 11.16ZM96.3702 18V22C98.5793 22 100.37 20.2091 100.37 18H96.3702ZM92.3102 18H88.3102C88.3102 20.2091 90.101 22 92.3102 22V18ZM92.3102 4.24V0.24C90.101 0.24 88.3102 2.03086 88.3102 4.24H92.3102ZM98.5502 4.24L102.42 3.22634C101.959 1.46697 100.369 0.24 98.5502 0.24V4.24ZM100.63 12.18L96.7607 13.1937C97.2216 14.953 98.8114 16.18 100.63 16.18V12.18ZM100.71 12.18V16.18C102.532 16.18 104.124 14.9484 104.582 13.1845L100.71 12.18ZM102.77 4.24V0.24C100.948 0.24 99.356 1.47162 98.8983 3.23547L102.77 4.24ZM108.79 4.24H112.79C112.79 2.03086 110.999 0.24 108.79 0.24V4.24ZM108.79 18V22C110.999 22 112.79 20.2091 112.79 18H108.79ZM108.41 18V13.04H100.41V18H108.41ZM108.41 13.04C108.41 12.5136 108.427 11.9702 108.462 11.4095L100.478 10.9105C100.433 11.6298 100.41 12.3398 100.41 13.04H108.41ZM108.457 11.4854C108.508 10.8621 108.556 10.3714 108.601 10.0013L100.659 9.03867C100.597 9.54863 100.539 10.1512 100.483 10.8346L108.457 11.4854ZM108.601 10.0013C108.654 9.56752 108.69 9.26572 108.706 9.12175L100.755 8.23825C100.744 8.33428 100.713 8.59248 100.659 9.03868L108.601 10.0013ZM104.73 4.68H104.65V12.68H104.73V4.68ZM100.791 7.62823L98.2509 16.9482L105.969 19.0518L108.509 9.73177L100.791 7.62823ZM102.11 14H98.6502V22H102.11V14ZM102.507 16.9384L99.9467 7.63841L92.2336 9.76159L94.7936 19.0616L102.507 16.9384ZM96.0902 4.7H96.0102V12.7H96.0902V4.7ZM92.0346 9.14173C92.0506 9.28572 92.0866 9.58753 92.1392 10.0213L100.081 9.05868C100.027 8.61247 99.9964 8.35428 99.9857 8.25827L92.0346 9.14173ZM92.1581 10.1575C92.204 10.4515 92.2544 10.8855 92.3034 11.4854L100.277 10.8346C100.219 10.1279 100.15 9.48185 100.062 8.92249L92.1581 10.1575ZM92.304 11.4922C92.3485 12.0268 92.3702 12.5426 92.3702 13.04H100.37C100.37 12.3107 100.338 11.5732 100.276 10.8278L92.304 11.4922ZM92.3702 13.04V18H100.37V13.04H92.3702ZM96.3702 14H92.3102V22H96.3702V14ZM96.3102 18V4.24H88.3102V18H96.3102ZM92.3102 8.24H98.5502V0.24H92.3102V8.24ZM94.6807 5.25365L96.7607 13.1937L104.5 11.1663L102.42 3.22634L94.6807 5.25365ZM100.63 16.18H100.71V8.18H100.63V16.18ZM104.582 13.1845L106.642 5.24452L98.8983 3.23547L96.8383 11.1755L104.582 13.1845ZM102.77 8.24H108.79V0.24H102.77V8.24ZM104.79 4.24V18H112.79V4.24H104.79ZM108.79 14H104.41V22H108.79V14ZM120.297 18L116.464 19.1458C116.971 20.8395 118.529 22 120.297 22V18ZM119.717 16.06L123.549 14.9142C123.043 13.2205 121.485 12.06 119.717 12.06V16.06ZM114.897 16.06V12.06C113.129 12.06 111.571 13.2205 111.064 14.9142L114.897 16.06ZM114.317 18V22C116.085 22 117.643 20.8395 118.149 19.1458L114.317 18ZM109.797 18L106.039 16.6291C105.592 17.8556 105.771 19.2233 106.519 20.2931C107.268 21.3628 108.491 22 109.797 22V18ZM114.817 4.24V0.24C113.136 0.24 111.635 1.29037 111.059 2.86908L114.817 4.24ZM119.957 4.24L123.715 2.86908C123.139 1.29037 121.637 0.24 119.957 0.24V4.24ZM124.977 18V22C126.282 22 127.506 21.3628 128.254 20.2931C129.003 19.2233 129.182 17.8556 128.735 16.6291L124.977 18ZM115.817 12.98L111.983 11.8378C111.623 13.0483 111.855 14.3581 112.61 15.3707C113.365 16.3834 114.554 16.98 115.817 16.98V12.98ZM118.797 12.98V16.98C120.057 16.98 121.244 16.3859 121.999 15.3767C122.755 14.3676 122.99 13.0615 122.635 11.8522L118.797 12.98ZM117.357 8.08L121.195 6.95218C120.694 5.24943 119.132 4.08 117.357 4.08V8.08ZM117.277 8.08V4.08C115.508 4.08 113.949 5.24225 113.443 6.93779L117.277 8.08ZM124.129 16.8542L123.549 14.9142L115.884 17.2058L116.464 19.1458L124.129 16.8542ZM119.717 12.06H114.897V20.06H119.717V12.06ZM111.064 14.9142L110.484 16.8542L118.149 19.1458L118.729 17.2058L111.064 14.9142ZM114.317 14H109.797V22H114.317V14ZM113.555 19.3709L118.575 5.61092L111.059 2.86908L106.039 16.6291L113.555 19.3709ZM114.817 8.24H119.957V0.24H114.817V8.24ZM116.199 5.61092L121.219 19.3709L128.735 16.6291L123.715 2.86908L116.199 5.61092ZM124.977 14H120.297V22H124.977V14ZM115.817 16.98H118.797V8.98H115.817V16.98ZM122.635 11.8522L121.195 6.95218L113.519 9.20782L114.959 14.1078L122.635 11.8522ZM117.357 4.08H117.277V12.08H117.357V4.08ZM113.443 6.93779L111.983 11.8378L119.65 14.1222L121.11 9.22221L113.443 6.93779ZM132.777 7.76V3.76C130.567 3.76 128.777 5.55086 128.777 7.76H132.777ZM132.777 18V22C134.986 22 136.777 20.2091 136.777 18H132.777ZM128.357 18H124.357C124.357 20.2091 126.147 22 128.357 22V18ZM128.357 7.76H132.357C132.357 5.55086 130.566 3.76 128.357 3.76V7.76ZM123.837 7.76H119.837C119.837 9.96914 121.627 11.76 123.837 11.76V7.76ZM123.837 4.24V0.24C121.627 0.24 119.837 2.03086 119.837 4.24H123.837ZM137.277 4.24H141.277C141.277 2.03086 139.486 0.24 137.277 0.24V4.24ZM137.277 7.76V11.76C139.486 11.76 141.277 9.96914 141.277 7.76H137.277ZM128.777 7.76V18H136.777V7.76H128.777ZM132.777 14H128.357V22H132.777V14ZM132.357 18V7.76H124.357V18H132.357ZM128.357 3.76H123.837V11.76H128.357V3.76ZM127.837 7.76V4.24H119.837V7.76H127.837ZM123.837 8.24H137.277V0.24H123.837V8.24ZM133.277 4.24V7.76H141.277V4.24H133.277ZM137.277 3.76H132.777V11.76H137.277V3.76ZM146.81 7.76V3.76C144.601 3.76 142.81 5.55086 142.81 7.76H146.81ZM146.81 18V22C149.019 22 150.81 20.2091 150.81 18H146.81ZM142.39 18H138.39C138.39 20.2091 140.181 22 142.39 22V18ZM142.39 7.76H146.39C146.39 5.55086 144.599 3.76 142.39 3.76V7.76ZM137.87 7.76H133.87C133.87 9.96914 135.661 11.76 137.87 11.76V7.76ZM137.87 4.24V0.24C135.661 0.24 133.87 2.03086 133.87 4.24H137.87ZM151.31 4.24H155.31C155.31 2.03086 153.519 0.24 151.31 0.24V4.24ZM151.31 7.76V11.76C153.519 11.76 155.31 9.96914 155.31 7.76H151.31ZM142.81 7.76V18H150.81V7.76H142.81ZM146.81 14H142.39V22H146.81V14ZM146.39 18V7.76H138.39V18H146.39ZM142.39 3.76H137.87V11.76H142.39V3.76ZM141.87 7.76V4.24H133.87V7.76H141.87ZM137.87 8.24H151.31V0.24H137.87V8.24ZM147.31 4.24V7.76H155.31V4.24H147.31ZM151.31 3.76H146.81V11.76H151.31V3.76ZM162.204 18H158.204C158.204 20.2091 159.995 22 162.204 22V18ZM162.204 12.78H166.204C166.204 10.5709 164.413 8.78 162.204 8.78V12.78ZM157.344 12.78V8.78C155.135 8.78 153.344 10.5709 153.344 12.78H157.344ZM157.344 18V22C159.553 22 161.344 20.2091 161.344 18H157.344ZM152.924 18H148.924C148.924 20.2091 150.715 22 152.924 22V18ZM152.924 4.24V0.24C150.715 0.24 148.924 2.03086 148.924 4.24H152.924ZM157.344 4.24H161.344C161.344 2.03086 159.553 0.24 157.344 0.24V4.24ZM157.344 9.26H153.344C153.344 11.4691 155.135 13.26 157.344 13.26V9.26ZM162.204 9.26V13.26C164.413 13.26 166.204 11.4691 166.204 9.26H162.204ZM162.204 4.24V0.24C159.995 0.24 158.204 2.03086 158.204 4.24H162.204ZM166.624 4.24H170.624C170.624 2.03086 168.833 0.24 166.624 0.24V4.24ZM166.624 18V22C168.833 22 170.624 20.2091 170.624 18H166.624ZM166.204 18V12.78H158.204V18H166.204ZM162.204 8.78H157.344V16.78H162.204V8.78ZM153.344 12.78V18H161.344V12.78H153.344ZM157.344 14H152.924V22H157.344V14ZM156.924 18V4.24H148.924V18H156.924ZM152.924 8.24H157.344V0.24H152.924V8.24ZM153.344 4.24V9.26H161.344V4.24H153.344ZM157.344 13.26H162.204V5.26H157.344V13.26ZM166.204 9.26V4.24H158.204V9.26H166.204ZM162.204 8.24H166.624V0.24H162.204V8.24ZM162.624 4.24V18H170.624V4.24H162.624ZM166.624 14H162.204V22H166.624V14ZM169.184 4.24V0.24C166.975 0.24 165.184 2.03086 165.184 4.24H169.184ZM181.084 4.24H185.084C185.084 2.03086 183.293 0.24 181.084 0.24V4.24ZM181.084 7.54V11.54C183.293 11.54 185.084 9.74914 185.084 7.54H181.084ZM173.604 7.54V3.54C171.395 3.54 169.604 5.33086 169.604 7.54H173.604ZM173.604 9.44H169.604C169.604 11.6491 171.395 13.44 173.604 13.44V9.44ZM180.004 9.44H184.004C184.004 7.23086 182.213 5.44 180.004 5.44V9.44ZM180.004 12.6V16.6C182.213 16.6 184.004 14.8091 184.004 12.6H180.004ZM173.604 12.6V8.6C171.395 8.6 169.604 10.3909 169.604 12.6H173.604ZM173.604 14.7H169.604C169.604 16.9091 171.395 18.7 173.604 18.7V14.7ZM181.224 14.7H185.224C185.224 12.4909 183.433 10.7 181.224 10.7V14.7ZM181.224 18V22C183.433 22 185.224 20.2091 185.224 18H181.224ZM169.184 18H165.184C165.184 20.2091 166.975 22 169.184 22V18ZM169.184 8.24H181.084V0.24H169.184V8.24ZM177.084 4.24V7.54H185.084V4.24H177.084ZM181.084 3.54H173.604V11.54H181.084V3.54ZM169.604 7.54V9.44H177.604V7.54H169.604ZM173.604 13.44H180.004V5.44H173.604V13.44ZM176.004 9.44V12.6H184.004V9.44H176.004ZM180.004 8.6H173.604V16.6H180.004V8.6ZM169.604 12.6V14.7H177.604V12.6H169.604ZM173.604 18.7H181.224V10.7H173.604V18.7ZM177.224 14.7V18H185.224V14.7H177.224ZM181.224 14H169.184V22H181.224V14ZM173.184 18V4.24H165.184V18H173.184ZM193.558 18L189.645 18.8311C190.037 20.6787 191.669 22 193.558 22V18ZM191.777 9.62L195.69 8.7889C195.298 6.94128 193.666 5.62 191.777 5.62V9.62ZM191.698 9.62V5.62C189.809 5.62 188.177 6.94128 187.785 8.7889L191.698 9.62ZM189.917 18V22C191.806 22 193.438 20.6787 193.83 18.8311L189.917 18ZM185.058 18L181.163 18.9114C181.586 20.7206 183.199 22 185.058 22V18ZM181.838 4.24V0.24C180.616 0.24 179.462 0.797805 178.703 1.75461C177.945 2.71142 177.664 3.96241 177.943 5.15142L181.838 4.24ZM186.438 4.24L190.358 3.44587C189.98 1.58073 188.341 0.24 186.438 0.24V4.24ZM188.018 12.04L184.097 12.8341C184.475 14.6993 186.114 16.04 188.018 16.04V12.04ZM188.098 12.04V16.04C190.004 16.04 191.646 14.6942 192.02 12.8245L188.098 12.04ZM189.658 4.24V0.24C187.751 0.24 186.109 1.58584 185.735 3.45553L189.658 4.24ZM194.018 4.24L197.93 3.40736C197.537 1.56047 195.906 0.24 194.018 0.24V4.24ZM195.678 12.04L191.765 12.8726C192.158 14.7195 193.789 16.04 195.678 16.04V12.04ZM195.758 12.04V16.04C197.679 16.04 199.329 14.6736 199.687 12.7857L195.758 12.04ZM197.238 4.24V0.24C195.316 0.24 193.666 1.60642 193.308 3.49433L197.238 4.24ZM201.637 4.24L205.532 5.15142C205.811 3.96241 205.53 2.71142 204.772 1.75461C204.013 0.797805 202.859 0.24 201.637 0.24V4.24ZM198.418 18V22C200.276 22 201.889 20.7206 202.312 18.9114L198.418 18ZM197.47 17.1689L195.69 8.7889L187.865 10.4511L189.645 18.8311L197.47 17.1689ZM191.777 5.62H191.698V13.62H191.777V5.62ZM187.785 8.7889L186.005 17.1689L193.83 18.8311L195.61 10.4511L187.785 8.7889ZM189.917 14H185.058V22H189.917V14ZM188.952 17.0886L185.732 3.32858L177.943 5.15142L181.163 18.9114L188.952 17.0886ZM181.838 8.24H186.438V0.24H181.838V8.24ZM182.517 5.03413L184.097 12.8341L191.938 11.2459L190.358 3.44587L182.517 5.03413ZM188.018 16.04H188.098V8.04H188.018V16.04ZM192.02 12.8245L193.58 5.02446L185.735 3.45553L184.175 11.2555L192.02 12.8245ZM189.658 8.24H194.018V0.24H189.658V8.24ZM190.105 5.07263L191.765 12.8726L199.59 11.2074L197.93 3.40736L190.105 5.07263ZM195.678 16.04H195.758V8.04H195.678V16.04ZM199.687 12.7857L201.167 4.98567L193.308 3.49433L191.828 11.2943L199.687 12.7857ZM197.238 8.24H201.637V0.24H197.238V8.24ZM197.743 3.32858L194.523 17.0886L202.312 18.9114L205.532 5.15142L197.743 3.32858ZM198.418 14H193.558V22H198.418V14Z" fill="#468ED3" mask="url(#path-1-outside-1_2005_2842)"/>
<mask id="path-3-outside-2_2005_2842" maskUnits="userSpaceOnUse" x="23" y="2" width="181" height="19" fill="black">
<rect fill="white" x="23" y="2" width="181" height="19"/>
<path d="M31.5225 4C33.2825 4 34.7292 4.36 35.8625 5.08C36.9958 5.78667 37.5758 6.84 37.6025 8.24V8.48H33.4625V8.4C33.4625 8 33.3158 7.66667 33.0225 7.4C32.7292 7.13333 32.2825 7 31.6825 7C31.0958 7 30.6425 7.08667 30.3225 7.26C30.0158 7.43333 29.8625 7.64667 29.8625 7.9C29.8625 8.26 30.0758 8.52667 30.5025 8.7C30.9292 8.87333 31.6158 9.05333 32.5625 9.24C33.6692 9.46667 34.5758 9.70667 35.2825 9.96C36.0025 10.2 36.6292 10.6 37.1625 11.16C37.6958 11.72 37.9692 12.48 37.9825 13.44C37.9825 15.0667 37.4292 16.2733 36.3225 17.06C35.2292 17.8467 33.7625 18.24 31.9225 18.24C29.7758 18.24 28.1025 17.88 26.9025 17.16C25.7158 16.44 25.1225 15.1667 25.1225 13.34H29.3025C29.3025 14.0333 29.4825 14.5 29.8425 14.74C30.2025 14.9667 30.7625 15.08 31.5225 15.08C32.0825 15.08 32.5425 15.02 32.9025 14.9C33.2758 14.78 33.4625 14.5333 33.4625 14.16C33.4625 13.8267 33.2558 13.58 32.8425 13.42C32.4425 13.2467 31.7825 13.0667 30.8625 12.88C29.7425 12.64 28.8158 12.3933 28.0825 12.14C27.3492 11.8733 26.7092 11.44 26.1625 10.84C25.6158 10.24 25.3425 9.42667 25.3425 8.4C25.3425 6.89333 25.9225 5.78667 27.0825 5.08C28.2558 4.36 29.7358 4 31.5225 4ZM39.7761 4.24H51.6761V7.54H44.1961V9.44H50.5961V12.6H44.1961V14.7H51.8161V18H39.7761V4.24ZM60.6497 4C63.023 4 64.8564 4.60667 66.1497 5.82C67.443 7.03333 68.0897 8.8 68.0897 11.12C68.0897 13.44 67.443 15.2067 66.1497 16.42C64.8564 17.6333 63.023 18.24 60.6497 18.24C58.2764 18.24 56.443 17.64 55.1497 16.44C53.8697 15.2267 53.2297 13.4533 53.2297 11.12C53.2297 8.78667 53.8697 7.02 55.1497 5.82C56.443 4.60667 58.2764 4 60.6497 4ZM60.6497 7.3C59.703 7.3 58.983 7.58667 58.4897 8.16C57.9964 8.73333 57.7497 9.50667 57.7497 10.48V11.76C57.7497 12.7333 57.9964 13.5067 58.4897 14.08C58.983 14.6533 59.703 14.94 60.6497 14.94C61.5964 14.94 62.3164 14.6533 62.8097 14.08C63.3164 13.5067 63.5697 12.7333 63.5697 11.76V10.48C63.5697 9.50667 63.3164 8.73333 62.8097 8.16C62.3164 7.58667 61.5964 7.3 60.6497 7.3ZM79.3898 4.24H84.8698L79.9298 9.9L84.9698 18H79.7498L76.8898 12.96L74.4898 14.92V18H70.0698V4.24H74.4898V10.12L79.3898 4.24ZM104.41 18V13.04C104.41 12.4267 104.43 11.8 104.47 11.16C104.523 10.5067 104.577 9.96 104.63 9.52C104.683 9.08 104.717 8.8 104.73 8.68H104.65L102.11 18H98.6502L96.0902 8.7H96.0102C96.0235 8.82 96.0568 9.1 96.1102 9.54C96.1768 9.96667 96.2368 10.5067 96.2902 11.16C96.3435 11.8 96.3702 12.4267 96.3702 13.04V18H92.3102V4.24H98.5502L100.63 12.18H100.71L102.77 4.24H108.79V18H104.41ZM120.297 18L119.717 16.06H114.897L114.317 18H109.797L114.817 4.24H119.957L124.977 18H120.297ZM115.817 12.98H118.797L117.357 8.08H117.277L115.817 12.98ZM132.777 7.76V18H128.357V7.76H123.837V4.24H137.277V7.76H132.777ZM146.81 7.76V18H142.39V7.76H137.87V4.24H151.31V7.76H146.81ZM162.204 18V12.78H157.344V18H152.924V4.24H157.344V9.26H162.204V4.24H166.624V18H162.204ZM169.184 4.24H181.084V7.54H173.604V9.44H180.004V12.6H173.604V14.7H181.224V18H169.184V4.24ZM193.558 18L191.778 9.62H191.698L189.918 18H185.058L181.838 4.24H186.438L188.018 12.04H188.098L189.658 4.24H194.018L195.678 12.04H195.758L197.238 4.24H201.638L198.418 18H193.558Z"/>
</mask>
<path d="M31.5225 4C33.2825 4 34.7292 4.36 35.8625 5.08C36.9958 5.78667 37.5758 6.84 37.6025 8.24V8.48H33.4625V8.4C33.4625 8 33.3158 7.66667 33.0225 7.4C32.7292 7.13333 32.2825 7 31.6825 7C31.0958 7 30.6425 7.08667 30.3225 7.26C30.0158 7.43333 29.8625 7.64667 29.8625 7.9C29.8625 8.26 30.0758 8.52667 30.5025 8.7C30.9292 8.87333 31.6158 9.05333 32.5625 9.24C33.6692 9.46667 34.5758 9.70667 35.2825 9.96C36.0025 10.2 36.6292 10.6 37.1625 11.16C37.6958 11.72 37.9692 12.48 37.9825 13.44C37.9825 15.0667 37.4292 16.2733 36.3225 17.06C35.2292 17.8467 33.7625 18.24 31.9225 18.24C29.7758 18.24 28.1025 17.88 26.9025 17.16C25.7158 16.44 25.1225 15.1667 25.1225 13.34H29.3025C29.3025 14.0333 29.4825 14.5 29.8425 14.74C30.2025 14.9667 30.7625 15.08 31.5225 15.08C32.0825 15.08 32.5425 15.02 32.9025 14.9C33.2758 14.78 33.4625 14.5333 33.4625 14.16C33.4625 13.8267 33.2558 13.58 32.8425 13.42C32.4425 13.2467 31.7825 13.0667 30.8625 12.88C29.7425 12.64 28.8158 12.3933 28.0825 12.14C27.3492 11.8733 26.7092 11.44 26.1625 10.84C25.6158 10.24 25.3425 9.42667 25.3425 8.4C25.3425 6.89333 25.9225 5.78667 27.0825 5.08C28.2558 4.36 29.7358 4 31.5225 4ZM39.7761 4.24H51.6761V7.54H44.1961V9.44H50.5961V12.6H44.1961V14.7H51.8161V18H39.7761V4.24ZM60.6497 4C63.023 4 64.8564 4.60667 66.1497 5.82C67.443 7.03333 68.0897 8.8 68.0897 11.12C68.0897 13.44 67.443 15.2067 66.1497 16.42C64.8564 17.6333 63.023 18.24 60.6497 18.24C58.2764 18.24 56.443 17.64 55.1497 16.44C53.8697 15.2267 53.2297 13.4533 53.2297 11.12C53.2297 8.78667 53.8697 7.02 55.1497 5.82C56.443 4.60667 58.2764 4 60.6497 4ZM60.6497 7.3C59.703 7.3 58.983 7.58667 58.4897 8.16C57.9964 8.73333 57.7497 9.50667 57.7497 10.48V11.76C57.7497 12.7333 57.9964 13.5067 58.4897 14.08C58.983 14.6533 59.703 14.94 60.6497 14.94C61.5964 14.94 62.3164 14.6533 62.8097 14.08C63.3164 13.5067 63.5697 12.7333 63.5697 11.76V10.48C63.5697 9.50667 63.3164 8.73333 62.8097 8.16C62.3164 7.58667 61.5964 7.3 60.6497 7.3ZM79.3898 4.24H84.8698L79.9298 9.9L84.9698 18H79.7498L76.8898 12.96L74.4898 14.92V18H70.0698V4.24H74.4898V10.12L79.3898 4.24ZM104.41 18V13.04C104.41 12.4267 104.43 11.8 104.47 11.16C104.523 10.5067 104.577 9.96 104.63 9.52C104.683 9.08 104.717 8.8 104.73 8.68H104.65L102.11 18H98.6502L96.0902 8.7H96.0102C96.0235 8.82 96.0568 9.1 96.1102 9.54C96.1768 9.96667 96.2368 10.5067 96.2902 11.16C96.3435 11.8 96.3702 12.4267 96.3702 13.04V18H92.3102V4.24H98.5502L100.63 12.18H100.71L102.77 4.24H108.79V18H104.41ZM120.297 18L119.717 16.06H114.897L114.317 18H109.797L114.817 4.24H119.957L124.977 18H120.297ZM115.817 12.98H118.797L117.357 8.08H117.277L115.817 12.98ZM132.777 7.76V18H128.357V7.76H123.837V4.24H137.277V7.76H132.777ZM146.81 7.76V18H142.39V7.76H137.87V4.24H151.31V7.76H146.81ZM162.204 18V12.78H157.344V18H152.924V4.24H157.344V9.26H162.204V4.24H166.624V18H162.204ZM169.184 4.24H181.084V7.54H173.604V9.44H180.004V12.6H173.604V14.7H181.224V18H169.184V4.24ZM193.558 18L191.778 9.62H191.698L189.918 18H185.058L181.838 4.24H186.438L188.018 12.04H188.098L189.658 4.24H194.018L195.678 12.04H195.758L197.238 4.24H201.638L198.418 18H193.558Z" fill="black"/>
<path d="M35.8625 5.08L34.79 6.76814C34.7948 6.77115 34.7995 6.77414 34.8043 6.77712L35.8625 5.08ZM37.6025 8.24H39.6025C39.6025 8.2273 39.6024 8.21461 39.6021 8.20191L37.6025 8.24ZM37.6025 8.48V10.48C38.7071 10.48 39.6025 9.58457 39.6025 8.48H37.6025ZM33.4625 8.48H31.4625C31.4625 9.58457 32.3579 10.48 33.4625 10.48V8.48ZM33.0225 7.4L34.3678 5.92012V5.92012L33.0225 7.4ZM30.3225 7.26L29.3699 5.50142C29.3594 5.50714 29.3488 5.51296 29.3384 5.51887L30.3225 7.26ZM30.5025 8.7L31.2553 6.84707V6.84707L30.5025 8.7ZM32.5625 9.24L32.9638 7.28067C32.959 7.27969 32.9542 7.27873 32.9494 7.27778L32.5625 9.24ZM35.2825 9.96L34.6076 11.8427C34.6217 11.8477 34.6358 11.8526 34.65 11.8574L35.2825 9.96ZM37.9825 13.44H39.9825C39.9825 13.4307 39.9824 13.4215 39.9823 13.4122L37.9825 13.44ZM36.3225 17.06L35.1637 15.4299L35.1544 15.4366L36.3225 17.06ZM26.9025 17.16L25.865 18.8699L25.8735 18.875L26.9025 17.16ZM25.1225 13.34V11.34C24.0179 11.34 23.1225 12.2354 23.1225 13.34H25.1225ZM29.3025 13.34H31.3025C31.3025 12.2354 30.4071 11.34 29.3025 11.34V13.34ZM29.8425 14.74L28.7331 16.4041C28.7476 16.4137 28.7622 16.4232 28.7769 16.4325L29.8425 14.74ZM32.9025 14.9L32.2905 12.9959C32.2837 12.9981 32.2768 13.0004 32.27 13.0026L32.9025 14.9ZM32.8425 13.42L32.0473 15.2551C32.0715 15.2656 32.0959 15.2756 32.1205 15.2851L32.8425 13.42ZM30.8625 12.88L30.4434 14.8356C30.4506 14.8371 30.4577 14.8386 30.4648 14.8401L30.8625 12.88ZM28.0825 12.14L27.399 14.0196C27.4091 14.0233 27.4193 14.0269 27.4295 14.0304L28.0825 12.14ZM26.1625 10.84L24.6841 12.187V12.187L26.1625 10.84ZM27.0825 5.08L28.123 6.78803L28.1285 6.78464L27.0825 5.08ZM31.5225 6C33.0185 6 34.0628 6.30611 34.79 6.76814L36.935 3.39186C35.3956 2.41389 33.5465 2 31.5225 2V6ZM34.8043 6.77712C35.3307 7.10535 35.5883 7.51542 35.6029 8.27809L39.6021 8.20191C39.5633 6.16458 38.661 4.46798 36.9207 3.38288L34.8043 6.77712ZM35.6025 8.24V8.48H39.6025V8.24H35.6025ZM37.6025 6.48H33.4625V10.48H37.6025V6.48ZM35.4625 8.48V8.4H31.4625V8.48H35.4625ZM35.4625 8.4C35.4625 7.44231 35.0824 6.56971 34.3678 5.92012L31.6772 8.87988C31.6352 8.84172 31.571 8.76709 31.5219 8.65548C31.4729 8.54429 31.4625 8.44984 31.4625 8.4H35.4625ZM34.3678 5.92012C33.5568 5.18279 32.532 5 31.6825 5V9C31.7592 9 31.8145 9.00431 31.851 9.00897C31.8876 9.01363 31.9008 9.01803 31.8954 9.01644C31.8897 9.01472 31.863 9.00618 31.8227 8.98441C31.7816 8.96219 31.7305 8.9284 31.6772 8.87988L34.3678 5.92012ZM31.6825 5C30.9453 5 30.109 5.10106 29.3699 5.50142L31.2751 9.01858C31.2135 9.05192 31.2017 9.04402 31.278 9.02942C31.353 9.0151 31.4831 9 31.6825 9V5ZM29.3384 5.51887C28.6798 5.89112 27.8625 6.65653 27.8625 7.9H31.8625C31.8625 8.20846 31.7597 8.49727 31.6015 8.71727C31.4617 8.91183 31.324 8.9913 31.3066 9.00113L29.3384 5.51887ZM27.8625 7.9C27.8625 8.50766 28.0543 9.11129 28.4608 9.61939C28.8427 10.0968 29.3256 10.3806 29.7497 10.5529L31.2553 6.84707C31.2584 6.84836 31.297 6.86416 31.3556 6.90442C31.4155 6.9456 31.4995 7.01473 31.5842 7.12061C31.7774 7.36205 31.8625 7.65234 31.8625 7.9H27.8625ZM29.7497 10.5529C30.3639 10.8024 31.2087 11.0116 32.1756 11.2022L32.9494 7.27778C32.023 7.09511 31.4945 6.94424 31.2553 6.84707L29.7497 10.5529ZM32.1612 11.1993C33.2163 11.4154 34.0227 11.633 34.6076 11.8427L35.9574 8.07732C35.129 7.78034 34.122 7.5179 32.9638 7.28067L32.1612 11.1993ZM34.65 11.8574C35.0538 11.9919 35.4019 12.2114 35.7142 12.5393L38.6108 9.78069C37.8564 8.98858 36.9512 8.40806 35.915 8.06263L34.65 11.8574ZM35.7142 12.5393C35.8211 12.6516 35.9746 12.8843 35.9827 13.4678L39.9823 13.4122C39.9637 12.0757 39.5705 10.7884 38.6108 9.78069L35.7142 12.5393ZM35.9825 13.44C35.9825 14.5648 35.6342 15.0955 35.1637 15.4299L37.4813 18.6901C39.2242 17.4512 39.9825 15.5685 39.9825 13.44H35.9825ZM35.1544 15.4366C34.5059 15.9032 33.4937 16.24 31.9225 16.24V20.24C34.0313 20.24 35.9524 19.7902 37.4906 18.6834L35.1544 15.4366ZM31.9225 16.24C29.9601 16.24 28.697 15.9043 27.9315 15.445L25.8735 18.875C27.508 19.8557 29.5915 20.24 31.9225 20.24V16.24ZM27.94 15.4501C27.5376 15.206 27.1225 14.718 27.1225 13.34H23.1225C23.1225 15.6153 23.894 17.674 25.865 18.8699L27.94 15.4501ZM25.1225 15.34H29.3025V11.34H25.1225V15.34ZM27.3025 13.34C27.3025 14.2873 27.543 15.6107 28.7331 16.4041L30.9519 13.0759C31.0506 13.1417 31.1327 13.2211 31.1954 13.3032C31.2565 13.3832 31.2886 13.4515 31.3035 13.4903C31.3291 13.5566 31.3025 13.5288 31.3025 13.34H27.3025ZM28.7769 16.4325C29.6198 16.9632 30.6425 17.08 31.5225 17.08V13.08C31.235 13.08 31.044 13.058 30.9292 13.0347C30.8101 13.0106 30.8262 12.996 30.9081 13.0475L28.7769 16.4325ZM31.5225 17.08C32.2052 17.08 32.8988 17.0094 33.535 16.7974L32.27 13.0026C32.1862 13.0306 31.9598 13.08 31.5225 13.08V17.08ZM33.5145 16.8041C33.9876 16.652 34.5167 16.3613 34.9173 15.8319C35.3245 15.2939 35.4625 14.6897 35.4625 14.16H31.4625C31.4625 14.0036 31.5072 13.7095 31.7277 13.4181C31.9417 13.1353 32.1907 13.028 32.2905 12.9959L33.5145 16.8041ZM35.4625 14.16C35.4625 13.542 35.2571 12.9377 34.8405 12.4406C34.4538 11.9789 33.973 11.713 33.5645 11.5549L32.1205 15.2851C32.1171 15.2838 32.0774 15.2683 32.0168 15.2286C31.9551 15.1881 31.8658 15.1185 31.7745 15.0094C31.5646 14.7589 31.4625 14.4447 31.4625 14.16H35.4625ZM33.6377 11.5849C33.033 11.3228 32.1977 11.1102 31.2602 10.9199L30.4648 14.8401C31.3673 15.0232 31.852 15.1705 32.0473 15.2551L33.6377 11.5849ZM31.2816 10.9244C30.2073 10.6942 29.3656 10.4673 28.7355 10.2496L27.4295 14.0304C28.2661 14.3194 29.2777 14.5858 30.4434 14.8356L31.2816 10.9244ZM28.766 10.2604C28.3492 10.1089 27.9787 9.86374 27.6409 9.49302L24.6841 12.187C25.4397 13.0163 26.3491 13.6378 27.399 14.0196L28.766 10.2604ZM27.6409 9.49302C27.5119 9.35139 27.3425 9.06529 27.3425 8.4H23.3425C23.3425 9.78804 23.7198 11.1286 24.6841 12.187L27.6409 9.49302ZM27.3425 8.4C27.3425 7.49981 27.6329 7.08661 28.123 6.78802L26.042 3.37198C24.2121 4.48672 23.3425 6.28685 23.3425 8.4H27.3425ZM28.1285 6.78464C28.9064 6.30734 29.9972 6 31.5225 6V2C29.4745 2 27.6053 2.41265 26.0365 3.37535L28.1285 6.78464ZM39.7761 4.24V2.24C38.6715 2.24 37.7761 3.13543 37.7761 4.24H39.7761ZM51.6761 4.24H53.6761C53.6761 3.13543 52.7807 2.24 51.6761 2.24V4.24ZM51.6761 7.54V9.54C52.7807 9.54 53.6761 8.64457 53.6761 7.54H51.6761ZM44.1961 7.54V5.54C43.0915 5.54 42.1961 6.43543 42.1961 7.54H44.1961ZM44.1961 9.44H42.1961C42.1961 10.5446 43.0915 11.44 44.1961 11.44V9.44ZM50.5961 9.44H52.5961C52.5961 8.33543 51.7007 7.44 50.5961 7.44V9.44ZM50.5961 12.6V14.6C51.7007 14.6 52.5961 13.7046 52.5961 12.6H50.5961ZM44.1961 12.6V10.6C43.0915 10.6 42.1961 11.4954 42.1961 12.6H44.1961ZM44.1961 14.7H42.1961C42.1961 15.8046 43.0915 16.7 44.1961 16.7V14.7ZM51.8161 14.7H53.8161C53.8161 13.5954 52.9207 12.7 51.8161 12.7V14.7ZM51.8161 18V20C52.9207 20 53.8161 19.1046 53.8161 18H51.8161ZM39.7761 18H37.7761C37.7761 19.1046 38.6715 20 39.7761 20V18ZM39.7761 6.24H51.6761V2.24H39.7761V6.24ZM49.6761 4.24V7.54H53.6761V4.24H49.6761ZM51.6761 5.54H44.1961V9.54H51.6761V5.54ZM42.1961 7.54V9.44H46.1961V7.54H42.1961ZM44.1961 11.44H50.5961V7.44H44.1961V11.44ZM48.5961 9.44V12.6H52.5961V9.44H48.5961ZM50.5961 10.6H44.1961V14.6H50.5961V10.6ZM42.1961 12.6V14.7H46.1961V12.6H42.1961ZM44.1961 16.7H51.8161V12.7H44.1961V16.7ZM49.8161 14.7V18H53.8161V14.7H49.8161ZM51.8161 16H39.7761V20H51.8161V16ZM41.7761 18V4.24H37.7761V18H41.7761ZM66.1497 16.42L64.7813 14.9614L66.1497 16.42ZM55.1497 16.44L53.7738 17.8915C53.7789 17.8964 53.7841 17.9013 53.7894 17.9061L55.1497 16.44ZM55.1497 5.82L56.5176 7.27907L56.5181 7.2786L55.1497 5.82ZM58.4897 8.16L60.0057 9.46448V9.46448L58.4897 8.16ZM62.8097 14.08L61.311 12.7556C61.3052 12.7622 61.2994 12.7688 61.2937 12.7755L62.8097 14.08ZM62.8097 8.16L61.2937 9.46448C61.2994 9.47116 61.3052 9.4778 61.311 9.4844L62.8097 8.16ZM60.6497 6C62.6904 6 63.9696 6.51711 64.7813 7.2786L67.5181 4.36139C65.7431 2.69622 63.3556 2 60.6497 2V6ZM64.7813 7.2786C65.5575 8.00675 66.0897 9.17363 66.0897 11.12H70.0897C70.0897 8.42637 69.3286 6.05992 67.5181 4.36139L64.7813 7.2786ZM66.0897 11.12C66.0897 13.0664 65.5575 14.2333 64.7813 14.9614L67.5181 17.8786C69.3286 16.1801 70.0897 13.8136 70.0897 11.12H66.0897ZM64.7813 14.9614C63.9696 15.7229 62.6904 16.24 60.6497 16.24V20.24C63.3556 20.24 65.7431 19.5438 67.5181 17.8786L64.7813 14.9614ZM60.6497 16.24C58.6035 16.24 57.3213 15.7266 56.51 14.9739L53.7894 17.9061C55.5648 19.5534 57.9492 20.24 60.6497 20.24V16.24ZM56.5256 14.9885C55.761 14.2637 55.2297 13.0896 55.2297 11.12H51.2297C51.2297 13.8171 51.9784 16.1896 53.7738 17.8915L56.5256 14.9885ZM55.2297 11.12C55.2297 9.14897 55.7615 7.98789 56.5176 7.27907L53.7818 4.36092C51.9779 6.05211 51.2297 8.42437 51.2297 11.12H55.2297ZM56.5181 7.2786C57.3298 6.51711 58.609 6 60.6497 6V2C57.9437 2 55.5563 2.69622 53.7813 4.36139L56.5181 7.2786ZM60.6497 5.3C59.2791 5.3 57.9394 5.73313 56.9737 6.85552L60.0057 9.46448C60.0266 9.4402 60.1269 9.3 60.6497 9.3V5.3ZM56.9737 6.85552C56.0872 7.88568 55.7497 9.16844 55.7497 10.48H59.7497C59.7497 9.84489 59.9055 9.58098 60.0057 9.46448L56.9737 6.85552ZM55.7497 10.48V11.76H59.7497V10.48H55.7497ZM55.7497 11.76C55.7497 13.0716 56.0872 14.3543 56.9737 15.3845L60.0057 12.7755C59.9055 12.659 59.7497 12.3951 59.7497 11.76H55.7497ZM56.9737 15.3845C57.9394 16.5069 59.2791 16.94 60.6497 16.94V12.94C60.1269 12.94 60.0266 12.7998 60.0057 12.7755L56.9737 15.3845ZM60.6497 16.94C62.0203 16.94 63.3599 16.5069 64.3257 15.3845L61.2937 12.7755C61.2728 12.7998 61.1724 12.94 60.6497 12.94V16.94ZM64.3083 15.4044C65.2184 14.3745 65.5697 13.0843 65.5697 11.76H61.5697C61.5697 12.3824 61.4143 12.6388 61.311 12.7556L64.3083 15.4044ZM65.5697 11.76V10.48H61.5697V11.76H65.5697ZM65.5697 10.48C65.5697 9.1557 65.2184 7.86546 64.3083 6.8356L61.311 9.4844C61.4143 9.60121 61.5697 9.85764 61.5697 10.48H65.5697ZM64.3257 6.85552C63.3599 5.73313 62.0203 5.3 60.6497 5.3V9.3C61.1724 9.3 61.2728 9.4402 61.2937 9.46448L64.3257 6.85552ZM79.3898 4.24V2.24C78.7963 2.24 78.2334 2.50365 77.8534 2.95963L79.3898 4.24ZM84.8698 4.24L86.3766 5.55512C86.8924 4.96423 87.0151 4.12643 86.6906 3.41243C86.3661 2.69842 85.6541 2.24 84.8698 2.24V4.24ZM79.9298 9.9L78.423 8.58488C77.8448 9.24742 77.7671 10.2099 78.2317 10.9566L79.9298 9.9ZM84.9698 18V20C85.6962 20 86.3654 19.6062 86.7182 18.9713C87.0709 18.3364 87.0517 17.5601 86.668 16.9434L84.9698 18ZM79.7498 18L78.0104 18.9871C78.3657 19.6131 79.03 20 79.7498 20V18ZM76.8898 12.96L78.6293 11.9729C78.3385 11.4605 77.8367 11.1024 77.2576 10.9941C76.6785 10.8858 76.0811 11.0383 75.6248 11.4109L76.8898 12.96ZM74.4898 14.92L73.2248 13.3709C72.7597 13.7508 72.4898 14.3195 72.4898 14.92H74.4898ZM74.4898 18V20C75.5944 20 76.4898 19.1046 76.4898 18H74.4898ZM70.0698 18H68.0698C68.0698 19.1046 68.9653 20 70.0698 20V18ZM70.0698 4.24V2.24C68.9653 2.24 68.0698 3.13543 68.0698 4.24H70.0698ZM74.4898 4.24H76.4898C76.4898 3.13543 75.5944 2.24 74.4898 2.24V4.24ZM74.4898 10.12H72.4898C72.4898 10.962 73.0173 11.7139 73.809 12.0005C74.6007 12.2872 75.4872 12.0472 76.0263 11.4004L74.4898 10.12ZM79.3898 6.24H84.8698V2.24H79.3898V6.24ZM83.363 2.92488L78.423 8.58488L81.4366 11.2151L86.3766 5.55512L83.363 2.92488ZM78.2317 10.9566L83.2717 19.0566L86.668 16.9434L81.628 8.8434L78.2317 10.9566ZM84.9698 16H79.7498V20H84.9698V16ZM81.4893 17.0129L78.6293 11.9729L75.1504 13.9471L78.0104 18.9871L81.4893 17.0129ZM75.6248 11.4109L73.2248 13.3709L75.7549 16.4691L78.1549 14.5091L75.6248 11.4109ZM72.4898 14.92V18H76.4898V14.92H72.4898ZM74.4898 16H70.0698V20H74.4898V16ZM72.0698 18V4.24H68.0698V18H72.0698ZM70.0698 6.24H74.4898V2.24H70.0698V6.24ZM72.4898 4.24V10.12H76.4898V4.24H72.4898ZM76.0263 11.4004L80.9263 5.52037L77.8534 2.95963L72.9534 8.83963L76.0263 11.4004ZM104.41 18H102.41C102.41 19.1046 103.306 20 104.41 20V18ZM104.47 11.16L102.477 10.9973C102.476 11.0099 102.475 11.0226 102.474 11.0352L104.47 11.16ZM104.63 9.52L106.616 9.76066V9.76066L104.63 9.52ZM104.73 8.68L106.718 8.90087C106.781 8.33546 106.6 7.77006 106.22 7.34616C105.841 6.92227 105.299 6.68 104.73 6.68V8.68ZM104.65 8.68V6.68C103.748 6.68 102.958 7.28382 102.721 8.15411L104.65 8.68ZM102.11 18V20C103.012 20 103.803 19.3962 104.04 18.5259L102.11 18ZM98.6502 18L96.7219 18.5308C96.9608 19.3987 97.75 20 98.6502 20V18ZM96.0902 8.7L98.0184 8.1692C97.7795 7.30134 96.9903 6.7 96.0902 6.7V8.7ZM96.0102 8.7V6.7C95.4413 6.7 94.8993 6.94226 94.5199 7.36616C94.1405 7.79005 93.9596 8.35546 94.0224 8.92086L96.0102 8.7ZM96.1102 9.54L94.1247 9.78066C94.1274 9.80341 94.1306 9.82611 94.1341 9.84875L96.1102 9.54ZM96.2902 11.16L94.2968 11.3227L94.2971 11.3261L96.2902 11.16ZM96.3702 18V20C97.4747 20 98.3702 19.1046 98.3702 18H96.3702ZM92.3102 18H90.3102C90.3102 19.1046 91.2056 20 92.3102 20V18ZM92.3102 4.24V2.24C91.2056 2.24 90.3102 3.13543 90.3102 4.24H92.3102ZM98.5502 4.24L100.485 3.73317C100.254 2.85349 99.4595 2.24 98.5502 2.24V4.24ZM100.63 12.18L98.6954 12.6868C98.9259 13.5665 99.7208 14.18 100.63 14.18V12.18ZM100.71 12.18V14.18C101.621 14.18 102.417 13.5642 102.646 12.6823L100.71 12.18ZM102.77 4.24V2.24C101.859 2.24 101.063 2.85581 100.834 3.73774L102.77 4.24ZM108.79 4.24H110.79C110.79 3.13543 109.895 2.24 108.79 2.24V4.24ZM108.79 18V20C109.895 20 110.79 19.1046 110.79 18H108.79ZM106.41 18V13.04H102.41V18H106.41ZM106.41 13.04C106.41 12.4701 106.429 11.8851 106.466 11.2848L102.474 11.0352C102.432 11.7149 102.41 12.3832 102.41 13.04H106.41ZM106.464 11.3227C106.516 10.6844 106.567 10.1657 106.616 9.76066L102.645 9.27934C102.587 9.75431 102.531 10.3289 102.477 10.9973L106.464 11.3227ZM106.616 9.76066C106.669 9.32376 106.703 9.03286 106.718 8.90087L102.742 8.45913C102.73 8.56714 102.698 8.83624 102.645 9.27934L106.616 9.76066ZM104.73 6.68H104.65V10.68H104.73V6.68ZM102.721 8.15411L100.181 17.4741L104.04 18.5259L106.58 9.20588L102.721 8.15411ZM102.11 16H98.6502V20H102.11V16ZM100.578 17.4692L98.0184 8.1692L94.1619 9.23079L96.7219 18.5308L100.578 17.4692ZM96.0902 6.7H96.0102V10.7H96.0902V6.7ZM94.0224 8.92086C94.037 9.05286 94.0717 9.34377 94.1247 9.78066L98.0956 9.29934C98.0419 8.85623 98.0099 8.58714 97.9979 8.47914L94.0224 8.92086ZM94.1341 9.84875C94.1904 10.2091 94.2456 10.6961 94.2968 11.3227L98.2835 10.9973C98.228 10.3173 98.1632 9.72426 98.0862 9.23124L94.1341 9.84875ZM94.2971 11.3261C94.346 11.9134 94.3702 12.4846 94.3702 13.04H98.3702C98.3702 12.3687 98.341 11.6866 98.2832 10.9939L94.2971 11.3261ZM94.3702 13.04V18H98.3702V13.04H94.3702ZM96.3702 16H92.3102V20H96.3702V16ZM94.3102 18V4.24H90.3102V18H94.3102ZM92.3102 6.24H98.5502V2.24H92.3102V6.24ZM96.6154 4.74683L98.6954 12.6868L102.565 11.6732L100.485 3.73317L96.6154 4.74683ZM100.63 14.18H100.71V10.18H100.63V14.18ZM102.646 12.6823L104.706 4.74226L100.834 3.73774L98.7742 11.6777L102.646 12.6823ZM102.77 6.24H108.79V2.24H102.77V6.24ZM106.79 4.24V18H110.79V4.24H106.79ZM108.79 16H104.41V20H108.79V16ZM120.297 18L118.381 18.5729C118.634 19.4198 119.413 20 120.297 20V18ZM119.717 16.06L121.633 15.4871C121.38 14.6402 120.601 14.06 119.717 14.06V16.06ZM114.897 16.06V14.06C114.013 14.06 113.234 14.6402 112.981 15.4871L114.897 16.06ZM114.317 18V20C115.201 20 115.98 19.4198 116.233 18.5729L114.317 18ZM109.797 18L107.918 17.3145C107.694 17.9278 107.784 18.6117 108.158 19.1465C108.532 19.6814 109.144 20 109.797 20V18ZM114.817 4.24V2.24C113.977 2.24 113.226 2.76519 112.938 3.55454L114.817 4.24ZM119.957 4.24L121.836 3.55454C121.548 2.76519 120.797 2.24 119.957 2.24V4.24ZM124.977 18V20C125.63 20 126.241 19.6814 126.616 19.1465C126.99 18.6117 127.079 17.9278 126.856 17.3145L124.977 18ZM115.817 12.98L113.9 12.4089C113.72 13.0141 113.836 13.669 114.213 14.1754C114.591 14.6817 115.185 14.98 115.817 14.98V12.98ZM118.797 12.98V14.98C119.427 14.98 120.02 14.6829 120.398 14.1784C120.776 13.6738 120.893 13.0208 120.716 12.4161L118.797 12.98ZM117.357 8.08L119.276 7.51609C119.026 6.66471 118.244 6.08 117.357 6.08V8.08ZM117.277 8.08V6.08C116.392 6.08 115.613 6.66112 115.36 7.50889L117.277 8.08ZM122.213 17.4271L121.633 15.4871L117.801 16.6329L118.381 18.5729L122.213 17.4271ZM119.717 14.06H114.897V18.06H119.717V14.06ZM112.981 15.4871L112.401 17.4271L116.233 18.5729L116.813 16.6329L112.981 15.4871ZM114.317 16H109.797V20H114.317V16ZM111.676 18.6855L116.696 4.92546L112.938 3.55454L107.918 17.3145L111.676 18.6855ZM114.817 6.24H119.957V2.24H114.817V6.24ZM118.078 4.92546L123.098 18.6855L126.856 17.3145L121.836 3.55454L118.078 4.92546ZM124.977 16H120.297V20H124.977V16ZM115.817 14.98H118.797V10.98H115.817V14.98ZM120.716 12.4161L119.276 7.51609L115.438 8.64391L116.878 13.5439L120.716 12.4161ZM117.357 6.08H117.277V10.08H117.357V6.08ZM115.36 7.50889L113.9 12.4089L117.734 13.5511L119.194 8.65111L115.36 7.50889ZM132.777 7.76V5.76C131.672 5.76 130.777 6.65543 130.777 7.76H132.777ZM132.777 18V20C133.881 20 134.777 19.1046 134.777 18H132.777ZM128.357 18H126.357C126.357 19.1046 127.252 20 128.357 20V18ZM128.357 7.76H130.357C130.357 6.65543 129.461 5.76 128.357 5.76V7.76ZM123.837 7.76H121.837C121.837 8.86457 122.732 9.76 123.837 9.76V7.76ZM123.837 4.24V2.24C122.732 2.24 121.837 3.13543 121.837 4.24H123.837ZM137.277 4.24H139.277C139.277 3.13543 138.381 2.24 137.277 2.24V4.24ZM137.277 7.76V9.76C138.381 9.76 139.277 8.86457 139.277 7.76H137.277ZM130.777 7.76V18H134.777V7.76H130.777ZM132.777 16H128.357V20H132.777V16ZM130.357 18V7.76H126.357V18H130.357ZM128.357 5.76H123.837V9.76H128.357V5.76ZM125.837 7.76V4.24H121.837V7.76H125.837ZM123.837 6.24H137.277V2.24H123.837V6.24ZM135.277 4.24V7.76H139.277V4.24H135.277ZM137.277 5.76H132.777V9.76H137.277V5.76ZM146.81 7.76V5.76C145.706 5.76 144.81 6.65543 144.81 7.76H146.81ZM146.81 18V20C147.915 20 148.81 19.1046 148.81 18H146.81ZM142.39 18H140.39C140.39 19.1046 141.286 20 142.39 20V18ZM142.39 7.76H144.39C144.39 6.65543 143.495 5.76 142.39 5.76V7.76ZM137.87 7.76H135.87C135.87 8.86457 136.766 9.76 137.87 9.76V7.76ZM137.87 4.24V2.24C136.766 2.24 135.87 3.13543 135.87 4.24H137.87ZM151.31 4.24H153.31C153.31 3.13543 152.415 2.24 151.31 2.24V4.24ZM151.31 7.76V9.76C152.415 9.76 153.31 8.86457 153.31 7.76H151.31ZM144.81 7.76V18H148.81V7.76H144.81ZM146.81 16H142.39V20H146.81V16ZM144.39 18V7.76H140.39V18H144.39ZM142.39 5.76H137.87V9.76H142.39V5.76ZM139.87 7.76V4.24H135.87V7.76H139.87ZM137.87 6.24H151.31V2.24H137.87V6.24ZM149.31 4.24V7.76H153.31V4.24H149.31ZM151.31 5.76H146.81V9.76H151.31V5.76ZM162.204 18H160.204C160.204 19.1046 161.099 20 162.204 20V18ZM162.204 12.78H164.204C164.204 11.6754 163.308 10.78 162.204 10.78V12.78ZM157.344 12.78V10.78C156.239 10.78 155.344 11.6754 155.344 12.78H157.344ZM157.344 18V20C158.448 20 159.344 19.1046 159.344 18H157.344ZM152.924 18H150.924C150.924 19.1046 151.819 20 152.924 20V18ZM152.924 4.24V2.24C151.819 2.24 150.924 3.13543 150.924 4.24H152.924ZM157.344 4.24H159.344C159.344 3.13543 158.448 2.24 157.344 2.24V4.24ZM157.344 9.26H155.344C155.344 10.3646 156.239 11.26 157.344 11.26V9.26ZM162.204 9.26V11.26C163.308 11.26 164.204 10.3646 164.204 9.26H162.204ZM162.204 4.24V2.24C161.099 2.24 160.204 3.13543 160.204 4.24H162.204ZM166.624 4.24H168.624C168.624 3.13543 167.728 2.24 166.624 2.24V4.24ZM166.624 18V20C167.728 20 168.624 19.1046 168.624 18H166.624ZM164.204 18V12.78H160.204V18H164.204ZM162.204 10.78H157.344V14.78H162.204V10.78ZM155.344 12.78V18H159.344V12.78H155.344ZM157.344 16H152.924V20H157.344V16ZM154.924 18V4.24H150.924V18H154.924ZM152.924 6.24H157.344V2.24H152.924V6.24ZM155.344 4.24V9.26H159.344V4.24H155.344ZM157.344 11.26H162.204V7.26H157.344V11.26ZM164.204 9.26V4.24H160.204V9.26H164.204ZM162.204 6.24H166.624V2.24H162.204V6.24ZM164.624 4.24V18H168.624V4.24H164.624ZM166.624 16H162.204V20H166.624V16ZM169.184 4.24V2.24C168.079 2.24 167.184 3.13543 167.184 4.24H169.184ZM181.084 4.24H183.084C183.084 3.13543 182.188 2.24 181.084 2.24V4.24ZM181.084 7.54V9.54C182.188 9.54 183.084 8.64457 183.084 7.54H181.084ZM173.604 7.54V5.54C172.499 5.54 171.604 6.43543 171.604 7.54H173.604ZM173.604 9.44H171.604C171.604 10.5446 172.499 11.44 173.604 11.44V9.44ZM180.004 9.44H182.004C182.004 8.33543 181.108 7.44 180.004 7.44V9.44ZM180.004 12.6V14.6C181.108 14.6 182.004 13.7046 182.004 12.6H180.004ZM173.604 12.6V10.6C172.499 10.6 171.604 11.4954 171.604 12.6H173.604ZM173.604 14.7H171.604C171.604 15.8046 172.499 16.7 173.604 16.7V14.7ZM181.224 14.7H183.224C183.224 13.5954 182.328 12.7 181.224 12.7V14.7ZM181.224 18V20C182.328 20 183.224 19.1046 183.224 18H181.224ZM169.184 18H167.184C167.184 19.1046 168.079 20 169.184 20V18ZM169.184 6.24H181.084V2.24H169.184V6.24ZM179.084 4.24V7.54H183.084V4.24H179.084ZM181.084 5.54H173.604V9.54H181.084V5.54ZM171.604 7.54V9.44H175.604V7.54H171.604ZM173.604 11.44H180.004V7.44H173.604V11.44ZM178.004 9.44V12.6H182.004V9.44H178.004ZM180.004 10.6H173.604V14.6H180.004V10.6ZM171.604 12.6V14.7H175.604V12.6H171.604ZM173.604 16.7H181.224V12.7H173.604V16.7ZM179.224 14.7V18H183.224V14.7H179.224ZM181.224 16H169.184V20H181.224V16ZM171.184 18V4.24H167.184V18H171.184ZM193.558 18L191.601 18.4156C191.797 19.3394 192.613 20 193.558 20V18ZM191.777 9.62L193.734 9.20445C193.538 8.28064 192.722 7.62 191.777 7.62V9.62ZM191.698 9.62V7.62C190.753 7.62 189.937 8.28064 189.741 9.20445L191.698 9.62ZM189.917 18V20C190.862 20 191.678 19.3394 191.874 18.4156L189.917 18ZM185.058 18L183.11 18.4557C183.322 19.3603 184.128 20 185.058 20V18ZM181.838 4.24V2.24C181.227 2.24 180.65 2.5189 180.27 2.99731C179.891 3.47571 179.751 4.1012 179.89 4.69571L181.838 4.24ZM186.438 4.24L188.398 3.84294C188.209 2.91037 187.389 2.24 186.438 2.24V4.24ZM188.018 12.04L186.057 12.4371C186.246 13.3696 187.066 14.04 188.018 14.04V12.04ZM188.098 12.04V14.04C189.051 14.04 189.872 13.3671 190.059 12.4322L188.098 12.04ZM189.658 4.24V2.24C188.704 2.24 187.883 2.91292 187.696 3.84777L189.658 4.24ZM194.018 4.24L195.974 3.82368C195.777 2.90024 194.962 2.24 194.018 2.24V4.24ZM195.678 12.04L193.721 12.4563C193.918 13.3798 194.733 14.04 195.678 14.04V12.04ZM195.758 12.04V14.04C196.718 14.04 197.543 13.3568 197.722 12.4128L195.758 12.04ZM197.238 4.24V2.24C196.277 2.24 195.452 2.92321 195.273 3.86716L197.238 4.24ZM201.637 4.24L203.585 4.69571C203.724 4.1012 203.584 3.47571 203.205 2.99731C202.825 2.5189 202.248 2.24 201.637 2.24V4.24ZM198.418 18V20C199.347 20 200.153 19.3603 200.365 18.4557L198.418 18ZM195.514 17.5844L193.734 9.20445L189.821 10.0355L191.601 18.4156L195.514 17.5844ZM191.777 7.62H191.698V11.62H191.777V7.62ZM189.741 9.20445L187.961 17.5844L191.874 18.4156L193.654 10.0355L189.741 9.20445ZM189.917 16H185.058V20H189.917V16ZM187.005 17.5443L183.785 3.78429L179.89 4.69571L183.11 18.4557L187.005 17.5443ZM181.838 6.24H186.438V2.24H181.838V6.24ZM184.477 4.63706L186.057 12.4371L189.978 11.6429L188.398 3.84294L184.477 4.63706ZM188.018 14.04H188.098V10.04H188.018V14.04ZM190.059 12.4322L191.619 4.63223L187.696 3.84777L186.136 11.6478L190.059 12.4322ZM189.658 6.24H194.018V2.24H189.658V6.24ZM192.061 4.65632L193.721 12.4563L197.634 11.6237L195.974 3.82368L192.061 4.65632ZM195.678 14.04H195.758V10.04H195.678V14.04ZM197.722 12.4128L199.202 4.61283L195.273 3.86716L193.793 11.6672L197.722 12.4128ZM197.238 6.24H201.637V2.24H197.238V6.24ZM199.69 3.78429L196.47 17.5443L200.365 18.4557L203.585 4.69571L199.69 3.78429ZM198.418 16H193.558V20H198.418V16Z" fill="white" mask="url(#path-3-outside-2_2005_2842)"/>
</svg>
