<svg width="226" height="22" viewBox="0 0 226 22" fill="none" xmlns="http://www.w3.org/2000/svg">
<mask id="path-1-outside-1_2005_2878" maskUnits="userSpaceOnUse" x="75" y="0" width="77" height="23" fill="black">
<rect fill="white" x="75" width="77" height="23"/>
<path d="M92.7736 8.46C92.7736 9.3 92.5469 10.06 92.0936 10.74C91.6403 11.42 90.9803 11.92 90.1136 12.24L93.1736 18H88.2136L85.7736 12.98H84.1336V18H79.7136V4.24H88.1336C89.1203 4.24 89.9603 4.43333 90.6536 4.82C91.3603 5.19333 91.8869 5.70667 92.2336 6.36C92.5936 7 92.7736 7.7 92.7736 8.46ZM88.2736 8.64C88.2736 8.28 88.1536 7.98 87.9136 7.74C87.6736 7.5 87.3803 7.38 87.0336 7.38H84.1336V9.92H87.0336C87.3803 9.92 87.6736 9.8 87.9136 9.56C88.1536 9.30667 88.2736 9 88.2736 8.64ZM95.08 18V4.24H99.5V18H95.08ZM108.813 4C110.853 4 112.467 4.51333 113.653 5.54C114.84 6.55333 115.433 8.00667 115.433 9.9H111.213C111.213 9.1 111 8.46667 110.573 8C110.16 7.53333 109.567 7.3 108.793 7.3C107.9 7.3 107.24 7.58 106.813 8.14C106.4 8.7 106.193 9.48 106.193 10.48V11.76C106.193 12.7467 106.4 13.5267 106.813 14.1C107.24 14.66 107.887 14.94 108.753 14.94C109.607 14.94 110.253 14.72 110.693 14.28C111.133 13.84 111.353 13.22 111.353 12.42H115.433C115.433 14.3 114.853 15.74 113.693 16.74C112.547 17.74 110.92 18.24 108.813 18.24C106.467 18.24 104.687 17.64 103.473 16.44C102.273 15.24 101.673 13.4667 101.673 11.12C101.673 8.77333 102.273 7 103.473 5.8C104.687 4.6 106.467 4 108.813 4ZM126.74 4.24H132.22L127.28 9.9L132.32 18H127.1L124.24 12.96L121.84 14.92V18H117.42V4.24H121.84V10.12L126.74 4.24ZM142.22 18H137.8V12.66L132.34 4.24H137.42L140.06 8.82H140.14L142.78 4.24H147.6L142.22 12.66V18Z"/>
</mask>
<path d="M92.7736 8.46C92.7736 9.3 92.5469 10.06 92.0936 10.74C91.6403 11.42 90.9803 11.92 90.1136 12.24L93.1736 18H88.2136L85.7736 12.98H84.1336V18H79.7136V4.24H88.1336C89.1203 4.24 89.9603 4.43333 90.6536 4.82C91.3603 5.19333 91.8869 5.70667 92.2336 6.36C92.5936 7 92.7736 7.7 92.7736 8.46ZM88.2736 8.64C88.2736 8.28 88.1536 7.98 87.9136 7.74C87.6736 7.5 87.3803 7.38 87.0336 7.38H84.1336V9.92H87.0336C87.3803 9.92 87.6736 9.8 87.9136 9.56C88.1536 9.30667 88.2736 9 88.2736 8.64ZM95.08 18V4.24H99.5V18H95.08ZM108.813 4C110.853 4 112.467 4.51333 113.653 5.54C114.84 6.55333 115.433 8.00667 115.433 9.9H111.213C111.213 9.1 111 8.46667 110.573 8C110.16 7.53333 109.567 7.3 108.793 7.3C107.9 7.3 107.24 7.58 106.813 8.14C106.4 8.7 106.193 9.48 106.193 10.48V11.76C106.193 12.7467 106.4 13.5267 106.813 14.1C107.24 14.66 107.887 14.94 108.753 14.94C109.607 14.94 110.253 14.72 110.693 14.28C111.133 13.84 111.353 13.22 111.353 12.42H115.433C115.433 14.3 114.853 15.74 113.693 16.74C112.547 17.74 110.92 18.24 108.813 18.24C106.467 18.24 104.687 17.64 103.473 16.44C102.273 15.24 101.673 13.4667 101.673 11.12C101.673 8.77333 102.273 7 103.473 5.8C104.687 4.6 106.467 4 108.813 4ZM126.74 4.24H132.22L127.28 9.9L132.32 18H127.1L124.24 12.96L121.84 14.92V18H117.42V4.24H121.84V10.12L126.74 4.24ZM142.22 18H137.8V12.66L132.34 4.24H137.42L140.06 8.82H140.14L142.78 4.24H147.6L142.22 12.66V18Z" fill="black"/>
<path d="M92.0936 10.74L88.7654 8.5212V8.5212L92.0936 10.74ZM90.1136 12.24L88.7281 8.48761C87.6451 8.8875 86.7876 9.73583 86.3762 10.8145C85.9648 11.8932 86.0395 13.0971 86.5811 14.1166L90.1136 12.24ZM93.1736 18V22C94.5775 22 95.8786 21.264 96.6019 20.0608C97.3252 18.8575 97.3647 17.3632 96.7061 16.1234L93.1736 18ZM88.2136 18L84.6161 19.7486C85.2854 21.1258 86.6823 22 88.2136 22V18ZM85.7736 12.98L89.3711 11.2314C88.7018 9.85419 87.3049 8.98 85.7736 8.98V12.98ZM84.1336 12.98V8.98C81.9245 8.98 80.1336 10.7709 80.1336 12.98H84.1336ZM84.1336 18V22C86.3427 22 88.1336 20.2091 88.1336 18H84.1336ZM79.7136 18H75.7136C75.7136 20.2091 77.5045 22 79.7136 22V18ZM79.7136 4.24V0.24C77.5045 0.24 75.7136 2.03086 75.7136 4.24H79.7136ZM90.6536 4.82L88.7053 8.31346C88.7318 8.3282 88.7584 8.34264 88.7851 8.35677L90.6536 4.82ZM92.2336 6.36L88.7002 8.23486C88.7155 8.26378 88.7312 8.29251 88.7473 8.32105L92.2336 6.36ZM87.9136 7.74L85.0852 10.5684L85.0852 10.5684L87.9136 7.74ZM84.1336 7.38V3.38C81.9245 3.38 80.1336 5.17086 80.1336 7.38H84.1336ZM84.1336 9.92H80.1336C80.1336 12.1291 81.9245 13.92 84.1336 13.92V9.92ZM87.9136 9.56L90.742 12.3884C90.7675 12.363 90.7926 12.3371 90.8174 12.311L87.9136 9.56ZM88.7736 8.46C88.7736 8.48967 88.7716 8.50697 88.7706 8.51393C88.7697 8.52069 88.7692 8.52094 88.7704 8.51678C88.7717 8.51255 88.7732 8.50879 88.7741 8.50697C88.7749 8.50527 88.7729 8.50987 88.7654 8.5212L95.4218 12.9588C96.3259 11.6026 96.7736 10.0664 96.7736 8.46H88.7736ZM88.7654 8.5212C88.7757 8.50575 88.7893 8.48828 88.8054 8.4712C88.8215 8.45419 88.8352 8.44269 88.8432 8.43663C88.8509 8.43078 88.8487 8.43348 88.8321 8.44239C88.8152 8.45147 88.782 8.46772 88.7281 8.48761L91.4991 15.9924C93.0512 15.4193 94.4393 14.4326 95.4218 12.9588L88.7654 8.5212ZM86.5811 14.1166L89.6411 19.8766L96.7061 16.1234L93.6461 10.3634L86.5811 14.1166ZM93.1736 14H88.2136V22H93.1736V14ZM91.8111 16.2514L89.3711 11.2314L82.176 14.7286L84.6161 19.7486L91.8111 16.2514ZM85.7736 8.98H84.1336V16.98H85.7736V8.98ZM80.1336 12.98V18H88.1336V12.98H80.1336ZM84.1336 14H79.7136V22H84.1336V14ZM83.7136 18V4.24H75.7136V18H83.7136ZM79.7136 8.24H88.1336V0.24H79.7136V8.24ZM88.1336 8.24C88.6018 8.24 88.7357 8.33041 88.7053 8.31346L92.6019 1.32654C91.1848 0.536257 89.6388 0.24 88.1336 0.24V8.24ZM88.7851 8.35677C88.8292 8.38007 88.82 8.38199 88.7867 8.34945C88.771 8.33423 88.7541 8.31524 88.7377 8.29332C88.7213 8.27143 88.7088 8.25114 88.7002 8.23486L95.767 4.48514C95.0139 3.06587 93.8778 1.99946 92.5221 1.28323L88.7851 8.35677ZM88.7473 8.32105C88.7594 8.34254 88.7627 8.35367 88.7646 8.36116C88.7667 8.36939 88.7736 8.39874 88.7736 8.46H96.7736C96.7736 7.0381 96.4288 5.65914 95.7199 4.39895L88.7473 8.32105ZM92.2736 8.64C92.2736 7.29055 91.7812 5.95075 90.742 4.91157L85.0852 10.5684C84.8418 10.3251 84.621 10.0087 84.4697 9.63056C84.3203 9.25705 84.2736 8.91087 84.2736 8.64H92.2736ZM90.742 4.91157C89.7341 3.90364 88.4157 3.38 87.0336 3.38V11.38C86.7365 11.38 86.3765 11.3266 85.9991 11.1722C85.62 11.0171 85.3138 10.7971 85.0852 10.5684L90.742 4.91157ZM87.0336 3.38H84.1336V11.38H87.0336V3.38ZM80.1336 7.38V9.92H88.1336V7.38H80.1336ZM84.1336 13.92H87.0336V5.92H84.1336V13.92ZM87.0336 13.92C88.4157 13.92 89.7341 13.3964 90.742 12.3884L85.0852 6.73157C85.3138 6.50293 85.62 6.28289 85.9991 6.12781C86.3765 5.97343 86.7365 5.92 87.0336 5.92V13.92ZM90.8174 12.311C91.7856 11.289 92.2736 9.98758 92.2736 8.64H84.2736C84.2736 8.36785 84.3206 8.03505 84.4586 7.6824C84.5975 7.32753 84.7967 7.03392 85.0098 6.80902L90.8174 12.311ZM95.08 18H91.08C91.08 20.2091 92.8709 22 95.08 22V18ZM95.08 4.24V0.24C92.8709 0.24 91.08 2.03086 91.08 4.24H95.08ZM99.5 4.24H103.5C103.5 2.03086 101.709 0.24 99.5 0.24V4.24ZM99.5 18V22C101.709 22 103.5 20.2091 103.5 18H99.5ZM99.08 18V4.24H91.08V18H99.08ZM95.08 8.24H99.5V0.24H95.08V8.24ZM95.5 4.24V18H103.5V4.24H95.5ZM99.5 14H95.08V22H99.5V14ZM113.653 5.54L111.036 8.565C111.043 8.57063 111.049 8.57625 111.056 8.58185L113.653 5.54ZM115.433 9.9V13.9C117.643 13.9 119.433 12.1091 119.433 9.9H115.433ZM111.213 9.9H107.213C107.213 12.1091 109.004 13.9 111.213 13.9V9.9ZM110.573 8L107.579 10.6521C107.593 10.6679 107.607 10.6835 107.621 10.6991L110.573 8ZM106.813 8.14L103.632 5.71583C103.619 5.73199 103.607 5.74824 103.595 5.76459L106.813 8.14ZM106.813 14.1L103.569 16.4392C103.589 16.4678 103.61 16.4961 103.632 16.5242L106.813 14.1ZM110.693 14.28L107.865 11.4516L110.693 14.28ZM111.353 12.42V8.42C109.144 8.42 107.353 10.2109 107.353 12.42H111.353ZM115.433 12.42H119.433C119.433 10.2109 117.643 8.42 115.433 8.42V12.42ZM113.693 16.74L111.082 13.7104C111.076 13.7153 111.07 13.7203 111.064 13.7254L113.693 16.74ZM103.473 16.44L100.645 19.2684C100.65 19.2736 100.655 19.2788 100.661 19.284L103.473 16.44ZM103.473 5.8L100.661 2.95599C100.655 2.96117 100.65 2.96636 100.645 2.97157L103.473 5.8ZM108.813 8C110.187 8 110.772 8.33621 111.036 8.565L116.271 2.515C114.162 0.690457 111.52 -9.53674e-07 108.813 -9.53674e-07V8ZM111.056 8.58185C111.164 8.67406 111.433 8.90368 111.433 9.9H119.433C119.433 7.10965 118.516 4.4326 116.251 2.49815L111.056 8.58185ZM115.433 5.9H111.213V13.9H115.433V5.9ZM115.213 9.9C115.213 8.37599 114.791 6.68537 113.526 5.30092L107.621 10.6991C107.438 10.4987 107.323 10.2819 107.263 10.1019C107.207 9.93518 107.213 9.85116 107.213 9.9H115.213ZM113.568 5.34786C112.218 3.82405 110.414 3.3 108.793 3.3V11.3C108.783 11.3 108.612 11.2987 108.355 11.1975C108.078 11.0886 107.801 10.9024 107.579 10.6521L113.568 5.34786ZM108.793 3.3C107.021 3.3 105.014 3.90185 103.632 5.71583L109.995 10.5642C109.779 10.8477 109.488 11.066 109.191 11.1923C108.921 11.3067 108.756 11.3 108.793 11.3V3.3ZM103.595 5.76459C102.495 7.25467 102.193 8.98519 102.193 10.48H110.193C110.193 10.3667 110.199 10.2856 110.205 10.2326C110.212 10.1796 110.217 10.1606 110.215 10.1695C110.21 10.19 110.168 10.3308 110.032 10.5154L103.595 5.76459ZM102.193 10.48V11.76H110.193V10.48H102.193ZM102.193 11.76C102.193 13.263 102.504 14.9625 103.569 16.4392L110.058 11.7608C110.115 11.8394 110.154 11.9103 110.179 11.9652C110.204 12.0194 110.213 12.0537 110.215 12.0605C110.217 12.0668 110.211 12.0473 110.205 11.9965C110.199 11.9455 110.193 11.8679 110.193 11.76H102.193ZM103.632 16.5242C104.99 18.3071 106.959 18.94 108.753 18.94V10.94C108.745 10.94 108.928 10.9382 109.208 11.0593C109.513 11.1913 109.793 11.4103 109.995 11.6758L103.632 16.5242ZM108.753 18.94C110.265 18.94 112.088 18.5421 113.522 17.1084L107.865 11.4516C108.119 11.1974 108.391 11.0559 108.59 10.9881C108.77 10.9269 108.846 10.94 108.753 10.94V18.94ZM113.522 17.1084C114.91 15.7204 115.353 13.9638 115.353 12.42H107.353C107.353 12.4595 107.347 12.3483 107.419 12.1474C107.496 11.9295 107.64 11.6763 107.865 11.4516L113.522 17.1084ZM111.353 16.42H115.433V8.42H111.353V16.42ZM111.433 12.42C111.433 13.4245 111.163 13.6402 111.082 13.7104L116.305 19.7696C118.544 17.8398 119.433 15.1755 119.433 12.42H111.433ZM111.064 13.7254C110.884 13.8823 110.325 14.24 108.813 14.24V22.24C111.515 22.24 114.209 21.5977 116.322 19.7546L111.064 13.7254ZM108.813 14.24C107.117 14.24 106.506 13.8135 106.286 13.596L100.661 19.284C102.867 21.4665 105.817 22.24 108.813 22.24V14.24ZM106.302 13.6116C106.101 13.411 105.673 12.8198 105.673 11.12H97.6734C97.6734 14.1135 98.4456 17.069 100.645 19.2684L106.302 13.6116ZM105.673 11.12C105.673 9.42016 106.101 8.829 106.302 8.62843L100.645 2.97157C98.4456 5.17099 97.6734 8.1265 97.6734 11.12H105.673ZM106.286 8.64401C106.506 8.42654 107.117 8 108.813 8V-9.53674e-07C105.817 -9.53674e-07 102.867 0.773462 100.661 2.95599L106.286 8.64401ZM126.74 4.24V0.24C125.553 0.24 124.427 0.767292 123.667 1.67926L126.74 4.24ZM132.22 4.24L135.233 6.87025C136.265 5.68846 136.51 4.01287 135.861 2.58485C135.212 1.15684 133.788 0.24 132.22 0.24V4.24ZM127.28 9.9L124.266 7.26975C123.11 8.59483 122.954 10.5199 123.884 12.0132L127.28 9.9ZM132.32 18V22C133.773 22 135.111 21.2124 135.816 19.9426C136.522 18.6727 136.484 17.1202 135.716 15.8868L132.32 18ZM127.1 18L123.621 19.9741C124.331 21.2263 125.66 22 127.1 22V18ZM124.24 12.96L127.719 10.9859C127.137 9.96109 126.133 9.24483 124.975 9.02819C123.817 8.81155 122.622 9.11657 121.71 9.86187L124.24 12.96ZM121.84 14.92L119.31 11.8219C118.379 12.5815 117.84 13.719 117.84 14.92H121.84ZM121.84 18V22C124.049 22 125.84 20.2091 125.84 18H121.84ZM117.42 18H113.42C113.42 20.2091 115.211 22 117.42 22V18ZM117.42 4.24V0.24C115.211 0.24 113.42 2.03086 113.42 4.24H117.42ZM121.84 4.24H125.84C125.84 2.03086 124.049 0.24 121.84 0.24V4.24ZM121.84 10.12H117.84C117.84 11.8041 118.895 13.3078 120.478 13.8811C122.062 14.4544 123.835 13.9745 124.913 12.6807L121.84 10.12ZM126.74 8.24H132.22V0.24H126.74V8.24ZM129.206 1.60975L124.266 7.26975L130.293 12.5302L135.233 6.87025L129.206 1.60975ZM123.884 12.0132L128.924 20.1132L135.716 15.8868L130.676 7.78679L123.884 12.0132ZM132.32 14H127.1V22H132.32V14ZM130.579 16.0259L127.719 10.9859L120.761 14.9341L123.621 19.9741L130.579 16.0259ZM121.71 9.86187L119.31 11.8219L124.37 18.0181L126.77 16.0581L121.71 9.86187ZM117.84 14.92V18H125.84V14.92H117.84ZM121.84 14H117.42V22H121.84V14ZM121.42 18V4.24H113.42V18H121.42ZM117.42 8.24H121.84V0.24H117.42V8.24ZM117.84 4.24V10.12H125.84V4.24H117.84ZM124.913 12.6807L129.813 6.80074L123.667 1.67926L118.767 7.55926L124.913 12.6807ZM142.22 18V22C144.429 22 146.22 20.2091 146.22 18H142.22ZM137.8 18H133.8C133.8 20.2091 135.591 22 137.8 22V18ZM137.8 12.66H141.8C141.8 11.8876 141.576 11.1317 141.156 10.4837L137.8 12.66ZM132.34 4.24V0.24C130.874 0.24 129.525 1.04202 128.825 2.33019C128.125 3.61835 128.186 5.18623 128.984 6.41631L132.34 4.24ZM137.42 4.24L140.886 2.24242C140.171 1.00345 138.85 0.24 137.42 0.24V4.24ZM140.06 8.82L136.595 10.8176C137.309 12.0565 138.63 12.82 140.06 12.82V8.82ZM140.14 8.82V12.82C141.57 12.82 142.891 12.0565 143.606 10.8176L140.14 8.82ZM142.78 4.24V0.24C141.35 0.24 140.029 1.00345 139.315 2.24242L142.78 4.24ZM147.6 4.24L150.971 6.39371C151.757 5.16237 151.81 3.59998 151.108 2.31839C150.406 1.03681 149.061 0.24 147.6 0.24V4.24ZM142.22 12.66L138.849 10.5063C138.438 11.1494 138.22 11.8968 138.22 12.66H142.22ZM142.22 14H137.8V22H142.22V14ZM141.8 18V12.66H133.8V18H141.8ZM141.156 10.4837L135.696 2.06369L128.984 6.41631L134.444 14.8363L141.156 10.4837ZM132.34 8.24H137.42V0.24H132.34V8.24ZM133.955 6.23758L136.595 10.8176L143.526 6.82242L140.886 2.24242L133.955 6.23758ZM140.06 12.82H140.14V4.82H140.06V12.82ZM143.606 10.8176L146.246 6.23758L139.315 2.24242L136.675 6.82242L143.606 10.8176ZM142.78 8.24H147.6V0.24H142.78V8.24ZM144.229 2.08628L138.849 10.5063L145.591 14.8137L150.971 6.39371L144.229 2.08628ZM138.22 12.66V18H146.22V12.66H138.22Z" fill="#468ED3" mask="url(#path-1-outside-1_2005_2878)"/>
<mask id="path-3-outside-2_2005_2878" maskUnits="userSpaceOnUse" x="77" y="2" width="73" height="19" fill="black">
<rect fill="white" x="77" y="2" width="73" height="19"/>
<path d="M92.7736 8.46C92.7736 9.3 92.5469 10.06 92.0936 10.74C91.6403 11.42 90.9803 11.92 90.1136 12.24L93.1736 18H88.2136L85.7736 12.98H84.1336V18H79.7136V4.24H88.1336C89.1203 4.24 89.9603 4.43333 90.6536 4.82C91.3603 5.19333 91.8869 5.70667 92.2336 6.36C92.5936 7 92.7736 7.7 92.7736 8.46ZM88.2736 8.64C88.2736 8.28 88.1536 7.98 87.9136 7.74C87.6736 7.5 87.3803 7.38 87.0336 7.38H84.1336V9.92H87.0336C87.3803 9.92 87.6736 9.8 87.9136 9.56C88.1536 9.30667 88.2736 9 88.2736 8.64ZM95.08 18V4.24H99.5V18H95.08ZM108.813 4C110.853 4 112.467 4.51333 113.653 5.54C114.84 6.55333 115.433 8.00667 115.433 9.9H111.213C111.213 9.1 111 8.46667 110.573 8C110.16 7.53333 109.567 7.3 108.793 7.3C107.9 7.3 107.24 7.58 106.813 8.14C106.4 8.7 106.193 9.48 106.193 10.48V11.76C106.193 12.7467 106.4 13.5267 106.813 14.1C107.24 14.66 107.887 14.94 108.753 14.94C109.607 14.94 110.253 14.72 110.693 14.28C111.133 13.84 111.353 13.22 111.353 12.42H115.433C115.433 14.3 114.853 15.74 113.693 16.74C112.547 17.74 110.92 18.24 108.813 18.24C106.467 18.24 104.687 17.64 103.473 16.44C102.273 15.24 101.673 13.4667 101.673 11.12C101.673 8.77333 102.273 7 103.473 5.8C104.687 4.6 106.467 4 108.813 4ZM126.74 4.24H132.22L127.28 9.9L132.32 18H127.1L124.24 12.96L121.84 14.92V18H117.42V4.24H121.84V10.12L126.74 4.24ZM142.22 18H137.8V12.66L132.34 4.24H137.42L140.06 8.82H140.14L142.78 4.24H147.6L142.22 12.66V18Z"/>
</mask>
<path d="M92.7736 8.46C92.7736 9.3 92.5469 10.06 92.0936 10.74C91.6403 11.42 90.9803 11.92 90.1136 12.24L93.1736 18H88.2136L85.7736 12.98H84.1336V18H79.7136V4.24H88.1336C89.1203 4.24 89.9603 4.43333 90.6536 4.82C91.3603 5.19333 91.8869 5.70667 92.2336 6.36C92.5936 7 92.7736 7.7 92.7736 8.46ZM88.2736 8.64C88.2736 8.28 88.1536 7.98 87.9136 7.74C87.6736 7.5 87.3803 7.38 87.0336 7.38H84.1336V9.92H87.0336C87.3803 9.92 87.6736 9.8 87.9136 9.56C88.1536 9.30667 88.2736 9 88.2736 8.64ZM95.08 18V4.24H99.5V18H95.08ZM108.813 4C110.853 4 112.467 4.51333 113.653 5.54C114.84 6.55333 115.433 8.00667 115.433 9.9H111.213C111.213 9.1 111 8.46667 110.573 8C110.16 7.53333 109.567 7.3 108.793 7.3C107.9 7.3 107.24 7.58 106.813 8.14C106.4 8.7 106.193 9.48 106.193 10.48V11.76C106.193 12.7467 106.4 13.5267 106.813 14.1C107.24 14.66 107.887 14.94 108.753 14.94C109.607 14.94 110.253 14.72 110.693 14.28C111.133 13.84 111.353 13.22 111.353 12.42H115.433C115.433 14.3 114.853 15.74 113.693 16.74C112.547 17.74 110.92 18.24 108.813 18.24C106.467 18.24 104.687 17.64 103.473 16.44C102.273 15.24 101.673 13.4667 101.673 11.12C101.673 8.77333 102.273 7 103.473 5.8C104.687 4.6 106.467 4 108.813 4ZM126.74 4.24H132.22L127.28 9.9L132.32 18H127.1L124.24 12.96L121.84 14.92V18H117.42V4.24H121.84V10.12L126.74 4.24ZM142.22 18H137.8V12.66L132.34 4.24H137.42L140.06 8.82H140.14L142.78 4.24H147.6L142.22 12.66V18Z" fill="black"/>
<path d="M92.0936 10.74L90.4295 9.6306V9.6306L92.0936 10.74ZM90.1136 12.24L89.4209 10.3638C88.8793 10.5638 88.4506 10.9879 88.2449 11.5273C88.0392 12.0666 88.0765 12.6685 88.3474 13.1783L90.1136 12.24ZM93.1736 18V20C93.8755 20 94.5261 19.632 94.8877 19.0304C95.2494 18.4288 95.2691 17.6816 94.9398 17.0617L93.1736 18ZM88.2136 18L86.4148 18.8743C86.7495 19.5629 87.448 20 88.2136 20V18ZM85.7736 12.98L87.5724 12.1057C87.2377 11.4171 86.5392 10.98 85.7736 10.98V12.98ZM84.1336 12.98V10.98C83.029 10.98 82.1336 11.8754 82.1336 12.98H84.1336ZM84.1336 18V20C85.2382 20 86.1336 19.1046 86.1336 18H84.1336ZM79.7136 18H77.7136C77.7136 19.1046 78.609 20 79.7136 20V18ZM79.7136 4.24V2.24C78.609 2.24 77.7136 3.13543 77.7136 4.24H79.7136ZM90.6536 4.82L89.6795 6.56673C89.6927 6.5741 89.706 6.58132 89.7194 6.58839L90.6536 4.82ZM92.2336 6.36L90.4669 7.29743C90.4746 7.31189 90.4824 7.32626 90.4904 7.34052L92.2336 6.36ZM87.9136 7.74L86.4994 9.15421V9.15421L87.9136 7.74ZM84.1336 7.38V5.38C83.029 5.38 82.1336 6.27543 82.1336 7.38H84.1336ZM84.1336 9.92H82.1336C82.1336 11.0246 83.029 11.92 84.1336 11.92V9.92ZM87.9136 9.56L89.3278 10.9742C89.3405 10.9615 89.3531 10.9486 89.3655 10.9355L87.9136 9.56ZM90.7736 8.46C90.7736 8.9168 90.6574 9.2887 90.4295 9.6306L93.7577 11.8494C94.4364 10.8313 94.7736 9.68319 94.7736 8.46H90.7736ZM90.4295 9.6306C90.2408 9.91369 89.9448 10.1703 89.4209 10.3638L90.8063 14.1162C92.0157 13.6697 93.0398 12.9263 93.7577 11.8494L90.4295 9.6306ZM88.3474 13.1783L91.4074 18.9383L94.9398 17.0617L91.8798 11.3017L88.3474 13.1783ZM93.1736 16H88.2136V20H93.1736V16ZM90.0124 17.1257L87.5724 12.1057L83.9748 13.8543L86.4148 18.8743L90.0124 17.1257ZM85.7736 10.98H84.1336V14.98H85.7736V10.98ZM82.1336 12.98V18H86.1336V12.98H82.1336ZM84.1336 16H79.7136V20H84.1336V16ZM81.7136 18V4.24H77.7136V18H81.7136ZM79.7136 6.24H88.1336V2.24H79.7136V6.24ZM88.1336 6.24C88.861 6.24 89.348 6.38187 89.6795 6.56673L91.6277 3.07327C90.5725 2.48479 89.3795 2.24 88.1336 2.24V6.24ZM89.7194 6.58839C90.1015 6.79027 90.3234 7.02706 90.4669 7.29743L94.0003 5.42257C93.4504 4.38627 92.619 3.5964 91.5878 3.05161L89.7194 6.58839ZM90.4904 7.34052C90.676 7.67043 90.7736 8.03095 90.7736 8.46H94.7736C94.7736 7.36905 94.5112 6.32957 93.9767 5.37948L90.4904 7.34052ZM90.2736 8.64C90.2736 7.78528 89.9674 6.96538 89.3278 6.32579L86.4994 9.15421C86.4377 9.09253 86.3723 9.00187 86.3266 8.88778C86.2819 8.77603 86.2736 8.68543 86.2736 8.64H90.2736ZM89.3278 6.32579C88.7038 5.70182 87.898 5.38 87.0336 5.38V9.38C86.9717 9.38 86.8717 9.36829 86.7563 9.32109C86.6401 9.27356 86.5537 9.20853 86.4994 9.15421L89.3278 6.32579ZM87.0336 5.38H84.1336V9.38H87.0336V5.38ZM82.1336 7.38V9.92H86.1336V7.38H82.1336ZM84.1336 11.92H87.0336V7.92H84.1336V11.92ZM87.0336 11.92C87.898 11.92 88.7038 11.5982 89.3278 10.9742L86.4994 8.14579C86.5537 8.09146 86.6401 8.02644 86.7563 7.97891C86.8717 7.93171 86.9717 7.92 87.0336 7.92V11.92ZM89.3655 10.9355C89.9696 10.2978 90.2736 9.49379 90.2736 8.64H86.2736C86.2736 8.59392 86.2821 8.51086 86.3211 8.4112C86.3605 8.31043 86.4152 8.23362 86.4617 8.18451L89.3655 10.9355ZM95.08 18H93.08C93.08 19.1046 93.9754 20 95.08 20V18ZM95.08 4.24V2.24C93.9754 2.24 93.08 3.13543 93.08 4.24H95.08ZM99.5 4.24H101.5C101.5 3.13543 100.605 2.24 99.5 2.24V4.24ZM99.5 18V20C100.605 20 101.5 19.1046 101.5 18H99.5ZM97.08 18V4.24H93.08V18H97.08ZM95.08 6.24H99.5V2.24H95.08V6.24ZM97.5 4.24V18H101.5V4.24H97.5ZM99.5 16H95.08V20H99.5V16ZM113.653 5.54L112.345 7.05253L112.355 7.06092L113.653 5.54ZM115.433 9.9V11.9C116.538 11.9 117.433 11.0046 117.433 9.9H115.433ZM111.213 9.9H109.213C109.213 11.0046 110.109 11.9 111.213 11.9V9.9ZM110.573 8L109.076 9.32607C109.083 9.33395 109.09 9.34177 109.097 9.34954L110.573 8ZM106.813 8.14L105.223 6.92791C105.216 6.93599 105.21 6.94412 105.204 6.95229L106.813 8.14ZM106.813 14.1L105.191 15.2696C105.201 15.2839 105.212 15.2981 105.223 15.3121L106.813 14.1ZM110.693 14.28L109.279 12.8658L109.279 12.8658L110.693 14.28ZM111.353 12.42V10.42C110.249 10.42 109.353 11.3154 109.353 12.42H111.353ZM115.433 12.42H117.433C117.433 11.3154 116.538 10.42 115.433 10.42V12.42ZM113.693 16.74L112.388 15.2252L112.379 15.2327L113.693 16.74ZM103.473 16.44L102.059 17.8542L102.067 17.862L103.473 16.44ZM103.473 5.8L102.067 4.37797L102.059 4.38579L103.473 5.8ZM108.813 6C110.52 6 111.619 6.42477 112.345 7.0525L114.962 4.0275C113.314 2.60189 111.187 2 108.813 2V6ZM112.355 7.06092C113.002 7.6137 113.433 8.45517 113.433 9.9H117.433C117.433 7.55816 116.678 5.49297 114.952 4.01908L112.355 7.06092ZM115.433 7.9H111.213V11.9H115.433V7.9ZM113.213 9.9C113.213 8.738 112.896 7.57602 112.049 6.65046L109.097 9.34954C109.104 9.35732 109.213 9.462 109.213 9.9H113.213ZM112.071 6.67393C111.189 5.67869 109.991 5.3 108.793 5.3V9.3C108.981 9.3 109.067 9.32851 109.086 9.33625C109.096 9.33996 109.095 9.34051 109.088 9.33578C109.085 9.33372 109.082 9.33145 109.08 9.32926C109.077 9.32707 109.076 9.32581 109.076 9.32607L112.071 6.67393ZM108.793 5.3C107.461 5.3 106.127 5.74093 105.223 6.92791L108.404 9.35209C108.408 9.34752 108.406 9.35035 108.4 9.35486C108.395 9.35924 108.395 9.35715 108.41 9.35116C108.44 9.33835 108.551 9.3 108.793 9.3V5.3ZM105.204 6.95229C104.448 7.97733 104.193 9.2326 104.193 10.48H108.193C108.193 9.7274 108.352 9.42266 108.423 9.3277L105.204 6.95229ZM104.193 10.48V11.76H108.193V10.48H104.193ZM104.193 11.76C104.193 13.0049 104.452 14.2446 105.191 15.2696L108.436 12.9304C108.348 12.8088 108.193 12.4885 108.193 11.76H104.193ZM105.223 15.3121C106.115 16.4835 107.423 16.94 108.753 16.94V12.94C108.532 12.94 108.435 12.9041 108.413 12.8947C108.403 12.8901 108.403 12.8889 108.407 12.8925C108.412 12.8961 108.411 12.8967 108.404 12.8879L105.223 15.3121ZM108.753 16.94C109.936 16.94 111.171 16.6311 112.108 15.6942L109.279 12.8658C109.296 12.8487 109.296 12.8604 109.234 12.8816C109.163 12.9059 109.013 12.94 108.753 12.94V16.94ZM112.108 15.6942C113.022 14.7802 113.353 13.5919 113.353 12.42H109.353C109.353 12.6397 109.323 12.7616 109.304 12.8162C109.294 12.8426 109.287 12.8553 109.284 12.8591C109.282 12.8626 109.281 12.864 109.279 12.8658L112.108 15.6942ZM111.353 14.42H115.433V10.42H111.353V14.42ZM113.433 12.42C113.433 13.8623 113.008 14.6901 112.388 15.2252L114.999 18.2548C116.699 16.7899 117.433 14.7377 117.433 12.42H113.433ZM112.379 15.2327C111.716 15.8112 110.622 16.24 108.813 16.24V20.24C111.218 20.24 113.378 19.6688 115.008 18.2473L112.379 15.2327ZM108.813 16.24C106.792 16.24 105.596 15.7267 104.88 15.018L102.067 17.862C103.777 19.5533 106.142 20.24 108.813 20.24V16.24ZM104.888 15.0258C104.187 14.3255 103.673 13.1433 103.673 11.12H99.6734C99.6734 13.7901 100.36 16.1545 102.059 17.8542L104.888 15.0258ZM103.673 11.12C103.673 9.09675 104.187 7.9145 104.888 7.21421L102.059 4.38579C100.36 6.0855 99.6734 8.44992 99.6734 11.12H103.673ZM104.88 7.222C105.596 6.51327 106.792 6 108.813 6V2C106.142 2 103.777 2.68673 102.067 4.37799L104.88 7.222ZM126.74 4.24V2.24C126.146 2.24 125.583 2.50365 125.203 2.95963L126.74 4.24ZM132.22 4.24L133.727 5.55512C134.242 4.96423 134.365 4.12643 134.041 3.41243C133.716 2.69842 133.004 2.24 132.22 2.24V4.24ZM127.28 9.9L125.773 8.58488C125.195 9.24742 125.117 10.2099 125.582 10.9566L127.28 9.9ZM132.32 18V20C133.046 20 133.715 19.6062 134.068 18.9713C134.421 18.3364 134.402 17.5601 134.018 16.9434L132.32 18ZM127.1 18L125.36 18.9871C125.716 19.6131 126.38 20 127.1 20V18ZM124.24 12.96L125.979 11.9729C125.689 11.4605 125.187 11.1024 124.608 10.9941C124.028 10.8858 123.431 11.0383 122.975 11.4109L124.24 12.96ZM121.84 14.92L120.575 13.3709C120.11 13.7508 119.84 14.3195 119.84 14.92H121.84ZM121.84 18V20C122.944 20 123.84 19.1046 123.84 18H121.84ZM117.42 18H115.42C115.42 19.1046 116.315 20 117.42 20V18ZM117.42 4.24V2.24C116.315 2.24 115.42 3.13543 115.42 4.24H117.42ZM121.84 4.24H123.84C123.84 3.13543 122.944 2.24 121.84 2.24V4.24ZM121.84 10.12H119.84C119.84 10.962 120.367 11.7139 121.159 12.0005C121.951 12.2872 122.837 12.0472 123.376 11.4004L121.84 10.12ZM126.74 6.24H132.22V2.24H126.74V6.24ZM130.713 2.92488L125.773 8.58488L128.787 11.2151L133.727 5.55512L130.713 2.92488ZM125.582 10.9566L130.622 19.0566L134.018 16.9434L128.978 8.8434L125.582 10.9566ZM132.32 16H127.1V20H132.32V16ZM128.839 17.0129L125.979 11.9729L122.5 13.9471L125.36 18.9871L128.839 17.0129ZM122.975 11.4109L120.575 13.3709L123.105 16.4691L125.505 14.5091L122.975 11.4109ZM119.84 14.92V18H123.84V14.92H119.84ZM121.84 16H117.42V20H121.84V16ZM119.42 18V4.24H115.42V18H119.42ZM117.42 6.24H121.84V2.24H117.42V6.24ZM119.84 4.24V10.12H123.84V4.24H119.84ZM123.376 11.4004L128.276 5.52037L125.203 2.95963L120.303 8.83963L123.376 11.4004ZM142.22 18V20C143.325 20 144.22 19.1046 144.22 18H142.22ZM137.8 18H135.8C135.8 19.1046 136.695 20 137.8 20V18ZM137.8 12.66H139.8C139.8 12.2738 139.688 11.8959 139.478 11.5718L137.8 12.66ZM132.34 4.24V2.24C131.607 2.24 130.933 2.64101 130.583 3.28509C130.233 3.92918 130.263 4.71312 130.662 5.32815L132.34 4.24ZM137.42 4.24L139.153 3.24121C138.796 2.62173 138.135 2.24 137.42 2.24V4.24ZM140.06 8.82L138.327 9.81879C138.684 10.4383 139.345 10.82 140.06 10.82V8.82ZM140.14 8.82V10.82C140.855 10.82 141.516 10.4383 141.873 9.81879L140.14 8.82ZM142.78 4.24V2.24C142.065 2.24 141.404 2.62173 141.047 3.24121L142.78 4.24ZM147.6 4.24L149.285 5.31686C149.679 4.70118 149.705 3.91999 149.354 3.2792C149.003 2.6384 148.331 2.24 147.6 2.24V4.24ZM142.22 12.66L140.535 11.5831C140.329 11.9047 140.22 12.2784 140.22 12.66H142.22ZM142.22 16H137.8V20H142.22V16ZM139.8 18V12.66H135.8V18H139.8ZM139.478 11.5718L134.018 3.15184L130.662 5.32815L136.122 13.7482L139.478 11.5718ZM132.34 6.24H137.42V2.24H132.34V6.24ZM135.687 5.23879L138.327 9.81879L141.793 7.82121L139.153 3.24121L135.687 5.23879ZM140.06 10.82H140.14V6.82H140.06V10.82ZM141.873 9.81879L144.513 5.23879L141.047 3.24121L138.407 7.82121L141.873 9.81879ZM142.78 6.24H147.6V2.24H142.78V6.24ZM145.915 3.16314L140.535 11.5831L143.905 13.7369L149.285 5.31686L145.915 3.16314ZM140.22 12.66V18H144.22V12.66H140.22Z" fill="white" mask="url(#path-3-outside-2_2005_2878)"/>
</svg>
