<svg width="226" height="22" viewBox="0 0 226 22" fill="none" xmlns="http://www.w3.org/2000/svg">
<mask id="path-1-outside-1_2005_2860" maskUnits="userSpaceOnUse" x="39" y="0" width="148" height="22" fill="black">
<rect fill="white" x="39" width="148" height="22"/>
<path d="M53.1633 4.24H58.6433L53.7033 9.9L58.7433 18H53.5233L50.6633 12.96L48.2633 14.92V18H43.8433V4.24H48.2633V10.12L53.1633 4.24ZM60.3034 18V4.24H64.7234V18H60.3034ZM79.2969 18V13.04C79.2969 12.4267 79.3169 11.8 79.3569 11.16C79.4102 10.5067 79.4635 9.96 79.5169 9.52C79.5702 9.08 79.6035 8.8 79.6169 8.68H79.5369L76.9969 18H73.5369L70.9769 8.7H70.8969C70.9102 8.82 70.9435 9.1 70.9969 9.54C71.0635 9.96667 71.1235 10.5067 71.1769 11.16C71.2302 11.8 71.2569 12.4267 71.2569 13.04V18H67.1969V4.24H73.4369L75.5169 12.18H75.5969L77.6569 4.24H83.6769V18H79.2969ZM100.144 7.76V18H95.7238V7.76H91.2038V4.24H104.644V7.76H100.144ZM114.11 18L113.53 16.06H108.71L108.13 18H103.61L108.63 4.24H113.77L118.79 18H114.11ZM109.63 12.98H112.61L111.17 8.08H111.09L109.63 12.98ZM120.057 4.24H131.957V7.54H124.477V9.44H130.877V12.6H124.477V14.7H132.097V18H120.057V4.24ZM153.41 8.46C153.41 9.3 153.184 10.06 152.73 10.74C152.277 11.42 151.617 11.92 150.75 12.24L153.81 18H148.85L146.41 12.98H144.77V18H140.35V4.24H148.77C149.757 4.24 150.597 4.43333 151.29 4.82C151.997 5.19333 152.524 5.70667 152.87 6.36C153.23 7 153.41 7.7 153.41 8.46ZM148.91 8.64C148.91 8.28 148.79 7.98 148.55 7.74C148.31 7.5 148.017 7.38 147.67 7.38H144.77V9.92H147.67C148.017 9.92 148.31 9.8 148.55 9.56C148.79 9.30667 148.91 9 148.91 8.64ZM164.737 18L164.157 16.06H159.337L158.757 18H154.237L159.257 4.24H164.397L169.417 18H164.737ZM160.257 12.98H163.237L161.797 8.08H161.717L160.257 12.98ZM170.683 4.24H182.583V7.54H175.103V9.44H181.503V12.6H175.103V14.7H182.723V18H170.683V4.24Z"/>
</mask>
<path d="M53.1633 4.24H58.6433L53.7033 9.9L58.7433 18H53.5233L50.6633 12.96L48.2633 14.92V18H43.8433V4.24H48.2633V10.12L53.1633 4.24ZM60.3034 18V4.24H64.7234V18H60.3034ZM79.2969 18V13.04C79.2969 12.4267 79.3169 11.8 79.3569 11.16C79.4102 10.5067 79.4635 9.96 79.5169 9.52C79.5702 9.08 79.6035 8.8 79.6169 8.68H79.5369L76.9969 18H73.5369L70.9769 8.7H70.8969C70.9102 8.82 70.9435 9.1 70.9969 9.54C71.0635 9.96667 71.1235 10.5067 71.1769 11.16C71.2302 11.8 71.2569 12.4267 71.2569 13.04V18H67.1969V4.24H73.4369L75.5169 12.18H75.5969L77.6569 4.24H83.6769V18H79.2969ZM100.144 7.76V18H95.7238V7.76H91.2038V4.24H104.644V7.76H100.144ZM114.11 18L113.53 16.06H108.71L108.13 18H103.61L108.63 4.24H113.77L118.79 18H114.11ZM109.63 12.98H112.61L111.17 8.08H111.09L109.63 12.98ZM120.057 4.24H131.957V7.54H124.477V9.44H130.877V12.6H124.477V14.7H132.097V18H120.057V4.24ZM153.41 8.46C153.41 9.3 153.184 10.06 152.73 10.74C152.277 11.42 151.617 11.92 150.75 12.24L153.81 18H148.85L146.41 12.98H144.77V18H140.35V4.24H148.77C149.757 4.24 150.597 4.43333 151.29 4.82C151.997 5.19333 152.524 5.70667 152.87 6.36C153.23 7 153.41 7.7 153.41 8.46ZM148.91 8.64C148.91 8.28 148.79 7.98 148.55 7.74C148.31 7.5 148.017 7.38 147.67 7.38H144.77V9.92H147.67C148.017 9.92 148.31 9.8 148.55 9.56C148.79 9.30667 148.91 9 148.91 8.64ZM164.737 18L164.157 16.06H159.337L158.757 18H154.237L159.257 4.24H164.397L169.417 18H164.737ZM160.257 12.98H163.237L161.797 8.08H161.717L160.257 12.98ZM170.683 4.24H182.583V7.54H175.103V9.44H181.503V12.6H175.103V14.7H182.723V18H170.683V4.24Z" fill="black"/>
<path d="M53.1633 4.24V0.24C51.9762 0.24 50.8504 0.767292 50.0904 1.67926L53.1633 4.24ZM58.6433 4.24L61.6569 6.87025C62.6883 5.68846 62.9338 4.01287 62.2848 2.58485C61.6357 1.15684 60.2119 0.24 58.6433 0.24V4.24ZM53.7033 9.9L50.6897 7.26975C49.5332 8.59483 49.3779 10.5199 50.3071 12.0132L53.7033 9.9ZM58.7433 18V22C60.1959 22 61.5344 21.2124 62.2399 19.9426C62.9454 18.6727 62.907 17.1202 62.1395 15.8868L58.7433 18ZM53.5233 18L50.0444 19.9741C50.7549 21.2263 52.0836 22 53.5233 22V18ZM50.6633 12.96L54.1422 10.9859C53.5607 9.96109 52.5569 9.24483 51.3987 9.02819C50.2405 8.81155 49.0458 9.11657 48.1331 9.86187L50.6633 12.96ZM48.2633 14.92L45.7331 11.8219C44.8029 12.5815 44.2633 13.719 44.2633 14.92H48.2633ZM48.2633 18V22C50.4724 22 52.2633 20.2091 52.2633 18H48.2633ZM43.8433 18H39.8433C39.8433 20.2091 41.6341 22 43.8433 22V18ZM43.8433 4.24V0.24C41.6341 0.24 39.8433 2.03086 39.8433 4.24H43.8433ZM48.2633 4.24H52.2633C52.2633 2.03086 50.4724 0.24 48.2633 0.24V4.24ZM48.2633 10.12H44.2633C44.2633 11.8041 45.3181 13.3078 46.9016 13.8811C48.4851 14.4544 50.258 13.9745 51.3362 12.6807L48.2633 10.12ZM53.1633 8.24H58.6433V0.24H53.1633V8.24ZM55.6297 1.60975L50.6897 7.26975L56.7169 12.5302L61.6569 6.87025L55.6297 1.60975ZM50.3071 12.0132L55.3471 20.1132L62.1395 15.8868L57.0995 7.78679L50.3071 12.0132ZM58.7433 14H53.5233V22H58.7433V14ZM57.0022 16.0259L54.1422 10.9859L47.1844 14.9341L50.0444 19.9741L57.0022 16.0259ZM48.1331 9.86187L45.7331 11.8219L50.7934 18.0181L53.1934 16.0581L48.1331 9.86187ZM44.2633 14.92V18H52.2633V14.92H44.2633ZM48.2633 14H43.8433V22H48.2633V14ZM47.8433 18V4.24H39.8433V18H47.8433ZM43.8433 8.24H48.2633V0.24H43.8433V8.24ZM44.2633 4.24V10.12H52.2633V4.24H44.2633ZM51.3362 12.6807L56.2362 6.80074L50.0904 1.67926L45.1904 7.55926L51.3362 12.6807ZM60.3034 18H56.3034C56.3034 20.2091 58.0943 22 60.3034 22V18ZM60.3034 4.24V0.24C58.0943 0.24 56.3034 2.03086 56.3034 4.24H60.3034ZM64.7234 4.24H68.7234C68.7234 2.03086 66.9326 0.24 64.7234 0.24V4.24ZM64.7234 18V22C66.9326 22 68.7234 20.2091 68.7234 18H64.7234ZM64.3034 18V4.24H56.3034V18H64.3034ZM60.3034 8.24H64.7234V0.24H60.3034V8.24ZM60.7234 4.24V18H68.7234V4.24H60.7234ZM64.7234 14H60.3034V22H64.7234V14ZM79.2969 18H75.2969C75.2969 20.2091 77.0877 22 79.2969 22V18ZM79.3569 11.16L75.3701 10.8346C75.3681 10.8598 75.3662 10.8852 75.3647 10.9105L79.3569 11.16ZM79.5169 9.52L83.4878 10.0013V10.0013L79.5169 9.52ZM79.6169 8.68L83.5924 9.12175C83.7181 7.99093 83.3562 6.86011 82.5974 6.01232C81.8386 5.16453 80.7546 4.68 79.6169 4.68V8.68ZM79.5369 8.68V4.68C77.7328 4.68 76.152 5.88764 75.6776 7.62823L79.5369 8.68ZM76.9969 18V22C78.8009 22 80.3818 20.7924 80.8561 19.0518L76.9969 18ZM73.5369 18L69.6803 19.0616C70.1581 20.7973 71.7366 22 73.5369 22V18ZM70.9769 8.7L74.8334 7.63841C74.3556 5.90268 72.7772 4.7 70.9769 4.7V8.7ZM70.8969 8.7V4.7C69.7591 4.7 68.6752 5.18453 67.9164 6.03231C67.1576 6.8801 66.7957 8.01091 66.9213 9.14173L70.8969 8.7ZM70.9969 9.54L67.0259 10.0213C67.0314 10.0668 67.0378 10.1122 67.0448 10.1575L70.9969 9.54ZM71.1769 11.16L67.1901 11.4854L67.1907 11.4922L71.1769 11.16ZM71.2569 18V22C73.466 22 75.2569 20.2091 75.2569 18H71.2569ZM67.1969 18H63.1969C63.1969 20.2091 64.9877 22 67.1969 22V18ZM67.1969 4.24V0.24C64.9877 0.24 63.1969 2.03086 63.1969 4.24H67.1969ZM73.4369 4.24L77.3063 3.22634C76.8454 1.46697 75.2556 0.24 73.4369 0.24V4.24ZM75.5169 12.18L71.6474 13.1937C72.1083 14.953 73.6981 16.18 75.5169 16.18V12.18ZM75.5969 12.18V16.18C77.4191 16.18 79.0111 14.9484 79.4687 13.1845L75.5969 12.18ZM77.6569 4.24V0.24C75.8346 0.24 74.2427 1.47162 73.7851 3.23547L77.6569 4.24ZM83.6769 4.24H87.6769C87.6769 2.03086 85.886 0.24 83.6769 0.24V4.24ZM83.6769 18V22C85.886 22 87.6769 20.2091 87.6769 18H83.6769ZM83.2969 18V13.04H75.2969V18H83.2969ZM83.2969 13.04C83.2969 12.5136 83.314 11.9702 83.3491 11.4095L75.3647 10.9105C75.3197 11.6298 75.2969 12.3398 75.2969 13.04H83.2969ZM83.3436 11.4854C83.3945 10.8621 83.443 10.3714 83.4878 10.0013L75.5459 9.03867C75.4841 9.54863 75.4259 10.1512 75.3701 10.8346L83.3436 11.4854ZM83.4878 10.0013C83.5404 9.56752 83.5764 9.26572 83.5924 9.12175L75.6413 8.23825C75.6307 8.33428 75.6 8.59248 75.5459 9.03868L83.4878 10.0013ZM79.6169 4.68H79.5369V12.68H79.6169V4.68ZM75.6776 7.62823L73.1376 16.9482L80.8561 19.0518L83.3961 9.73177L75.6776 7.62823ZM76.9969 14H73.5369V22H76.9969V14ZM77.3934 16.9384L74.8334 7.63841L67.1203 9.76159L69.6803 19.0616L77.3934 16.9384ZM70.9769 4.7H70.8969V12.7H70.9769V4.7ZM66.9213 9.14173C66.9373 9.28572 66.9734 9.58753 67.0259 10.0213L74.9678 9.05868C74.9137 8.61247 74.8831 8.35428 74.8724 8.25827L66.9213 9.14173ZM67.0448 10.1575C67.0908 10.4515 67.1412 10.8855 67.1901 11.4854L75.1636 10.8346C75.1059 10.1279 75.0363 9.48185 74.9489 8.92249L67.0448 10.1575ZM67.1907 11.4922C67.2352 12.0268 67.2569 12.5426 67.2569 13.04H75.2569C75.2569 12.3107 75.2252 11.5732 75.1631 10.8278L67.1907 11.4922ZM67.2569 13.04V18H75.2569V13.04H67.2569ZM71.2569 14H67.1969V22H71.2569V14ZM71.1969 18V4.24H63.1969V18H71.1969ZM67.1969 8.24H73.4369V0.24H67.1969V8.24ZM69.5674 5.25365L71.6474 13.1937L79.3863 11.1663L77.3063 3.22634L69.5674 5.25365ZM75.5169 16.18H75.5969V8.18H75.5169V16.18ZM79.4687 13.1845L81.5287 5.24452L73.7851 3.23547L71.7251 11.1755L79.4687 13.1845ZM77.6569 8.24H83.6769V0.24H77.6569V8.24ZM79.6769 4.24V18H87.6769V4.24H79.6769ZM83.6769 14H79.2969V22H83.6769V14ZM100.144 7.76V3.76C97.9346 3.76 96.1438 5.55086 96.1438 7.76H100.144ZM100.144 18V22C102.353 22 104.144 20.2091 104.144 18H100.144ZM95.7238 18H91.7238C91.7238 20.2091 93.5146 22 95.7238 22V18ZM95.7238 7.76H99.7238C99.7238 5.55086 97.9329 3.76 95.7238 3.76V7.76ZM91.2038 7.76H87.2038C87.2038 9.96914 88.9946 11.76 91.2038 11.76V7.76ZM91.2038 4.24V0.24C88.9946 0.24 87.2038 2.03086 87.2038 4.24H91.2038ZM104.644 4.24H108.644C108.644 2.03086 106.853 0.24 104.644 0.24V4.24ZM104.644 7.76V11.76C106.853 11.76 108.644 9.96914 108.644 7.76H104.644ZM96.1438 7.76V18H104.144V7.76H96.1438ZM100.144 14H95.7238V22H100.144V14ZM99.7238 18V7.76H91.7238V18H99.7238ZM95.7238 3.76H91.2038V11.76H95.7238V3.76ZM95.2038 7.76V4.24H87.2038V7.76H95.2038ZM91.2038 8.24H104.644V0.24H91.2038V8.24ZM100.644 4.24V7.76H108.644V4.24H100.644ZM104.644 3.76H100.144V11.76H104.644V3.76ZM114.11 18L110.278 19.1458C110.784 20.8395 112.342 22 114.11 22V18ZM113.53 16.06L117.363 14.9142C116.856 13.2205 115.298 12.06 113.53 12.06V16.06ZM108.71 16.06V12.06C106.942 12.06 105.384 13.2205 104.878 14.9142L108.71 16.06ZM108.13 18V22C109.898 22 111.456 20.8395 111.963 19.1458L108.13 18ZM103.61 18L99.8524 16.6291C99.405 17.8556 99.5842 19.2233 100.333 20.2931C101.081 21.3628 102.305 22 103.61 22V18ZM108.63 4.24V0.24C106.95 0.24 105.448 1.29037 104.872 2.86908L108.63 4.24ZM113.77 4.24L117.528 2.86908C116.952 1.29037 115.451 0.24 113.77 0.24V4.24ZM118.79 18V22C120.096 22 121.319 21.3628 122.068 20.2931C122.816 19.2233 122.995 17.8556 122.548 16.6291L118.79 18ZM109.63 12.98L105.797 11.8378C105.436 13.0483 105.668 14.3581 106.423 15.3707C107.178 16.3834 108.367 16.98 109.63 16.98V12.98ZM112.61 12.98V16.98C113.871 16.98 115.057 16.3859 115.813 15.3767C116.568 14.3676 116.803 13.0615 116.448 11.8522L112.61 12.98ZM111.17 8.08L115.008 6.95218C114.507 5.24943 112.945 4.08 111.17 4.08V8.08ZM111.09 8.08V4.08C109.321 4.08 107.762 5.24225 107.257 6.93779L111.09 8.08ZM117.943 16.8542L117.363 14.9142L109.698 17.2058L110.278 19.1458L117.943 16.8542ZM113.53 12.06H108.71V20.06H113.53V12.06ZM104.878 14.9142L104.298 16.8542L111.963 19.1458L112.543 17.2058L104.878 14.9142ZM108.13 14H103.61V22H108.13V14ZM107.368 19.3709L112.388 5.61092L104.872 2.86908L99.8524 16.6291L107.368 19.3709ZM108.63 8.24H113.77V0.24H108.63V8.24ZM110.012 5.61092L115.032 19.3709L122.548 16.6291L117.528 2.86908L110.012 5.61092ZM118.79 14H114.11V22H118.79V14ZM109.63 16.98H112.61V8.98H109.63V16.98ZM116.448 11.8522L115.008 6.95218L107.332 9.20782L108.772 14.1078L116.448 11.8522ZM111.17 4.08H111.09V12.08H111.17V4.08ZM107.257 6.93779L105.797 11.8378L113.464 14.1222L114.924 9.22221L107.257 6.93779ZM120.057 4.24V0.24C117.847 0.24 116.057 2.03086 116.057 4.24H120.057ZM131.957 4.24H135.957C135.957 2.03086 134.166 0.24 131.957 0.24V4.24ZM131.957 7.54V11.54C134.166 11.54 135.957 9.74914 135.957 7.54H131.957ZM124.477 7.54V3.54C122.267 3.54 120.477 5.33086 120.477 7.54H124.477ZM124.477 9.44H120.477C120.477 11.6491 122.267 13.44 124.477 13.44V9.44ZM130.877 9.44H134.877C134.877 7.23086 133.086 5.44 130.877 5.44V9.44ZM130.877 12.6V16.6C133.086 16.6 134.877 14.8091 134.877 12.6H130.877ZM124.477 12.6V8.6C122.267 8.6 120.477 10.3909 120.477 12.6H124.477ZM124.477 14.7H120.477C120.477 16.9091 122.267 18.7 124.477 18.7V14.7ZM132.097 14.7H136.097C136.097 12.4909 134.306 10.7 132.097 10.7V14.7ZM132.097 18V22C134.306 22 136.097 20.2091 136.097 18H132.097ZM120.057 18H116.057C116.057 20.2091 117.847 22 120.057 22V18ZM120.057 8.24H131.957V0.24H120.057V8.24ZM127.957 4.24V7.54H135.957V4.24H127.957ZM131.957 3.54H124.477V11.54H131.957V3.54ZM120.477 7.54V9.44H128.477V7.54H120.477ZM124.477 13.44H130.877V5.44H124.477V13.44ZM126.877 9.44V12.6H134.877V9.44H126.877ZM130.877 8.6H124.477V16.6H130.877V8.6ZM120.477 12.6V14.7H128.477V12.6H120.477ZM124.477 18.7H132.097V10.7H124.477V18.7ZM128.097 14.7V18H136.097V14.7H128.097ZM132.097 14H120.057V22H132.097V14ZM124.057 18V4.24H116.057V18H124.057ZM152.73 10.74L149.402 8.5212V8.5212L152.73 10.74ZM150.75 12.24L149.365 8.48761C148.282 8.8875 147.424 9.73583 147.013 10.8145C146.602 11.8932 146.676 13.0971 147.218 14.1166L150.75 12.24ZM153.81 18V22C155.214 22 156.515 21.264 157.239 20.0608C157.962 18.8575 158.001 17.3632 157.343 16.1234L153.81 18ZM148.85 18L145.253 19.7486C145.922 21.1258 147.319 22 148.85 22V18ZM146.41 12.98L150.008 11.2314C149.338 9.85419 147.942 8.98 146.41 8.98V12.98ZM144.77 12.98V8.98C142.561 8.98 140.77 10.7709 140.77 12.98H144.77ZM144.77 18V22C146.979 22 148.77 20.2091 148.77 18H144.77ZM140.35 18H136.35C136.35 20.2091 138.141 22 140.35 22V18ZM140.35 4.24V0.24C138.141 0.24 136.35 2.03086 136.35 4.24H140.35ZM151.29 4.82L149.342 8.31346C149.368 8.3282 149.395 8.34264 149.422 8.35677L151.29 4.82ZM152.87 6.36L149.337 8.23486C149.352 8.26378 149.368 8.29251 149.384 8.32105L152.87 6.36ZM148.55 7.74L145.722 10.5684V10.5684L148.55 7.74ZM144.77 7.38V3.38C142.561 3.38 140.77 5.17086 140.77 7.38H144.77ZM144.77 9.92H140.77C140.77 12.1291 142.561 13.92 144.77 13.92V9.92ZM148.55 9.56L151.379 12.3884C151.404 12.363 151.429 12.3371 151.454 12.311L148.55 9.56ZM149.41 8.46C149.41 8.48967 149.408 8.50697 149.407 8.51393C149.406 8.52069 149.406 8.52094 149.407 8.51678C149.408 8.51255 149.41 8.50879 149.411 8.50697C149.412 8.50527 149.41 8.50987 149.402 8.5212L156.059 12.9588C156.963 11.6026 157.41 10.0664 157.41 8.46H149.41ZM149.402 8.5212C149.412 8.50575 149.426 8.48828 149.442 8.4712C149.458 8.45419 149.472 8.44269 149.48 8.43663C149.488 8.43078 149.485 8.43348 149.469 8.44239C149.452 8.45147 149.419 8.46772 149.365 8.48761L152.136 15.9924C153.688 15.4193 155.076 14.4326 156.059 12.9588L149.402 8.5212ZM147.218 14.1166L150.278 19.8766L157.343 16.1234L154.283 10.3634L147.218 14.1166ZM153.81 14H148.85V22H153.81V14ZM152.448 16.2514L150.008 11.2314L142.813 14.7286L145.253 19.7486L152.448 16.2514ZM146.41 8.98H144.77V16.98H146.41V8.98ZM140.77 12.98V18H148.77V12.98H140.77ZM144.77 14H140.35V22H144.77V14ZM144.35 18V4.24H136.35V18H144.35ZM140.35 8.24H148.77V0.24H140.35V8.24ZM148.77 8.24C149.238 8.24 149.372 8.33041 149.342 8.31346L153.239 1.32654C151.822 0.536257 150.275 0.24 148.77 0.24V8.24ZM149.422 8.35677C149.466 8.38007 149.457 8.38199 149.423 8.34945C149.408 8.33423 149.391 8.31524 149.374 8.29332C149.358 8.27143 149.346 8.25114 149.337 8.23486L156.404 4.48514C155.651 3.06587 154.515 1.99946 153.159 1.28323L149.422 8.35677ZM149.384 8.32105C149.396 8.34254 149.399 8.35367 149.401 8.36116C149.403 8.36939 149.41 8.39874 149.41 8.46H157.41C157.41 7.0381 157.065 5.65914 156.357 4.39895L149.384 8.32105ZM152.91 8.64C152.91 7.29055 152.418 5.95075 151.379 4.91157L145.722 10.5684C145.479 10.3251 145.258 10.0087 145.106 9.63056C144.957 9.25705 144.91 8.91087 144.91 8.64H152.91ZM151.379 4.91157C150.371 3.90364 149.052 3.38 147.67 3.38V11.38C147.373 11.38 147.013 11.3266 146.636 11.1722C146.257 11.0171 145.951 10.7971 145.722 10.5684L151.379 4.91157ZM147.67 3.38H144.77V11.38H147.67V3.38ZM140.77 7.38V9.92H148.77V7.38H140.77ZM144.77 13.92H147.67V5.92H144.77V13.92ZM147.67 13.92C149.052 13.92 150.371 13.3964 151.379 12.3884L145.722 6.73157C145.951 6.50293 146.257 6.28289 146.636 6.12781C147.013 5.97343 147.373 5.92 147.67 5.92V13.92ZM151.454 12.311C152.422 11.289 152.91 9.98758 152.91 8.64H144.91C144.91 8.36785 144.957 8.03505 145.095 7.6824C145.234 7.32753 145.433 7.03392 145.646 6.80902L151.454 12.311ZM164.737 18L160.904 19.1458C161.411 20.8395 162.969 22 164.737 22V18ZM164.157 16.06L167.989 14.9142C167.483 13.2205 165.925 12.06 164.157 12.06V16.06ZM159.337 16.06V12.06C157.569 12.06 156.011 13.2205 155.504 14.9142L159.337 16.06ZM158.757 18V22C160.525 22 162.083 20.8395 162.589 19.1458L158.757 18ZM154.237 18L150.479 16.6291C150.032 17.8556 150.211 19.2233 150.959 20.2931C151.708 21.3628 152.931 22 154.237 22V18ZM159.257 4.24V0.24C157.576 0.24 156.075 1.29037 155.499 2.86908L159.257 4.24ZM164.397 4.24L168.154 2.86908C167.578 1.29037 166.077 0.24 164.397 0.24V4.24ZM169.417 18V22C170.722 22 171.946 21.3628 172.694 20.2931C173.443 19.2233 173.622 17.8556 173.174 16.6291L169.417 18ZM160.257 12.98L156.423 11.8378C156.063 13.0483 156.295 14.3581 157.05 15.3707C157.805 16.3834 158.994 16.98 160.257 16.98V12.98ZM163.237 12.98V16.98C164.497 16.98 165.684 16.3859 166.439 15.3767C167.194 14.3676 167.43 13.0615 167.074 11.8522L163.237 12.98ZM161.797 8.08L165.634 6.95218C165.134 5.24943 163.571 4.08 161.797 4.08V8.08ZM161.717 8.08V4.08C159.948 4.08 158.388 5.24225 157.883 6.93779L161.717 8.08ZM168.569 16.8542L167.989 14.9142L160.324 17.2058L160.904 19.1458L168.569 16.8542ZM164.157 12.06H159.337V20.06H164.157V12.06ZM155.504 14.9142L154.924 16.8542L162.589 19.1458L163.169 17.2058L155.504 14.9142ZM158.757 14H154.237V22H158.757V14ZM157.994 19.3709L163.014 5.61092L155.499 2.86908L150.479 16.6291L157.994 19.3709ZM159.257 8.24H164.397V0.24H159.257V8.24ZM160.639 5.61092L165.659 19.3709L173.174 16.6291L168.154 2.86908L160.639 5.61092ZM169.417 14H164.737V22H169.417V14ZM160.257 16.98H163.237V8.98H160.257V16.98ZM167.074 11.8522L165.634 6.95218L157.959 9.20782L159.399 14.1078L167.074 11.8522ZM161.797 4.08H161.717V12.08H161.797V4.08ZM157.883 6.93779L156.423 11.8378L164.09 14.1222L165.55 9.22221L157.883 6.93779ZM170.683 4.24V0.24C168.474 0.24 166.683 2.03086 166.683 4.24H170.683ZM182.583 4.24H186.583C186.583 2.03086 184.792 0.24 182.583 0.24V4.24ZM182.583 7.54V11.54C184.792 11.54 186.583 9.74914 186.583 7.54H182.583ZM175.103 7.54V3.54C172.894 3.54 171.103 5.33086 171.103 7.54H175.103ZM175.103 9.44H171.103C171.103 11.6491 172.894 13.44 175.103 13.44V9.44ZM181.503 9.44H185.503C185.503 7.23086 183.712 5.44 181.503 5.44V9.44ZM181.503 12.6V16.6C183.712 16.6 185.503 14.8091 185.503 12.6H181.503ZM175.103 12.6V8.6C172.894 8.6 171.103 10.3909 171.103 12.6H175.103ZM175.103 14.7H171.103C171.103 16.9091 172.894 18.7 175.103 18.7V14.7ZM182.723 14.7H186.723C186.723 12.4909 184.932 10.7 182.723 10.7V14.7ZM182.723 18V22C184.932 22 186.723 20.2091 186.723 18H182.723ZM170.683 18H166.683C166.683 20.2091 168.474 22 170.683 22V18ZM170.683 8.24H182.583V0.24H170.683V8.24ZM178.583 4.24V7.54H186.583V4.24H178.583ZM182.583 3.54H175.103V11.54H182.583V3.54ZM171.103 7.54V9.44H179.103V7.54H171.103ZM175.103 13.44H181.503V5.44H175.103V13.44ZM177.503 9.44V12.6H185.503V9.44H177.503ZM181.503 8.6H175.103V16.6H181.503V8.6ZM171.103 12.6V14.7H179.103V12.6H171.103ZM175.103 18.7H182.723V10.7H175.103V18.7ZM178.723 14.7V18H186.723V14.7H178.723ZM182.723 14H170.683V22H182.723V14ZM174.683 18V4.24H166.683V18H174.683Z" fill="#468ED3" mask="url(#path-1-outside-1_2005_2860)"/>
<mask id="path-3-outside-2_2005_2860" maskUnits="userSpaceOnUse" x="41" y="2" width="144" height="18" fill="black">
<rect fill="white" x="41" y="2" width="144" height="18"/>
<path d="M53.1633 4.24H58.6433L53.7033 9.9L58.7433 18H53.5233L50.6633 12.96L48.2633 14.92V18H43.8433V4.24H48.2633V10.12L53.1633 4.24ZM60.3034 18V4.24H64.7234V18H60.3034ZM79.2969 18V13.04C79.2969 12.4267 79.3169 11.8 79.3569 11.16C79.4102 10.5067 79.4635 9.96 79.5169 9.52C79.5702 9.08 79.6035 8.8 79.6169 8.68H79.5369L76.9969 18H73.5369L70.9769 8.7H70.8969C70.9102 8.82 70.9435 9.1 70.9969 9.54C71.0635 9.96667 71.1235 10.5067 71.1769 11.16C71.2302 11.8 71.2569 12.4267 71.2569 13.04V18H67.1969V4.24H73.4369L75.5169 12.18H75.5969L77.6569 4.24H83.6769V18H79.2969ZM100.144 7.76V18H95.7238V7.76H91.2038V4.24H104.644V7.76H100.144ZM114.11 18L113.53 16.06H108.71L108.13 18H103.61L108.63 4.24H113.77L118.79 18H114.11ZM109.63 12.98H112.61L111.17 8.08H111.09L109.63 12.98ZM120.057 4.24H131.957V7.54H124.477V9.44H130.877V12.6H124.477V14.7H132.097V18H120.057V4.24ZM153.41 8.46C153.41 9.3 153.184 10.06 152.73 10.74C152.277 11.42 151.617 11.92 150.75 12.24L153.81 18H148.85L146.41 12.98H144.77V18H140.35V4.24H148.77C149.757 4.24 150.597 4.43333 151.29 4.82C151.997 5.19333 152.524 5.70667 152.87 6.36C153.23 7 153.41 7.7 153.41 8.46ZM148.91 8.64C148.91 8.28 148.79 7.98 148.55 7.74C148.31 7.5 148.017 7.38 147.67 7.38H144.77V9.92H147.67C148.017 9.92 148.31 9.8 148.55 9.56C148.79 9.30667 148.91 9 148.91 8.64ZM164.737 18L164.157 16.06H159.337L158.757 18H154.237L159.257 4.24H164.397L169.417 18H164.737ZM160.257 12.98H163.237L161.797 8.08H161.717L160.257 12.98ZM170.683 4.24H182.583V7.54H175.103V9.44H181.503V12.6H175.103V14.7H182.723V18H170.683V4.24Z"/>
</mask>
<path d="M53.1633 4.24H58.6433L53.7033 9.9L58.7433 18H53.5233L50.6633 12.96L48.2633 14.92V18H43.8433V4.24H48.2633V10.12L53.1633 4.24ZM60.3034 18V4.24H64.7234V18H60.3034ZM79.2969 18V13.04C79.2969 12.4267 79.3169 11.8 79.3569 11.16C79.4102 10.5067 79.4635 9.96 79.5169 9.52C79.5702 9.08 79.6035 8.8 79.6169 8.68H79.5369L76.9969 18H73.5369L70.9769 8.7H70.8969C70.9102 8.82 70.9435 9.1 70.9969 9.54C71.0635 9.96667 71.1235 10.5067 71.1769 11.16C71.2302 11.8 71.2569 12.4267 71.2569 13.04V18H67.1969V4.24H73.4369L75.5169 12.18H75.5969L77.6569 4.24H83.6769V18H79.2969ZM100.144 7.76V18H95.7238V7.76H91.2038V4.24H104.644V7.76H100.144ZM114.11 18L113.53 16.06H108.71L108.13 18H103.61L108.63 4.24H113.77L118.79 18H114.11ZM109.63 12.98H112.61L111.17 8.08H111.09L109.63 12.98ZM120.057 4.24H131.957V7.54H124.477V9.44H130.877V12.6H124.477V14.7H132.097V18H120.057V4.24ZM153.41 8.46C153.41 9.3 153.184 10.06 152.73 10.74C152.277 11.42 151.617 11.92 150.75 12.24L153.81 18H148.85L146.41 12.98H144.77V18H140.35V4.24H148.77C149.757 4.24 150.597 4.43333 151.29 4.82C151.997 5.19333 152.524 5.70667 152.87 6.36C153.23 7 153.41 7.7 153.41 8.46ZM148.91 8.64C148.91 8.28 148.79 7.98 148.55 7.74C148.31 7.5 148.017 7.38 147.67 7.38H144.77V9.92H147.67C148.017 9.92 148.31 9.8 148.55 9.56C148.79 9.30667 148.91 9 148.91 8.64ZM164.737 18L164.157 16.06H159.337L158.757 18H154.237L159.257 4.24H164.397L169.417 18H164.737ZM160.257 12.98H163.237L161.797 8.08H161.717L160.257 12.98ZM170.683 4.24H182.583V7.54H175.103V9.44H181.503V12.6H175.103V14.7H182.723V18H170.683V4.24Z" fill="black"/>
<path d="M53.1633 4.24V2.24C52.5697 2.24 52.0068 2.50365 51.6268 2.95963L53.1633 4.24ZM58.6433 4.24L60.1501 5.55512C60.6658 4.96423 60.7886 4.12643 60.464 3.41243C60.1395 2.69842 59.4276 2.24 58.6433 2.24V4.24ZM53.7033 9.9L52.1965 8.58488C51.6182 9.24742 51.5406 10.2099 52.0052 10.9566L53.7033 9.9ZM58.7433 18V20C59.4696 20 60.1389 19.6062 60.4916 18.9713C60.8443 18.3364 60.8251 17.5601 60.4414 16.9434L58.7433 18ZM53.5233 18L51.7838 18.9871C52.1391 19.6131 52.8034 20 53.5233 20V18ZM50.6633 12.96L52.4027 11.9729C52.112 11.4605 51.6101 11.1024 51.031 10.9941C50.4519 10.8858 49.8545 11.0383 49.3982 11.4109L50.6633 12.96ZM48.2633 14.92L46.9982 13.3709C46.5331 13.7508 46.2633 14.3195 46.2633 14.92H48.2633ZM48.2633 18V20C49.3679 20 50.2633 19.1046 50.2633 18H48.2633ZM43.8433 18H41.8433C41.8433 19.1046 42.7387 20 43.8433 20V18ZM43.8433 4.24V2.24C42.7387 2.24 41.8433 3.13543 41.8433 4.24H43.8433ZM48.2633 4.24H50.2633C50.2633 3.13543 49.3679 2.24 48.2633 2.24V4.24ZM48.2633 10.12H46.2633C46.2633 10.962 46.7907 11.7139 47.5824 12.0005C48.3742 12.2872 49.2607 12.0472 49.7997 11.4004L48.2633 10.12ZM53.1633 6.24H58.6433V2.24H53.1633V6.24ZM57.1365 2.92488L52.1965 8.58488L55.2101 11.2151L60.1501 5.55512L57.1365 2.92488ZM52.0052 10.9566L57.0452 19.0566L60.4414 16.9434L55.4014 8.8434L52.0052 10.9566ZM58.7433 16H53.5233V20H58.7433V16ZM55.2627 17.0129L52.4027 11.9729L48.9238 13.9471L51.7838 18.9871L55.2627 17.0129ZM49.3982 11.4109L46.9982 13.3709L49.5284 16.4691L51.9284 14.5091L49.3982 11.4109ZM46.2633 14.92V18H50.2633V14.92H46.2633ZM48.2633 16H43.8433V20H48.2633V16ZM45.8433 18V4.24H41.8433V18H45.8433ZM43.8433 6.24H48.2633V2.24H43.8433V6.24ZM46.2633 4.24V10.12H50.2633V4.24H46.2633ZM49.7997 11.4004L54.6997 5.52037L51.6268 2.95963L46.7268 8.83963L49.7997 11.4004ZM60.3034 18H58.3034C58.3034 19.1046 59.1989 20 60.3034 20V18ZM60.3034 4.24V2.24C59.1989 2.24 58.3034 3.13543 58.3034 4.24H60.3034ZM64.7234 4.24H66.7234C66.7234 3.13543 65.828 2.24 64.7234 2.24V4.24ZM64.7234 18V20C65.828 20 66.7234 19.1046 66.7234 18H64.7234ZM62.3034 18V4.24H58.3034V18H62.3034ZM60.3034 6.24H64.7234V2.24H60.3034V6.24ZM62.7234 4.24V18H66.7234V4.24H62.7234ZM64.7234 16H60.3034V20H64.7234V16ZM79.2969 18H77.2969C77.2969 19.1046 78.1923 20 79.2969 20V18ZM79.3569 11.16L77.3635 10.9973C77.3625 11.0099 77.3616 11.0226 77.3608 11.0352L79.3569 11.16ZM79.5169 9.52L81.5023 9.76066V9.76066L79.5169 9.52ZM79.6169 8.68L81.6046 8.90087C81.6675 8.33546 81.4865 7.77006 81.1071 7.34616C80.7277 6.92227 80.1858 6.68 79.6169 6.68V8.68ZM79.5369 8.68V6.68C78.6348 6.68 77.8444 7.28382 77.6072 8.15411L79.5369 8.68ZM76.9969 18V20C77.8989 20 78.6893 19.3962 78.9265 18.5259L76.9969 18ZM73.5369 18L71.6086 18.5308C71.8475 19.3987 72.6367 20 73.5369 20V18ZM70.9769 8.7L72.9052 8.1692C72.6663 7.30134 71.877 6.7 70.9769 6.7V8.7ZM70.8969 8.7V6.7C70.328 6.7 69.786 6.94226 69.4066 7.36616C69.0272 7.79005 68.8463 8.35546 68.9091 8.92086L70.8969 8.7ZM70.9969 9.54L69.0114 9.78066C69.0142 9.80341 69.0173 9.82611 69.0209 9.84875L70.9969 9.54ZM71.1769 11.16L69.1835 11.3227L69.1838 11.3261L71.1769 11.16ZM71.2569 18V20C72.3614 20 73.2569 19.1046 73.2569 18H71.2569ZM67.1969 18H65.1969C65.1969 19.1046 66.0923 20 67.1969 20V18ZM67.1969 4.24V2.24C66.0923 2.24 65.1969 3.13543 65.1969 4.24H67.1969ZM73.4369 4.24L75.3716 3.73317C75.1411 2.85349 74.3462 2.24 73.4369 2.24V4.24ZM75.5169 12.18L73.5822 12.6868C73.8126 13.5665 74.6075 14.18 75.5169 14.18V12.18ZM75.5969 12.18V14.18C76.508 14.18 77.304 13.5642 77.5328 12.6823L75.5969 12.18ZM77.6569 4.24V2.24C76.7457 2.24 75.9498 2.85581 75.721 3.73774L77.6569 4.24ZM83.6769 4.24H85.6769C85.6769 3.13543 84.7814 2.24 83.6769 2.24V4.24ZM83.6769 18V20C84.7814 20 85.6769 19.1046 85.6769 18H83.6769ZM81.2969 18V13.04H77.2969V18H81.2969ZM81.2969 13.04C81.2969 12.4701 81.3155 11.8851 81.353 11.2848L77.3608 11.0352C77.3183 11.7149 77.2969 12.3832 77.2969 13.04H81.2969ZM81.3502 11.3227C81.4024 10.6844 81.4532 10.1657 81.5023 9.76066L77.5314 9.27934C77.4738 9.75431 77.4181 10.3289 77.3635 10.9973L81.3502 11.3227ZM81.5023 9.76066C81.5553 9.32376 81.59 9.03286 81.6046 8.90087L77.6291 8.45913C77.6171 8.56714 77.5851 8.83624 77.5314 9.27934L81.5023 9.76066ZM79.6169 6.68H79.5369V10.68H79.6169V6.68ZM77.6072 8.15411L75.0672 17.4741L78.9265 18.5259L81.4665 9.20588L77.6072 8.15411ZM76.9969 16H73.5369V20H76.9969V16ZM75.4651 17.4692L72.9052 8.1692L69.0486 9.23079L71.6086 18.5308L75.4651 17.4692ZM70.9769 6.7H70.8969V10.7H70.9769V6.7ZM68.9091 8.92086C68.9238 9.05286 68.9585 9.34377 69.0114 9.78066L72.9823 9.29934C72.9286 8.85623 72.8966 8.58714 72.8846 8.47914L68.9091 8.92086ZM69.0209 9.84875C69.0771 10.2091 69.1323 10.6961 69.1835 11.3227L73.1702 10.9973C73.1147 10.3173 73.0499 9.72426 72.9729 9.23124L69.0209 9.84875ZM69.1838 11.3261C69.2327 11.9134 69.2569 12.4846 69.2569 13.04H73.2569C73.2569 12.3687 73.2277 11.6866 73.17 10.9939L69.1838 11.3261ZM69.2569 13.04V18H73.2569V13.04H69.2569ZM71.2569 16H67.1969V20H71.2569V16ZM69.1969 18V4.24H65.1969V18H69.1969ZM67.1969 6.24H73.4369V2.24H67.1969V6.24ZM71.5022 4.74683L73.5822 12.6868L77.4516 11.6732L75.3716 3.73317L71.5022 4.74683ZM75.5169 14.18H75.5969V10.18H75.5169V14.18ZM77.5328 12.6823L79.5928 4.74226L75.721 3.73774L73.661 11.6777L77.5328 12.6823ZM77.6569 6.24H83.6769V2.24H77.6569V6.24ZM81.6769 4.24V18H85.6769V4.24H81.6769ZM83.6769 16H79.2969V20H83.6769V16ZM100.144 7.76V5.76C99.0392 5.76 98.1438 6.65543 98.1438 7.76H100.144ZM100.144 18V20C101.248 20 102.144 19.1046 102.144 18H100.144ZM95.7238 18H93.7238C93.7238 19.1046 94.6192 20 95.7238 20V18ZM95.7238 7.76H97.7238C97.7238 6.65543 96.8283 5.76 95.7238 5.76V7.76ZM91.2038 7.76H89.2038C89.2038 8.86457 90.0992 9.76 91.2038 9.76V7.76ZM91.2038 4.24V2.24C90.0992 2.24 89.2038 3.13543 89.2038 4.24H91.2038ZM104.644 4.24H106.644C106.644 3.13543 105.748 2.24 104.644 2.24V4.24ZM104.644 7.76V9.76C105.748 9.76 106.644 8.86457 106.644 7.76H104.644ZM98.1438 7.76V18H102.144V7.76H98.1438ZM100.144 16H95.7238V20H100.144V16ZM97.7238 18V7.76H93.7238V18H97.7238ZM95.7238 5.76H91.2038V9.76H95.7238V5.76ZM93.2038 7.76V4.24H89.2038V7.76H93.2038ZM91.2038 6.24H104.644V2.24H91.2038V6.24ZM102.644 4.24V7.76H106.644V4.24H102.644ZM104.644 5.76H100.144V9.76H104.644V5.76ZM114.11 18L112.194 18.5729C112.447 19.4198 113.226 20 114.11 20V18ZM113.53 16.06L115.446 15.4871C115.193 14.6402 114.414 14.06 113.53 14.06V16.06ZM108.71 16.06V14.06C107.826 14.06 107.047 14.6402 106.794 15.4871L108.71 16.06ZM108.13 18V20C109.014 20 109.793 19.4198 110.046 18.5729L108.13 18ZM103.61 18L101.731 17.3145C101.508 17.9278 101.597 18.6117 101.971 19.1465C102.346 19.6814 102.957 20 103.61 20V18ZM108.63 4.24V2.24C107.79 2.24 107.039 2.76519 106.751 3.55454L108.63 4.24ZM113.77 4.24L115.649 3.55454C115.361 2.76519 114.61 2.24 113.77 2.24V4.24ZM118.79 18V20C119.443 20 120.055 19.6814 120.429 19.1465C120.803 18.6117 120.893 17.9278 120.669 17.3145L118.79 18ZM109.63 12.98L107.713 12.4089C107.533 13.0141 107.649 13.669 108.027 14.1754C108.404 14.6817 108.999 14.98 109.63 14.98V12.98ZM112.61 12.98V14.98C113.24 14.98 113.834 14.6829 114.211 14.1784C114.589 13.6738 114.707 13.0208 114.529 12.4161L112.61 12.98ZM111.17 8.08L113.089 7.51609C112.839 6.66471 112.058 6.08 111.17 6.08V8.08ZM111.09 8.08V6.08C110.206 6.08 109.426 6.66112 109.173 7.50889L111.09 8.08ZM116.026 17.4271L115.446 15.4871L111.614 16.6329L112.194 18.5729L116.026 17.4271ZM113.53 14.06H108.71V18.06H113.53V14.06ZM106.794 15.4871L106.214 17.4271L110.046 18.5729L110.626 16.6329L106.794 15.4871ZM108.13 16H103.61V20H108.13V16ZM105.489 18.6855L110.509 4.92546L106.751 3.55454L101.731 17.3145L105.489 18.6855ZM108.63 6.24H113.77V2.24H108.63V6.24ZM111.891 4.92546L116.911 18.6855L120.669 17.3145L115.649 3.55454L111.891 4.92546ZM118.79 16H114.11V20H118.79V16ZM109.63 14.98H112.61V10.98H109.63V14.98ZM114.529 12.4161L113.089 7.51609L109.251 8.64391L110.691 13.5439L114.529 12.4161ZM111.17 6.08H111.09V10.08H111.17V6.08ZM109.173 7.50889L107.713 12.4089L111.547 13.5511L113.007 8.65111L109.173 7.50889ZM120.057 4.24V2.24C118.952 2.24 118.057 3.13543 118.057 4.24H120.057ZM131.957 4.24H133.957C133.957 3.13543 133.061 2.24 131.957 2.24V4.24ZM131.957 7.54V9.54C133.061 9.54 133.957 8.64457 133.957 7.54H131.957ZM124.477 7.54V5.54C123.372 5.54 122.477 6.43543 122.477 7.54H124.477ZM124.477 9.44H122.477C122.477 10.5446 123.372 11.44 124.477 11.44V9.44ZM130.877 9.44H132.877C132.877 8.33543 131.981 7.44 130.877 7.44V9.44ZM130.877 12.6V14.6C131.981 14.6 132.877 13.7046 132.877 12.6H130.877ZM124.477 12.6V10.6C123.372 10.6 122.477 11.4954 122.477 12.6H124.477ZM124.477 14.7H122.477C122.477 15.8046 123.372 16.7 124.477 16.7V14.7ZM132.097 14.7H134.097C134.097 13.5954 133.201 12.7 132.097 12.7V14.7ZM132.097 18V20C133.201 20 134.097 19.1046 134.097 18H132.097ZM120.057 18H118.057C118.057 19.1046 118.952 20 120.057 20V18ZM120.057 6.24H131.957V2.24H120.057V6.24ZM129.957 4.24V7.54H133.957V4.24H129.957ZM131.957 5.54H124.477V9.54H131.957V5.54ZM122.477 7.54V9.44H126.477V7.54H122.477ZM124.477 11.44H130.877V7.44H124.477V11.44ZM128.877 9.44V12.6H132.877V9.44H128.877ZM130.877 10.6H124.477V14.6H130.877V10.6ZM122.477 12.6V14.7H126.477V12.6H122.477ZM124.477 16.7H132.097V12.7H124.477V16.7ZM130.097 14.7V18H134.097V14.7H130.097ZM132.097 16H120.057V20H132.097V16ZM122.057 18V4.24H118.057V18H122.057ZM152.73 10.74L151.066 9.6306L151.066 9.6306L152.73 10.74ZM150.75 12.24L150.058 10.3638C149.516 10.5638 149.087 10.9879 148.882 11.5273C148.676 12.0666 148.713 12.6685 148.984 13.1783L150.75 12.24ZM153.81 18V20C154.512 20 155.163 19.632 155.524 19.0304C155.886 18.4288 155.906 17.6816 155.577 17.0617L153.81 18ZM148.85 18L147.052 18.8743C147.386 19.5629 148.085 20 148.85 20V18ZM146.41 12.98L148.209 12.1057C147.874 11.4171 147.176 10.98 146.41 10.98V12.98ZM144.77 12.98V10.98C143.666 10.98 142.77 11.8754 142.77 12.98H144.77ZM144.77 18V20C145.875 20 146.77 19.1046 146.77 18H144.77ZM140.35 18H138.35C138.35 19.1046 139.246 20 140.35 20V18ZM140.35 4.24V2.24C139.246 2.24 138.35 3.13543 138.35 4.24H140.35ZM151.29 4.82L150.316 6.56673C150.329 6.5741 150.343 6.58132 150.356 6.58839L151.29 4.82ZM152.87 6.36L151.104 7.29743C151.111 7.31189 151.119 7.32626 151.127 7.34052L152.87 6.36ZM148.55 7.74L147.136 9.15421V9.15421L148.55 7.74ZM144.77 7.38V5.38C143.666 5.38 142.77 6.27543 142.77 7.38H144.77ZM144.77 9.92H142.77C142.77 11.0246 143.666 11.92 144.77 11.92V9.92ZM148.55 9.56L149.965 10.9742C149.977 10.9615 149.99 10.9486 150.002 10.9355L148.55 9.56ZM151.41 8.46C151.41 8.9168 151.294 9.2887 151.066 9.6306L154.394 11.8494C155.073 10.8313 155.41 9.68319 155.41 8.46H151.41ZM151.066 9.6306C150.877 9.91369 150.582 10.1703 150.058 10.3638L151.443 14.1162C152.652 13.6697 153.676 12.9263 154.394 11.8494L151.066 9.6306ZM148.984 13.1783L152.044 18.9383L155.577 17.0617L152.517 11.3017L148.984 13.1783ZM153.81 16H148.85V20H153.81V16ZM150.649 17.1257L148.209 12.1057L144.612 13.8543L147.052 18.8743L150.649 17.1257ZM146.41 10.98H144.77V14.98H146.41V10.98ZM142.77 12.98V18H146.77V12.98H142.77ZM144.77 16H140.35V20H144.77V16ZM142.35 18V4.24H138.35V18H142.35ZM140.35 6.24H148.77V2.24H140.35V6.24ZM148.77 6.24C149.498 6.24 149.985 6.38187 150.316 6.56673L152.264 3.07327C151.209 2.48479 150.016 2.24 148.77 2.24V6.24ZM150.356 6.58839C150.738 6.79027 150.96 7.02706 151.104 7.29743L154.637 5.42257C154.087 4.38627 153.256 3.5964 152.225 3.05161L150.356 6.58839ZM151.127 7.34052C151.313 7.67043 151.41 8.03095 151.41 8.46H155.41C155.41 7.36905 155.148 6.32957 154.613 5.37948L151.127 7.34052ZM150.91 8.64C150.91 7.78528 150.604 6.96538 149.965 6.32579L147.136 9.15421C147.074 9.09253 147.009 9.00187 146.963 8.88778C146.919 8.77603 146.91 8.68543 146.91 8.64H150.91ZM149.965 6.32579C149.341 5.70182 148.535 5.38 147.67 5.38V9.38C147.608 9.38 147.508 9.36829 147.393 9.32109C147.277 9.27356 147.19 9.20853 147.136 9.15421L149.965 6.32579ZM147.67 5.38H144.77V9.38H147.67V5.38ZM142.77 7.38V9.92H146.77V7.38H142.77ZM144.77 11.92H147.67V7.92H144.77V11.92ZM147.67 11.92C148.535 11.92 149.341 11.5982 149.965 10.9742L147.136 8.14579C147.19 8.09146 147.277 8.02644 147.393 7.97891C147.508 7.93171 147.608 7.92 147.67 7.92V11.92ZM150.002 10.9355C150.606 10.2978 150.91 9.49379 150.91 8.64H146.91C146.91 8.59392 146.919 8.51086 146.958 8.4112C146.997 8.31043 147.052 8.23362 147.098 8.18451L150.002 10.9355ZM164.737 18L162.821 18.5729C163.074 19.4198 163.853 20 164.737 20V18ZM164.157 16.06L166.073 15.4871C165.82 14.6402 165.041 14.06 164.157 14.06V16.06ZM159.337 16.06V14.06C158.453 14.06 157.674 14.6402 157.421 15.4871L159.337 16.06ZM158.757 18V20C159.641 20 160.42 19.4198 160.673 18.5729L158.757 18ZM154.237 18L152.358 17.3145C152.134 17.9278 152.224 18.6117 152.598 19.1465C152.972 19.6814 153.584 20 154.237 20V18ZM159.257 4.24V2.24C158.416 2.24 157.666 2.76519 157.378 3.55454L159.257 4.24ZM164.397 4.24L166.276 3.55454C165.988 2.76519 165.237 2.24 164.397 2.24V4.24ZM169.417 18V20C170.07 20 170.681 19.6814 171.055 19.1465C171.43 18.6117 171.519 17.9278 171.296 17.3145L169.417 18ZM160.257 12.98L158.34 12.4089C158.16 13.0141 158.276 13.669 158.653 14.1754C159.031 14.6817 159.625 14.98 160.257 14.98V12.98ZM163.237 12.98V14.98C163.867 14.98 164.46 14.6829 164.838 14.1784C165.216 13.6738 165.333 13.0208 165.156 12.4161L163.237 12.98ZM161.797 8.08L163.716 7.51609C163.465 6.66471 162.684 6.08 161.797 6.08V8.08ZM161.717 8.08V6.08C160.832 6.08 160.053 6.66112 159.8 7.50889L161.717 8.08ZM166.653 17.4271L166.073 15.4871L162.241 16.6329L162.821 18.5729L166.653 17.4271ZM164.157 14.06H159.337V18.06H164.157V14.06ZM157.421 15.4871L156.841 17.4271L160.673 18.5729L161.253 16.6329L157.421 15.4871ZM158.757 16H154.237V20H158.757V16ZM156.116 18.6855L161.136 4.92546L157.378 3.55454L152.358 17.3145L156.116 18.6855ZM159.257 6.24H164.397V2.24H159.257V6.24ZM162.518 4.92546L167.538 18.6855L171.296 17.3145L166.276 3.55454L162.518 4.92546ZM169.417 16H164.737V20H169.417V16ZM160.257 14.98H163.237V10.98H160.257V14.98ZM165.156 12.4161L163.716 7.51609L159.878 8.64391L161.318 13.5439L165.156 12.4161ZM161.797 6.08H161.717V10.08H161.797V6.08ZM159.8 7.50889L158.34 12.4089L162.173 13.5511L163.633 8.65111L159.8 7.50889ZM170.683 4.24V2.24C169.579 2.24 168.683 3.13543 168.683 4.24H170.683ZM182.583 4.24H184.583C184.583 3.13543 183.688 2.24 182.583 2.24V4.24ZM182.583 7.54V9.54C183.688 9.54 184.583 8.64457 184.583 7.54H182.583ZM175.103 7.54V5.54C173.999 5.54 173.103 6.43543 173.103 7.54H175.103ZM175.103 9.44H173.103C173.103 10.5446 173.999 11.44 175.103 11.44V9.44ZM181.503 9.44H183.503C183.503 8.33543 182.608 7.44 181.503 7.44V9.44ZM181.503 12.6V14.6C182.608 14.6 183.503 13.7046 183.503 12.6H181.503ZM175.103 12.6V10.6C173.999 10.6 173.103 11.4954 173.103 12.6H175.103ZM175.103 14.7H173.103C173.103 15.8046 173.999 16.7 175.103 16.7V14.7ZM182.723 14.7H184.723C184.723 13.5954 183.828 12.7 182.723 12.7V14.7ZM182.723 18V20C183.828 20 184.723 19.1046 184.723 18H182.723ZM170.683 18H168.683C168.683 19.1046 169.579 20 170.683 20V18ZM170.683 6.24H182.583V2.24H170.683V6.24ZM180.583 4.24V7.54H184.583V4.24H180.583ZM182.583 5.54H175.103V9.54H182.583V5.54ZM173.103 7.54V9.44H177.103V7.54H173.103ZM175.103 11.44H181.503V7.44H175.103V11.44ZM179.503 9.44V12.6H183.503V9.44H179.503ZM181.503 10.6H175.103V14.6H181.503V10.6ZM173.103 12.6V14.7H177.103V12.6H173.103ZM175.103 16.7H182.723V12.7H175.103V16.7ZM180.723 14.7V18H184.723V14.7H180.723ZM182.723 16H170.683V20H182.723V16ZM172.683 18V4.24H168.683V18H172.683Z" fill="white" mask="url(#path-3-outside-2_2005_2860)"/>
</svg>
