<svg width="226" height="22" viewBox="0 0 226 22" fill="none" xmlns="http://www.w3.org/2000/svg">
<mask id="path-1-outside-1_2005_2932" maskUnits="userSpaceOnUse" x="46" y="0" width="134" height="23" fill="black">
<rect fill="white" x="46" width="134" height="23"/>
<path d="M59.4565 18V12.78H54.5965V18H50.1765V4.24H54.5965V9.26H59.4565V4.24H63.8765V18H59.4565ZM75.6566 18L75.0766 16.06H70.2566L69.6766 18H65.1566L70.1766 4.24H75.3166L80.3366 18H75.6566ZM71.1766 12.98H74.1566L72.7166 8.08H72.6366L71.1766 12.98ZM91.443 18L85.663 11.32V18H81.603V4.24H85.463L91.243 11.02V4.24H95.303V18H91.443ZM112.663 18H108.243V12.66L102.783 4.24H107.863L110.503 8.82H110.583L113.223 4.24H118.043L112.663 12.66V18ZM132.99 12.46C132.99 14.34 132.396 15.7733 131.21 16.76C130.023 17.7467 128.336 18.24 126.15 18.24C123.963 18.24 122.27 17.7467 121.07 16.76C119.883 15.7733 119.29 14.34 119.29 12.46V4.24H123.71V12.4C123.71 13.1733 123.916 13.7933 124.33 14.26C124.743 14.7133 125.343 14.94 126.13 14.94C126.916 14.94 127.516 14.7067 127.93 14.24C128.356 13.7733 128.57 13.16 128.57 12.4V4.24H132.99V12.46ZM152.19 13.22C152.19 14.94 151.697 16.2067 150.71 17.02C149.737 17.8333 148.33 18.24 146.49 18.24C144.65 18.24 143.237 17.8333 142.25 17.02C141.277 16.2067 140.79 14.94 140.79 13.22V13.04H144.93V13.2C144.93 13.8267 145.043 14.2733 145.27 14.54C145.51 14.8067 145.87 14.94 146.35 14.94C146.83 14.94 147.183 14.8067 147.41 14.54C147.65 14.2733 147.77 13.8267 147.77 13.2V4.24H152.19V13.22ZM154.95 18V4.24H159.37V18H154.95ZM171.963 18L166.183 11.32V18H162.123V4.24H165.983L171.763 11.02V4.24H175.823V18H171.963Z"/>
</mask>
<path d="M59.4565 18V12.78H54.5965V18H50.1765V4.24H54.5965V9.26H59.4565V4.24H63.8765V18H59.4565ZM75.6566 18L75.0766 16.06H70.2566L69.6766 18H65.1566L70.1766 4.24H75.3166L80.3366 18H75.6566ZM71.1766 12.98H74.1566L72.7166 8.08H72.6366L71.1766 12.98ZM91.443 18L85.663 11.32V18H81.603V4.24H85.463L91.243 11.02V4.24H95.303V18H91.443ZM112.663 18H108.243V12.66L102.783 4.24H107.863L110.503 8.82H110.583L113.223 4.24H118.043L112.663 12.66V18ZM132.99 12.46C132.99 14.34 132.396 15.7733 131.21 16.76C130.023 17.7467 128.336 18.24 126.15 18.24C123.963 18.24 122.27 17.7467 121.07 16.76C119.883 15.7733 119.29 14.34 119.29 12.46V4.24H123.71V12.4C123.71 13.1733 123.916 13.7933 124.33 14.26C124.743 14.7133 125.343 14.94 126.13 14.94C126.916 14.94 127.516 14.7067 127.93 14.24C128.356 13.7733 128.57 13.16 128.57 12.4V4.24H132.99V12.46ZM152.19 13.22C152.19 14.94 151.697 16.2067 150.71 17.02C149.737 17.8333 148.33 18.24 146.49 18.24C144.65 18.24 143.237 17.8333 142.25 17.02C141.277 16.2067 140.79 14.94 140.79 13.22V13.04H144.93V13.2C144.93 13.8267 145.043 14.2733 145.27 14.54C145.51 14.8067 145.87 14.94 146.35 14.94C146.83 14.94 147.183 14.8067 147.41 14.54C147.65 14.2733 147.77 13.8267 147.77 13.2V4.24H152.19V13.22ZM154.95 18V4.24H159.37V18H154.95ZM171.963 18L166.183 11.32V18H162.123V4.24H165.983L171.763 11.02V4.24H175.823V18H171.963Z" fill="black"/>
<path d="M59.4565 18H55.4565C55.4565 20.2091 57.2473 22 59.4565 22V18ZM59.4565 12.78H63.4565C63.4565 10.5709 61.6656 8.78 59.4565 8.78V12.78ZM54.5965 12.78V8.78C52.3873 8.78 50.5965 10.5709 50.5965 12.78H54.5965ZM54.5965 18V22C56.8056 22 58.5965 20.2091 58.5965 18H54.5965ZM50.1765 18H46.1765C46.1765 20.2091 47.9674 22 50.1765 22V18ZM50.1765 4.24V0.24C47.9674 0.24 46.1765 2.03086 46.1765 4.24H50.1765ZM54.5965 4.24H58.5965C58.5965 2.03086 56.8056 0.24 54.5965 0.24V4.24ZM54.5965 9.26H50.5965C50.5965 11.4691 52.3873 13.26 54.5965 13.26V9.26ZM59.4565 9.26V13.26C61.6656 13.26 63.4565 11.4691 63.4565 9.26H59.4565ZM59.4565 4.24V0.24C57.2473 0.24 55.4565 2.03086 55.4565 4.24H59.4565ZM63.8765 4.24H67.8765C67.8765 2.03086 66.0856 0.24 63.8765 0.24V4.24ZM63.8765 18V22C66.0856 22 67.8765 20.2091 67.8765 18H63.8765ZM63.4565 18V12.78H55.4565V18H63.4565ZM59.4565 8.78H54.5965V16.78H59.4565V8.78ZM50.5965 12.78V18H58.5965V12.78H50.5965ZM54.5965 14H50.1765V22H54.5965V14ZM54.1765 18V4.24H46.1765V18H54.1765ZM50.1765 8.24H54.5965V0.24H50.1765V8.24ZM50.5965 4.24V9.26H58.5965V4.24H50.5965ZM54.5965 13.26H59.4565V5.26H54.5965V13.26ZM63.4565 9.26V4.24H55.4565V9.26H63.4565ZM59.4565 8.24H63.8765V0.24H59.4565V8.24ZM59.8765 4.24V18H67.8765V4.24H59.8765ZM63.8765 14H59.4565V22H63.8765V14ZM75.6566 18L71.8242 19.1458C72.3306 20.8395 73.8888 22 75.6566 22V18ZM75.0766 16.06L78.909 14.9142C78.4027 13.2205 76.8445 12.06 75.0766 12.06V16.06ZM70.2566 16.06V12.06C68.4888 12.06 66.9306 13.2205 66.4243 14.9142L70.2566 16.06ZM69.6766 18V22C71.4445 22 73.0027 20.8395 73.509 19.1458L69.6766 18ZM65.1566 18L61.3989 16.6291C60.9514 17.8556 61.1307 19.2233 61.8792 20.2931C62.6276 21.3628 63.8511 22 65.1566 22V18ZM70.1766 4.24V0.24C68.4962 0.24 66.9949 1.29037 66.4189 2.86908L70.1766 4.24ZM75.3166 4.24L79.0744 2.86908C78.4984 1.29037 76.9971 0.24 75.3166 0.24V4.24ZM80.3366 18V22C81.6422 22 82.8657 21.3628 83.6141 20.2931C84.3626 19.2233 84.5418 17.8556 84.0944 16.6291L80.3366 18ZM71.1766 12.98L67.3432 11.8378C66.9825 13.0483 67.2148 14.3581 67.9697 15.3707C68.7246 16.3834 69.9135 16.98 71.1766 16.98V12.98ZM74.1566 12.98V16.98C75.4171 16.98 76.6038 16.3859 77.3591 15.3767C78.1143 14.3676 78.3497 13.0615 77.9944 11.8522L74.1566 12.98ZM72.7166 8.08L76.5544 6.95218C76.054 5.24943 74.4914 4.08 72.7166 4.08V8.08ZM72.6366 8.08V4.08C70.8674 4.08 69.3084 5.24225 68.8032 6.93779L72.6366 8.08ZM79.489 16.8542L78.909 14.9142L71.2443 17.2058L71.8242 19.1458L79.489 16.8542ZM75.0766 12.06H70.2566V20.06H75.0766V12.06ZM66.4243 14.9142L65.8443 16.8542L73.509 19.1458L74.089 17.2058L66.4243 14.9142ZM69.6766 14H65.1566V22H69.6766V14ZM68.9144 19.3709L73.9344 5.61092L66.4189 2.86908L61.3989 16.6291L68.9144 19.3709ZM70.1766 8.24H75.3166V0.24H70.1766V8.24ZM71.5589 5.61092L76.5789 19.3709L84.0944 16.6291L79.0744 2.86908L71.5589 5.61092ZM80.3366 14H75.6566V22H80.3366V14ZM71.1766 16.98H74.1566V8.98H71.1766V16.98ZM77.9944 11.8522L76.5544 6.95218L68.8789 9.20782L70.3189 14.1078L77.9944 11.8522ZM72.7166 4.08H72.6366V12.08H72.7166V4.08ZM68.8032 6.93779L67.3432 11.8378L75.0101 14.1222L76.4701 9.22221L68.8032 6.93779ZM91.443 18L88.4182 20.6173C89.178 21.4954 90.2819 22 91.443 22V18ZM85.663 11.32L88.6879 8.70269C87.5948 7.43945 85.8319 6.98848 84.2665 7.57171C82.7011 8.15493 81.663 9.64951 81.663 11.32H85.663ZM85.663 18V22C87.8722 22 89.663 20.2091 89.663 18H85.663ZM81.6031 18H77.6031C77.6031 20.2091 79.3939 22 81.6031 22V18ZM81.6031 4.24V0.24C79.3939 0.24 77.6031 2.03086 77.6031 4.24H81.6031ZM85.4631 4.24L88.507 1.64498C87.7471 0.753513 86.6345 0.24 85.4631 0.24V4.24ZM91.243 11.02L88.1991 13.615C89.2863 14.8904 91.0533 15.3527 92.6258 14.7734C94.1984 14.1941 95.243 12.6959 95.243 11.02H91.243ZM91.243 4.24V0.24C89.0339 0.24 87.243 2.03086 87.243 4.24H91.243ZM95.303 4.24H99.303C99.303 2.03086 97.5122 0.24 95.303 0.24V4.24ZM95.303 18V22C97.5122 22 99.303 20.2091 99.303 18H95.303ZM94.4679 15.3827L88.6879 8.70269L82.6382 13.9373L88.4182 20.6173L94.4679 15.3827ZM81.663 11.32V18H89.663V11.32H81.663ZM85.663 14H81.6031V22H85.663V14ZM85.6031 18V4.24H77.6031V18H85.6031ZM81.6031 8.24H85.4631V0.24H81.6031V8.24ZM82.4191 6.83502L88.1991 13.615L94.287 8.42498L88.507 1.64498L82.4191 6.83502ZM95.243 11.02V4.24H87.243V11.02H95.243ZM91.243 8.24H95.303V0.24H91.243V8.24ZM91.303 4.24V18H99.303V4.24H91.303ZM95.303 14H91.443V22H95.303V14ZM112.663 18V22C114.873 22 116.663 20.2091 116.663 18H112.663ZM108.243 18H104.243C104.243 20.2091 106.034 22 108.243 22V18ZM108.243 12.66H112.243C112.243 11.8876 112.02 11.1317 111.6 10.4837L108.243 12.66ZM102.783 4.24V0.24C101.317 0.24 99.9687 1.04202 99.2687 2.33019C98.5688 3.61835 98.6296 5.18623 99.4272 6.41631L102.783 4.24ZM107.863 4.24L111.329 2.24242C110.615 1.00345 109.293 0.24 107.863 0.24V4.24ZM110.503 8.82L107.038 10.8176C107.752 12.0565 109.073 12.82 110.503 12.82V8.82ZM110.583 8.82V12.82C112.013 12.82 113.335 12.0565 114.049 10.8176L110.583 8.82ZM113.223 4.24V0.24C111.793 0.24 110.472 1.00345 109.758 2.24242L113.223 4.24ZM118.043 4.24L121.414 6.39371C122.201 5.16237 122.254 3.59998 121.552 2.31839C120.85 1.03681 119.505 0.24 118.043 0.24V4.24ZM112.663 12.66L109.293 10.5063C108.882 11.1494 108.663 11.8968 108.663 12.66H112.663ZM112.663 14H108.243V22H112.663V14ZM112.243 18V12.66H104.243V18H112.243ZM111.6 10.4837L106.14 2.06369L99.4272 6.41631L104.887 14.8363L111.6 10.4837ZM102.783 8.24H107.863V0.24H102.783V8.24ZM104.398 6.23758L107.038 10.8176L113.969 6.82242L111.329 2.24242L104.398 6.23758ZM110.503 12.82H110.583V4.82H110.503V12.82ZM114.049 10.8176L116.689 6.23758L109.758 2.24242L107.118 6.82242L114.049 10.8176ZM113.223 8.24H118.043V0.24H113.223V8.24ZM114.673 2.08628L109.293 10.5063L116.034 14.8137L121.414 6.39371L114.673 2.08628ZM108.663 12.66V18H116.663V12.66H108.663ZM131.21 16.76L128.652 13.6843V13.6843L131.21 16.76ZM121.07 16.76L118.512 19.8357C118.518 19.8404 118.524 19.8451 118.529 19.8497L121.07 16.76ZM119.29 4.24V0.24C117.081 0.24 115.29 2.03086 115.29 4.24H119.29ZM123.71 4.24H127.71C127.71 2.03086 125.919 0.24 123.71 0.24V4.24ZM124.33 14.26L121.335 16.9121C121.348 16.9265 121.361 16.9408 121.374 16.955L124.33 14.26ZM127.93 14.24L124.978 11.5409C124.963 11.5565 124.949 11.5721 124.935 11.5879L127.93 14.24ZM128.57 4.24V0.24C126.361 0.24 124.57 2.03086 124.57 4.24H128.57ZM132.99 4.24H136.99C136.99 2.03086 135.199 0.24 132.99 0.24V4.24ZM128.99 12.46C128.99 13.4362 128.727 13.6226 128.652 13.6843L133.767 19.8357C136.066 17.924 136.99 15.2438 136.99 12.46H128.99ZM128.652 13.6843C128.432 13.8675 127.785 14.24 126.15 14.24V22.24C128.887 22.24 131.614 21.6258 133.767 19.8357L128.652 13.6843ZM126.15 14.24C124.518 14.24 123.852 13.869 123.61 13.6703L118.529 19.8497C120.688 21.6243 123.408 22.24 126.15 22.24V14.24ZM123.627 13.6843C123.553 13.6226 123.29 13.4362 123.29 12.46H115.29C115.29 15.2438 116.213 17.924 118.512 19.8357L123.627 13.6843ZM123.29 12.46V4.24H115.29V12.46H123.29ZM119.29 8.24H123.71V0.24H119.29V8.24ZM119.71 4.24V12.4H127.71V4.24H119.71ZM119.71 12.4C119.71 13.9061 120.129 15.5496 121.335 16.9121L127.324 11.6079C127.492 11.7977 127.601 12.0037 127.66 12.1801C127.714 12.3449 127.71 12.4334 127.71 12.4H119.71ZM121.374 16.955C122.746 18.46 124.556 18.94 126.13 18.94V10.94C126.114 10.94 126.262 10.937 126.503 11.0281C126.765 11.127 127.048 11.3048 127.286 11.565L121.374 16.955ZM126.13 18.94C127.739 18.94 129.561 18.4307 130.924 16.8921L124.935 11.5879C125.165 11.3289 125.447 11.1432 125.72 11.037C125.846 10.988 125.95 10.9637 126.021 10.9517C126.056 10.9458 126.084 10.9429 126.102 10.9414C126.12 10.94 126.129 10.94 126.13 10.94V18.94ZM130.882 16.9391C132.114 15.5918 132.57 13.9461 132.57 12.4H124.57C124.57 12.4072 124.569 12.2969 124.632 12.1159C124.699 11.9238 124.815 11.7193 124.978 11.5409L130.882 16.9391ZM132.57 12.4V4.24H124.57V12.4H132.57ZM128.57 8.24H132.99V0.24H128.57V8.24ZM128.99 4.24V12.46H136.99V4.24H128.99ZM150.71 17.02L148.166 13.9335C148.159 13.9392 148.152 13.9448 148.145 13.9506L150.71 17.02ZM142.25 17.02L139.685 20.0894C139.692 20.0952 139.699 20.1008 139.706 20.1065L142.25 17.02ZM140.79 13.04V9.04C138.581 9.04 136.79 10.8309 136.79 13.04H140.79ZM144.93 13.04H148.93C148.93 10.8309 147.139 9.04 144.93 9.04V13.04ZM145.27 14.54L142.222 17.1306C142.247 17.1594 142.272 17.1878 142.297 17.2159L145.27 14.54ZM147.41 14.54L144.437 11.8641C144.412 11.8922 144.387 11.9206 144.362 11.9494L147.41 14.54ZM147.77 4.24V0.24C145.561 0.24 143.77 2.03086 143.77 4.24H147.77ZM152.19 4.24H156.19C156.19 2.03086 154.399 0.24 152.19 0.24V4.24ZM148.19 13.22C148.19 13.7097 148.118 13.9425 148.093 14.0083C148.081 14.0376 148.08 14.0315 148.098 14.006C148.117 13.9794 148.142 13.9531 148.166 13.9335L153.254 20.1065C155.455 18.2927 156.19 15.6963 156.19 13.22H148.19ZM148.145 13.9506C148.145 13.9506 148.066 14.0195 147.814 14.0924C147.551 14.1686 147.126 14.24 146.49 14.24V22.24C148.855 22.24 151.319 21.7239 153.275 20.0894L148.145 13.9506ZM146.49 14.24C145.18 14.24 144.808 13.9447 144.794 13.9335L139.706 20.1065C141.665 21.7219 144.12 22.24 146.49 22.24V14.24ZM144.815 13.9506C144.841 13.9725 144.867 14.0003 144.885 14.0269C144.903 14.0524 144.901 14.0571 144.889 14.0254C144.862 13.9542 144.79 13.7152 144.79 13.22H136.79C136.79 15.679 137.508 18.2701 139.685 20.0894L144.815 13.9506ZM144.79 13.22V13.04H136.79V13.22H144.79ZM140.79 17.04H144.93V9.04H140.79V17.04ZM140.93 13.04V13.2H148.93V13.04H140.93ZM140.93 13.2C140.93 14.1042 141.054 15.7556 142.222 17.1306L148.318 11.9494C148.705 12.4046 148.844 12.8324 148.892 13.0212C148.94 13.2111 148.93 13.2917 148.93 13.2H140.93ZM142.297 17.2159C143.528 18.584 145.138 18.94 146.35 18.94V10.94C146.602 10.94 147.492 11.0293 148.243 11.8641L142.297 17.2159ZM146.35 18.94C147.546 18.94 149.218 18.5896 150.458 17.1306L144.362 11.9494C145.149 11.0238 146.114 10.94 146.35 10.94V18.94ZM150.383 17.2159C151.627 15.8338 151.77 14.1417 151.77 13.2H143.77C143.77 13.2779 143.76 13.1778 143.817 12.9672C143.875 12.7524 144.031 12.3147 144.437 11.8641L150.383 17.2159ZM151.77 13.2V4.24H143.77V13.2H151.77ZM147.77 8.24H152.19V0.24H147.77V8.24ZM148.19 4.24V13.22H156.19V4.24H148.19ZM154.95 18H150.95C150.95 20.2091 152.741 22 154.95 22V18ZM154.95 4.24V0.24C152.741 0.24 150.95 2.03086 150.95 4.24H154.95ZM159.37 4.24H163.37C163.37 2.03086 161.579 0.24 159.37 0.24V4.24ZM159.37 18V22C161.579 22 163.37 20.2091 163.37 18H159.37ZM158.95 18V4.24H150.95V18H158.95ZM154.95 8.24H159.37V0.24H154.95V8.24ZM155.37 4.24V18H163.37V4.24H155.37ZM159.37 14H154.95V22H159.37V14ZM171.963 18L168.939 20.6173C169.698 21.4954 170.802 22 171.963 22V18ZM166.183 11.32L169.208 8.70269C168.115 7.43945 166.352 6.98848 164.787 7.57171C163.221 8.15493 162.183 9.64951 162.183 11.32H166.183ZM166.183 18V22C168.393 22 170.183 20.2091 170.183 18H166.183ZM162.123 18H158.123C158.123 20.2091 159.914 22 162.123 22V18ZM162.123 4.24V0.24C159.914 0.24 158.123 2.03086 158.123 4.24H162.123ZM165.983 4.24L169.027 1.64498C168.267 0.753513 167.155 0.24 165.983 0.24V4.24ZM171.763 11.02L168.719 13.615C169.807 14.8904 171.574 15.3527 173.146 14.7734C174.719 14.1941 175.763 12.6959 175.763 11.02H171.763ZM171.763 4.24V0.24C169.554 0.24 167.763 2.03086 167.763 4.24H171.763ZM175.823 4.24H179.823C179.823 2.03086 178.033 0.24 175.823 0.24V4.24ZM175.823 18V22C178.033 22 179.823 20.2091 179.823 18H175.823ZM174.988 15.3827L169.208 8.70269L163.159 13.9373L168.939 20.6173L174.988 15.3827ZM162.183 11.32V18H170.183V11.32H162.183ZM166.183 14H162.123V22H166.183V14ZM166.123 18V4.24H158.123V18H166.123ZM162.123 8.24H165.983V0.24H162.123V8.24ZM162.939 6.83502L168.719 13.615L174.807 8.42498L169.027 1.64498L162.939 6.83502ZM175.763 11.02V4.24H167.763V11.02H175.763ZM171.763 8.24H175.823V0.24H171.763V8.24ZM171.823 4.24V18H179.823V4.24H171.823ZM175.823 14H171.963V22H175.823V14Z" fill="#468ED3" mask="url(#path-1-outside-1_2005_2932)"/>
<mask id="path-3-outside-2_2005_2932" maskUnits="userSpaceOnUse" x="48" y="2" width="130" height="19" fill="black">
<rect fill="white" x="48" y="2" width="130" height="19"/>
<path d="M59.4565 18V12.78H54.5965V18H50.1765V4.24H54.5965V9.26H59.4565V4.24H63.8765V18H59.4565ZM75.6566 18L75.0766 16.06H70.2566L69.6766 18H65.1566L70.1766 4.24H75.3166L80.3366 18H75.6566ZM71.1766 12.98H74.1566L72.7166 8.08H72.6366L71.1766 12.98ZM91.443 18L85.663 11.32V18H81.603V4.24H85.463L91.243 11.02V4.24H95.303V18H91.443ZM112.663 18H108.243V12.66L102.783 4.24H107.863L110.503 8.82H110.583L113.223 4.24H118.043L112.663 12.66V18ZM132.99 12.46C132.99 14.34 132.396 15.7733 131.21 16.76C130.023 17.7467 128.336 18.24 126.15 18.24C123.963 18.24 122.27 17.7467 121.07 16.76C119.883 15.7733 119.29 14.34 119.29 12.46V4.24H123.71V12.4C123.71 13.1733 123.916 13.7933 124.33 14.26C124.743 14.7133 125.343 14.94 126.13 14.94C126.916 14.94 127.516 14.7067 127.93 14.24C128.356 13.7733 128.57 13.16 128.57 12.4V4.24H132.99V12.46ZM152.19 13.22C152.19 14.94 151.697 16.2067 150.71 17.02C149.737 17.8333 148.33 18.24 146.49 18.24C144.65 18.24 143.237 17.8333 142.25 17.02C141.277 16.2067 140.79 14.94 140.79 13.22V13.04H144.93V13.2C144.93 13.8267 145.043 14.2733 145.27 14.54C145.51 14.8067 145.87 14.94 146.35 14.94C146.83 14.94 147.183 14.8067 147.41 14.54C147.65 14.2733 147.77 13.8267 147.77 13.2V4.24H152.19V13.22ZM154.95 18V4.24H159.37V18H154.95ZM171.963 18L166.183 11.32V18H162.123V4.24H165.983L171.763 11.02V4.24H175.823V18H171.963Z"/>
</mask>
<path d="M59.4565 18V12.78H54.5965V18H50.1765V4.24H54.5965V9.26H59.4565V4.24H63.8765V18H59.4565ZM75.6566 18L75.0766 16.06H70.2566L69.6766 18H65.1566L70.1766 4.24H75.3166L80.3366 18H75.6566ZM71.1766 12.98H74.1566L72.7166 8.08H72.6366L71.1766 12.98ZM91.443 18L85.663 11.32V18H81.603V4.24H85.463L91.243 11.02V4.24H95.303V18H91.443ZM112.663 18H108.243V12.66L102.783 4.24H107.863L110.503 8.82H110.583L113.223 4.24H118.043L112.663 12.66V18ZM132.99 12.46C132.99 14.34 132.396 15.7733 131.21 16.76C130.023 17.7467 128.336 18.24 126.15 18.24C123.963 18.24 122.27 17.7467 121.07 16.76C119.883 15.7733 119.29 14.34 119.29 12.46V4.24H123.71V12.4C123.71 13.1733 123.916 13.7933 124.33 14.26C124.743 14.7133 125.343 14.94 126.13 14.94C126.916 14.94 127.516 14.7067 127.93 14.24C128.356 13.7733 128.57 13.16 128.57 12.4V4.24H132.99V12.46ZM152.19 13.22C152.19 14.94 151.697 16.2067 150.71 17.02C149.737 17.8333 148.33 18.24 146.49 18.24C144.65 18.24 143.237 17.8333 142.25 17.02C141.277 16.2067 140.79 14.94 140.79 13.22V13.04H144.93V13.2C144.93 13.8267 145.043 14.2733 145.27 14.54C145.51 14.8067 145.87 14.94 146.35 14.94C146.83 14.94 147.183 14.8067 147.41 14.54C147.65 14.2733 147.77 13.8267 147.77 13.2V4.24H152.19V13.22ZM154.95 18V4.24H159.37V18H154.95ZM171.963 18L166.183 11.32V18H162.123V4.24H165.983L171.763 11.02V4.24H175.823V18H171.963Z" fill="black"/>
<path d="M59.4565 18H57.4565C57.4565 19.1046 58.3519 20 59.4565 20V18ZM59.4565 12.78H61.4565C61.4565 11.6754 60.5611 10.78 59.4565 10.78V12.78ZM54.5965 12.78V10.78C53.4919 10.78 52.5965 11.6754 52.5965 12.78H54.5965ZM54.5965 18V20C55.7011 20 56.5965 19.1046 56.5965 18H54.5965ZM50.1765 18H48.1765C48.1765 19.1046 49.0719 20 50.1765 20V18ZM50.1765 4.24V2.24C49.0719 2.24 48.1765 3.13543 48.1765 4.24H50.1765ZM54.5965 4.24H56.5965C56.5965 3.13543 55.7011 2.24 54.5965 2.24V4.24ZM54.5965 9.26H52.5965C52.5965 10.3646 53.4919 11.26 54.5965 11.26V9.26ZM59.4565 9.26V11.26C60.5611 11.26 61.4565 10.3646 61.4565 9.26H59.4565ZM59.4565 4.24V2.24C58.3519 2.24 57.4565 3.13543 57.4565 4.24H59.4565ZM63.8765 4.24H65.8765C65.8765 3.13543 64.9811 2.24 63.8765 2.24V4.24ZM63.8765 18V20C64.9811 20 65.8765 19.1046 65.8765 18H63.8765ZM61.4565 18V12.78H57.4565V18H61.4565ZM59.4565 10.78H54.5965V14.78H59.4565V10.78ZM52.5965 12.78V18H56.5965V12.78H52.5965ZM54.5965 16H50.1765V20H54.5965V16ZM52.1765 18V4.24H48.1765V18H52.1765ZM50.1765 6.24H54.5965V2.24H50.1765V6.24ZM52.5965 4.24V9.26H56.5965V4.24H52.5965ZM54.5965 11.26H59.4565V7.26H54.5965V11.26ZM61.4565 9.26V4.24H57.4565V9.26H61.4565ZM59.4565 6.24H63.8765V2.24H59.4565V6.24ZM61.8765 4.24V18H65.8765V4.24H61.8765ZM63.8765 16H59.4565V20H63.8765V16ZM75.6566 18L73.7404 18.5729C73.9936 19.4198 74.7727 20 75.6566 20V18ZM75.0766 16.06L76.9928 15.4871C76.7396 14.6402 75.9606 14.06 75.0766 14.06V16.06ZM70.2566 16.06V14.06C69.3727 14.06 68.5936 14.6402 68.3404 15.4871L70.2566 16.06ZM69.6766 18V20C70.5606 20 71.3396 19.4198 71.5928 18.5729L69.6766 18ZM65.1566 18L63.2778 17.3145C63.054 17.9278 63.1437 18.6117 63.5179 19.1465C63.8921 19.6814 64.5038 20 65.1566 20V18ZM70.1766 4.24V2.24C69.3364 2.24 68.5857 2.76519 68.2978 3.55454L70.1766 4.24ZM75.3166 4.24L77.1955 3.55454C76.9075 2.76519 76.1569 2.24 75.3166 2.24V4.24ZM80.3366 18V20C80.9894 20 81.6012 19.6814 81.9754 19.1465C82.3496 18.6117 82.4392 17.9278 82.2155 17.3145L80.3366 18ZM71.1766 12.98L69.2599 12.4089C69.0796 13.0141 69.1957 13.669 69.5732 14.1754C69.9506 14.6817 70.5451 14.98 71.1766 14.98V12.98ZM74.1566 12.98V14.98C74.7869 14.98 75.3802 14.6829 75.7579 14.1784C76.1355 13.6738 76.2532 13.0208 76.0755 12.4161L74.1566 12.98ZM72.7166 8.08L74.6355 7.51609C74.3853 6.66471 73.604 6.08 72.7166 6.08V8.08ZM72.6366 8.08V6.08C71.752 6.08 70.9725 6.66112 70.7199 7.50889L72.6366 8.08ZM77.5728 17.4271L76.9928 15.4871L73.1604 16.6329L73.7404 18.5729L77.5728 17.4271ZM75.0766 14.06H70.2566V18.06H75.0766V14.06ZM68.3404 15.4871L67.7604 17.4271L71.5928 18.5729L72.1728 16.6329L68.3404 15.4871ZM69.6766 16H65.1566V20H69.6766V16ZM67.0355 18.6855L72.0555 4.92546L68.2978 3.55454L63.2778 17.3145L67.0355 18.6855ZM70.1766 6.24H75.3166V2.24H70.1766V6.24ZM73.4378 4.92546L78.4578 18.6855L82.2155 17.3145L77.1955 3.55454L73.4378 4.92546ZM80.3366 16H75.6566V20H80.3366V16ZM71.1766 14.98H74.1566V10.98H71.1766V14.98ZM76.0755 12.4161L74.6355 7.51609L70.7978 8.64391L72.2378 13.5439L76.0755 12.4161ZM72.7166 6.08H72.6366V10.08H72.7166V6.08ZM70.7199 7.50889L69.2599 12.4089L73.0934 13.5511L74.5534 8.65111L70.7199 7.50889ZM91.443 18L89.9306 19.3087C90.3105 19.7477 90.8625 20 91.443 20V18ZM85.663 11.32L87.1755 10.0113C86.6289 9.37972 85.7475 9.15424 84.9648 9.44585C84.1821 9.73746 83.663 10.4848 83.663 11.32H85.663ZM85.663 18V20C86.7676 20 87.663 19.1046 87.663 18H85.663ZM81.6031 18H79.6031C79.6031 19.1046 80.4985 20 81.6031 20V18ZM81.6031 4.24V2.24C80.4985 2.24 79.6031 3.13543 79.6031 4.24H81.6031ZM85.4631 4.24L86.985 2.94249C86.605 2.49676 86.0488 2.24 85.4631 2.24V4.24ZM91.243 11.02L89.7211 12.3175C90.2647 12.9552 91.1482 13.1864 91.9344 12.8967C92.7207 12.607 93.243 11.8579 93.243 11.02H91.243ZM91.243 4.24V2.24C90.1385 2.24 89.243 3.13543 89.243 4.24H91.243ZM95.303 4.24H97.303C97.303 3.13543 96.4076 2.24 95.303 2.24V4.24ZM95.303 18V20C96.4076 20 97.303 19.1046 97.303 18H95.303ZM92.9555 16.6913L87.1755 10.0113L84.1506 12.6287L89.9306 19.3087L92.9555 16.6913ZM83.663 11.32V18H87.663V11.32H83.663ZM85.663 16H81.6031V20H85.663V16ZM83.6031 18V4.24H79.6031V18H83.6031ZM81.6031 6.24H85.4631V2.24H81.6031V6.24ZM83.9411 5.53751L89.7211 12.3175L92.765 9.72249L86.985 2.94249L83.9411 5.53751ZM93.243 11.02V4.24H89.243V11.02H93.243ZM91.243 6.24H95.303V2.24H91.243V6.24ZM93.303 4.24V18H97.303V4.24H93.303ZM95.303 16H91.443V20H95.303V16ZM112.663 18V20C113.768 20 114.663 19.1046 114.663 18H112.663ZM108.243 18H106.243C106.243 19.1046 107.139 20 108.243 20V18ZM108.243 12.66H110.243C110.243 12.2738 110.132 11.8959 109.921 11.5718L108.243 12.66ZM102.783 4.24V2.24C102.05 2.24 101.376 2.64101 101.026 3.28509C100.676 3.92918 100.706 4.71312 101.105 5.32815L102.783 4.24ZM107.863 4.24L109.596 3.24121C109.239 2.62173 108.578 2.24 107.863 2.24V4.24ZM110.503 8.82L108.771 9.81879C109.128 10.4383 109.788 10.82 110.503 10.82V8.82ZM110.583 8.82V10.82C111.298 10.82 111.959 10.4383 112.316 9.81879L110.583 8.82ZM113.223 4.24V2.24C112.508 2.24 111.848 2.62173 111.491 3.24121L113.223 4.24ZM118.043 4.24L119.729 5.31686C120.122 4.70118 120.148 3.91999 119.797 3.2792C119.446 2.6384 118.774 2.24 118.043 2.24V4.24ZM112.663 12.66L110.978 11.5831C110.773 11.9047 110.663 12.2784 110.663 12.66H112.663ZM112.663 16H108.243V20H112.663V16ZM110.243 18V12.66H106.243V18H110.243ZM109.921 11.5718L104.461 3.15184L101.105 5.32815L106.565 13.7482L109.921 11.5718ZM102.783 6.24H107.863V2.24H102.783V6.24ZM106.131 5.23879L108.771 9.81879L112.236 7.82121L109.596 3.24121L106.131 5.23879ZM110.503 10.82H110.583V6.82H110.503V10.82ZM112.316 9.81879L114.956 5.23879L111.491 3.24121L108.851 7.82121L112.316 9.81879ZM113.223 6.24H118.043V2.24H113.223V6.24ZM116.358 3.16314L110.978 11.5831L114.349 13.7369L119.729 5.31686L116.358 3.16314ZM110.663 12.66V18H114.663V12.66H110.663ZM131.21 16.76L129.931 15.2221V15.2221L131.21 16.76ZM121.07 16.76L119.791 18.2979L119.8 18.3049L121.07 16.76ZM119.29 4.24V2.24C118.185 2.24 117.29 3.13543 117.29 4.24H119.29ZM123.71 4.24H125.71C125.71 3.13543 124.814 2.24 123.71 2.24V4.24ZM124.33 14.26L122.833 15.5861C122.839 15.5933 122.845 15.6004 122.852 15.6075L124.33 14.26ZM127.93 14.24L126.454 12.8905C126.447 12.8982 126.44 12.9061 126.433 12.9139L127.93 14.24ZM128.57 4.24V2.24C127.465 2.24 126.57 3.13543 126.57 4.24H128.57ZM132.99 4.24H134.99C134.99 3.13543 134.094 2.24 132.99 2.24V4.24ZM130.99 12.46C130.99 13.8881 130.562 14.698 129.931 15.2221L132.488 18.2979C134.231 16.8487 134.99 14.7919 134.99 12.46H130.99ZM129.931 15.2221C129.228 15.8071 128.061 16.24 126.15 16.24V20.24C128.612 20.24 130.819 19.6862 132.488 18.2979L129.931 15.2221ZM126.15 16.24C124.24 16.24 123.061 15.8078 122.34 15.2151L119.8 18.3049C121.479 19.6855 123.686 20.24 126.15 20.24V16.24ZM122.348 15.2221C121.718 14.698 121.29 13.8881 121.29 12.46H117.29C117.29 14.7919 118.048 16.8487 119.791 18.2979L122.348 15.2221ZM121.29 12.46V4.24H117.29V12.46H121.29ZM119.29 6.24H123.71V2.24H119.29V6.24ZM121.71 4.24V12.4H125.71V4.24H121.71ZM121.71 12.4C121.71 13.5397 122.023 14.6715 122.833 15.5861L125.827 12.9339C125.81 12.9152 125.71 12.8069 125.71 12.4H121.71ZM122.852 15.6075C123.745 16.5867 124.949 16.94 126.13 16.94V12.94C125.925 12.94 125.826 12.9102 125.797 12.8991C125.777 12.8918 125.792 12.8957 125.808 12.9125L122.852 15.6075ZM126.13 16.94C127.328 16.94 128.539 16.5687 129.427 15.5661L126.433 12.9139C126.435 12.9115 126.44 12.9059 126.448 12.9007C126.455 12.8956 126.456 12.8966 126.445 12.901C126.421 12.9103 126.329 12.94 126.13 12.94V16.94ZM129.406 15.5895C130.235 14.6826 130.57 13.553 130.57 12.4H126.57C126.57 12.767 126.478 12.8641 126.454 12.8905L129.406 15.5895ZM130.57 12.4V4.24H126.57V12.4H130.57ZM128.57 6.24H132.99V2.24H128.57V6.24ZM130.99 4.24V12.46H134.99V4.24H130.99ZM150.71 17.02L149.438 15.4767L149.428 15.4853L150.71 17.02ZM142.25 17.02L140.968 18.5548L140.978 18.5633L142.25 17.02ZM140.79 13.04V11.04C139.686 11.04 138.79 11.9354 138.79 13.04H140.79ZM144.93 13.04H146.93C146.93 11.9354 146.035 11.04 144.93 11.04V13.04ZM145.27 14.54L143.746 15.8353C143.758 15.8497 143.771 15.8639 143.783 15.8779L145.27 14.54ZM147.41 14.54L145.923 13.2021C145.911 13.2161 145.898 13.2303 145.886 13.2447L147.41 14.54ZM147.77 4.24V2.24C146.666 2.24 145.77 3.13543 145.77 4.24H147.77ZM152.19 4.24H154.19C154.19 3.13543 153.295 2.24 152.19 2.24V4.24ZM150.19 13.22C150.19 14.5619 149.818 15.1636 149.438 15.4767L151.982 18.5633C153.576 17.2497 154.19 15.3181 154.19 13.22H150.19ZM149.428 15.4853C148.946 15.8881 148.067 16.24 146.49 16.24V20.24C148.593 20.24 150.528 19.7786 151.993 18.5547L149.428 15.4853ZM146.49 16.24C144.915 16.24 144.022 15.889 143.522 15.4767L140.978 18.5633C142.451 19.7776 144.385 20.24 146.49 20.24V16.24ZM143.533 15.4853C143.161 15.1749 142.79 14.5705 142.79 13.22H138.79C138.79 15.3095 139.392 17.2384 140.968 18.5547L143.533 15.4853ZM142.79 13.22V13.04H138.79V13.22H142.79ZM140.79 15.04H144.93V11.04H140.79V15.04ZM142.93 13.04V13.2H146.93V13.04H142.93ZM142.93 13.2C142.93 13.9654 143.049 15.0145 143.746 15.8353L146.794 13.2447C146.863 13.3259 146.904 13.3982 146.927 13.4457C146.949 13.4924 146.955 13.5182 146.954 13.5131C146.952 13.5082 146.946 13.481 146.94 13.4262C146.935 13.3719 146.93 13.2974 146.93 13.2H142.93ZM143.783 15.8779C144.519 16.6954 145.504 16.94 146.35 16.94V12.94C146.29 12.94 146.325 12.9311 146.415 12.9645C146.516 13.0022 146.645 13.078 146.757 13.2021L143.783 15.8779ZM146.35 16.94C147.188 16.94 148.201 16.6981 148.934 15.8353L145.886 13.2447C146.009 13.0997 146.154 13.012 146.269 12.9688C146.37 12.9307 146.411 12.94 146.35 12.94V16.94ZM148.897 15.8779C149.639 15.0536 149.77 13.9842 149.77 13.2H145.77C145.77 13.2939 145.766 13.3642 145.76 13.414C145.754 13.4642 145.749 13.4863 145.749 13.4861C145.749 13.4859 145.757 13.4554 145.782 13.4052C145.808 13.3538 145.852 13.2811 145.923 13.2021L148.897 15.8779ZM149.77 13.2V4.24H145.77V13.2H149.77ZM147.77 6.24H152.19V2.24H147.77V6.24ZM150.19 4.24V13.22H154.19V4.24H150.19ZM154.95 18H152.95C152.95 19.1046 153.845 20 154.95 20V18ZM154.95 4.24V2.24C153.845 2.24 152.95 3.13543 152.95 4.24H154.95ZM159.37 4.24H161.37C161.37 3.13543 160.475 2.24 159.37 2.24V4.24ZM159.37 18V20C160.475 20 161.37 19.1046 161.37 18H159.37ZM156.95 18V4.24H152.95V18H156.95ZM154.95 6.24H159.37V2.24H154.95V6.24ZM157.37 4.24V18H161.37V4.24H157.37ZM159.37 16H154.95V20H159.37V16ZM171.963 18L170.451 19.3087C170.831 19.7477 171.383 20 171.963 20V18ZM166.183 11.32L167.696 10.0113C167.149 9.37972 166.268 9.15424 165.485 9.44585C164.702 9.73746 164.183 10.4848 164.183 11.32H166.183ZM166.183 18V20C167.288 20 168.183 19.1046 168.183 18H166.183ZM162.123 18H160.123C160.123 19.1046 161.019 20 162.123 20V18ZM162.123 4.24V2.24C161.019 2.24 160.123 3.13543 160.123 4.24H162.123ZM165.983 4.24L167.505 2.94249C167.125 2.49676 166.569 2.24 165.983 2.24V4.24ZM171.763 11.02L170.241 12.3175C170.785 12.9552 171.668 13.1864 172.455 12.8967C173.241 12.607 173.763 11.8579 173.763 11.02H171.763ZM171.763 4.24V2.24C170.659 2.24 169.763 3.13543 169.763 4.24H171.763ZM175.823 4.24H177.823C177.823 3.13543 176.928 2.24 175.823 2.24V4.24ZM175.823 18V20C176.928 20 177.823 19.1046 177.823 18H175.823ZM173.476 16.6913L167.696 10.0113L164.671 12.6287L170.451 19.3087L173.476 16.6913ZM164.183 11.32V18H168.183V11.32H164.183ZM166.183 16H162.123V20H166.183V16ZM164.123 18V4.24H160.123V18H164.123ZM162.123 6.24H165.983V2.24H162.123V6.24ZM164.461 5.53751L170.241 12.3175L173.285 9.72249L167.505 2.94249L164.461 5.53751ZM173.763 11.02V4.24H169.763V11.02H173.763ZM171.763 6.24H175.823V2.24H171.763V6.24ZM173.823 4.24V18H177.823V4.24H173.823ZM175.823 16H171.963V20H175.823V16Z" fill="white" mask="url(#path-3-outside-2_2005_2932)"/>
</svg>
